  0
SECTION
  2
HEADER
  9
$ANGBASE
  50
0.0
  9
$ANGDIR
  70
1
  9
$MEASUREMENT
  70
1
  0
ENDSEC
  0
SECTION
  2
TABLES
  0
TABLE
  2
LTYPE
  70
4
  0
LTYPE
  5
40F
  2
CONTINUOUS
  70
0
  3
Solid line
  72
65
  73
0
  40
0.0
  0
LTYPE
  5
410
  2
DASHDOT
 70
0
  3
Dash Dot ____ _ ____ _
 72
65
 73
4
 40
2.0
 49
1.25
 49
-0.25
 49
0.25
 49
-0.25
  0
LTYPE
  5
411
  2
DASHED
 70
0
  3
Dashed __ __ __ __ __
 72
65
 73
2
 40
0.75
 49
0.5
 49
-0.25
  0
LTYPE
  5
43B
  2
DOTTED
 70
0
  3
Dotted .  .  .  .
 72
65
 73
2
 40
0.2
 49
0.0
 49
-0.2
  0
ENDTAB
  0
TABLE
  2
STYLE
  70
4
  0
STYLE
  2
KICAD
  70
0
  40
0
  41
1
  42
1
  50
0
  71
0
  3
isocp.shx
  0
STYLE
  2
KICADB
  70
0
  40
0
  41
1
  42
1
  50
0
  71
0
  3
isocp.shx
  0
STYLE
  2
KICADI
  70
0
  40
0
  41
1
  42
1
  50
15
  71
0
  3
isocp.shx
  0
STYLE
  2
KICADBI
  70
0
  40
0
  41
1
  42
1
  50
15
  71
0
  3
isocp.shx
  0
ENDTAB
  0
TABLE
  2
LAYER
  70
1
  0
LAYER
  2
BLACK
  70
0
  62
7
  6
CONTINUOUS
  0
ENDTAB
  0
ENDSEC
  0
SECTION
  2
ENTITIES
0
LINE
8
BLACK
6
CONTINUOUS
10
166
20
-100
11
130
21
-100
0
LINE
8
BLACK
6
CONTINUOUS
10
130
20
-130
11
166
21
-130
0
LINE
8
BLACK
6
CONTINUOUS
10
166
20
-130
11
166
21
-100
0
LINE
8
BLACK
6
CONTINUOUS
10
130
20
-100
11
130
21
-130
0
LINE
8
BLACK
6
CONTINUOUS
10
143.99
20
-125.89
11
144.51
21
-126.41
0
LINE
8
BLACK
6
CONTINUOUS
10
144.51
20
-125.89
11
143.99
21
-126.41
0
LINE
8
BLACK
6
CONTINUOUS
10
151.49
20
-125.89
11
152.01
21
-126.41
0
LINE
8
BLACK
6
CONTINUOUS
10
152.01
20
-125.89
11
151.49
21
-126.41
0
LINE
8
BLACK
6
CONTINUOUS
10
151.65
20
-126.41
11
151.85
21
-126.41
0
ARC
8
BLACK
10
151.85
20
-126.15
40
0.26
50
270
51
450
0
LINE
8
BLACK
6
CONTINUOUS
10
151.85
20
-125.89
11
151.65
21
-125.89
0
ARC
8
BLACK
10
151.65
20
-126.15
40
0.26
50
90
51
270
0
LINE
8
BLACK
6
CONTINUOUS
10
132.558
20
-133.165
11
132.558
21
-131.165
0
LINE
8
BLACK
6
CONTINUOUS
10
132.558
20
-131.165
11
133.034
21
-131.165
0
LINE
8
BLACK
6
CONTINUOUS
10
133.034
20
-131.165
11
133.32
21
-131.26
0
LINE
8
BLACK
6
CONTINUOUS
10
133.32
20
-131.26
11
133.51
21
-131.451
0
LINE
8
BLACK
6
CONTINUOUS
10
133.51
20
-131.451
11
133.605
21
-131.641
0
LINE
8
BLACK
6
CONTINUOUS
10
133.605
20
-131.641
11
133.701
21
-132.022
0
LINE
8
BLACK
6
CONTINUOUS
10
133.701
20
-132.022
11
133.701
21
-132.308
0
LINE
8
BLACK
6
CONTINUOUS
10
133.701
20
-132.308
11
133.605
21
-132.689
0
LINE
8
BLACK
6
CONTINUOUS
10
133.605
20
-132.689
11
133.51
21
-132.879
0
LINE
8
BLACK
6
CONTINUOUS
10
133.51
20
-132.879
11
133.32
21
-133.07
0
LINE
8
BLACK
6
CONTINUOUS
10
133.32
20
-133.07
11
133.034
21
-133.165
0
LINE
8
BLACK
6
CONTINUOUS
10
133.034
20
-133.165
11
132.558
21
-133.165
0
LINE
8
BLACK
6
CONTINUOUS
10
134.558
20
-133.165
11
134.558
21
-131.832
0
LINE
8
BLACK
6
CONTINUOUS
10
134.558
20
-132.212
11
134.653
21
-132.022
0
LINE
8
BLACK
6
CONTINUOUS
10
134.653
20
-132.022
11
134.748
21
-131.927
0
LINE
8
BLACK
6
CONTINUOUS
10
134.748
20
-131.927
11
134.939
21
-131.832
0
LINE
8
BLACK
6
CONTINUOUS
10
134.939
20
-131.832
11
135.129
21
-131.832
0
LINE
8
BLACK
6
CONTINUOUS
10
135.796
20
-133.165
11
135.796
21
-131.832
0
LINE
8
BLACK
6
CONTINUOUS
10
135.796
20
-131.165
11
135.701
21
-131.26
0
LINE
8
BLACK
6
CONTINUOUS
10
135.701
20
-131.26
11
135.796
21
-131.355
0
LINE
8
BLACK
6
CONTINUOUS
10
135.796
20
-131.355
11
135.891
21
-131.26
0
LINE
8
BLACK
6
CONTINUOUS
10
135.891
20
-131.26
11
135.796
21
-131.165
0
LINE
8
BLACK
6
CONTINUOUS
10
135.796
20
-131.165
11
135.796
21
-131.355
0
LINE
8
BLACK
6
CONTINUOUS
10
137.034
20
-133.165
11
136.843
21
-133.07
0
LINE
8
BLACK
6
CONTINUOUS
10
136.843
20
-133.07
11
136.748
21
-132.879
0
LINE
8
BLACK
6
CONTINUOUS
10
136.748
20
-132.879
11
136.748
21
-131.165
0
LINE
8
BLACK
6
CONTINUOUS
10
138.082
20
-133.165
11
137.891
21
-133.07
0
LINE
8
BLACK
6
CONTINUOUS
10
137.891
20
-133.07
11
137.796
21
-132.879
0
LINE
8
BLACK
6
CONTINUOUS
10
137.796
20
-132.879
11
137.796
21
-131.165
0
LINE
8
BLACK
6
CONTINUOUS
10
140.367
20
-133.165
11
140.367
21
-131.165
0
LINE
8
BLACK
6
CONTINUOUS
10
140.367
20
-131.165
11
141.034
21
-132.593
0
LINE
8
BLACK
6
CONTINUOUS
10
141.034
20
-132.593
11
141.701
21
-131.165
0
LINE
8
BLACK
6
CONTINUOUS
10
141.701
20
-131.165
11
141.701
21
-133.165
0
LINE
8
BLACK
6
CONTINUOUS
10
143.51
20
-133.165
11
143.51
21
-132.117
0
LINE
8
BLACK
6
CONTINUOUS
10
143.51
20
-132.117
11
143.415
21
-131.927
0
LINE
8
BLACK
6
CONTINUOUS
10
143.415
20
-131.927
11
143.224
21
-131.832
0
LINE
8
BLACK
6
CONTINUOUS
10
143.224
20
-131.832
11
142.843
21
-131.832
0
LINE
8
BLACK
6
CONTINUOUS
10
142.843
20
-131.832
11
142.653
21
-131.927
0
LINE
8
BLACK
6
CONTINUOUS
10
143.51
20
-133.07
11
143.32
21
-133.165
0
LINE
8
BLACK
6
CONTINUOUS
10
143.32
20
-133.165
11
142.843
21
-133.165
0
LINE
8
BLACK
6
CONTINUOUS
10
142.843
20
-133.165
11
142.653
21
-133.07
0
LINE
8
BLACK
6
CONTINUOUS
10
142.653
20
-133.07
11
142.558
21
-132.879
0
LINE
8
BLACK
6
CONTINUOUS
10
142.558
20
-132.879
11
142.558
21
-132.689
0
LINE
8
BLACK
6
CONTINUOUS
10
142.558
20
-132.689
11
142.653
21
-132.498
0
LINE
8
BLACK
6
CONTINUOUS
10
142.653
20
-132.498
11
142.843
21
-132.403
0
LINE
8
BLACK
6
CONTINUOUS
10
142.843
20
-132.403
11
143.32
21
-132.403
0
LINE
8
BLACK
6
CONTINUOUS
10
143.32
20
-132.403
11
143.51
21
-132.308
0
LINE
8
BLACK
6
CONTINUOUS
10
144.463
20
-131.832
11
144.463
21
-133.832
0
LINE
8
BLACK
6
CONTINUOUS
10
144.463
20
-131.927
11
144.653
21
-131.832
0
LINE
8
BLACK
6
CONTINUOUS
10
144.653
20
-131.832
11
145.034
21
-131.832
0
LINE
8
BLACK
6
CONTINUOUS
10
145.034
20
-131.832
11
145.224
21
-131.927
0
LINE
8
BLACK
6
CONTINUOUS
10
145.224
20
-131.927
11
145.32
21
-132.022
0
LINE
8
BLACK
6
CONTINUOUS
10
145.32
20
-132.022
11
145.415
21
-132.212
0
LINE
8
BLACK
6
CONTINUOUS
10
145.415
20
-132.212
11
145.415
21
-132.784
0
LINE
8
BLACK
6
CONTINUOUS
10
145.415
20
-132.784
11
145.32
21
-132.974
0
LINE
8
BLACK
6
CONTINUOUS
10
145.32
20
-132.974
11
145.224
21
-133.07
0
LINE
8
BLACK
6
CONTINUOUS
10
145.224
20
-133.07
11
145.034
21
-133.165
0
LINE
8
BLACK
6
CONTINUOUS
10
145.034
20
-133.165
11
144.653
21
-133.165
0
LINE
8
BLACK
6
CONTINUOUS
10
144.653
20
-133.165
11
144.463
21
-133.07
0
LINE
8
BLACK
6
CONTINUOUS
10
146.272
20
-132.974
11
146.367
21
-133.07
0
LINE
8
BLACK
6
CONTINUOUS
10
146.367
20
-133.07
11
146.272
21
-133.165
0
LINE
8
BLACK
6
CONTINUOUS
10
146.272
20
-133.165
11
146.177
21
-133.07
0
LINE
8
BLACK
6
CONTINUOUS
10
146.177
20
-133.07
11
146.272
21
-132.974
0
LINE
8
BLACK
6
CONTINUOUS
10
146.272
20
-132.974
11
146.272
21
-133.165
0
LINE
8
BLACK
6
CONTINUOUS
10
146.272
20
-131.927
11
146.367
21
-132.022
0
LINE
8
BLACK
6
CONTINUOUS
10
146.367
20
-132.022
11
146.272
21
-132.117
0
LINE
8
BLACK
6
CONTINUOUS
10
146.272
20
-132.117
11
146.177
21
-132.022
0
LINE
8
BLACK
6
CONTINUOUS
10
146.177
20
-132.022
11
146.272
21
-131.927
0
LINE
8
BLACK
6
CONTINUOUS
10
146.272
20
-131.927
11
146.272
21
-132.117
0
LINE
8
BLACK
6
CONTINUOUS
10
129.43
20
-136.19
11
129.95
21
-136.71
0
LINE
8
BLACK
6
CONTINUOUS
10
129.95
20
-136.19
11
129.43
21
-136.71
0
LINE
8
BLACK
6
CONTINUOUS
10
132.939
20
-135.365
11
133.129
21
-135.365
0
LINE
8
BLACK
6
CONTINUOUS
10
133.129
20
-135.365
11
133.32
21
-135.46
0
LINE
8
BLACK
6
CONTINUOUS
10
133.32
20
-135.46
11
133.415
21
-135.555
0
LINE
8
BLACK
6
CONTINUOUS
10
133.415
20
-135.555
11
133.51
21
-135.746
0
LINE
8
BLACK
6
CONTINUOUS
10
133.51
20
-135.746
11
133.605
21
-136.127
0
LINE
8
BLACK
6
CONTINUOUS
10
133.605
20
-136.127
11
133.605
21
-136.603
0
LINE
8
BLACK
6
CONTINUOUS
10
133.605
20
-136.603
11
133.51
21
-136.984
0
LINE
8
BLACK
6
CONTINUOUS
10
133.51
20
-136.984
11
133.415
21
-137.174
0
LINE
8
BLACK
6
CONTINUOUS
10
133.415
20
-137.174
11
133.32
21
-137.27
0
LINE
8
BLACK
6
CONTINUOUS
10
133.32
20
-137.27
11
133.129
21
-137.365
0
LINE
8
BLACK
6
CONTINUOUS
10
133.129
20
-137.365
11
132.939
21
-137.365
0
LINE
8
BLACK
6
CONTINUOUS
10
132.939
20
-137.365
11
132.748
21
-137.27
0
LINE
8
BLACK
6
CONTINUOUS
10
132.748
20
-137.27
11
132.653
21
-137.174
0
LINE
8
BLACK
6
CONTINUOUS
10
132.653
20
-137.174
11
132.558
21
-136.984
0
LINE
8
BLACK
6
CONTINUOUS
10
132.558
20
-136.984
11
132.463
21
-136.603
0
LINE
8
BLACK
6
CONTINUOUS
10
132.463
20
-136.603
11
132.463
21
-136.127
0
LINE
8
BLACK
6
CONTINUOUS
10
132.463
20
-136.127
11
132.558
21
-135.746
0
LINE
8
BLACK
6
CONTINUOUS
10
132.558
20
-135.746
11
132.653
21
-135.555
0
LINE
8
BLACK
6
CONTINUOUS
10
132.653
20
-135.555
11
132.748
21
-135.46
0
LINE
8
BLACK
6
CONTINUOUS
10
132.748
20
-135.46
11
132.939
21
-135.365
0
LINE
8
BLACK
6
CONTINUOUS
10
134.463
20
-137.174
11
134.558
21
-137.27
0
LINE
8
BLACK
6
CONTINUOUS
10
134.558
20
-137.27
11
134.463
21
-137.365
0
LINE
8
BLACK
6
CONTINUOUS
10
134.463
20
-137.365
11
134.367
21
-137.27
0
LINE
8
BLACK
6
CONTINUOUS
10
134.367
20
-137.27
11
134.463
21
-137.174
0
LINE
8
BLACK
6
CONTINUOUS
10
134.463
20
-137.174
11
134.463
21
-137.365
0
LINE
8
BLACK
6
CONTINUOUS
10
136.367
20
-135.365
11
135.415
21
-135.365
0
LINE
8
BLACK
6
CONTINUOUS
10
135.415
20
-135.365
11
135.32
21
-136.317
0
LINE
8
BLACK
6
CONTINUOUS
10
135.32
20
-136.317
11
135.415
21
-136.222
0
LINE
8
BLACK
6
CONTINUOUS
10
135.415
20
-136.222
11
135.605
21
-136.127
0
LINE
8
BLACK
6
CONTINUOUS
10
135.605
20
-136.127
11
136.082
21
-136.127
0
LINE
8
BLACK
6
CONTINUOUS
10
136.082
20
-136.127
11
136.272
21
-136.222
0
LINE
8
BLACK
6
CONTINUOUS
10
136.272
20
-136.222
11
136.367
21
-136.317
0
LINE
8
BLACK
6
CONTINUOUS
10
136.367
20
-136.317
11
136.463
21
-136.508
0
LINE
8
BLACK
6
CONTINUOUS
10
136.463
20
-136.508
11
136.463
21
-136.984
0
LINE
8
BLACK
6
CONTINUOUS
10
136.463
20
-136.984
11
136.367
21
-137.174
0
LINE
8
BLACK
6
CONTINUOUS
10
136.367
20
-137.174
11
136.272
21
-137.27
0
LINE
8
BLACK
6
CONTINUOUS
10
136.272
20
-137.27
11
136.082
21
-137.365
0
LINE
8
BLACK
6
CONTINUOUS
10
136.082
20
-137.365
11
135.605
21
-137.365
0
LINE
8
BLACK
6
CONTINUOUS
10
135.605
20
-137.365
11
135.415
21
-137.27
0
LINE
8
BLACK
6
CONTINUOUS
10
135.415
20
-137.27
11
135.32
21
-137.174
0
LINE
8
BLACK
6
CONTINUOUS
10
137.224
20
-135.555
11
137.32
21
-135.46
0
LINE
8
BLACK
6
CONTINUOUS
10
137.32
20
-135.46
11
137.51
21
-135.365
0
LINE
8
BLACK
6
CONTINUOUS
10
137.51
20
-135.365
11
137.986
21
-135.365
0
LINE
8
BLACK
6
CONTINUOUS
10
137.986
20
-135.365
11
138.177
21
-135.46
0
LINE
8
BLACK
6
CONTINUOUS
10
138.177
20
-135.46
11
138.272
21
-135.555
0
LINE
8
BLACK
6
CONTINUOUS
10
138.272
20
-135.555
11
138.367
21
-135.746
0
LINE
8
BLACK
6
CONTINUOUS
10
138.367
20
-135.746
11
138.367
21
-135.936
0
LINE
8
BLACK
6
CONTINUOUS
10
138.367
20
-135.936
11
138.272
21
-136.222
0
LINE
8
BLACK
6
CONTINUOUS
10
138.272
20
-136.222
11
137.129
21
-137.365
0
LINE
8
BLACK
6
CONTINUOUS
10
137.129
20
-137.365
11
138.367
21
-137.365
0
LINE
8
BLACK
6
CONTINUOUS
10
139.605
20
-135.365
11
139.796
21
-135.365
0
LINE
8
BLACK
6
CONTINUOUS
10
139.796
20
-135.365
11
139.986
21
-135.46
0
LINE
8
BLACK
6
CONTINUOUS
10
139.986
20
-135.46
11
140.082
21
-135.555
0
LINE
8
BLACK
6
CONTINUOUS
10
140.082
20
-135.555
11
140.177
21
-135.746
0
LINE
8
BLACK
6
CONTINUOUS
10
140.177
20
-135.746
11
140.272
21
-136.127
0
LINE
8
BLACK
6
CONTINUOUS
10
140.272
20
-136.127
11
140.272
21
-136.603
0
LINE
8
BLACK
6
CONTINUOUS
10
140.272
20
-136.603
11
140.177
21
-136.984
0
LINE
8
BLACK
6
CONTINUOUS
10
140.177
20
-136.984
11
140.082
21
-137.174
0
LINE
8
BLACK
6
CONTINUOUS
10
140.082
20
-137.174
11
139.986
21
-137.27
0
LINE
8
BLACK
6
CONTINUOUS
10
139.986
20
-137.27
11
139.796
21
-137.365
0
LINE
8
BLACK
6
CONTINUOUS
10
139.796
20
-137.365
11
139.605
21
-137.365
0
LINE
8
BLACK
6
CONTINUOUS
10
139.605
20
-137.365
11
139.415
21
-137.27
0
LINE
8
BLACK
6
CONTINUOUS
10
139.415
20
-137.27
11
139.32
21
-137.174
0
LINE
8
BLACK
6
CONTINUOUS
10
139.32
20
-137.174
11
139.224
21
-136.984
0
LINE
8
BLACK
6
CONTINUOUS
10
139.224
20
-136.984
11
139.129
21
-136.603
0
LINE
8
BLACK
6
CONTINUOUS
10
139.129
20
-136.603
11
139.129
21
-136.127
0
LINE
8
BLACK
6
CONTINUOUS
10
139.129
20
-136.127
11
139.224
21
-135.746
0
LINE
8
BLACK
6
CONTINUOUS
10
139.224
20
-135.746
11
139.32
21
-135.555
0
LINE
8
BLACK
6
CONTINUOUS
10
139.32
20
-135.555
11
139.415
21
-135.46
0
LINE
8
BLACK
6
CONTINUOUS
10
139.415
20
-135.46
11
139.605
21
-135.365
0
LINE
8
BLACK
6
CONTINUOUS
10
141.129
20
-137.365
11
141.129
21
-136.032
0
LINE
8
BLACK
6
CONTINUOUS
10
141.129
20
-136.222
11
141.224
21
-136.127
0
LINE
8
BLACK
6
CONTINUOUS
10
141.224
20
-136.127
11
141.415
21
-136.032
0
LINE
8
BLACK
6
CONTINUOUS
10
141.415
20
-136.032
11
141.701
21
-136.032
0
LINE
8
BLACK
6
CONTINUOUS
10
141.701
20
-136.032
11
141.891
21
-136.127
0
LINE
8
BLACK
6
CONTINUOUS
10
141.891
20
-136.127
11
141.986
21
-136.317
0
LINE
8
BLACK
6
CONTINUOUS
10
141.986
20
-136.317
11
141.986
21
-137.365
0
LINE
8
BLACK
6
CONTINUOUS
10
141.986
20
-136.317
11
142.082
21
-136.127
0
LINE
8
BLACK
6
CONTINUOUS
10
142.082
20
-136.127
11
142.272
21
-136.032
0
LINE
8
BLACK
6
CONTINUOUS
10
142.272
20
-136.032
11
142.558
21
-136.032
0
LINE
8
BLACK
6
CONTINUOUS
10
142.558
20
-136.032
11
142.748
21
-136.127
0
LINE
8
BLACK
6
CONTINUOUS
10
142.748
20
-136.127
11
142.843
21
-136.317
0
LINE
8
BLACK
6
CONTINUOUS
10
142.843
20
-136.317
11
142.843
21
-137.365
0
LINE
8
BLACK
6
CONTINUOUS
10
143.796
20
-137.365
11
143.796
21
-136.032
0
LINE
8
BLACK
6
CONTINUOUS
10
143.796
20
-136.222
11
143.891
21
-136.127
0
LINE
8
BLACK
6
CONTINUOUS
10
143.891
20
-136.127
11
144.082
21
-136.032
0
LINE
8
BLACK
6
CONTINUOUS
10
144.082
20
-136.032
11
144.367
21
-136.032
0
LINE
8
BLACK
6
CONTINUOUS
10
144.367
20
-136.032
11
144.558
21
-136.127
0
LINE
8
BLACK
6
CONTINUOUS
10
144.558
20
-136.127
11
144.653
21
-136.317
0
LINE
8
BLACK
6
CONTINUOUS
10
144.653
20
-136.317
11
144.653
21
-137.365
0
LINE
8
BLACK
6
CONTINUOUS
10
144.653
20
-136.317
11
144.748
21
-136.127
0
LINE
8
BLACK
6
CONTINUOUS
10
144.748
20
-136.127
11
144.939
21
-136.032
0
LINE
8
BLACK
6
CONTINUOUS
10
144.939
20
-136.032
11
145.224
21
-136.032
0
LINE
8
BLACK
6
CONTINUOUS
10
145.224
20
-136.032
11
145.415
21
-136.127
0
LINE
8
BLACK
6
CONTINUOUS
10
145.415
20
-136.127
11
145.51
21
-136.317
0
LINE
8
BLACK
6
CONTINUOUS
10
145.51
20
-136.317
11
145.51
21
-137.365
0
LINE
8
BLACK
6
CONTINUOUS
10
149.415
20
-135.27
11
147.701
21
-137.841
0
LINE
8
BLACK
6
CONTINUOUS
10
151.986
20
-135.365
11
152.177
21
-135.365
0
LINE
8
BLACK
6
CONTINUOUS
10
152.177
20
-135.365
11
152.367
21
-135.46
0
LINE
8
BLACK
6
CONTINUOUS
10
152.367
20
-135.46
11
152.463
21
-135.555
0
LINE
8
BLACK
6
CONTINUOUS
10
152.463
20
-135.555
11
152.558
21
-135.746
0
LINE
8
BLACK
6
CONTINUOUS
10
152.558
20
-135.746
11
152.653
21
-136.127
0
LINE
8
BLACK
6
CONTINUOUS
10
152.653
20
-136.127
11
152.653
21
-136.603
0
LINE
8
BLACK
6
CONTINUOUS
10
152.653
20
-136.603
11
152.558
21
-136.984
0
LINE
8
BLACK
6
CONTINUOUS
10
152.558
20
-136.984
11
152.463
21
-137.174
0
LINE
8
BLACK
6
CONTINUOUS
10
152.463
20
-137.174
11
152.367
21
-137.27
0
LINE
8
BLACK
6
CONTINUOUS
10
152.367
20
-137.27
11
152.177
21
-137.365
0
LINE
8
BLACK
6
CONTINUOUS
10
152.177
20
-137.365
11
151.986
21
-137.365
0
LINE
8
BLACK
6
CONTINUOUS
10
151.986
20
-137.365
11
151.796
21
-137.27
0
LINE
8
BLACK
6
CONTINUOUS
10
151.796
20
-137.27
11
151.701
21
-137.174
0
LINE
8
BLACK
6
CONTINUOUS
10
151.701
20
-137.174
11
151.605
21
-136.984
0
LINE
8
BLACK
6
CONTINUOUS
10
151.605
20
-136.984
11
151.51
21
-136.603
0
LINE
8
BLACK
6
CONTINUOUS
10
151.51
20
-136.603
11
151.51
21
-136.127
0
LINE
8
BLACK
6
CONTINUOUS
10
151.51
20
-136.127
11
151.605
21
-135.746
0
LINE
8
BLACK
6
CONTINUOUS
10
151.605
20
-135.746
11
151.701
21
-135.555
0
LINE
8
BLACK
6
CONTINUOUS
10
151.701
20
-135.555
11
151.796
21
-135.46
0
LINE
8
BLACK
6
CONTINUOUS
10
151.796
20
-135.46
11
151.986
21
-135.365
0
LINE
8
BLACK
6
CONTINUOUS
10
153.51
20
-137.174
11
153.605
21
-137.27
0
LINE
8
BLACK
6
CONTINUOUS
10
153.605
20
-137.27
11
153.51
21
-137.365
0
LINE
8
BLACK
6
CONTINUOUS
10
153.51
20
-137.365
11
153.415
21
-137.27
0
LINE
8
BLACK
6
CONTINUOUS
10
153.415
20
-137.27
11
153.51
21
-137.174
0
LINE
8
BLACK
6
CONTINUOUS
10
153.51
20
-137.174
11
153.51
21
-137.365
0
LINE
8
BLACK
6
CONTINUOUS
10
154.843
20
-135.365
11
155.034
21
-135.365
0
LINE
8
BLACK
6
CONTINUOUS
10
155.034
20
-135.365
11
155.224
21
-135.46
0
LINE
8
BLACK
6
CONTINUOUS
10
155.224
20
-135.46
11
155.32
21
-135.555
0
LINE
8
BLACK
6
CONTINUOUS
10
155.32
20
-135.555
11
155.415
21
-135.746
0
LINE
8
BLACK
6
CONTINUOUS
10
155.415
20
-135.746
11
155.51
21
-136.127
0
LINE
8
BLACK
6
CONTINUOUS
10
155.51
20
-136.127
11
155.51
21
-136.603
0
LINE
8
BLACK
6
CONTINUOUS
10
155.51
20
-136.603
11
155.415
21
-136.984
0
LINE
8
BLACK
6
CONTINUOUS
10
155.415
20
-136.984
11
155.32
21
-137.174
0
LINE
8
BLACK
6
CONTINUOUS
10
155.32
20
-137.174
11
155.224
21
-137.27
0
LINE
8
BLACK
6
CONTINUOUS
10
155.224
20
-137.27
11
155.034
21
-137.365
0
LINE
8
BLACK
6
CONTINUOUS
10
155.034
20
-137.365
11
154.843
21
-137.365
0
LINE
8
BLACK
6
CONTINUOUS
10
154.843
20
-137.365
11
154.653
21
-137.27
0
LINE
8
BLACK
6
CONTINUOUS
10
154.653
20
-137.27
11
154.558
21
-137.174
0
LINE
8
BLACK
6
CONTINUOUS
10
154.558
20
-137.174
11
154.463
21
-136.984
0
LINE
8
BLACK
6
CONTINUOUS
10
154.463
20
-136.984
11
154.367
21
-136.603
0
LINE
8
BLACK
6
CONTINUOUS
10
154.367
20
-136.603
11
154.367
21
-136.127
0
LINE
8
BLACK
6
CONTINUOUS
10
154.367
20
-136.127
11
154.463
21
-135.746
0
LINE
8
BLACK
6
CONTINUOUS
10
154.463
20
-135.746
11
154.558
21
-135.555
0
LINE
8
BLACK
6
CONTINUOUS
10
154.558
20
-135.555
11
154.653
21
-135.46
0
LINE
8
BLACK
6
CONTINUOUS
10
154.653
20
-135.46
11
154.843
21
-135.365
0
LINE
8
BLACK
6
CONTINUOUS
10
156.272
20
-135.555
11
156.367
21
-135.46
0
LINE
8
BLACK
6
CONTINUOUS
10
156.367
20
-135.46
11
156.558
21
-135.365
0
LINE
8
BLACK
6
CONTINUOUS
10
156.558
20
-135.365
11
157.034
21
-135.365
0
LINE
8
BLACK
6
CONTINUOUS
10
157.034
20
-135.365
11
157.224
21
-135.46
0
LINE
8
BLACK
6
CONTINUOUS
10
157.224
20
-135.46
11
157.32
21
-135.555
0
LINE
8
BLACK
6
CONTINUOUS
10
157.32
20
-135.555
11
157.415
21
-135.746
0
LINE
8
BLACK
6
CONTINUOUS
10
157.415
20
-135.746
11
157.415
21
-135.936
0
LINE
8
BLACK
6
CONTINUOUS
10
157.415
20
-135.936
11
157.32
21
-136.222
0
LINE
8
BLACK
6
CONTINUOUS
10
157.32
20
-136.222
11
156.177
21
-137.365
0
LINE
8
BLACK
6
CONTINUOUS
10
156.177
20
-137.365
11
157.415
21
-137.365
0
LINE
8
BLACK
6
CONTINUOUS
10
158.653
20
-135.365
11
158.843
21
-135.365
0
LINE
8
BLACK
6
CONTINUOUS
10
158.843
20
-135.365
11
159.034
21
-135.46
0
LINE
8
BLACK
6
CONTINUOUS
10
159.034
20
-135.46
11
159.129
21
-135.555
0
LINE
8
BLACK
6
CONTINUOUS
10
159.129
20
-135.555
11
159.224
21
-135.746
0
LINE
8
BLACK
6
CONTINUOUS
10
159.224
20
-135.746
11
159.32
21
-136.127
0
LINE
8
BLACK
6
CONTINUOUS
10
159.32
20
-136.127
11
159.32
21
-136.603
0
LINE
8
BLACK
6
CONTINUOUS
10
159.32
20
-136.603
11
159.224
21
-136.984
0
LINE
8
BLACK
6
CONTINUOUS
10
159.224
20
-136.984
11
159.129
21
-137.174
0
LINE
8
BLACK
6
CONTINUOUS
10
159.129
20
-137.174
11
159.034
21
-137.27
0
LINE
8
BLACK
6
CONTINUOUS
10
159.034
20
-137.27
11
158.843
21
-137.365
0
LINE
8
BLACK
6
CONTINUOUS
10
158.843
20
-137.365
11
158.653
21
-137.365
0
LINE
8
BLACK
6
CONTINUOUS
10
158.653
20
-137.365
11
158.463
21
-137.27
0
LINE
8
BLACK
6
CONTINUOUS
10
158.463
20
-137.27
11
158.367
21
-137.174
0
LINE
8
BLACK
6
CONTINUOUS
10
158.367
20
-137.174
11
158.272
21
-136.984
0
LINE
8
BLACK
6
CONTINUOUS
10
158.272
20
-136.984
11
158.177
21
-136.603
0
LINE
8
BLACK
6
CONTINUOUS
10
158.177
20
-136.603
11
158.177
21
-136.127
0
LINE
8
BLACK
6
CONTINUOUS
10
158.177
20
-136.127
11
158.272
21
-135.746
0
LINE
8
BLACK
6
CONTINUOUS
10
158.272
20
-135.746
11
158.367
21
-135.555
0
LINE
8
BLACK
6
CONTINUOUS
10
158.367
20
-135.555
11
158.463
21
-135.46
0
LINE
8
BLACK
6
CONTINUOUS
10
158.463
20
-135.46
11
158.653
21
-135.365
0
LINE
8
BLACK
6
CONTINUOUS
10
161.129
20
-135.365
11
160.177
21
-135.365
0
LINE
8
BLACK
6
CONTINUOUS
10
160.177
20
-135.365
11
160.082
21
-136.317
0
LINE
8
BLACK
6
CONTINUOUS
10
160.082
20
-136.317
11
160.177
21
-136.222
0
LINE
8
BLACK
6
CONTINUOUS
10
160.177
20
-136.222
11
160.367
21
-136.127
0
LINE
8
BLACK
6
CONTINUOUS
10
160.367
20
-136.127
11
160.843
21
-136.127
0
LINE
8
BLACK
6
CONTINUOUS
10
160.843
20
-136.127
11
161.034
21
-136.222
0
LINE
8
BLACK
6
CONTINUOUS
10
161.034
20
-136.222
11
161.129
21
-136.317
0
LINE
8
BLACK
6
CONTINUOUS
10
161.129
20
-136.317
11
161.224
21
-136.508
0
LINE
8
BLACK
6
CONTINUOUS
10
161.224
20
-136.508
11
161.224
21
-136.984
0
LINE
8
BLACK
6
CONTINUOUS
10
161.224
20
-136.984
11
161.129
21
-137.174
0
LINE
8
BLACK
6
CONTINUOUS
10
161.129
20
-137.174
11
161.034
21
-137.27
0
LINE
8
BLACK
6
CONTINUOUS
10
161.034
20
-137.27
11
160.843
21
-137.365
0
LINE
8
BLACK
6
CONTINUOUS
10
160.843
20
-137.365
11
160.367
21
-137.365
0
LINE
8
BLACK
6
CONTINUOUS
10
160.367
20
-137.365
11
160.177
21
-137.27
0
LINE
8
BLACK
6
CONTINUOUS
10
160.177
20
-137.27
11
160.082
21
-137.174
0
LINE
8
BLACK
6
CONTINUOUS
10
161.986
20
-135.365
11
161.986
21
-135.746
0
LINE
8
BLACK
6
CONTINUOUS
10
162.748
20
-135.365
11
162.748
21
-135.746
0
LINE
8
BLACK
6
CONTINUOUS
10
165.701
20
-138.127
11
165.605
21
-138.032
0
LINE
8
BLACK
6
CONTINUOUS
10
165.605
20
-138.032
11
165.415
21
-137.746
0
LINE
8
BLACK
6
CONTINUOUS
10
165.415
20
-137.746
11
165.32
21
-137.555
0
LINE
8
BLACK
6
CONTINUOUS
10
165.32
20
-137.555
11
165.224
21
-137.27
0
LINE
8
BLACK
6
CONTINUOUS
10
165.224
20
-137.27
11
165.129
21
-136.793
0
LINE
8
BLACK
6
CONTINUOUS
10
165.129
20
-136.793
11
165.129
21
-136.412
0
LINE
8
BLACK
6
CONTINUOUS
10
165.129
20
-136.412
11
165.224
21
-135.936
0
LINE
8
BLACK
6
CONTINUOUS
10
165.224
20
-135.936
11
165.32
21
-135.651
0
LINE
8
BLACK
6
CONTINUOUS
10
165.32
20
-135.651
11
165.415
21
-135.46
0
LINE
8
BLACK
6
CONTINUOUS
10
165.415
20
-135.46
11
165.605
21
-135.174
0
LINE
8
BLACK
6
CONTINUOUS
10
165.605
20
-135.174
11
165.701
21
-135.079
0
LINE
8
BLACK
6
CONTINUOUS
10
167.51
20
-137.365
11
166.367
21
-137.365
0
LINE
8
BLACK
6
CONTINUOUS
10
166.939
20
-137.365
11
166.939
21
-135.365
0
LINE
8
BLACK
6
CONTINUOUS
10
166.939
20
-135.365
11
166.748
21
-135.651
0
LINE
8
BLACK
6
CONTINUOUS
10
166.748
20
-135.651
11
166.558
21
-135.841
0
LINE
8
BLACK
6
CONTINUOUS
10
166.558
20
-135.841
11
166.367
21
-135.936
0
LINE
8
BLACK
6
CONTINUOUS
10
169.891
20
-137.365
11
169.891
21
-135.365
0
LINE
8
BLACK
6
CONTINUOUS
10
170.748
20
-137.365
11
170.748
21
-136.317
0
LINE
8
BLACK
6
CONTINUOUS
10
170.748
20
-136.317
11
170.653
21
-136.127
0
LINE
8
BLACK
6
CONTINUOUS
10
170.653
20
-136.127
11
170.463
21
-136.032
0
LINE
8
BLACK
6
CONTINUOUS
10
170.463
20
-136.032
11
170.177
21
-136.032
0
LINE
8
BLACK
6
CONTINUOUS
10
170.177
20
-136.032
11
169.986
21
-136.127
0
LINE
8
BLACK
6
CONTINUOUS
10
169.986
20
-136.127
11
169.891
21
-136.222
0
LINE
8
BLACK
6
CONTINUOUS
10
171.986
20
-137.365
11
171.796
21
-137.27
0
LINE
8
BLACK
6
CONTINUOUS
10
171.796
20
-137.27
11
171.701
21
-137.174
0
LINE
8
BLACK
6
CONTINUOUS
10
171.701
20
-137.174
11
171.605
21
-136.984
0
LINE
8
BLACK
6
CONTINUOUS
10
171.605
20
-136.984
11
171.605
21
-136.412
0
LINE
8
BLACK
6
CONTINUOUS
10
171.605
20
-136.412
11
171.701
21
-136.222
0
LINE
8
BLACK
6
CONTINUOUS
10
171.701
20
-136.222
11
171.796
21
-136.127
0
LINE
8
BLACK
6
CONTINUOUS
10
171.796
20
-136.127
11
171.986
21
-136.032
0
LINE
8
BLACK
6
CONTINUOUS
10
171.986
20
-136.032
11
172.272
21
-136.032
0
LINE
8
BLACK
6
CONTINUOUS
10
172.272
20
-136.032
11
172.463
21
-136.127
0
LINE
8
BLACK
6
CONTINUOUS
10
172.463
20
-136.127
11
172.558
21
-136.222
0
LINE
8
BLACK
6
CONTINUOUS
10
172.558
20
-136.222
11
172.653
21
-136.412
0
LINE
8
BLACK
6
CONTINUOUS
10
172.653
20
-136.412
11
172.653
21
-136.984
0
LINE
8
BLACK
6
CONTINUOUS
10
172.653
20
-136.984
11
172.558
21
-137.174
0
LINE
8
BLACK
6
CONTINUOUS
10
172.558
20
-137.174
11
172.463
21
-137.27
0
LINE
8
BLACK
6
CONTINUOUS
10
172.463
20
-137.27
11
172.272
21
-137.365
0
LINE
8
BLACK
6
CONTINUOUS
10
172.272
20
-137.365
11
171.986
21
-137.365
0
LINE
8
BLACK
6
CONTINUOUS
10
173.796
20
-137.365
11
173.605
21
-137.27
0
LINE
8
BLACK
6
CONTINUOUS
10
173.605
20
-137.27
11
173.51
21
-137.079
0
LINE
8
BLACK
6
CONTINUOUS
10
173.51
20
-137.079
11
173.51
21
-135.365
0
LINE
8
BLACK
6
CONTINUOUS
10
175.32
20
-137.27
11
175.129
21
-137.365
0
LINE
8
BLACK
6
CONTINUOUS
10
175.129
20
-137.365
11
174.748
21
-137.365
0
LINE
8
BLACK
6
CONTINUOUS
10
174.748
20
-137.365
11
174.558
21
-137.27
0
LINE
8
BLACK
6
CONTINUOUS
10
174.558
20
-137.27
11
174.463
21
-137.079
0
LINE
8
BLACK
6
CONTINUOUS
10
174.463
20
-137.079
11
174.463
21
-136.317
0
LINE
8
BLACK
6
CONTINUOUS
10
174.463
20
-136.317
11
174.558
21
-136.127
0
LINE
8
BLACK
6
CONTINUOUS
10
174.558
20
-136.127
11
174.748
21
-136.032
0
LINE
8
BLACK
6
CONTINUOUS
10
174.748
20
-136.032
11
175.129
21
-136.032
0
LINE
8
BLACK
6
CONTINUOUS
10
175.129
20
-136.032
11
175.32
21
-136.127
0
LINE
8
BLACK
6
CONTINUOUS
10
175.32
20
-136.127
11
175.415
21
-136.317
0
LINE
8
BLACK
6
CONTINUOUS
10
175.415
20
-136.317
11
175.415
21
-136.508
0
LINE
8
BLACK
6
CONTINUOUS
10
175.415
20
-136.508
11
174.463
21
-136.698
0
LINE
8
BLACK
6
CONTINUOUS
10
176.177
20
-137.27
11
176.367
21
-137.365
0
LINE
8
BLACK
6
CONTINUOUS
10
176.367
20
-137.365
11
176.748
21
-137.365
0
LINE
8
BLACK
6
CONTINUOUS
10
176.748
20
-137.365
11
176.939
21
-137.27
0
LINE
8
BLACK
6
CONTINUOUS
10
176.939
20
-137.27
11
177.034
21
-137.079
0
LINE
8
BLACK
6
CONTINUOUS
10
177.034
20
-137.079
11
177.034
21
-136.984
0
LINE
8
BLACK
6
CONTINUOUS
10
177.034
20
-136.984
11
176.939
21
-136.793
0
LINE
8
BLACK
6
CONTINUOUS
10
176.939
20
-136.793
11
176.748
21
-136.698
0
LINE
8
BLACK
6
CONTINUOUS
10
176.748
20
-136.698
11
176.463
21
-136.698
0
LINE
8
BLACK
6
CONTINUOUS
10
176.463
20
-136.698
11
176.272
21
-136.603
0
LINE
8
BLACK
6
CONTINUOUS
10
176.272
20
-136.603
11
176.177
21
-136.412
0
LINE
8
BLACK
6
CONTINUOUS
10
176.177
20
-136.412
11
176.177
21
-136.317
0
LINE
8
BLACK
6
CONTINUOUS
10
176.177
20
-136.317
11
176.272
21
-136.127
0
LINE
8
BLACK
6
CONTINUOUS
10
176.272
20
-136.127
11
176.463
21
-136.032
0
LINE
8
BLACK
6
CONTINUOUS
10
176.463
20
-136.032
11
176.748
21
-136.032
0
LINE
8
BLACK
6
CONTINUOUS
10
176.748
20
-136.032
11
176.939
21
-136.127
0
LINE
8
BLACK
6
CONTINUOUS
10
179.415
20
-136.603
11
180.939
21
-136.603
0
LINE
8
BLACK
6
CONTINUOUS
10
180.177
20
-137.365
11
180.177
21
-135.841
0
LINE
8
BLACK
6
CONTINUOUS
10
184.463
20
-137.365
11
183.32
21
-137.365
0
LINE
8
BLACK
6
CONTINUOUS
10
183.891
20
-137.365
11
183.891
21
-135.365
0
LINE
8
BLACK
6
CONTINUOUS
10
183.891
20
-135.365
11
183.701
21
-135.651
0
LINE
8
BLACK
6
CONTINUOUS
10
183.701
20
-135.651
11
183.51
21
-135.841
0
LINE
8
BLACK
6
CONTINUOUS
10
183.51
20
-135.841
11
183.32
21
-135.936
0
LINE
8
BLACK
6
CONTINUOUS
10
186.748
20
-137.27
11
186.939
21
-137.365
0
LINE
8
BLACK
6
CONTINUOUS
10
186.939
20
-137.365
11
187.32
21
-137.365
0
LINE
8
BLACK
6
CONTINUOUS
10
187.32
20
-137.365
11
187.51
21
-137.27
0
LINE
8
BLACK
6
CONTINUOUS
10
187.51
20
-137.27
11
187.605
21
-137.079
0
LINE
8
BLACK
6
CONTINUOUS
10
187.605
20
-137.079
11
187.605
21
-136.984
0
LINE
8
BLACK
6
CONTINUOUS
10
187.605
20
-136.984
11
187.51
21
-136.793
0
LINE
8
BLACK
6
CONTINUOUS
10
187.51
20
-136.793
11
187.32
21
-136.698
0
LINE
8
BLACK
6
CONTINUOUS
10
187.32
20
-136.698
11
187.034
21
-136.698
0
LINE
8
BLACK
6
CONTINUOUS
10
187.034
20
-136.698
11
186.843
21
-136.603
0
LINE
8
BLACK
6
CONTINUOUS
10
186.843
20
-136.603
11
186.748
21
-136.412
0
LINE
8
BLACK
6
CONTINUOUS
10
186.748
20
-136.412
11
186.748
21
-136.317
0
LINE
8
BLACK
6
CONTINUOUS
10
186.748
20
-136.317
11
186.843
21
-136.127
0
LINE
8
BLACK
6
CONTINUOUS
10
186.843
20
-136.127
11
187.034
21
-136.032
0
LINE
8
BLACK
6
CONTINUOUS
10
187.034
20
-136.032
11
187.32
21
-136.032
0
LINE
8
BLACK
6
CONTINUOUS
10
187.32
20
-136.032
11
187.51
21
-136.127
0
LINE
8
BLACK
6
CONTINUOUS
10
188.748
20
-137.365
11
188.558
21
-137.27
0
LINE
8
BLACK
6
CONTINUOUS
10
188.558
20
-137.27
11
188.463
21
-137.079
0
LINE
8
BLACK
6
CONTINUOUS
10
188.463
20
-137.079
11
188.463
21
-135.365
0
LINE
8
BLACK
6
CONTINUOUS
10
189.796
20
-137.365
11
189.605
21
-137.27
0
LINE
8
BLACK
6
CONTINUOUS
10
189.605
20
-137.27
11
189.51
21
-137.174
0
LINE
8
BLACK
6
CONTINUOUS
10
189.51
20
-137.174
11
189.415
21
-136.984
0
LINE
8
BLACK
6
CONTINUOUS
10
189.415
20
-136.984
11
189.415
21
-136.412
0
LINE
8
BLACK
6
CONTINUOUS
10
189.415
20
-136.412
11
189.51
21
-136.222
0
LINE
8
BLACK
6
CONTINUOUS
10
189.51
20
-136.222
11
189.605
21
-136.127
0
LINE
8
BLACK
6
CONTINUOUS
10
189.605
20
-136.127
11
189.796
21
-136.032
0
LINE
8
BLACK
6
CONTINUOUS
10
189.796
20
-136.032
11
190.082
21
-136.032
0
LINE
8
BLACK
6
CONTINUOUS
10
190.082
20
-136.032
11
190.272
21
-136.127
0
LINE
8
BLACK
6
CONTINUOUS
10
190.272
20
-136.127
11
190.367
21
-136.222
0
LINE
8
BLACK
6
CONTINUOUS
10
190.367
20
-136.222
11
190.463
21
-136.412
0
LINE
8
BLACK
6
CONTINUOUS
10
190.463
20
-136.412
11
190.463
21
-136.984
0
LINE
8
BLACK
6
CONTINUOUS
10
190.463
20
-136.984
11
190.367
21
-137.174
0
LINE
8
BLACK
6
CONTINUOUS
10
190.367
20
-137.174
11
190.272
21
-137.27
0
LINE
8
BLACK
6
CONTINUOUS
10
190.272
20
-137.27
11
190.082
21
-137.365
0
LINE
8
BLACK
6
CONTINUOUS
10
190.082
20
-137.365
11
189.796
21
-137.365
0
LINE
8
BLACK
6
CONTINUOUS
10
191.034
20
-136.032
11
191.796
21
-136.032
0
LINE
8
BLACK
6
CONTINUOUS
10
191.32
20
-135.365
11
191.32
21
-137.079
0
LINE
8
BLACK
6
CONTINUOUS
10
191.32
20
-137.079
11
191.415
21
-137.27
0
LINE
8
BLACK
6
CONTINUOUS
10
191.415
20
-137.27
11
191.605
21
-137.365
0
LINE
8
BLACK
6
CONTINUOUS
10
191.605
20
-137.365
11
191.796
21
-137.365
0
LINE
8
BLACK
6
CONTINUOUS
10
192.272
20
-138.127
11
192.367
21
-138.032
0
LINE
8
BLACK
6
CONTINUOUS
10
192.367
20
-138.032
11
192.558
21
-137.746
0
LINE
8
BLACK
6
CONTINUOUS
10
192.558
20
-137.746
11
192.653
21
-137.555
0
LINE
8
BLACK
6
CONTINUOUS
10
192.653
20
-137.555
11
192.748
21
-137.27
0
LINE
8
BLACK
6
CONTINUOUS
10
192.748
20
-137.27
11
192.843
21
-136.793
0
LINE
8
BLACK
6
CONTINUOUS
10
192.843
20
-136.793
11
192.843
21
-136.412
0
LINE
8
BLACK
6
CONTINUOUS
10
192.843
20
-136.412
11
192.748
21
-135.936
0
LINE
8
BLACK
6
CONTINUOUS
10
192.748
20
-135.936
11
192.653
21
-135.651
0
LINE
8
BLACK
6
CONTINUOUS
10
192.653
20
-135.651
11
192.558
21
-135.46
0
LINE
8
BLACK
6
CONTINUOUS
10
192.558
20
-135.46
11
192.367
21
-135.174
0
LINE
8
BLACK
6
CONTINUOUS
10
192.367
20
-135.174
11
192.272
21
-135.079
0
LINE
8
BLACK
6
CONTINUOUS
10
195.891
20
-138.127
11
195.796
21
-138.032
0
LINE
8
BLACK
6
CONTINUOUS
10
195.796
20
-138.032
11
195.605
21
-137.746
0
LINE
8
BLACK
6
CONTINUOUS
10
195.605
20
-137.746
11
195.51
21
-137.555
0
LINE
8
BLACK
6
CONTINUOUS
10
195.51
20
-137.555
11
195.415
21
-137.27
0
LINE
8
BLACK
6
CONTINUOUS
10
195.415
20
-137.27
11
195.32
21
-136.793
0
LINE
8
BLACK
6
CONTINUOUS
10
195.32
20
-136.793
11
195.32
21
-136.412
0
LINE
8
BLACK
6
CONTINUOUS
10
195.32
20
-136.412
11
195.415
21
-135.936
0
LINE
8
BLACK
6
CONTINUOUS
10
195.415
20
-135.936
11
195.51
21
-135.651
0
LINE
8
BLACK
6
CONTINUOUS
10
195.51
20
-135.651
11
195.605
21
-135.46
0
LINE
8
BLACK
6
CONTINUOUS
10
195.605
20
-135.46
11
195.796
21
-135.174
0
LINE
8
BLACK
6
CONTINUOUS
10
195.796
20
-135.174
11
195.891
21
-135.079
0
LINE
8
BLACK
6
CONTINUOUS
10
196.653
20
-136.032
11
196.653
21
-137.365
0
LINE
8
BLACK
6
CONTINUOUS
10
196.653
20
-136.222
11
196.748
21
-136.127
0
LINE
8
BLACK
6
CONTINUOUS
10
196.748
20
-136.127
11
196.939
21
-136.032
0
LINE
8
BLACK
6
CONTINUOUS
10
196.939
20
-136.032
11
197.224
21
-136.032
0
LINE
8
BLACK
6
CONTINUOUS
10
197.224
20
-136.032
11
197.415
21
-136.127
0
LINE
8
BLACK
6
CONTINUOUS
10
197.415
20
-136.127
11
197.51
21
-136.317
0
LINE
8
BLACK
6
CONTINUOUS
10
197.51
20
-136.317
11
197.51
21
-137.365
0
LINE
8
BLACK
6
CONTINUOUS
10
198.748
20
-137.365
11
198.558
21
-137.27
0
LINE
8
BLACK
6
CONTINUOUS
10
198.558
20
-137.27
11
198.463
21
-137.174
0
LINE
8
BLACK
6
CONTINUOUS
10
198.463
20
-137.174
11
198.367
21
-136.984
0
LINE
8
BLACK
6
CONTINUOUS
10
198.367
20
-136.984
11
198.367
21
-136.412
0
LINE
8
BLACK
6
CONTINUOUS
10
198.367
20
-136.412
11
198.463
21
-136.222
0
LINE
8
BLACK
6
CONTINUOUS
10
198.463
20
-136.222
11
198.558
21
-136.127
0
LINE
8
BLACK
6
CONTINUOUS
10
198.558
20
-136.127
11
198.748
21
-136.032
0
LINE
8
BLACK
6
CONTINUOUS
10
198.748
20
-136.032
11
199.034
21
-136.032
0
LINE
8
BLACK
6
CONTINUOUS
10
199.034
20
-136.032
11
199.224
21
-136.127
0
LINE
8
BLACK
6
CONTINUOUS
10
199.224
20
-136.127
11
199.32
21
-136.222
0
LINE
8
BLACK
6
CONTINUOUS
10
199.32
20
-136.222
11
199.415
21
-136.412
0
LINE
8
BLACK
6
CONTINUOUS
10
199.415
20
-136.412
11
199.415
21
-136.984
0
LINE
8
BLACK
6
CONTINUOUS
10
199.415
20
-136.984
11
199.32
21
-137.174
0
LINE
8
BLACK
6
CONTINUOUS
10
199.32
20
-137.174
11
199.224
21
-137.27
0
LINE
8
BLACK
6
CONTINUOUS
10
199.224
20
-137.27
11
199.034
21
-137.365
0
LINE
8
BLACK
6
CONTINUOUS
10
199.034
20
-137.365
11
198.748
21
-137.365
0
LINE
8
BLACK
6
CONTINUOUS
10
199.986
20
-136.032
11
200.748
21
-136.032
0
LINE
8
BLACK
6
CONTINUOUS
10
200.272
20
-135.365
11
200.272
21
-137.079
0
LINE
8
BLACK
6
CONTINUOUS
10
200.272
20
-137.079
11
200.367
21
-137.27
0
LINE
8
BLACK
6
CONTINUOUS
10
200.367
20
-137.27
11
200.558
21
-137.365
0
LINE
8
BLACK
6
CONTINUOUS
10
200.558
20
-137.365
11
200.748
21
-137.365
0
LINE
8
BLACK
6
CONTINUOUS
10
202.939
20
-136.032
11
202.939
21
-138.032
0
LINE
8
BLACK
6
CONTINUOUS
10
202.939
20
-136.127
11
203.129
21
-136.032
0
LINE
8
BLACK
6
CONTINUOUS
10
203.129
20
-136.032
11
203.51
21
-136.032
0
LINE
8
BLACK
6
CONTINUOUS
10
203.51
20
-136.032
11
203.701
21
-136.127
0
LINE
8
BLACK
6
CONTINUOUS
10
203.701
20
-136.127
11
203.796
21
-136.222
0
LINE
8
BLACK
6
CONTINUOUS
10
203.796
20
-136.222
11
203.891
21
-136.412
0
LINE
8
BLACK
6
CONTINUOUS
10
203.891
20
-136.412
11
203.891
21
-136.984
0
LINE
8
BLACK
6
CONTINUOUS
10
203.891
20
-136.984
11
203.796
21
-137.174
0
LINE
8
BLACK
6
CONTINUOUS
10
203.796
20
-137.174
11
203.701
21
-137.27
0
LINE
8
BLACK
6
CONTINUOUS
10
203.701
20
-137.27
11
203.51
21
-137.365
0
LINE
8
BLACK
6
CONTINUOUS
10
203.51
20
-137.365
11
203.129
21
-137.365
0
LINE
8
BLACK
6
CONTINUOUS
10
203.129
20
-137.365
11
202.939
21
-137.27
0
LINE
8
BLACK
6
CONTINUOUS
10
205.034
20
-137.365
11
204.843
21
-137.27
0
LINE
8
BLACK
6
CONTINUOUS
10
204.843
20
-137.27
11
204.748
21
-137.079
0
LINE
8
BLACK
6
CONTINUOUS
10
204.748
20
-137.079
11
204.748
21
-135.365
0
LINE
8
BLACK
6
CONTINUOUS
10
206.653
20
-137.365
11
206.653
21
-136.317
0
LINE
8
BLACK
6
CONTINUOUS
10
206.653
20
-136.317
11
206.558
21
-136.127
0
LINE
8
BLACK
6
CONTINUOUS
10
206.558
20
-136.127
11
206.367
21
-136.032
0
LINE
8
BLACK
6
CONTINUOUS
10
206.367
20
-136.032
11
205.986
21
-136.032
0
LINE
8
BLACK
6
CONTINUOUS
10
205.986
20
-136.032
11
205.796
21
-136.127
0
LINE
8
BLACK
6
CONTINUOUS
10
206.653
20
-137.27
11
206.463
21
-137.365
0
LINE
8
BLACK
6
CONTINUOUS
10
206.463
20
-137.365
11
205.986
21
-137.365
0
LINE
8
BLACK
6
CONTINUOUS
10
205.986
20
-137.365
11
205.796
21
-137.27
0
LINE
8
BLACK
6
CONTINUOUS
10
205.796
20
-137.27
11
205.701
21
-137.079
0
LINE
8
BLACK
6
CONTINUOUS
10
205.701
20
-137.079
11
205.701
21
-136.889
0
LINE
8
BLACK
6
CONTINUOUS
10
205.701
20
-136.889
11
205.796
21
-136.698
0
LINE
8
BLACK
6
CONTINUOUS
10
205.796
20
-136.698
11
205.986
21
-136.603
0
LINE
8
BLACK
6
CONTINUOUS
10
205.986
20
-136.603
11
206.463
21
-136.603
0
LINE
8
BLACK
6
CONTINUOUS
10
206.463
20
-136.603
11
206.653
21
-136.508
0
LINE
8
BLACK
6
CONTINUOUS
10
207.32
20
-136.032
11
208.082
21
-136.032
0
LINE
8
BLACK
6
CONTINUOUS
10
207.605
20
-135.365
11
207.605
21
-137.079
0
LINE
8
BLACK
6
CONTINUOUS
10
207.605
20
-137.079
11
207.701
21
-137.27
0
LINE
8
BLACK
6
CONTINUOUS
10
207.701
20
-137.27
11
207.891
21
-137.365
0
LINE
8
BLACK
6
CONTINUOUS
10
207.891
20
-137.365
11
208.082
21
-137.365
0
LINE
8
BLACK
6
CONTINUOUS
10
209.51
20
-137.27
11
209.32
21
-137.365
0
LINE
8
BLACK
6
CONTINUOUS
10
209.32
20
-137.365
11
208.939
21
-137.365
0
LINE
8
BLACK
6
CONTINUOUS
10
208.939
20
-137.365
11
208.748
21
-137.27
0
LINE
8
BLACK
6
CONTINUOUS
10
208.748
20
-137.27
11
208.653
21
-137.079
0
LINE
8
BLACK
6
CONTINUOUS
10
208.653
20
-137.079
11
208.653
21
-136.317
0
LINE
8
BLACK
6
CONTINUOUS
10
208.653
20
-136.317
11
208.748
21
-136.127
0
LINE
8
BLACK
6
CONTINUOUS
10
208.748
20
-136.127
11
208.939
21
-136.032
0
LINE
8
BLACK
6
CONTINUOUS
10
208.939
20
-136.032
11
209.32
21
-136.032
0
LINE
8
BLACK
6
CONTINUOUS
10
209.32
20
-136.032
11
209.51
21
-136.127
0
LINE
8
BLACK
6
CONTINUOUS
10
209.51
20
-136.127
11
209.605
21
-136.317
0
LINE
8
BLACK
6
CONTINUOUS
10
209.605
20
-136.317
11
209.605
21
-136.508
0
LINE
8
BLACK
6
CONTINUOUS
10
209.605
20
-136.508
11
208.653
21
-136.698
0
LINE
8
BLACK
6
CONTINUOUS
10
211.32
20
-137.365
11
211.32
21
-135.365
0
LINE
8
BLACK
6
CONTINUOUS
10
211.32
20
-137.27
11
211.129
21
-137.365
0
LINE
8
BLACK
6
CONTINUOUS
10
211.129
20
-137.365
11
210.748
21
-137.365
0
LINE
8
BLACK
6
CONTINUOUS
10
210.748
20
-137.365
11
210.558
21
-137.27
0
LINE
8
BLACK
6
CONTINUOUS
10
210.558
20
-137.27
11
210.463
21
-137.174
0
LINE
8
BLACK
6
CONTINUOUS
10
210.463
20
-137.174
11
210.367
21
-136.984
0
LINE
8
BLACK
6
CONTINUOUS
10
210.367
20
-136.984
11
210.367
21
-136.412
0
LINE
8
BLACK
6
CONTINUOUS
10
210.367
20
-136.412
11
210.463
21
-136.222
0
LINE
8
BLACK
6
CONTINUOUS
10
210.463
20
-136.222
11
210.558
21
-136.127
0
LINE
8
BLACK
6
CONTINUOUS
10
210.558
20
-136.127
11
210.748
21
-136.032
0
LINE
8
BLACK
6
CONTINUOUS
10
210.748
20
-136.032
11
211.129
21
-136.032
0
LINE
8
BLACK
6
CONTINUOUS
10
211.129
20
-136.032
11
211.32
21
-136.127
0
LINE
8
BLACK
6
CONTINUOUS
10
212.082
20
-138.127
11
212.177
21
-138.032
0
LINE
8
BLACK
6
CONTINUOUS
10
212.177
20
-138.032
11
212.367
21
-137.746
0
LINE
8
BLACK
6
CONTINUOUS
10
212.367
20
-137.746
11
212.463
21
-137.555
0
LINE
8
BLACK
6
CONTINUOUS
10
212.463
20
-137.555
11
212.558
21
-137.27
0
LINE
8
BLACK
6
CONTINUOUS
10
212.558
20
-137.27
11
212.653
21
-136.793
0
LINE
8
BLACK
6
CONTINUOUS
10
212.653
20
-136.793
11
212.653
21
-136.412
0
LINE
8
BLACK
6
CONTINUOUS
10
212.653
20
-136.412
11
212.558
21
-135.936
0
LINE
8
BLACK
6
CONTINUOUS
10
212.558
20
-135.936
11
212.463
21
-135.651
0
LINE
8
BLACK
6
CONTINUOUS
10
212.463
20
-135.651
11
212.367
21
-135.46
0
LINE
8
BLACK
6
CONTINUOUS
10
212.367
20
-135.46
11
212.177
21
-135.174
0
LINE
8
BLACK
6
CONTINUOUS
10
212.177
20
-135.174
11
212.082
21
-135.079
  0
ENDSEC
  0
EOF
