M48
; DRILL file {KiCad 7.0.7} date Thu Nov  9 15:37:03 2023
; FORMAT={-:-/ absolute / metric / decimal}
; #@! TF.CreationDate,2023-11-09T15:37:03-05:00
; #@! TF.GenerationSoftware,Kicad,Pcbnew,7.0.7
; #@! TF.FileFunction,Plated,1,4,PTH
FMAT,2
METRIC
; #@! TA.AperFunction,Plated,PTH,ViaDrill
T1C0.400
; #@! TA.AperFunction,Plated,PTH,ComponentDrill
T2C0.600
%
G90
G05
T1
X130.7Y-125.3
X130.7Y-126.3
X130.7Y-127.3
X130.7Y-128.3
X131.55Y-111.8
X131.575Y-110.4
X131.8Y-129.2
X131.975Y-109.212
X132.3Y-122.0
X132.8Y-129.2
X133.025Y-109.212
X133.54Y-101.06
X133.6Y-102.9
X133.6Y-104.2
X133.7Y-120.2
X133.8Y-110.85
X133.8Y-129.2
X134.25Y-116.3
X134.75Y-123.75
X134.8Y-107.9
X134.8Y-109.45
X135.9Y-120.6
X136.1Y-117.7
X137.9Y-107.7
X137.95Y-117.9
X138.35Y-110.8
X138.7Y-103.8
X138.7Y-121.6
X138.9Y-125.0
X139.15Y-109.9
X139.3Y-106.7
X139.8Y-116.7
X139.8Y-125.0
X140.275Y-104.75
X140.5Y-111.8
X141.0Y-115.6
X141.325Y-104.75
X141.6Y-122.0
X141.75Y-103.3
X142.9Y-119.0
X143.75Y-123.75
X144.0Y-108.5
X144.25Y-119.0
X144.5Y-120.25
X145.0Y-108.5
X145.9Y-102.649
X146.0Y-108.5
X146.1Y-125.4
X146.1Y-126.9
X147.05Y-122.775
X147.25Y-128.5
X147.5Y-115.75
X148.4Y-129.0
X149.0Y-122.75
X149.2Y-104.0
X149.524Y-108.686
X149.9Y-125.4
X149.9Y-126.9
X150.25Y-117.0
X150.25Y-118.55
X150.6Y-109.1
X150.6Y-122.2
X151.3Y-110.0
X151.3Y-111.8
X152.0Y-110.9
X152.25Y-117.0
X152.7Y-101.0
X152.75Y-109.75
X152.9Y-105.1
X153.0Y-112.3
X153.4Y-119.0
X153.75Y-115.75
X153.8Y-113.7
X154.0Y-122.75
X154.8Y-108.6
X154.9Y-104.3
X155.7Y-111.8
X155.7Y-114.9
X155.75Y-117.75
X155.75Y-119.5
X156.4Y-105.4
X156.6Y-109.4
X156.7Y-101.5
X156.75Y-122.0
X157.5Y-123.0
X158.5Y-129.0
X158.7Y-101.5
X158.7Y-105.4
X158.7Y-107.4
X158.7Y-109.4
X158.7Y-111.4
X158.7Y-113.4
X158.7Y-115.4
X159.2Y-119.4
X159.2Y-121.1
X161.75Y-125.9
X161.8Y-119.4
X162.15Y-129.2
X163.15Y-129.2
X164.15Y-129.2
X165.0Y-119.4
X165.0Y-121.1
X165.0Y-124.1
X165.25Y-127.3
X165.25Y-128.3
T2
X145.475Y-124.0G85X145.725Y-124.0
G05
X145.475Y-128.3G85X145.725Y-128.3
G05
X150.275Y-124.0G85X150.525Y-124.0
G05
X150.275Y-128.3G85X150.525Y-128.3
G05
T0
M30
