%TF.GenerationSoftware,KiCad,Pcbnew,7.0.7*%
%TF.CreationDate,2023-11-09T15:37:00-05:00*%
%TF.ProjectId,Occupancy_Sensor-A,4f636375-7061-46e6-9379-5f53656e736f,rev?*%
%TF.SameCoordinates,Original*%
%TF.FileFunction,Soldermask,Bot*%
%TF.FilePolarity,Negative*%
%FSLAX46Y46*%
G04 Gerber Fmt 4.6, Leading zero omitted, Abs format (unit mm)*
G04 Created by KiCad (PCBNEW 7.0.7) date 2023-11-09 15:37:00*
%MOMM*%
%LPD*%
G01*
G04 APERTURE LIST*
G04 Aperture macros list*
%AMRoundRect*
0 Rectangle with rounded corners*
0 $1 Rounding radius*
0 $2 $3 $4 $5 $6 $7 $8 $9 X,Y pos of 4 corners*
0 Add a 4 corners polygon primitive as box body*
4,1,4,$2,$3,$4,$5,$6,$7,$8,$9,$2,$3,0*
0 Add four circle primitives for the rounded corners*
1,1,$1+$1,$2,$3*
1,1,$1+$1,$4,$5*
1,1,$1+$1,$6,$7*
1,1,$1+$1,$8,$9*
0 Add four rect primitives between the rounded corners*
20,1,$1+$1,$2,$3,$4,$5,0*
20,1,$1+$1,$4,$5,$6,$7,0*
20,1,$1+$1,$6,$7,$8,$9,0*
20,1,$1+$1,$8,$9,$2,$3,0*%
%AMOutline5P*
0 Free polygon, 5 corners , with rotation*
0 The origin of the aperture is its center*
0 number of corners: always 5*
0 $1 to $10 corner X, Y*
0 $11 Rotation angle, in degrees counterclockwise*
0 create outline with 5 corners*
4,1,5,$1,$2,$3,$4,$5,$6,$7,$8,$9,$10,$1,$2,$11*%
%AMOutline6P*
0 Free polygon, 6 corners , with rotation*
0 The origin of the aperture is its center*
0 number of corners: always 6*
0 $1 to $12 corner X, Y*
0 $13 Rotation angle, in degrees counterclockwise*
0 create outline with 6 corners*
4,1,6,$1,$2,$3,$4,$5,$6,$7,$8,$9,$10,$11,$12,$1,$2,$13*%
%AMOutline7P*
0 Free polygon, 7 corners , with rotation*
0 The origin of the aperture is its center*
0 number of corners: always 7*
0 $1 to $14 corner X, Y*
0 $15 Rotation angle, in degrees counterclockwise*
0 create outline with 7 corners*
4,1,7,$1,$2,$3,$4,$5,$6,$7,$8,$9,$10,$11,$12,$13,$14,$1,$2,$15*%
%AMOutline8P*
0 Free polygon, 8 corners , with rotation*
0 The origin of the aperture is its center*
0 number of corners: always 8*
0 $1 to $16 corner X, Y*
0 $17 Rotation angle, in degrees counterclockwise*
0 create outline with 8 corners*
4,1,8,$1,$2,$3,$4,$5,$6,$7,$8,$9,$10,$11,$12,$13,$14,$15,$16,$1,$2,$17*%
%AMFreePoly0*
4,1,17,0.235355,0.292855,0.250000,0.257500,0.250000,-0.007500,0.300000,-0.007500,0.335355,-0.022145,0.350000,-0.057500,0.350000,-0.257500,0.335355,-0.292855,0.300000,-0.307500,-0.300000,-0.307500,-0.335355,-0.292855,-0.350000,-0.257500,-0.350000,0.257500,-0.335355,0.292855,-0.300000,0.307500,0.200000,0.307500,0.235355,0.292855,0.235355,0.292855,$1*%
G04 Aperture macros list end*
%ADD10C,0.520000*%
%ADD11O,0.720000X0.520000*%
%ADD12O,1.350000X1.100000*%
%ADD13RoundRect,0.135000X0.185000X-0.135000X0.185000X0.135000X-0.185000X0.135000X-0.185000X-0.135000X0*%
%ADD14RoundRect,0.140000X0.170000X-0.140000X0.170000X0.140000X-0.170000X0.140000X-0.170000X-0.140000X0*%
%ADD15RoundRect,0.140000X-0.140000X-0.170000X0.140000X-0.170000X0.140000X0.170000X-0.140000X0.170000X0*%
%ADD16RoundRect,0.135000X0.135000X0.185000X-0.135000X0.185000X-0.135000X-0.185000X0.135000X-0.185000X0*%
%ADD17RoundRect,0.150000X0.150000X-0.587500X0.150000X0.587500X-0.150000X0.587500X-0.150000X-0.587500X0*%
%ADD18RoundRect,0.150000X-0.512500X-0.150000X0.512500X-0.150000X0.512500X0.150000X-0.512500X0.150000X0*%
%ADD19RoundRect,0.150000X-0.587500X-0.150000X0.587500X-0.150000X0.587500X0.150000X-0.587500X0.150000X0*%
%ADD20RoundRect,0.135000X-0.185000X0.135000X-0.185000X-0.135000X0.185000X-0.135000X0.185000X0.135000X0*%
%ADD21C,1.000000*%
%ADD22RoundRect,0.140000X-0.170000X0.140000X-0.170000X-0.140000X0.170000X-0.140000X0.170000X0.140000X0*%
%ADD23FreePoly0,180.000000*%
%ADD24RoundRect,0.050000X0.250000X0.257500X-0.250000X0.257500X-0.250000X-0.257500X0.250000X-0.257500X0*%
%ADD25RoundRect,0.050000X0.267500X0.250000X-0.267500X0.250000X-0.267500X-0.250000X0.267500X-0.250000X0*%
%ADD26RoundRect,0.050000X1.158000X0.600000X-1.158000X0.600000X-1.158000X-0.600000X1.158000X-0.600000X0*%
%ADD27RoundRect,0.150000X0.512500X0.150000X-0.512500X0.150000X-0.512500X-0.150000X0.512500X-0.150000X0*%
%ADD28Outline5P,-0.250000X0.175000X0.075000X0.175000X0.250000X0.000000X0.250000X-0.175000X-0.250000X-0.175000X0.000000*%
%ADD29R,0.500000X0.350000*%
%ADD30RoundRect,0.140000X0.140000X0.170000X-0.140000X0.170000X-0.140000X-0.170000X0.140000X-0.170000X0*%
G04 APERTURE END LIST*
D10*
%TO.C,J4*%
X144250000Y-126150000D03*
D11*
X151750000Y-126150000D03*
D12*
X145600000Y-124000000D03*
X145600000Y-128300000D03*
X150400000Y-124000000D03*
X150400000Y-128300000D03*
%TD*%
D13*
%TO.C,R3*%
X145120000Y-110910000D03*
X145120000Y-109890000D03*
%TD*%
D14*
%TO.C,C5*%
X132100000Y-124980000D03*
X132100000Y-124020000D03*
%TD*%
D15*
%TO.C,C1*%
X148520000Y-110915000D03*
X149480000Y-110915000D03*
%TD*%
%TO.C,C8*%
X145540000Y-118915000D03*
X146500000Y-118915000D03*
%TD*%
D16*
%TO.C,R14*%
X140310000Y-119100000D03*
X139290000Y-119100000D03*
%TD*%
D17*
%TO.C,Q3*%
X140750000Y-117137500D03*
X138850000Y-117137500D03*
X139800000Y-115262500D03*
%TD*%
D13*
%TO.C,R5*%
X146320000Y-110910000D03*
X146320000Y-109890000D03*
%TD*%
D18*
%TO.C,U4*%
X159862500Y-126850000D03*
X159862500Y-125900000D03*
X159862500Y-124950000D03*
X162137500Y-124950000D03*
X162137500Y-126850000D03*
%TD*%
D14*
%TO.C,C6*%
X158100000Y-124980000D03*
X158100000Y-124020000D03*
%TD*%
%TO.C,C7*%
X163900000Y-126880000D03*
X163900000Y-125920000D03*
%TD*%
D19*
%TO.C,Q1*%
X146262500Y-103650000D03*
X146262500Y-101750000D03*
X148137500Y-102700000D03*
%TD*%
D20*
%TO.C,R12*%
X154300000Y-102190000D03*
X154300000Y-103210000D03*
%TD*%
D17*
%TO.C,Q4*%
X137050000Y-117125000D03*
X135150000Y-117125000D03*
X136100000Y-115250000D03*
%TD*%
D21*
%TO.C,TP3*%
X135700000Y-113200000D03*
%TD*%
D13*
%TO.C,R10*%
X150137500Y-106510000D03*
X150137500Y-105490000D03*
%TD*%
D16*
%TO.C,R16*%
X136610000Y-119187500D03*
X135590000Y-119187500D03*
%TD*%
D22*
%TO.C,C4*%
X147750000Y-116635000D03*
X147750000Y-117595000D03*
%TD*%
D20*
%TO.C,R20*%
X133700000Y-112190000D03*
X133700000Y-113210000D03*
%TD*%
D23*
%TO.C,U2*%
X145965000Y-114472500D03*
D24*
X146765000Y-114472500D03*
X147515000Y-114472500D03*
X148265000Y-114472500D03*
X149015000Y-114472500D03*
X149765000Y-114472500D03*
X150515000Y-114472500D03*
D25*
X145597500Y-113415000D03*
D26*
X148265000Y-113415000D03*
D25*
X150932500Y-113415000D03*
D24*
X146015000Y-112357500D03*
X146765000Y-112357500D03*
X147515000Y-112357500D03*
X148265000Y-112357500D03*
X149015000Y-112357500D03*
X149765000Y-112357500D03*
X150515000Y-112357500D03*
%TD*%
D20*
%TO.C,R4*%
X147420000Y-109890000D03*
X147420000Y-110910000D03*
%TD*%
D19*
%TO.C,Q2*%
X146262500Y-107350000D03*
X146262500Y-105450000D03*
X148137500Y-106400000D03*
%TD*%
D27*
%TO.C,U1*%
X136137500Y-124950000D03*
X136137500Y-125900000D03*
X136137500Y-126850000D03*
X133862500Y-126850000D03*
X133862500Y-124950000D03*
%TD*%
D21*
%TO.C,TP5*%
X151750000Y-105250000D03*
%TD*%
%TO.C,TP4*%
X132000000Y-113200000D03*
%TD*%
D28*
%TO.C,U5*%
X145450000Y-117775000D03*
D29*
X145450000Y-117135000D03*
X145450000Y-116495000D03*
X145450000Y-115855000D03*
X146550000Y-115855000D03*
X146550000Y-116495000D03*
X146550000Y-117135000D03*
X146550000Y-117775000D03*
%TD*%
D30*
%TO.C,C2*%
X151980000Y-116000000D03*
X151020000Y-116000000D03*
%TD*%
D14*
%TO.C,C3*%
X137900000Y-124980000D03*
X137900000Y-124020000D03*
%TD*%
D20*
%TO.C,R17*%
X139400000Y-112190000D03*
X139400000Y-113210000D03*
%TD*%
D21*
%TO.C,TP7*%
X140900000Y-113200000D03*
%TD*%
D13*
%TO.C,R6*%
X144100000Y-103110000D03*
X144100000Y-102090000D03*
%TD*%
D17*
%TO.C,Q7*%
X133250000Y-117137500D03*
X131350000Y-117137500D03*
X132300000Y-115262500D03*
%TD*%
D16*
%TO.C,R19*%
X132860000Y-119187500D03*
X131840000Y-119187500D03*
%TD*%
D13*
%TO.C,R11*%
X153000000Y-103210000D03*
X153000000Y-102190000D03*
%TD*%
%TO.C,R7*%
X144137500Y-106910000D03*
X144137500Y-105890000D03*
%TD*%
D20*
%TO.C,R9*%
X150200000Y-102190000D03*
X150200000Y-103210000D03*
%TD*%
D13*
%TO.C,R18*%
X137400000Y-113210000D03*
X137400000Y-112190000D03*
%TD*%
M02*
