%TF.GenerationSoftware,KiCad,Pcbnew,7.0.7*%
%TF.CreationDate,2023-11-09T15:37:00-05:00*%
%TF.ProjectId,Occupancy_Sensor-A,4f636375-7061-46e6-9379-5f53656e736f,rev?*%
%TF.SameCoordinates,Original*%
%TF.FileFunction,Copper,L3,Inr*%
%TF.FilePolarity,Positive*%
%FSLAX46Y46*%
G04 Gerber Fmt 4.6, Leading zero omitted, Abs format (unit mm)*
G04 Created by KiCad (PCBNEW 7.0.7) date 2023-11-09 15:37:00*
%MOMM*%
%LPD*%
G01*
G04 APERTURE LIST*
%TA.AperFunction,ComponentPad*%
%ADD10O,1.350000X1.100000*%
%TD*%
%TA.AperFunction,ViaPad*%
%ADD11C,0.800000*%
%TD*%
%TA.AperFunction,Conductor*%
%ADD12C,0.250000*%
%TD*%
%TA.AperFunction,Conductor*%
%ADD13C,0.750000*%
%TD*%
G04 APERTURE END LIST*
D10*
%TO.N,unconnected-(J4-SHIELD-PadS1)*%
%TO.C,J4*%
X145600000Y-124000000D03*
X145600000Y-128300000D03*
X150400000Y-124000000D03*
X150400000Y-128300000D03*
%TD*%
D11*
%TO.N,GND*%
X165000000Y-119400000D03*
X161800000Y-119400000D03*
%TO.N,Net-(U3-D-_in)*%
X149000000Y-122750000D03*
X147250000Y-128500000D03*
%TO.N,GND*%
X154900000Y-104300000D03*
X156700000Y-101500000D03*
X158700000Y-111400000D03*
X153400000Y-119000000D03*
X155750000Y-119500000D03*
X152700000Y-101000000D03*
X159200000Y-119400000D03*
X155700000Y-114900000D03*
X158700000Y-109400000D03*
X165000000Y-121100000D03*
X159200000Y-121100000D03*
X154800000Y-108600000D03*
X158700000Y-107400000D03*
X158700000Y-101500000D03*
X155700000Y-111800000D03*
X154000000Y-122750000D03*
X156600000Y-109400000D03*
X155750000Y-117750000D03*
X158700000Y-105400000D03*
X156400000Y-105400000D03*
X158700000Y-113400000D03*
X158700000Y-115400000D03*
X157500000Y-123000000D03*
X165000000Y-124100000D03*
X161750000Y-125900000D03*
%TO.N,+1V8*%
X165250000Y-128300000D03*
X147500000Y-115750000D03*
X164150000Y-129200000D03*
X152250000Y-117000000D03*
X162150000Y-129200000D03*
X145900000Y-102649500D03*
X165250000Y-127300000D03*
X163150000Y-129200000D03*
X139800000Y-116700000D03*
X136100000Y-117700000D03*
X144250000Y-119000000D03*
X135900000Y-120600000D03*
%TO.N,+3.3V*%
X131800000Y-129200000D03*
X153750000Y-115750000D03*
X140500000Y-111800000D03*
X133800000Y-129200000D03*
X133540000Y-101060000D03*
X130700000Y-125300000D03*
X130700000Y-128300000D03*
X130700000Y-126300000D03*
X141750000Y-103300000D03*
X158500000Y-129000000D03*
X132800000Y-129200000D03*
X130700000Y-127300000D03*
X152900000Y-105100000D03*
X131575499Y-110400000D03*
X150600000Y-109100000D03*
%TD*%
D12*
%TO.N,+1V8*%
X154800000Y-112500000D02*
X154800000Y-116100000D01*
X154800000Y-116100000D02*
X153900000Y-117000000D01*
X153800000Y-111500000D02*
X154800000Y-112500000D01*
X151749500Y-102649500D02*
X153800000Y-104700000D01*
X153800000Y-104700000D02*
X153800000Y-111500000D01*
X145900000Y-102649500D02*
X151749500Y-102649500D01*
X153900000Y-117000000D02*
X152250000Y-117000000D01*
%TO.N,Net-(U3-D-_in)*%
X149000000Y-124500000D02*
X149000000Y-122750000D01*
X147250000Y-126250000D02*
X149000000Y-124500000D01*
X147250000Y-128500000D02*
X147250000Y-126250000D01*
%TO.N,+1V8*%
X145500000Y-119000000D02*
X147500000Y-117000000D01*
X143050000Y-120200000D02*
X142250000Y-120200000D01*
D13*
X152250000Y-117000000D02*
X152250000Y-124000000D01*
X151125000Y-115875000D02*
X151000000Y-115750000D01*
D12*
X137700000Y-116700000D02*
X137100000Y-116700000D01*
D13*
X152250000Y-124000000D02*
X153500000Y-125250000D01*
D12*
X144250000Y-119000000D02*
X143050000Y-120200000D01*
X147500000Y-115250000D02*
X147500000Y-115750000D01*
X139800000Y-116700000D02*
X141800000Y-116700000D01*
X144250000Y-119000000D02*
X145500000Y-119000000D01*
X147500000Y-115615000D02*
X147500000Y-115250000D01*
X147500000Y-115750000D02*
X142750000Y-115750000D01*
D13*
X155550000Y-127300000D02*
X165250000Y-127300000D01*
D12*
X137700000Y-116700000D02*
X139800000Y-116700000D01*
D13*
X152250000Y-117000000D02*
X151125000Y-115875000D01*
D12*
X137100000Y-116700000D02*
X136100000Y-117700000D01*
D13*
X153500000Y-125250000D02*
X155550000Y-127300000D01*
D12*
X136300000Y-120200000D02*
X135900000Y-120600000D01*
X138900000Y-120200000D02*
X142250000Y-120200000D01*
X142750000Y-115750000D02*
X142500000Y-116000000D01*
X138900000Y-120200000D02*
X136300000Y-120200000D01*
D13*
X151000000Y-115750000D02*
X147500000Y-115750000D01*
D12*
X141800000Y-116700000D02*
X142500000Y-116000000D01*
X147500000Y-117000000D02*
X147500000Y-115615000D01*
%TD*%
%TA.AperFunction,Conductor*%
%TO.N,GND*%
G36*
X159093039Y-100020185D02*
G01*
X159138794Y-100072989D01*
X159150000Y-100124500D01*
X159150000Y-118750000D01*
X165875500Y-118750000D01*
X165942539Y-118769685D01*
X165988294Y-118822489D01*
X165999500Y-118874000D01*
X165999500Y-126120500D01*
X165979815Y-126187539D01*
X165927011Y-126233294D01*
X165875500Y-126244500D01*
X162037114Y-126244500D01*
X161975994Y-126251919D01*
X161975983Y-126251921D01*
X161972017Y-126252899D01*
X161969268Y-126252777D01*
X161812579Y-126291397D01*
X161782905Y-126295000D01*
X161717095Y-126295000D01*
X161687420Y-126291397D01*
X161535200Y-126253878D01*
X161527981Y-126252899D01*
X161524020Y-126251923D01*
X161483261Y-126246974D01*
X161462883Y-126244500D01*
X161462882Y-126244500D01*
X161124000Y-126244500D01*
X161123997Y-126244500D01*
X161069687Y-126250338D01*
X161018183Y-126261543D01*
X161018182Y-126261543D01*
X161018176Y-126261545D01*
X161007177Y-126264562D01*
X160991806Y-126268779D01*
X160991796Y-126268783D01*
X160905181Y-126318105D01*
X160905172Y-126318111D01*
X160852371Y-126363864D01*
X160820743Y-126396640D01*
X160774534Y-126484977D01*
X160774533Y-126484977D01*
X160754851Y-126552009D01*
X160754849Y-126552018D01*
X160752530Y-126568148D01*
X160723504Y-126631704D01*
X160664725Y-126669478D01*
X160629792Y-126674500D01*
X155860452Y-126674500D01*
X155793413Y-126654815D01*
X155772771Y-126638181D01*
X153913225Y-124778634D01*
X153913206Y-124778616D01*
X152911819Y-123777228D01*
X152878334Y-123715905D01*
X152875500Y-123689547D01*
X152875500Y-122000000D01*
X156294867Y-122000000D01*
X156313302Y-122128225D01*
X156346081Y-122199999D01*
X156367118Y-122246063D01*
X156451951Y-122343967D01*
X156560931Y-122414004D01*
X156685225Y-122450499D01*
X156685227Y-122450500D01*
X156685228Y-122450500D01*
X156814773Y-122450500D01*
X156814773Y-122450499D01*
X156939069Y-122414004D01*
X157048049Y-122343967D01*
X157132882Y-122246063D01*
X157186697Y-122128226D01*
X157205133Y-122000000D01*
X157186697Y-121871774D01*
X157132882Y-121753937D01*
X157048049Y-121656033D01*
X156939069Y-121585996D01*
X156939065Y-121585994D01*
X156939064Y-121585994D01*
X156814774Y-121549500D01*
X156814772Y-121549500D01*
X156685228Y-121549500D01*
X156685226Y-121549500D01*
X156560935Y-121585994D01*
X156560932Y-121585995D01*
X156560931Y-121585996D01*
X156539142Y-121599999D01*
X156451950Y-121656033D01*
X156367118Y-121753937D01*
X156367117Y-121753938D01*
X156313302Y-121871774D01*
X156294867Y-122000000D01*
X152875500Y-122000000D01*
X152875500Y-117499500D01*
X152895185Y-117432461D01*
X152947989Y-117386706D01*
X152999500Y-117375500D01*
X153848196Y-117375500D01*
X153873641Y-117378139D01*
X153877440Y-117378935D01*
X153884268Y-117380367D01*
X153905225Y-117377754D01*
X153919492Y-117375977D01*
X153927168Y-117375500D01*
X153931112Y-117375500D01*
X153931114Y-117375500D01*
X153931116Y-117375499D01*
X153931122Y-117375499D01*
X153948903Y-117372531D01*
X153954140Y-117371657D01*
X154008626Y-117364866D01*
X154008627Y-117364865D01*
X154008629Y-117364865D01*
X154016141Y-117362628D01*
X154023606Y-117360066D01*
X154023606Y-117360065D01*
X154023610Y-117360065D01*
X154071877Y-117333944D01*
X154121211Y-117309826D01*
X154121213Y-117309823D01*
X154127594Y-117305268D01*
X154133819Y-117300422D01*
X154133826Y-117300419D01*
X154171008Y-117260028D01*
X155028889Y-116402146D01*
X155048746Y-116386022D01*
X155057836Y-116380084D01*
X155079638Y-116352071D01*
X155084733Y-116346303D01*
X155087519Y-116343518D01*
X155087528Y-116343506D01*
X155101086Y-116324516D01*
X155134807Y-116281192D01*
X155138547Y-116274278D01*
X155142006Y-116267203D01*
X155142010Y-116267199D01*
X155152698Y-116231298D01*
X155157672Y-116214593D01*
X155175500Y-116162661D01*
X155176791Y-116154924D01*
X155177768Y-116147086D01*
X155175500Y-116092244D01*
X155175500Y-112551803D01*
X155178139Y-112526358D01*
X155178177Y-112526175D01*
X155180367Y-112515732D01*
X155178325Y-112499353D01*
X155175977Y-112480507D01*
X155175500Y-112472831D01*
X155175500Y-112468890D01*
X155175499Y-112468881D01*
X155171657Y-112445856D01*
X155164866Y-112391376D01*
X155162621Y-112383837D01*
X155160066Y-112376392D01*
X155133941Y-112328118D01*
X155133940Y-112328118D01*
X155109826Y-112278789D01*
X155109823Y-112278786D01*
X155109823Y-112278785D01*
X155105280Y-112272421D01*
X155100420Y-112266176D01*
X155100419Y-112266174D01*
X155060029Y-112228992D01*
X154686539Y-111855502D01*
X154211819Y-111380781D01*
X154178334Y-111319458D01*
X154175500Y-111293100D01*
X154175500Y-104751804D01*
X154178139Y-104726359D01*
X154178785Y-104723275D01*
X154180367Y-104715732D01*
X154177720Y-104694495D01*
X154175977Y-104680506D01*
X154175500Y-104672830D01*
X154175500Y-104668889D01*
X154175498Y-104668876D01*
X154171657Y-104645859D01*
X154164866Y-104591376D01*
X154164866Y-104591374D01*
X154164864Y-104591370D01*
X154162622Y-104583840D01*
X154160065Y-104576392D01*
X154160065Y-104576390D01*
X154133944Y-104528122D01*
X154109826Y-104478789D01*
X154109824Y-104478787D01*
X154109824Y-104478786D01*
X154105276Y-104472416D01*
X154100420Y-104466176D01*
X154100419Y-104466174D01*
X154060029Y-104428992D01*
X152051649Y-102420611D01*
X152035522Y-102400752D01*
X152029586Y-102391667D01*
X152029584Y-102391664D01*
X152027587Y-102390109D01*
X152025560Y-102387294D01*
X152022625Y-102384105D01*
X152023010Y-102383750D01*
X151986775Y-102333400D01*
X151983100Y-102263627D01*
X151984764Y-102257353D01*
X151995150Y-102221985D01*
X152005500Y-102150000D01*
X152005500Y-100124500D01*
X152025185Y-100057461D01*
X152077989Y-100011706D01*
X152129500Y-100000500D01*
X159026000Y-100000500D01*
X159093039Y-100020185D01*
G37*
%TD.AperFunction*%
%TD*%
%TA.AperFunction,Conductor*%
%TO.N,+1V8*%
G36*
X161510024Y-126511618D02*
G01*
X161510624Y-126510037D01*
X161517633Y-126512695D01*
X161517635Y-126512696D01*
X161671015Y-126550500D01*
X161828985Y-126550500D01*
X161982365Y-126512696D01*
X161982369Y-126512693D01*
X161989376Y-126510037D01*
X161989975Y-126511618D01*
X162037118Y-126500000D01*
X165875500Y-126500000D01*
X165942539Y-126519685D01*
X165988294Y-126572489D01*
X165999500Y-126624000D01*
X165999500Y-129875500D01*
X165979815Y-129942539D01*
X165927011Y-129988294D01*
X165875500Y-129999500D01*
X161379500Y-129999500D01*
X161312461Y-129979815D01*
X161266706Y-129927011D01*
X161255500Y-129875500D01*
X161255500Y-128049500D01*
X161249661Y-127995187D01*
X161247233Y-127984025D01*
X161238457Y-127943683D01*
X161238456Y-127943682D01*
X161238455Y-127943676D01*
X161231219Y-127917302D01*
X161225806Y-127907796D01*
X161181894Y-127830681D01*
X161181888Y-127830672D01*
X161136136Y-127777871D01*
X161106967Y-127749725D01*
X161103359Y-127746243D01*
X161103185Y-127746152D01*
X161066522Y-127726973D01*
X161016244Y-127678456D01*
X161000000Y-127617099D01*
X161000000Y-126624000D01*
X161019685Y-126556961D01*
X161072489Y-126511206D01*
X161124000Y-126500000D01*
X161462882Y-126500000D01*
X161510024Y-126511618D01*
G37*
%TD.AperFunction*%
%TD*%
%TA.AperFunction,Conductor*%
%TO.N,+3.3V*%
G36*
X151693039Y-100020185D02*
G01*
X151738794Y-100072989D01*
X151750000Y-100124500D01*
X151750000Y-102150000D01*
X151730315Y-102217039D01*
X151677511Y-102262794D01*
X151626000Y-102274000D01*
X146496308Y-102274000D01*
X146429269Y-102254315D01*
X146394257Y-102220438D01*
X146390483Y-102214970D01*
X146272240Y-102110217D01*
X146272238Y-102110216D01*
X146272237Y-102110215D01*
X146132365Y-102036803D01*
X145978986Y-101999000D01*
X145978985Y-101999000D01*
X145821015Y-101999000D01*
X145821014Y-101999000D01*
X145667634Y-102036803D01*
X145527762Y-102110215D01*
X145409516Y-102214971D01*
X145319781Y-102344975D01*
X145319780Y-102344976D01*
X145263762Y-102492681D01*
X145244722Y-102649499D01*
X145244722Y-102649500D01*
X145263762Y-102806318D01*
X145319780Y-102954023D01*
X145409517Y-103084030D01*
X145527760Y-103188783D01*
X145527762Y-103188784D01*
X145667634Y-103262196D01*
X145821014Y-103300000D01*
X145821015Y-103300000D01*
X145978985Y-103300000D01*
X146132365Y-103262196D01*
X146167099Y-103243966D01*
X146272240Y-103188783D01*
X146390483Y-103084030D01*
X146394257Y-103078561D01*
X146448537Y-103034571D01*
X146496308Y-103025000D01*
X151542601Y-103025000D01*
X151609640Y-103044685D01*
X151630282Y-103061319D01*
X153388181Y-104819218D01*
X153421666Y-104880541D01*
X153424500Y-104906899D01*
X153424500Y-109572471D01*
X153404815Y-109639510D01*
X153352011Y-109685265D01*
X153282853Y-109695209D01*
X153219297Y-109666184D01*
X153187706Y-109623983D01*
X153132882Y-109503938D01*
X153132882Y-109503937D01*
X153048049Y-109406033D01*
X152939069Y-109335996D01*
X152939065Y-109335994D01*
X152939064Y-109335994D01*
X152814774Y-109299500D01*
X152814772Y-109299500D01*
X152685228Y-109299500D01*
X152685226Y-109299500D01*
X152560935Y-109335994D01*
X152560932Y-109335995D01*
X152560931Y-109335996D01*
X152509677Y-109368934D01*
X152451950Y-109406033D01*
X152367118Y-109503937D01*
X152367117Y-109503938D01*
X152313302Y-109621774D01*
X152294867Y-109750000D01*
X152313302Y-109878225D01*
X152341187Y-109939283D01*
X152367118Y-109996063D01*
X152451951Y-110093967D01*
X152560931Y-110164004D01*
X152685225Y-110200499D01*
X152685227Y-110200500D01*
X152685228Y-110200500D01*
X152814773Y-110200500D01*
X152814773Y-110200499D01*
X152939069Y-110164004D01*
X153048049Y-110093967D01*
X153132882Y-109996063D01*
X153186697Y-109878226D01*
X153186697Y-109878225D01*
X153187706Y-109876016D01*
X153233461Y-109823212D01*
X153300500Y-109803528D01*
X153367540Y-109823213D01*
X153413294Y-109876017D01*
X153424500Y-109927528D01*
X153424500Y-111448196D01*
X153421862Y-111473634D01*
X153419633Y-111484268D01*
X153419633Y-111484269D01*
X153419633Y-111484271D01*
X153424023Y-111519491D01*
X153424500Y-111527167D01*
X153424500Y-111531116D01*
X153428342Y-111554141D01*
X153435134Y-111608627D01*
X153437373Y-111616147D01*
X153439934Y-111623608D01*
X153439935Y-111623610D01*
X153450527Y-111643182D01*
X153466055Y-111671877D01*
X153490174Y-111721211D01*
X153494742Y-111727609D01*
X153499582Y-111733827D01*
X153539971Y-111771009D01*
X154388181Y-112619217D01*
X154421666Y-112680540D01*
X154424500Y-112706898D01*
X154424500Y-113412987D01*
X154404815Y-113480026D01*
X154352011Y-113525781D01*
X154282853Y-113535725D01*
X154219297Y-113506700D01*
X154187707Y-113464501D01*
X154182883Y-113453939D01*
X154182882Y-113453938D01*
X154182882Y-113453937D01*
X154098049Y-113356033D01*
X153989069Y-113285996D01*
X153989065Y-113285994D01*
X153989064Y-113285994D01*
X153864774Y-113249500D01*
X153864772Y-113249500D01*
X153735228Y-113249500D01*
X153735226Y-113249500D01*
X153610935Y-113285994D01*
X153610932Y-113285995D01*
X153610931Y-113285996D01*
X153559677Y-113318934D01*
X153501950Y-113356033D01*
X153417118Y-113453937D01*
X153417117Y-113453938D01*
X153363302Y-113571774D01*
X153344867Y-113700000D01*
X153363302Y-113828225D01*
X153388179Y-113882696D01*
X153417118Y-113946063D01*
X153501951Y-114043967D01*
X153610931Y-114114004D01*
X153735225Y-114150499D01*
X153735227Y-114150500D01*
X153735228Y-114150500D01*
X153864773Y-114150500D01*
X153864773Y-114150499D01*
X153989069Y-114114004D01*
X154098049Y-114043967D01*
X154182882Y-113946063D01*
X154182884Y-113946059D01*
X154187706Y-113935501D01*
X154233460Y-113882697D01*
X154300500Y-113863012D01*
X154367539Y-113882696D01*
X154413294Y-113935500D01*
X154424500Y-113987012D01*
X154424500Y-115893100D01*
X154404815Y-115960139D01*
X154388181Y-115980781D01*
X153780781Y-116588181D01*
X153719458Y-116621666D01*
X153693100Y-116624500D01*
X152846308Y-116624500D01*
X152779269Y-116604815D01*
X152744257Y-116570938D01*
X152740483Y-116565470D01*
X152622240Y-116460717D01*
X152622238Y-116460716D01*
X152622237Y-116460715D01*
X152622233Y-116460712D01*
X152582268Y-116439737D01*
X152552213Y-116417622D01*
X151500802Y-115366211D01*
X151490981Y-115353952D01*
X151490760Y-115354135D01*
X151485788Y-115348125D01*
X151435362Y-115300771D01*
X151414476Y-115279884D01*
X151408986Y-115275625D01*
X151404561Y-115271847D01*
X151370582Y-115239938D01*
X151370580Y-115239936D01*
X151370577Y-115239935D01*
X151353029Y-115230288D01*
X151336763Y-115219604D01*
X151320936Y-115207327D01*
X151320935Y-115207326D01*
X151320933Y-115207325D01*
X151278168Y-115188818D01*
X151272922Y-115186248D01*
X151232093Y-115163803D01*
X151232092Y-115163802D01*
X151212693Y-115158822D01*
X151194281Y-115152518D01*
X151175898Y-115144562D01*
X151175892Y-115144560D01*
X151129874Y-115137272D01*
X151124152Y-115136087D01*
X151079021Y-115124500D01*
X151079019Y-115124500D01*
X151058984Y-115124500D01*
X151039586Y-115122973D01*
X151032162Y-115121797D01*
X151019805Y-115119840D01*
X151019804Y-115119840D01*
X150973416Y-115124225D01*
X150967578Y-115124500D01*
X147932930Y-115124500D01*
X147865891Y-115104815D01*
X147823875Y-115059516D01*
X147800423Y-115016179D01*
X147800420Y-115016176D01*
X147800419Y-115016174D01*
X147708219Y-114931297D01*
X147708217Y-114931295D01*
X147593455Y-114880957D01*
X147593449Y-114880956D01*
X147468565Y-114870607D01*
X147347077Y-114901372D01*
X147242165Y-114969914D01*
X147165190Y-115068812D01*
X147122147Y-115194191D01*
X147087094Y-115246742D01*
X147009517Y-115315469D01*
X147007424Y-115318501D01*
X147005742Y-115320938D01*
X146951463Y-115364929D01*
X146903692Y-115374500D01*
X142801804Y-115374500D01*
X142776357Y-115371861D01*
X142773713Y-115371306D01*
X142765729Y-115369632D01*
X142730509Y-115374023D01*
X142722832Y-115374500D01*
X142718886Y-115374500D01*
X142701606Y-115377383D01*
X142695846Y-115378344D01*
X142641368Y-115385135D01*
X142633844Y-115387375D01*
X142626392Y-115389934D01*
X142578119Y-115416057D01*
X142528790Y-115440172D01*
X142522398Y-115444735D01*
X142516174Y-115449580D01*
X142479003Y-115489958D01*
X142278788Y-115690174D01*
X141680781Y-116288181D01*
X141619458Y-116321666D01*
X141593100Y-116324500D01*
X140396308Y-116324500D01*
X140329269Y-116304815D01*
X140294257Y-116270938D01*
X140290483Y-116265470D01*
X140172240Y-116160717D01*
X140172238Y-116160716D01*
X140172237Y-116160715D01*
X140032365Y-116087303D01*
X139878986Y-116049500D01*
X139878985Y-116049500D01*
X139721015Y-116049500D01*
X139721014Y-116049500D01*
X139567634Y-116087303D01*
X139427762Y-116160715D01*
X139309516Y-116265470D01*
X139307089Y-116268987D01*
X139305742Y-116270938D01*
X139251463Y-116314929D01*
X139203692Y-116324500D01*
X137151803Y-116324500D01*
X137126358Y-116321861D01*
X137115732Y-116319633D01*
X137115729Y-116319633D01*
X137080507Y-116324023D01*
X137072831Y-116324500D01*
X137068886Y-116324500D01*
X137057371Y-116326421D01*
X137045856Y-116328342D01*
X137027696Y-116330606D01*
X136991375Y-116335134D01*
X136991371Y-116335135D01*
X136983842Y-116337377D01*
X136976383Y-116339937D01*
X136928118Y-116366058D01*
X136878791Y-116390172D01*
X136872381Y-116394748D01*
X136866175Y-116399579D01*
X136828992Y-116439970D01*
X136255780Y-117013181D01*
X136194457Y-117046666D01*
X136168099Y-117049500D01*
X136021014Y-117049500D01*
X135867634Y-117087303D01*
X135727762Y-117160715D01*
X135704648Y-117181192D01*
X135631426Y-117246061D01*
X135609516Y-117265471D01*
X135519781Y-117395475D01*
X135519780Y-117395476D01*
X135463762Y-117543181D01*
X135444722Y-117699999D01*
X135444722Y-117700000D01*
X135463762Y-117856818D01*
X135482725Y-117906818D01*
X135519780Y-118004523D01*
X135609517Y-118134530D01*
X135727760Y-118239283D01*
X135727762Y-118239284D01*
X135867634Y-118312696D01*
X136021014Y-118350500D01*
X136021015Y-118350500D01*
X136178985Y-118350500D01*
X136332365Y-118312696D01*
X136376974Y-118289283D01*
X136472240Y-118239283D01*
X136590483Y-118134530D01*
X136680220Y-118004523D01*
X136719860Y-117900000D01*
X137494867Y-117900000D01*
X137513302Y-118028225D01*
X137567117Y-118146061D01*
X137567118Y-118146063D01*
X137651951Y-118243967D01*
X137760931Y-118314004D01*
X137885225Y-118350499D01*
X137885227Y-118350500D01*
X137885228Y-118350500D01*
X138014773Y-118350500D01*
X138014773Y-118350499D01*
X138139069Y-118314004D01*
X138248049Y-118243967D01*
X138332882Y-118146063D01*
X138386697Y-118028226D01*
X138405133Y-117900000D01*
X138386697Y-117771774D01*
X138332882Y-117653937D01*
X138248049Y-117556033D01*
X138139069Y-117485996D01*
X138139065Y-117485994D01*
X138139064Y-117485994D01*
X138014774Y-117449500D01*
X138014772Y-117449500D01*
X137885228Y-117449500D01*
X137885226Y-117449500D01*
X137760935Y-117485994D01*
X137760932Y-117485995D01*
X137760931Y-117485996D01*
X137709677Y-117518934D01*
X137651950Y-117556033D01*
X137567118Y-117653937D01*
X137567117Y-117653938D01*
X137513302Y-117771774D01*
X137494867Y-117900000D01*
X136719860Y-117900000D01*
X136736237Y-117856818D01*
X136755278Y-117700000D01*
X136749102Y-117649144D01*
X136760561Y-117580224D01*
X136784514Y-117546521D01*
X137219217Y-117111819D01*
X137280541Y-117078334D01*
X137306899Y-117075500D01*
X137637340Y-117075500D01*
X139203692Y-117075500D01*
X139270731Y-117095185D01*
X139305742Y-117129061D01*
X139309517Y-117134530D01*
X139427760Y-117239283D01*
X139427762Y-117239284D01*
X139567634Y-117312696D01*
X139721014Y-117350500D01*
X139721015Y-117350500D01*
X139878985Y-117350500D01*
X140032365Y-117312696D01*
X140032364Y-117312696D01*
X140172240Y-117239283D01*
X140290483Y-117134530D01*
X140294257Y-117129061D01*
X140348537Y-117085071D01*
X140396308Y-117075500D01*
X141748196Y-117075500D01*
X141773641Y-117078139D01*
X141777440Y-117078935D01*
X141784268Y-117080367D01*
X141805225Y-117077754D01*
X141819492Y-117075977D01*
X141827168Y-117075500D01*
X141831112Y-117075500D01*
X141831114Y-117075500D01*
X141831116Y-117075499D01*
X141831122Y-117075499D01*
X141846487Y-117072934D01*
X141854140Y-117071657D01*
X141908626Y-117064866D01*
X141908627Y-117064865D01*
X141908629Y-117064865D01*
X141916141Y-117062628D01*
X141923606Y-117060066D01*
X141923606Y-117060065D01*
X141923610Y-117060065D01*
X141971877Y-117033944D01*
X142021211Y-117009826D01*
X142021213Y-117009823D01*
X142027594Y-117005268D01*
X142033819Y-117000422D01*
X142033826Y-117000419D01*
X142071008Y-116960028D01*
X142237936Y-116793100D01*
X142846106Y-116184932D01*
X142846109Y-116184927D01*
X142869223Y-116161815D01*
X142930547Y-116128333D01*
X142956900Y-116125500D01*
X146903692Y-116125500D01*
X146970731Y-116145185D01*
X147005742Y-116179061D01*
X147009517Y-116184530D01*
X147009518Y-116184531D01*
X147082726Y-116249386D01*
X147119853Y-116308574D01*
X147124500Y-116342202D01*
X147124500Y-116793100D01*
X147104815Y-116860139D01*
X147088181Y-116880781D01*
X145380781Y-118588181D01*
X145319458Y-118621666D01*
X145293100Y-118624500D01*
X144846308Y-118624500D01*
X144779269Y-118604815D01*
X144744257Y-118570938D01*
X144740483Y-118565470D01*
X144622240Y-118460717D01*
X144622238Y-118460716D01*
X144622237Y-118460715D01*
X144482365Y-118387303D01*
X144328986Y-118349500D01*
X144328985Y-118349500D01*
X144171015Y-118349500D01*
X144171014Y-118349500D01*
X144017634Y-118387303D01*
X143877762Y-118460715D01*
X143759516Y-118565471D01*
X143669781Y-118695475D01*
X143669780Y-118695476D01*
X143613762Y-118843181D01*
X143597759Y-118974987D01*
X143570137Y-119039165D01*
X143512203Y-119078222D01*
X143442350Y-119079757D01*
X143382757Y-119043283D01*
X143352342Y-118980380D01*
X143351925Y-118977688D01*
X143336697Y-118871774D01*
X143323639Y-118843181D01*
X143282882Y-118753937D01*
X143198049Y-118656033D01*
X143089069Y-118585996D01*
X143089065Y-118585994D01*
X143089064Y-118585994D01*
X142964774Y-118549500D01*
X142964772Y-118549500D01*
X142835228Y-118549500D01*
X142835226Y-118549500D01*
X142710935Y-118585994D01*
X142710932Y-118585995D01*
X142710931Y-118585996D01*
X142681648Y-118604815D01*
X142601950Y-118656033D01*
X142517118Y-118753937D01*
X142517117Y-118753938D01*
X142463302Y-118871774D01*
X142444867Y-119000000D01*
X142463302Y-119128225D01*
X142494016Y-119195477D01*
X142517118Y-119246063D01*
X142601951Y-119343967D01*
X142710931Y-119414004D01*
X142780838Y-119434530D01*
X142835225Y-119450499D01*
X142835227Y-119450500D01*
X142969100Y-119450500D01*
X143036139Y-119470185D01*
X143081894Y-119522989D01*
X143091838Y-119592147D01*
X143062813Y-119655703D01*
X143056781Y-119662181D01*
X142930781Y-119788181D01*
X142869458Y-119821666D01*
X142843100Y-119824500D01*
X136351804Y-119824500D01*
X136326357Y-119821861D01*
X136323713Y-119821306D01*
X136315729Y-119819632D01*
X136280509Y-119824023D01*
X136272832Y-119824500D01*
X136268886Y-119824500D01*
X136251606Y-119827383D01*
X136245846Y-119828344D01*
X136191368Y-119835135D01*
X136183844Y-119837375D01*
X136176392Y-119839934D01*
X136128119Y-119866057D01*
X136078790Y-119890172D01*
X136072398Y-119894735D01*
X136066173Y-119899581D01*
X136057055Y-119909486D01*
X135997167Y-119945474D01*
X135965828Y-119949500D01*
X135821014Y-119949500D01*
X135667634Y-119987303D01*
X135527762Y-120060715D01*
X135409516Y-120165471D01*
X135319781Y-120295475D01*
X135319780Y-120295476D01*
X135263762Y-120443181D01*
X135244722Y-120599999D01*
X135244722Y-120600000D01*
X135263762Y-120756818D01*
X135278424Y-120795477D01*
X135319780Y-120904523D01*
X135409517Y-121034530D01*
X135527760Y-121139283D01*
X135527762Y-121139284D01*
X135667634Y-121212696D01*
X135821014Y-121250500D01*
X135821015Y-121250500D01*
X135978985Y-121250500D01*
X136132365Y-121212696D01*
X136183237Y-121185996D01*
X136272240Y-121139283D01*
X136390483Y-121034530D01*
X136480220Y-120904523D01*
X136536237Y-120756818D01*
X136545011Y-120684552D01*
X136572632Y-120620376D01*
X136630566Y-120581319D01*
X136668107Y-120575500D01*
X138837340Y-120575500D01*
X142187340Y-120575500D01*
X142998196Y-120575500D01*
X143023641Y-120578139D01*
X143027440Y-120578935D01*
X143034268Y-120580367D01*
X143055225Y-120577754D01*
X143069492Y-120575977D01*
X143077168Y-120575500D01*
X143081112Y-120575500D01*
X143081114Y-120575500D01*
X143081116Y-120575499D01*
X143081122Y-120575499D01*
X143096487Y-120572934D01*
X143104140Y-120571657D01*
X143158626Y-120564866D01*
X143158627Y-120564865D01*
X143158629Y-120564865D01*
X143166141Y-120562628D01*
X143173606Y-120560066D01*
X143173606Y-120560065D01*
X143173610Y-120560065D01*
X143221877Y-120533944D01*
X143271211Y-120509826D01*
X143271213Y-120509823D01*
X143277594Y-120505268D01*
X143283819Y-120500422D01*
X143283826Y-120500419D01*
X143321008Y-120460028D01*
X143916939Y-119864096D01*
X143978260Y-119830613D01*
X144047951Y-119835597D01*
X144103885Y-119877468D01*
X144128302Y-119942933D01*
X144117413Y-120003290D01*
X144063302Y-120121776D01*
X144044867Y-120250000D01*
X144063302Y-120378225D01*
X144094283Y-120446062D01*
X144117118Y-120496063D01*
X144201951Y-120593967D01*
X144310931Y-120664004D01*
X144315924Y-120665470D01*
X144435225Y-120700499D01*
X144435227Y-120700500D01*
X144435228Y-120700500D01*
X144564773Y-120700500D01*
X144564773Y-120700499D01*
X144689069Y-120664004D01*
X144798049Y-120593967D01*
X144882882Y-120496063D01*
X144936697Y-120378226D01*
X144955133Y-120250000D01*
X144936697Y-120121774D01*
X144882882Y-120003937D01*
X144798049Y-119906033D01*
X144689069Y-119835996D01*
X144689068Y-119835995D01*
X144689064Y-119835993D01*
X144577758Y-119803312D01*
X144518979Y-119765538D01*
X144489954Y-119701983D01*
X144499897Y-119632824D01*
X144545652Y-119580020D01*
X144555047Y-119574548D01*
X144622240Y-119539283D01*
X144740483Y-119434530D01*
X144744257Y-119429061D01*
X144798537Y-119385071D01*
X144846308Y-119375500D01*
X145448196Y-119375500D01*
X145473641Y-119378139D01*
X145477440Y-119378935D01*
X145484268Y-119380367D01*
X145505225Y-119377754D01*
X145519492Y-119375977D01*
X145527168Y-119375500D01*
X145531112Y-119375500D01*
X145531114Y-119375500D01*
X145531116Y-119375499D01*
X145531122Y-119375499D01*
X145546487Y-119372934D01*
X145554140Y-119371657D01*
X145608626Y-119364866D01*
X145608627Y-119364865D01*
X145608629Y-119364865D01*
X145616141Y-119362628D01*
X145623606Y-119360066D01*
X145623606Y-119360065D01*
X145623610Y-119360065D01*
X145671877Y-119333944D01*
X145721211Y-119309826D01*
X145721213Y-119309823D01*
X145727594Y-119305268D01*
X145733819Y-119300422D01*
X145733826Y-119300419D01*
X145771008Y-119260028D01*
X146481036Y-118550000D01*
X149794867Y-118550000D01*
X149813302Y-118678225D01*
X149821181Y-118695477D01*
X149867118Y-118796063D01*
X149951951Y-118893967D01*
X150060931Y-118964004D01*
X150185225Y-119000499D01*
X150185227Y-119000500D01*
X150185228Y-119000500D01*
X150314773Y-119000500D01*
X150314773Y-119000499D01*
X150439069Y-118964004D01*
X150548049Y-118893967D01*
X150632882Y-118796063D01*
X150686697Y-118678226D01*
X150705133Y-118550000D01*
X150686697Y-118421774D01*
X150632882Y-118303937D01*
X150548049Y-118206033D01*
X150439069Y-118135996D01*
X150439065Y-118135994D01*
X150439064Y-118135994D01*
X150314774Y-118099500D01*
X150314772Y-118099500D01*
X150185228Y-118099500D01*
X150185226Y-118099500D01*
X150060935Y-118135994D01*
X150060932Y-118135995D01*
X150060931Y-118135996D01*
X150009677Y-118168934D01*
X149951950Y-118206033D01*
X149867118Y-118303937D01*
X149867117Y-118303938D01*
X149813302Y-118421774D01*
X149794867Y-118550000D01*
X146481036Y-118550000D01*
X147728889Y-117302146D01*
X147748746Y-117286022D01*
X147757836Y-117280084D01*
X147779638Y-117252071D01*
X147784733Y-117246303D01*
X147787519Y-117243518D01*
X147790542Y-117239284D01*
X147801086Y-117224516D01*
X147834807Y-117181192D01*
X147838547Y-117174280D01*
X147842003Y-117167207D01*
X147842010Y-117167199D01*
X147857670Y-117114596D01*
X147875500Y-117062660D01*
X147875500Y-117062655D01*
X147876790Y-117054924D01*
X147877768Y-117047085D01*
X147875500Y-116992244D01*
X147875500Y-116499500D01*
X147895185Y-116432461D01*
X147947989Y-116386706D01*
X147999500Y-116375500D01*
X149966164Y-116375500D01*
X150033203Y-116395185D01*
X150078958Y-116447989D01*
X150088902Y-116517147D01*
X150059877Y-116580703D01*
X150033204Y-116603814D01*
X150031648Y-116604815D01*
X149951950Y-116656033D01*
X149867118Y-116753937D01*
X149867117Y-116753938D01*
X149813302Y-116871774D01*
X149794867Y-117000000D01*
X149813302Y-117128225D01*
X149837492Y-117181192D01*
X149867118Y-117246063D01*
X149951951Y-117343967D01*
X150060931Y-117414004D01*
X150185225Y-117450499D01*
X150185227Y-117450500D01*
X150185228Y-117450500D01*
X150314773Y-117450500D01*
X150314773Y-117450499D01*
X150439069Y-117414004D01*
X150548049Y-117343967D01*
X150632882Y-117246063D01*
X150686697Y-117128226D01*
X150705133Y-117000000D01*
X150686697Y-116871774D01*
X150632882Y-116753937D01*
X150548049Y-116656033D01*
X150466796Y-116603815D01*
X150421042Y-116551012D01*
X150411098Y-116481853D01*
X150440123Y-116418298D01*
X150498901Y-116380523D01*
X150533836Y-116375500D01*
X150689548Y-116375500D01*
X150756587Y-116395185D01*
X150777229Y-116411819D01*
X151588181Y-117222771D01*
X151621666Y-117284094D01*
X151624500Y-117310452D01*
X151624500Y-123917255D01*
X151622775Y-123932872D01*
X151623061Y-123932899D01*
X151622326Y-123940665D01*
X151624500Y-124009814D01*
X151624500Y-124039343D01*
X151624501Y-124039360D01*
X151625368Y-124046231D01*
X151625826Y-124052050D01*
X151627290Y-124098624D01*
X151627291Y-124098627D01*
X151632880Y-124117867D01*
X151636824Y-124136911D01*
X151639336Y-124156792D01*
X151656490Y-124200119D01*
X151658382Y-124205647D01*
X151671381Y-124250388D01*
X151681580Y-124267634D01*
X151690138Y-124285103D01*
X151697514Y-124303732D01*
X151724898Y-124341423D01*
X151728106Y-124346307D01*
X151751827Y-124386416D01*
X151751833Y-124386424D01*
X151765990Y-124400580D01*
X151778628Y-124415376D01*
X151790405Y-124431586D01*
X151790406Y-124431587D01*
X151826309Y-124461288D01*
X151830620Y-124465210D01*
X152046599Y-124681189D01*
X153087062Y-125721654D01*
X153087092Y-125721682D01*
X155049197Y-127683788D01*
X155059022Y-127696051D01*
X155059243Y-127695869D01*
X155064214Y-127701878D01*
X155090217Y-127726295D01*
X155114635Y-127749226D01*
X155135529Y-127770120D01*
X155141011Y-127774373D01*
X155145443Y-127778157D01*
X155179418Y-127810062D01*
X155196976Y-127819714D01*
X155213233Y-127830393D01*
X155229064Y-127842673D01*
X155248737Y-127851186D01*
X155271833Y-127861182D01*
X155277077Y-127863750D01*
X155317908Y-127886197D01*
X155330523Y-127889435D01*
X155337305Y-127891177D01*
X155355719Y-127897481D01*
X155374104Y-127905438D01*
X155420157Y-127912732D01*
X155425826Y-127913906D01*
X155470981Y-127925500D01*
X155491016Y-127925500D01*
X155510413Y-127927026D01*
X155530196Y-127930160D01*
X155576583Y-127925775D01*
X155582422Y-127925500D01*
X160876000Y-127925500D01*
X160943039Y-127945185D01*
X160988794Y-127997989D01*
X161000000Y-128049500D01*
X161000000Y-129875500D01*
X160980315Y-129942539D01*
X160927511Y-129988294D01*
X160876000Y-129999500D01*
X130124500Y-129999500D01*
X130057461Y-129979815D01*
X130011706Y-129927011D01*
X130000500Y-129875500D01*
X130000500Y-128300003D01*
X144669435Y-128300003D01*
X144689630Y-128479249D01*
X144689631Y-128479254D01*
X144749211Y-128649523D01*
X144814819Y-128753937D01*
X144845184Y-128802262D01*
X144972738Y-128929816D01*
X145125478Y-129025789D01*
X145295744Y-129085367D01*
X145295745Y-129085368D01*
X145295750Y-129085369D01*
X145386246Y-129095565D01*
X145430040Y-129100499D01*
X145430043Y-129100500D01*
X145430046Y-129100500D01*
X145769957Y-129100500D01*
X145769958Y-129100499D01*
X145837104Y-129092934D01*
X145904249Y-129085369D01*
X145904252Y-129085368D01*
X145904255Y-129085368D01*
X146074522Y-129025789D01*
X146227262Y-128929816D01*
X146354816Y-128802262D01*
X146418122Y-128701511D01*
X146470456Y-128655221D01*
X146539509Y-128644573D01*
X146603358Y-128672948D01*
X146639057Y-128723513D01*
X146669780Y-128804523D01*
X146759517Y-128934530D01*
X146877760Y-129039283D01*
X146877762Y-129039284D01*
X147017634Y-129112696D01*
X147171014Y-129150500D01*
X147171015Y-129150500D01*
X147328985Y-129150500D01*
X147482365Y-129112696D01*
X147622237Y-129039285D01*
X147622238Y-129039283D01*
X147622240Y-129039283D01*
X147740483Y-128934530D01*
X147740485Y-128934526D01*
X147741204Y-128933890D01*
X147804437Y-128904169D01*
X147873701Y-128913353D01*
X147927004Y-128958525D01*
X147946169Y-129009059D01*
X147963302Y-129128225D01*
X147973475Y-129150500D01*
X148017118Y-129246063D01*
X148101951Y-129343967D01*
X148210931Y-129414004D01*
X148335225Y-129450499D01*
X148335227Y-129450500D01*
X148335228Y-129450500D01*
X148464773Y-129450500D01*
X148464773Y-129450499D01*
X148589069Y-129414004D01*
X148698049Y-129343967D01*
X148782882Y-129246063D01*
X148836697Y-129128226D01*
X148855133Y-129000000D01*
X148836697Y-128871774D01*
X148782882Y-128753937D01*
X148698049Y-128656033D01*
X148589069Y-128585996D01*
X148589065Y-128585994D01*
X148589064Y-128585994D01*
X148464774Y-128549500D01*
X148464772Y-128549500D01*
X148335228Y-128549500D01*
X148335226Y-128549500D01*
X148210935Y-128585994D01*
X148210932Y-128585995D01*
X148210931Y-128585996D01*
X148112081Y-128649523D01*
X148094490Y-128660828D01*
X148093374Y-128659092D01*
X148040478Y-128683244D01*
X147971320Y-128673295D01*
X147918521Y-128627535D01*
X147898842Y-128560494D01*
X147899746Y-128545558D01*
X147905278Y-128500000D01*
X147886237Y-128343182D01*
X147830220Y-128195477D01*
X147740483Y-128065470D01*
X147740481Y-128065468D01*
X147667273Y-128000611D01*
X147630146Y-127941422D01*
X147625500Y-127907796D01*
X147625500Y-126900000D01*
X149444867Y-126900000D01*
X149463302Y-127028225D01*
X149464825Y-127031559D01*
X149517118Y-127146063D01*
X149601951Y-127243967D01*
X149710931Y-127314004D01*
X149835225Y-127350499D01*
X149835227Y-127350500D01*
X149851098Y-127350500D01*
X149918137Y-127370185D01*
X149963892Y-127422989D01*
X149973836Y-127492147D01*
X149944811Y-127555703D01*
X149917070Y-127579494D01*
X149772737Y-127670184D01*
X149645184Y-127797737D01*
X149549211Y-127950476D01*
X149489631Y-128120745D01*
X149489630Y-128120750D01*
X149469435Y-128299996D01*
X149469435Y-128300003D01*
X149489630Y-128479249D01*
X149489631Y-128479254D01*
X149549211Y-128649523D01*
X149614819Y-128753937D01*
X149645184Y-128802262D01*
X149772738Y-128929816D01*
X149925478Y-129025789D01*
X150095744Y-129085367D01*
X150095745Y-129085368D01*
X150095750Y-129085369D01*
X150186246Y-129095565D01*
X150230040Y-129100499D01*
X150230043Y-129100500D01*
X150230046Y-129100500D01*
X150569957Y-129100500D01*
X150569958Y-129100499D01*
X150637104Y-129092934D01*
X150704249Y-129085369D01*
X150704252Y-129085368D01*
X150704255Y-129085368D01*
X150874522Y-129025789D01*
X151027262Y-128929816D01*
X151154816Y-128802262D01*
X151250789Y-128649522D01*
X151310368Y-128479255D01*
X151330565Y-128300000D01*
X151318788Y-128195477D01*
X151310369Y-128120750D01*
X151310368Y-128120745D01*
X151250788Y-127950476D01*
X151195409Y-127862341D01*
X151154816Y-127797738D01*
X151027262Y-127670184D01*
X150975760Y-127637823D01*
X150874523Y-127574211D01*
X150704254Y-127514631D01*
X150704249Y-127514630D01*
X150569960Y-127499500D01*
X150569954Y-127499500D01*
X150230046Y-127499500D01*
X150230034Y-127499500D01*
X150229302Y-127499541D01*
X150229127Y-127499500D01*
X150226567Y-127499500D01*
X150226567Y-127498901D01*
X150161267Y-127483635D01*
X150112632Y-127433472D01*
X150098838Y-127364977D01*
X150124264Y-127299898D01*
X150155330Y-127271420D01*
X150198049Y-127243967D01*
X150282882Y-127146063D01*
X150336697Y-127028226D01*
X150355133Y-126900000D01*
X150336697Y-126771774D01*
X150282882Y-126653937D01*
X150198049Y-126556033D01*
X150089069Y-126485996D01*
X150089065Y-126485994D01*
X150089064Y-126485994D01*
X149964774Y-126449500D01*
X149964772Y-126449500D01*
X149835228Y-126449500D01*
X149835226Y-126449500D01*
X149710935Y-126485994D01*
X149710932Y-126485995D01*
X149710931Y-126485996D01*
X149659677Y-126518934D01*
X149601950Y-126556033D01*
X149517118Y-126653937D01*
X149517117Y-126653938D01*
X149463302Y-126771774D01*
X149444867Y-126900000D01*
X147625500Y-126900000D01*
X147625500Y-126456898D01*
X147645185Y-126389859D01*
X147661814Y-126369222D01*
X147807635Y-126223401D01*
X151139500Y-126223401D01*
X151180855Y-126364247D01*
X151180856Y-126364248D01*
X151180857Y-126364250D01*
X151260222Y-126487744D01*
X151371164Y-126583877D01*
X151412453Y-126602733D01*
X151504692Y-126644858D01*
X151504695Y-126644858D01*
X151504696Y-126644859D01*
X151613484Y-126660500D01*
X151613487Y-126660500D01*
X151886513Y-126660500D01*
X151886516Y-126660500D01*
X151995304Y-126644859D01*
X151995305Y-126644858D01*
X151995307Y-126644858D01*
X152036593Y-126626002D01*
X152128836Y-126583877D01*
X152239778Y-126487744D01*
X152319143Y-126364250D01*
X152360500Y-126223399D01*
X152360500Y-126076601D01*
X152339913Y-126006488D01*
X152319144Y-125935752D01*
X152319143Y-125935751D01*
X152319143Y-125935750D01*
X152239778Y-125812256D01*
X152128836Y-125716123D01*
X152128832Y-125716121D01*
X151995307Y-125655141D01*
X151995302Y-125655140D01*
X151886516Y-125639500D01*
X151613484Y-125639500D01*
X151613483Y-125639500D01*
X151504697Y-125655140D01*
X151504692Y-125655141D01*
X151371167Y-125716121D01*
X151371162Y-125716124D01*
X151260223Y-125812254D01*
X151260220Y-125812258D01*
X151180856Y-125935751D01*
X151180855Y-125935752D01*
X151139500Y-126076598D01*
X151139500Y-126223401D01*
X147807635Y-126223401D01*
X149228889Y-124802146D01*
X149248746Y-124786022D01*
X149257836Y-124780084D01*
X149279651Y-124752054D01*
X149284719Y-124746316D01*
X149287520Y-124743517D01*
X149301088Y-124724513D01*
X149334809Y-124681189D01*
X149334810Y-124681183D01*
X149338542Y-124674289D01*
X149342003Y-124667207D01*
X149342010Y-124667199D01*
X149357670Y-124614596D01*
X149375500Y-124562660D01*
X149375500Y-124562655D01*
X149376790Y-124554924D01*
X149377768Y-124547086D01*
X149377594Y-124542902D01*
X149376216Y-124509571D01*
X149393112Y-124441778D01*
X149443980Y-124393879D01*
X149512668Y-124381086D01*
X149577369Y-124407458D01*
X149605103Y-124438475D01*
X149638889Y-124492244D01*
X149645184Y-124502262D01*
X149772738Y-124629816D01*
X149854498Y-124681189D01*
X149917070Y-124720506D01*
X149963361Y-124772841D01*
X149974009Y-124841895D01*
X149945634Y-124905743D01*
X149887244Y-124944115D01*
X149851098Y-124949500D01*
X149835226Y-124949500D01*
X149710935Y-124985994D01*
X149710932Y-124985995D01*
X149710931Y-124985996D01*
X149659677Y-125018934D01*
X149601950Y-125056033D01*
X149517118Y-125153937D01*
X149517117Y-125153938D01*
X149463302Y-125271774D01*
X149444867Y-125400000D01*
X149463302Y-125528225D01*
X149514121Y-125639500D01*
X149517118Y-125646063D01*
X149601951Y-125743967D01*
X149710931Y-125814004D01*
X149835225Y-125850499D01*
X149835227Y-125850500D01*
X149835228Y-125850500D01*
X149964773Y-125850500D01*
X149964773Y-125850499D01*
X150089069Y-125814004D01*
X150198049Y-125743967D01*
X150282882Y-125646063D01*
X150336697Y-125528226D01*
X150355133Y-125400000D01*
X150336697Y-125271774D01*
X150282882Y-125153937D01*
X150198049Y-125056033D01*
X150155330Y-125028579D01*
X150109576Y-124975776D01*
X150099632Y-124906617D01*
X150128657Y-124843061D01*
X150187435Y-124805287D01*
X150226567Y-124800778D01*
X150226567Y-124800500D01*
X150228985Y-124800500D01*
X150229332Y-124800460D01*
X150230043Y-124800500D01*
X150230046Y-124800500D01*
X150569957Y-124800500D01*
X150569958Y-124800499D01*
X150637104Y-124792934D01*
X150704249Y-124785369D01*
X150704252Y-124785368D01*
X150704255Y-124785368D01*
X150874522Y-124725789D01*
X151027262Y-124629816D01*
X151154816Y-124502262D01*
X151250789Y-124349522D01*
X151310368Y-124179255D01*
X151310369Y-124179249D01*
X151330565Y-124000003D01*
X151330565Y-123999996D01*
X151310369Y-123820750D01*
X151310368Y-123820745D01*
X151282432Y-123740909D01*
X151250789Y-123650478D01*
X151154816Y-123497738D01*
X151027262Y-123370184D01*
X150982729Y-123342202D01*
X150874523Y-123274211D01*
X150704254Y-123214631D01*
X150704249Y-123214630D01*
X150569960Y-123199500D01*
X150569954Y-123199500D01*
X150230046Y-123199500D01*
X150230039Y-123199500D01*
X150095750Y-123214630D01*
X150095745Y-123214631D01*
X149925476Y-123274211D01*
X149772737Y-123370184D01*
X149645182Y-123497739D01*
X149604493Y-123562496D01*
X149552158Y-123608787D01*
X149483105Y-123619434D01*
X149419257Y-123591059D01*
X149380885Y-123532669D01*
X149375500Y-123496523D01*
X149375500Y-123342202D01*
X149395185Y-123275163D01*
X149417274Y-123249386D01*
X149490482Y-123184531D01*
X149509611Y-123156818D01*
X149580220Y-123054523D01*
X149636237Y-122906818D01*
X149655278Y-122750000D01*
X149643197Y-122650499D01*
X149636237Y-122593181D01*
X149614992Y-122537163D01*
X149580220Y-122445477D01*
X149490483Y-122315470D01*
X149372240Y-122210717D01*
X149372238Y-122210716D01*
X149372237Y-122210715D01*
X149351822Y-122200000D01*
X150144867Y-122200000D01*
X150163302Y-122328225D01*
X150190283Y-122387304D01*
X150217118Y-122446063D01*
X150301951Y-122543967D01*
X150410931Y-122614004D01*
X150535225Y-122650499D01*
X150535227Y-122650500D01*
X150535228Y-122650500D01*
X150664773Y-122650500D01*
X150664773Y-122650499D01*
X150789069Y-122614004D01*
X150898049Y-122543967D01*
X150982882Y-122446063D01*
X151036697Y-122328226D01*
X151055133Y-122200000D01*
X151036697Y-122071774D01*
X150982882Y-121953937D01*
X150898049Y-121856033D01*
X150789069Y-121785996D01*
X150789065Y-121785994D01*
X150789064Y-121785994D01*
X150664774Y-121749500D01*
X150664772Y-121749500D01*
X150535228Y-121749500D01*
X150535226Y-121749500D01*
X150410935Y-121785994D01*
X150410932Y-121785995D01*
X150410931Y-121785996D01*
X150359677Y-121818934D01*
X150301950Y-121856033D01*
X150217118Y-121953937D01*
X150217117Y-121953938D01*
X150163302Y-122071774D01*
X150144867Y-122200000D01*
X149351822Y-122200000D01*
X149232365Y-122137303D01*
X149078986Y-122099500D01*
X149078985Y-122099500D01*
X148921015Y-122099500D01*
X148921014Y-122099500D01*
X148767634Y-122137303D01*
X148627762Y-122210715D01*
X148509516Y-122315471D01*
X148419781Y-122445475D01*
X148419780Y-122445476D01*
X148363762Y-122593181D01*
X148344722Y-122749999D01*
X148344722Y-122750000D01*
X148363762Y-122906818D01*
X148419780Y-123054523D01*
X148419781Y-123054524D01*
X148509517Y-123184531D01*
X148582726Y-123249386D01*
X148619853Y-123308574D01*
X148624500Y-123342202D01*
X148624500Y-124293099D01*
X148604815Y-124360138D01*
X148588181Y-124380780D01*
X147021108Y-125947852D01*
X147001254Y-125963976D01*
X146992165Y-125969914D01*
X146992164Y-125969915D01*
X146970363Y-125997923D01*
X146965286Y-126003674D01*
X146962484Y-126006477D01*
X146962474Y-126006488D01*
X146948905Y-126025495D01*
X146915192Y-126068808D01*
X146911447Y-126075729D01*
X146907988Y-126082804D01*
X146892329Y-126135403D01*
X146874500Y-126187338D01*
X146873206Y-126195092D01*
X146872231Y-126202911D01*
X146874500Y-126257755D01*
X146874500Y-127907796D01*
X146854815Y-127974835D01*
X146832727Y-128000611D01*
X146759517Y-128065469D01*
X146719888Y-128122881D01*
X146665605Y-128166871D01*
X146596157Y-128174530D01*
X146533592Y-128143426D01*
X146500797Y-128093394D01*
X146491025Y-128065468D01*
X146450789Y-127950478D01*
X146354816Y-127797738D01*
X146227262Y-127670184D01*
X146082930Y-127579494D01*
X146036639Y-127527159D01*
X146025991Y-127458105D01*
X146054366Y-127394257D01*
X146112756Y-127355885D01*
X146148902Y-127350500D01*
X146164773Y-127350500D01*
X146164773Y-127350499D01*
X146289069Y-127314004D01*
X146398049Y-127243967D01*
X146482882Y-127146063D01*
X146536697Y-127028226D01*
X146555133Y-126900000D01*
X146536697Y-126771774D01*
X146482882Y-126653937D01*
X146398049Y-126556033D01*
X146289069Y-126485996D01*
X146289065Y-126485994D01*
X146289064Y-126485994D01*
X146164774Y-126449500D01*
X146164772Y-126449500D01*
X146035228Y-126449500D01*
X146035226Y-126449500D01*
X145910935Y-126485994D01*
X145910932Y-126485995D01*
X145910931Y-126485996D01*
X145859677Y-126518934D01*
X145801950Y-126556033D01*
X145717118Y-126653937D01*
X145717117Y-126653938D01*
X145663302Y-126771774D01*
X145644867Y-126900000D01*
X145663302Y-127028225D01*
X145664825Y-127031559D01*
X145717118Y-127146063D01*
X145801951Y-127243967D01*
X145844668Y-127271420D01*
X145890423Y-127324223D01*
X145900367Y-127393381D01*
X145871342Y-127456937D01*
X145812565Y-127494712D01*
X145773433Y-127499225D01*
X145773433Y-127499500D01*
X145771050Y-127499500D01*
X145770695Y-127499541D01*
X145769963Y-127499500D01*
X145769954Y-127499500D01*
X145430046Y-127499500D01*
X145430039Y-127499500D01*
X145295750Y-127514630D01*
X145295745Y-127514631D01*
X145125476Y-127574211D01*
X144972737Y-127670184D01*
X144845184Y-127797737D01*
X144749211Y-127950476D01*
X144689631Y-128120745D01*
X144689630Y-128120750D01*
X144669435Y-128299996D01*
X144669435Y-128300003D01*
X130000500Y-128300003D01*
X130000500Y-126223401D01*
X143739500Y-126223401D01*
X143780855Y-126364247D01*
X143780856Y-126364248D01*
X143780857Y-126364250D01*
X143860222Y-126487744D01*
X143971164Y-126583877D01*
X144012453Y-126602733D01*
X144104692Y-126644858D01*
X144104695Y-126644858D01*
X144104696Y-126644859D01*
X144213484Y-126660500D01*
X144213487Y-126660500D01*
X144286513Y-126660500D01*
X144286516Y-126660500D01*
X144395304Y-126644859D01*
X144395305Y-126644858D01*
X144395307Y-126644858D01*
X144436593Y-126626002D01*
X144528836Y-126583877D01*
X144639778Y-126487744D01*
X144719143Y-126364250D01*
X144760500Y-126223399D01*
X144760500Y-126076601D01*
X144739913Y-126006488D01*
X144719144Y-125935752D01*
X144719143Y-125935751D01*
X144719143Y-125935750D01*
X144639778Y-125812256D01*
X144528836Y-125716123D01*
X144528832Y-125716121D01*
X144395307Y-125655141D01*
X144395302Y-125655140D01*
X144286516Y-125639500D01*
X144213484Y-125639500D01*
X144213483Y-125639500D01*
X144104697Y-125655140D01*
X144104692Y-125655141D01*
X143971167Y-125716121D01*
X143971162Y-125716124D01*
X143860223Y-125812254D01*
X143860220Y-125812258D01*
X143780856Y-125935751D01*
X143780855Y-125935752D01*
X143739500Y-126076598D01*
X143739500Y-126223401D01*
X130000500Y-126223401D01*
X130000500Y-125000000D01*
X138444867Y-125000000D01*
X138463302Y-125128225D01*
X138475045Y-125153937D01*
X138517118Y-125246063D01*
X138601951Y-125343967D01*
X138710931Y-125414004D01*
X138835225Y-125450499D01*
X138835227Y-125450500D01*
X138835228Y-125450500D01*
X138964773Y-125450500D01*
X138964773Y-125450499D01*
X139089069Y-125414004D01*
X139198049Y-125343967D01*
X139256285Y-125276757D01*
X139315063Y-125238981D01*
X139384933Y-125238980D01*
X139443710Y-125276753D01*
X139443713Y-125276756D01*
X139443714Y-125276757D01*
X139501948Y-125343965D01*
X139501950Y-125343966D01*
X139501951Y-125343967D01*
X139610931Y-125414004D01*
X139735225Y-125450499D01*
X139735227Y-125450500D01*
X139735228Y-125450500D01*
X139864773Y-125450500D01*
X139864773Y-125450499D01*
X139989069Y-125414004D01*
X140098049Y-125343967D01*
X140182882Y-125246063D01*
X140236697Y-125128226D01*
X140255133Y-125000000D01*
X140236697Y-124871774D01*
X140182882Y-124753937D01*
X140098049Y-124656033D01*
X139989069Y-124585996D01*
X139989065Y-124585994D01*
X139989064Y-124585994D01*
X139864774Y-124549500D01*
X139864772Y-124549500D01*
X139735228Y-124549500D01*
X139735226Y-124549500D01*
X139610935Y-124585994D01*
X139610932Y-124585995D01*
X139610931Y-124585996D01*
X139559677Y-124618934D01*
X139501950Y-124656033D01*
X139443714Y-124723243D01*
X139384936Y-124761018D01*
X139315066Y-124761018D01*
X139256288Y-124723244D01*
X139256286Y-124723243D01*
X139198049Y-124656033D01*
X139157254Y-124629816D01*
X139089069Y-124585996D01*
X139089065Y-124585994D01*
X139089064Y-124585994D01*
X138964774Y-124549500D01*
X138964772Y-124549500D01*
X138835228Y-124549500D01*
X138835226Y-124549500D01*
X138710935Y-124585994D01*
X138710932Y-124585995D01*
X138710931Y-124585996D01*
X138659677Y-124618934D01*
X138601950Y-124656033D01*
X138517118Y-124753937D01*
X138517117Y-124753938D01*
X138463302Y-124871774D01*
X138444867Y-125000000D01*
X130000500Y-125000000D01*
X130000500Y-123750000D01*
X134294867Y-123750000D01*
X134313302Y-123878225D01*
X134341818Y-123940665D01*
X134367118Y-123996063D01*
X134451951Y-124093967D01*
X134560931Y-124164004D01*
X134685225Y-124200499D01*
X134685227Y-124200500D01*
X134685228Y-124200500D01*
X134814773Y-124200500D01*
X134814773Y-124200499D01*
X134939069Y-124164004D01*
X135048049Y-124093967D01*
X135132882Y-123996063D01*
X135186697Y-123878226D01*
X135205133Y-123750000D01*
X143294867Y-123750000D01*
X143313302Y-123878225D01*
X143341818Y-123940665D01*
X143367118Y-123996063D01*
X143451951Y-124093967D01*
X143560931Y-124164004D01*
X143685225Y-124200499D01*
X143685227Y-124200500D01*
X143685228Y-124200500D01*
X143814773Y-124200500D01*
X143814773Y-124200499D01*
X143939069Y-124164004D01*
X144048049Y-124093967D01*
X144129468Y-124000003D01*
X144669435Y-124000003D01*
X144689630Y-124179249D01*
X144689631Y-124179254D01*
X144749211Y-124349523D01*
X144838889Y-124492244D01*
X144845184Y-124502262D01*
X144972738Y-124629816D01*
X145032233Y-124667199D01*
X145123448Y-124724514D01*
X145125478Y-124725789D01*
X145226157Y-124761018D01*
X145295745Y-124785368D01*
X145295750Y-124785369D01*
X145386246Y-124795565D01*
X145430040Y-124800499D01*
X145430043Y-124800500D01*
X145430046Y-124800500D01*
X145769955Y-124800500D01*
X145770666Y-124800460D01*
X145770837Y-124800500D01*
X145773433Y-124800500D01*
X145773433Y-124801106D01*
X145838705Y-124816349D01*
X145887353Y-124866500D01*
X145901164Y-124934991D01*
X145875754Y-125000076D01*
X145844669Y-125028579D01*
X145801951Y-125056032D01*
X145717118Y-125153937D01*
X145717117Y-125153938D01*
X145663302Y-125271774D01*
X145644867Y-125400000D01*
X145663302Y-125528225D01*
X145714121Y-125639500D01*
X145717118Y-125646063D01*
X145801951Y-125743967D01*
X145910931Y-125814004D01*
X146035225Y-125850499D01*
X146035227Y-125850500D01*
X146035228Y-125850500D01*
X146164773Y-125850500D01*
X146164773Y-125850499D01*
X146289069Y-125814004D01*
X146398049Y-125743967D01*
X146482882Y-125646063D01*
X146536697Y-125528226D01*
X146555133Y-125400000D01*
X146536697Y-125271774D01*
X146482882Y-125153937D01*
X146398049Y-125056033D01*
X146289069Y-124985996D01*
X146289065Y-124985994D01*
X146289064Y-124985994D01*
X146164774Y-124949500D01*
X146164772Y-124949500D01*
X146148902Y-124949500D01*
X146081863Y-124929815D01*
X146036108Y-124877011D01*
X146026164Y-124807853D01*
X146055189Y-124744297D01*
X146082930Y-124720506D01*
X146145502Y-124681189D01*
X146227262Y-124629816D01*
X146354816Y-124502262D01*
X146450789Y-124349522D01*
X146510368Y-124179255D01*
X146510369Y-124179249D01*
X146530565Y-124000003D01*
X146530565Y-123999996D01*
X146510369Y-123820750D01*
X146510368Y-123820745D01*
X146482432Y-123740909D01*
X146450789Y-123650478D01*
X146354816Y-123497738D01*
X146227262Y-123370184D01*
X146182729Y-123342202D01*
X146074523Y-123274211D01*
X145904254Y-123214631D01*
X145904249Y-123214630D01*
X145769960Y-123199500D01*
X145769954Y-123199500D01*
X145430046Y-123199500D01*
X145430039Y-123199500D01*
X145295750Y-123214630D01*
X145295745Y-123214631D01*
X145125476Y-123274211D01*
X144972737Y-123370184D01*
X144845184Y-123497737D01*
X144749211Y-123650476D01*
X144689631Y-123820745D01*
X144689630Y-123820750D01*
X144669435Y-123999996D01*
X144669435Y-124000003D01*
X144129468Y-124000003D01*
X144132882Y-123996063D01*
X144186697Y-123878226D01*
X144205133Y-123750000D01*
X144186697Y-123621774D01*
X144132882Y-123503937D01*
X144048049Y-123406033D01*
X143939069Y-123335996D01*
X143939065Y-123335994D01*
X143939064Y-123335994D01*
X143814774Y-123299500D01*
X143814772Y-123299500D01*
X143685228Y-123299500D01*
X143685226Y-123299500D01*
X143560935Y-123335994D01*
X143560932Y-123335995D01*
X143560931Y-123335996D01*
X143519385Y-123362696D01*
X143451950Y-123406033D01*
X143367118Y-123503937D01*
X143367117Y-123503938D01*
X143313302Y-123621774D01*
X143294867Y-123750000D01*
X135205133Y-123750000D01*
X135186697Y-123621774D01*
X135132882Y-123503937D01*
X135048049Y-123406033D01*
X134939069Y-123335996D01*
X134939065Y-123335994D01*
X134939064Y-123335994D01*
X134814774Y-123299500D01*
X134814772Y-123299500D01*
X134685228Y-123299500D01*
X134685226Y-123299500D01*
X134560935Y-123335994D01*
X134560932Y-123335995D01*
X134560931Y-123335996D01*
X134519385Y-123362696D01*
X134451950Y-123406033D01*
X134367118Y-123503937D01*
X134367117Y-123503938D01*
X134313302Y-123621774D01*
X134294867Y-123750000D01*
X130000500Y-123750000D01*
X130000500Y-122775000D01*
X146594465Y-122775000D01*
X146612900Y-122903225D01*
X146614541Y-122906818D01*
X146666716Y-123021063D01*
X146751549Y-123118967D01*
X146860529Y-123189004D01*
X146984823Y-123225499D01*
X146984825Y-123225500D01*
X146984826Y-123225500D01*
X147114371Y-123225500D01*
X147114371Y-123225499D01*
X147238667Y-123189004D01*
X147347647Y-123118967D01*
X147432480Y-123021063D01*
X147486295Y-122903226D01*
X147504731Y-122775000D01*
X147486295Y-122646774D01*
X147432480Y-122528937D01*
X147347647Y-122431033D01*
X147238667Y-122360996D01*
X147238663Y-122360994D01*
X147238662Y-122360994D01*
X147114372Y-122324500D01*
X147114370Y-122324500D01*
X146984826Y-122324500D01*
X146984824Y-122324500D01*
X146860533Y-122360994D01*
X146860530Y-122360995D01*
X146860529Y-122360996D01*
X146819593Y-122387304D01*
X146751548Y-122431033D01*
X146666716Y-122528937D01*
X146666715Y-122528938D01*
X146612900Y-122646774D01*
X146594465Y-122775000D01*
X130000500Y-122775000D01*
X130000500Y-122000000D01*
X131844867Y-122000000D01*
X131863302Y-122128225D01*
X131896081Y-122200000D01*
X131917118Y-122246063D01*
X132001951Y-122343967D01*
X132110931Y-122414004D01*
X132220117Y-122446063D01*
X132235225Y-122450499D01*
X132235227Y-122450500D01*
X132235228Y-122450500D01*
X132364773Y-122450500D01*
X132364773Y-122450499D01*
X132489069Y-122414004D01*
X132598049Y-122343967D01*
X132682882Y-122246063D01*
X132736697Y-122128226D01*
X132755133Y-122000000D01*
X132736697Y-121871774D01*
X132682882Y-121753937D01*
X132598049Y-121656033D01*
X132510860Y-121600000D01*
X138244867Y-121600000D01*
X138263302Y-121728225D01*
X138273475Y-121750500D01*
X138317118Y-121846063D01*
X138401951Y-121943967D01*
X138510931Y-122014004D01*
X138635225Y-122050499D01*
X138635227Y-122050500D01*
X138635228Y-122050500D01*
X138764773Y-122050500D01*
X138764773Y-122050499D01*
X138889069Y-122014004D01*
X138910860Y-122000000D01*
X141144867Y-122000000D01*
X141163302Y-122128225D01*
X141196081Y-122200000D01*
X141217118Y-122246063D01*
X141301951Y-122343967D01*
X141410931Y-122414004D01*
X141520117Y-122446063D01*
X141535225Y-122450499D01*
X141535227Y-122450500D01*
X141535228Y-122450500D01*
X141664773Y-122450500D01*
X141664773Y-122450499D01*
X141789069Y-122414004D01*
X141898049Y-122343967D01*
X141982882Y-122246063D01*
X142036697Y-122128226D01*
X142055133Y-122000000D01*
X142036697Y-121871774D01*
X141982882Y-121753937D01*
X141898049Y-121656033D01*
X141789069Y-121585996D01*
X141789065Y-121585994D01*
X141789064Y-121585994D01*
X141664774Y-121549500D01*
X141664772Y-121549500D01*
X141535228Y-121549500D01*
X141535226Y-121549500D01*
X141410935Y-121585994D01*
X141410932Y-121585995D01*
X141410931Y-121585996D01*
X141359677Y-121618934D01*
X141301950Y-121656033D01*
X141217118Y-121753937D01*
X141217117Y-121753938D01*
X141163302Y-121871774D01*
X141144867Y-122000000D01*
X138910860Y-122000000D01*
X138998049Y-121943967D01*
X139082882Y-121846063D01*
X139136697Y-121728226D01*
X139155133Y-121600000D01*
X139136697Y-121471774D01*
X139082882Y-121353937D01*
X138998049Y-121256033D01*
X138889069Y-121185996D01*
X138889065Y-121185994D01*
X138889064Y-121185994D01*
X138764774Y-121149500D01*
X138764772Y-121149500D01*
X138635228Y-121149500D01*
X138635226Y-121149500D01*
X138510935Y-121185994D01*
X138510932Y-121185995D01*
X138510931Y-121185996D01*
X138469385Y-121212696D01*
X138401950Y-121256033D01*
X138317118Y-121353937D01*
X138317117Y-121353938D01*
X138263302Y-121471774D01*
X138244867Y-121600000D01*
X132510860Y-121600000D01*
X132489069Y-121585996D01*
X132489065Y-121585994D01*
X132489064Y-121585994D01*
X132364774Y-121549500D01*
X132364772Y-121549500D01*
X132235228Y-121549500D01*
X132235226Y-121549500D01*
X132110935Y-121585994D01*
X132110932Y-121585995D01*
X132110931Y-121585996D01*
X132059677Y-121618934D01*
X132001950Y-121656033D01*
X131917118Y-121753937D01*
X131917117Y-121753938D01*
X131863302Y-121871774D01*
X131844867Y-122000000D01*
X130000500Y-122000000D01*
X130000500Y-120200000D01*
X133244867Y-120200000D01*
X133263302Y-120328225D01*
X133315802Y-120443181D01*
X133317118Y-120446063D01*
X133401951Y-120543967D01*
X133510931Y-120614004D01*
X133532633Y-120620376D01*
X133635225Y-120650499D01*
X133635227Y-120650500D01*
X133635228Y-120650500D01*
X133764773Y-120650500D01*
X133764773Y-120650499D01*
X133889069Y-120614004D01*
X133998049Y-120543967D01*
X134082882Y-120446063D01*
X134136697Y-120328226D01*
X134155133Y-120200000D01*
X134136697Y-120071774D01*
X134082882Y-119953937D01*
X133998049Y-119856033D01*
X133889069Y-119785996D01*
X133889065Y-119785994D01*
X133889064Y-119785994D01*
X133764774Y-119749500D01*
X133764772Y-119749500D01*
X133635228Y-119749500D01*
X133635226Y-119749500D01*
X133510935Y-119785994D01*
X133510932Y-119785995D01*
X133510931Y-119785996D01*
X133459677Y-119818934D01*
X133401950Y-119856033D01*
X133317118Y-119953937D01*
X133317117Y-119953938D01*
X133263302Y-120071774D01*
X133244867Y-120200000D01*
X130000500Y-120200000D01*
X130000500Y-116300000D01*
X133794867Y-116300000D01*
X133813302Y-116428225D01*
X133828139Y-116460712D01*
X133867118Y-116546063D01*
X133951951Y-116643967D01*
X134060931Y-116714004D01*
X134185225Y-116750499D01*
X134185227Y-116750500D01*
X134185228Y-116750500D01*
X134314773Y-116750500D01*
X134314773Y-116750499D01*
X134439069Y-116714004D01*
X134548049Y-116643967D01*
X134632882Y-116546063D01*
X134686697Y-116428226D01*
X134705133Y-116300000D01*
X134686697Y-116171774D01*
X134632882Y-116053937D01*
X134548049Y-115956033D01*
X134439069Y-115885996D01*
X134439065Y-115885994D01*
X134439064Y-115885994D01*
X134314774Y-115849500D01*
X134314772Y-115849500D01*
X134185228Y-115849500D01*
X134185226Y-115849500D01*
X134060935Y-115885994D01*
X134060932Y-115885995D01*
X134060931Y-115885996D01*
X134009677Y-115918934D01*
X133951950Y-115956033D01*
X133867118Y-116053937D01*
X133867117Y-116053938D01*
X133813302Y-116171774D01*
X133794867Y-116300000D01*
X130000500Y-116300000D01*
X130000500Y-115600000D01*
X140544867Y-115600000D01*
X140563302Y-115728225D01*
X140611851Y-115834530D01*
X140617118Y-115846063D01*
X140701951Y-115943967D01*
X140810931Y-116014004D01*
X140935225Y-116050499D01*
X140935227Y-116050500D01*
X140935228Y-116050500D01*
X141064773Y-116050500D01*
X141064773Y-116050499D01*
X141189069Y-116014004D01*
X141298049Y-115943967D01*
X141382882Y-115846063D01*
X141436697Y-115728226D01*
X141455133Y-115600000D01*
X141436697Y-115471774D01*
X141382882Y-115353937D01*
X141298049Y-115256033D01*
X141189069Y-115185996D01*
X141189065Y-115185994D01*
X141189064Y-115185994D01*
X141064774Y-115149500D01*
X141064772Y-115149500D01*
X140935228Y-115149500D01*
X140935226Y-115149500D01*
X140810935Y-115185994D01*
X140810932Y-115185995D01*
X140810931Y-115185996D01*
X140759677Y-115218934D01*
X140701950Y-115256033D01*
X140617118Y-115353937D01*
X140617117Y-115353938D01*
X140563302Y-115471774D01*
X140544867Y-115600000D01*
X130000500Y-115600000D01*
X130000500Y-112300000D01*
X152544867Y-112300000D01*
X152563302Y-112428225D01*
X152573475Y-112450500D01*
X152617118Y-112546063D01*
X152701951Y-112643967D01*
X152810931Y-112714004D01*
X152935225Y-112750499D01*
X152935227Y-112750500D01*
X152935228Y-112750500D01*
X153064773Y-112750500D01*
X153064773Y-112750499D01*
X153189069Y-112714004D01*
X153298049Y-112643967D01*
X153382882Y-112546063D01*
X153436697Y-112428226D01*
X153455133Y-112300000D01*
X153436697Y-112171774D01*
X153382882Y-112053937D01*
X153298049Y-111956033D01*
X153189069Y-111885996D01*
X153189065Y-111885994D01*
X153189064Y-111885994D01*
X153064774Y-111849500D01*
X153064772Y-111849500D01*
X152935228Y-111849500D01*
X152935226Y-111849500D01*
X152810935Y-111885994D01*
X152810932Y-111885995D01*
X152810931Y-111885996D01*
X152759677Y-111918934D01*
X152701950Y-111956033D01*
X152617118Y-112053937D01*
X152617117Y-112053938D01*
X152563302Y-112171774D01*
X152544867Y-112300000D01*
X130000500Y-112300000D01*
X130000500Y-111800000D01*
X131094867Y-111800000D01*
X131113302Y-111928225D01*
X131167117Y-112046061D01*
X131167118Y-112046063D01*
X131251951Y-112143967D01*
X131360931Y-112214004D01*
X131411977Y-112228992D01*
X131485225Y-112250499D01*
X131485227Y-112250500D01*
X131485228Y-112250500D01*
X131614773Y-112250500D01*
X131614773Y-112250499D01*
X131739069Y-112214004D01*
X131848049Y-112143967D01*
X131932882Y-112046063D01*
X131986697Y-111928226D01*
X132005133Y-111800000D01*
X150844867Y-111800000D01*
X150863302Y-111928225D01*
X150917117Y-112046061D01*
X150917118Y-112046063D01*
X151001951Y-112143967D01*
X151110931Y-112214004D01*
X151161977Y-112228992D01*
X151235225Y-112250499D01*
X151235227Y-112250500D01*
X151235228Y-112250500D01*
X151364773Y-112250500D01*
X151364773Y-112250499D01*
X151489069Y-112214004D01*
X151598049Y-112143967D01*
X151682882Y-112046063D01*
X151736697Y-111928226D01*
X151755133Y-111800000D01*
X151736697Y-111671774D01*
X151682882Y-111553937D01*
X151617576Y-111478569D01*
X151593249Y-111425297D01*
X151588707Y-111426631D01*
X151521670Y-111406947D01*
X151489066Y-111385994D01*
X151364774Y-111349500D01*
X151364772Y-111349500D01*
X151235228Y-111349500D01*
X151235226Y-111349500D01*
X151110935Y-111385994D01*
X151110932Y-111385995D01*
X151110931Y-111385996D01*
X151078331Y-111406947D01*
X151001950Y-111456033D01*
X150917118Y-111553937D01*
X150917117Y-111553938D01*
X150863302Y-111671774D01*
X150844867Y-111800000D01*
X132005133Y-111800000D01*
X131986697Y-111671774D01*
X131932882Y-111553937D01*
X131848049Y-111456033D01*
X131739069Y-111385996D01*
X131739065Y-111385994D01*
X131739064Y-111385994D01*
X131614774Y-111349500D01*
X131614772Y-111349500D01*
X131485228Y-111349500D01*
X131485226Y-111349500D01*
X131360935Y-111385994D01*
X131360932Y-111385995D01*
X131360931Y-111385996D01*
X131328331Y-111406947D01*
X131251950Y-111456033D01*
X131167118Y-111553937D01*
X131167117Y-111553938D01*
X131113302Y-111671774D01*
X131094867Y-111800000D01*
X130000500Y-111800000D01*
X130000500Y-110850000D01*
X133344867Y-110850000D01*
X133363302Y-110978225D01*
X133394283Y-111046062D01*
X133417118Y-111096063D01*
X133501951Y-111193967D01*
X133610931Y-111264004D01*
X133642823Y-111273368D01*
X133735225Y-111300499D01*
X133735227Y-111300500D01*
X133735228Y-111300500D01*
X133864773Y-111300500D01*
X133864773Y-111300499D01*
X133989069Y-111264004D01*
X134098049Y-111193967D01*
X134182882Y-111096063D01*
X134236697Y-110978226D01*
X134255133Y-110850000D01*
X134247944Y-110800000D01*
X137894867Y-110800000D01*
X137913302Y-110928225D01*
X137958972Y-111028226D01*
X137967118Y-111046063D01*
X138051951Y-111143967D01*
X138160931Y-111214004D01*
X138285225Y-111250499D01*
X138285227Y-111250500D01*
X138285228Y-111250500D01*
X138414773Y-111250500D01*
X138414773Y-111250499D01*
X138539069Y-111214004D01*
X138648049Y-111143967D01*
X138732882Y-111046063D01*
X138786697Y-110928226D01*
X138790755Y-110900000D01*
X151544867Y-110900000D01*
X151563302Y-111028225D01*
X151594283Y-111096062D01*
X151617118Y-111146063D01*
X151675988Y-111214004D01*
X151682422Y-111221429D01*
X151706749Y-111274701D01*
X151711292Y-111273368D01*
X151778328Y-111293051D01*
X151810931Y-111314004D01*
X151935225Y-111350499D01*
X151935227Y-111350500D01*
X151935228Y-111350500D01*
X152064773Y-111350500D01*
X152064773Y-111350499D01*
X152189069Y-111314004D01*
X152298049Y-111243967D01*
X152382882Y-111146063D01*
X152436697Y-111028226D01*
X152455133Y-110900000D01*
X152436697Y-110771774D01*
X152382882Y-110653937D01*
X152298049Y-110556033D01*
X152189069Y-110485996D01*
X152189065Y-110485994D01*
X152189064Y-110485994D01*
X152064774Y-110449500D01*
X152064772Y-110449500D01*
X151935228Y-110449500D01*
X151935226Y-110449500D01*
X151810934Y-110485994D01*
X151778328Y-110506948D01*
X151711288Y-110526631D01*
X151706749Y-110525298D01*
X151682422Y-110578569D01*
X151617120Y-110653932D01*
X151617117Y-110653938D01*
X151563302Y-110771774D01*
X151544867Y-110900000D01*
X138790755Y-110900000D01*
X138805133Y-110800000D01*
X138786697Y-110671774D01*
X138732882Y-110553937D01*
X138648049Y-110456033D01*
X138539069Y-110385996D01*
X138539065Y-110385994D01*
X138539064Y-110385994D01*
X138414774Y-110349500D01*
X138414772Y-110349500D01*
X138285228Y-110349500D01*
X138285226Y-110349500D01*
X138160935Y-110385994D01*
X138160932Y-110385995D01*
X138160931Y-110385996D01*
X138117350Y-110414004D01*
X138051950Y-110456033D01*
X137967118Y-110553937D01*
X137967117Y-110553938D01*
X137913302Y-110671774D01*
X137894867Y-110800000D01*
X134247944Y-110800000D01*
X134236697Y-110721774D01*
X134182882Y-110603937D01*
X134098049Y-110506033D01*
X133989069Y-110435996D01*
X133989065Y-110435994D01*
X133989064Y-110435994D01*
X133864774Y-110399500D01*
X133864772Y-110399500D01*
X133735228Y-110399500D01*
X133735226Y-110399500D01*
X133610935Y-110435994D01*
X133610932Y-110435995D01*
X133610931Y-110435996D01*
X133579753Y-110456033D01*
X133501950Y-110506033D01*
X133417118Y-110603937D01*
X133417117Y-110603938D01*
X133363302Y-110721774D01*
X133344867Y-110850000D01*
X130000500Y-110850000D01*
X130000500Y-109212169D01*
X131519867Y-109212169D01*
X131538302Y-109340395D01*
X131588130Y-109449500D01*
X131592118Y-109458233D01*
X131676951Y-109556137D01*
X131785931Y-109626174D01*
X131880489Y-109653938D01*
X131910225Y-109662669D01*
X131910227Y-109662670D01*
X131910228Y-109662670D01*
X132039773Y-109662670D01*
X132039773Y-109662669D01*
X132164069Y-109626174D01*
X132273049Y-109556137D01*
X132357882Y-109458233D01*
X132387206Y-109394022D01*
X132432961Y-109341219D01*
X132500000Y-109321535D01*
X132567040Y-109341220D01*
X132612793Y-109394022D01*
X132642118Y-109458233D01*
X132726951Y-109556137D01*
X132835931Y-109626174D01*
X132930489Y-109653938D01*
X132960225Y-109662669D01*
X132960227Y-109662670D01*
X132960228Y-109662670D01*
X133089773Y-109662670D01*
X133089773Y-109662669D01*
X133214069Y-109626174D01*
X133323049Y-109556137D01*
X133407882Y-109458233D01*
X133411642Y-109450000D01*
X134344867Y-109450000D01*
X134363302Y-109578225D01*
X134412187Y-109685265D01*
X134417118Y-109696063D01*
X134501951Y-109793967D01*
X134610931Y-109864004D01*
X134735225Y-109900499D01*
X134735227Y-109900500D01*
X134735228Y-109900500D01*
X134864773Y-109900500D01*
X134864773Y-109900499D01*
X134866473Y-109900000D01*
X138694867Y-109900000D01*
X138713302Y-110028225D01*
X138758972Y-110128226D01*
X138767118Y-110146063D01*
X138851951Y-110243967D01*
X138960931Y-110314004D01*
X139085225Y-110350499D01*
X139085227Y-110350500D01*
X139085228Y-110350500D01*
X139214773Y-110350500D01*
X139214773Y-110350499D01*
X139339069Y-110314004D01*
X139448049Y-110243967D01*
X139532882Y-110146063D01*
X139586697Y-110028226D01*
X139590755Y-110000000D01*
X150844867Y-110000000D01*
X150863302Y-110128225D01*
X150871449Y-110146063D01*
X150917118Y-110246063D01*
X151001951Y-110343967D01*
X151110931Y-110414004D01*
X151235225Y-110450499D01*
X151235227Y-110450500D01*
X151235228Y-110450500D01*
X151364773Y-110450500D01*
X151364773Y-110450499D01*
X151489069Y-110414004D01*
X151521670Y-110393052D01*
X151588707Y-110373368D01*
X151593248Y-110374701D01*
X151617577Y-110321430D01*
X151682882Y-110246063D01*
X151736697Y-110128226D01*
X151755133Y-110000000D01*
X151736697Y-109871774D01*
X151682882Y-109753937D01*
X151598049Y-109656033D01*
X151489069Y-109585996D01*
X151489065Y-109585994D01*
X151489064Y-109585994D01*
X151364774Y-109549500D01*
X151364772Y-109549500D01*
X151235228Y-109549500D01*
X151235226Y-109549500D01*
X151110935Y-109585994D01*
X151110932Y-109585995D01*
X151110931Y-109585996D01*
X151059677Y-109618934D01*
X151001950Y-109656033D01*
X150917118Y-109753937D01*
X150917117Y-109753938D01*
X150863302Y-109871774D01*
X150844867Y-110000000D01*
X139590755Y-110000000D01*
X139605133Y-109900000D01*
X139586697Y-109771774D01*
X139532882Y-109653937D01*
X139448049Y-109556033D01*
X139339069Y-109485996D01*
X139339065Y-109485994D01*
X139339064Y-109485994D01*
X139214774Y-109449500D01*
X139214772Y-109449500D01*
X139085228Y-109449500D01*
X139085226Y-109449500D01*
X138960935Y-109485994D01*
X138960932Y-109485995D01*
X138960931Y-109485996D01*
X138933013Y-109503938D01*
X138851950Y-109556033D01*
X138767118Y-109653937D01*
X138767117Y-109653938D01*
X138713302Y-109771774D01*
X138694867Y-109900000D01*
X134866473Y-109900000D01*
X134989069Y-109864004D01*
X135098049Y-109793967D01*
X135182882Y-109696063D01*
X135236697Y-109578226D01*
X135255133Y-109450000D01*
X135236697Y-109321774D01*
X135182882Y-109203937D01*
X135098049Y-109106033D01*
X134989069Y-109035996D01*
X134989065Y-109035994D01*
X134989064Y-109035994D01*
X134864774Y-108999500D01*
X134864772Y-108999500D01*
X134735228Y-108999500D01*
X134735226Y-108999500D01*
X134610935Y-109035994D01*
X134610932Y-109035995D01*
X134610931Y-109035996D01*
X134559677Y-109068934D01*
X134501950Y-109106033D01*
X134417118Y-109203937D01*
X134417117Y-109203938D01*
X134363302Y-109321774D01*
X134344867Y-109450000D01*
X133411642Y-109450000D01*
X133461697Y-109340396D01*
X133480133Y-109212170D01*
X133461697Y-109083944D01*
X133407882Y-108966107D01*
X133323049Y-108868203D01*
X133214069Y-108798166D01*
X133214065Y-108798164D01*
X133214064Y-108798164D01*
X133089774Y-108761670D01*
X133089772Y-108761670D01*
X132960228Y-108761670D01*
X132960226Y-108761670D01*
X132835935Y-108798164D01*
X132835932Y-108798165D01*
X132835931Y-108798166D01*
X132784677Y-108831104D01*
X132726950Y-108868203D01*
X132642118Y-108966107D01*
X132642117Y-108966108D01*
X132612794Y-109030316D01*
X132567039Y-109083120D01*
X132499999Y-109102804D01*
X132432960Y-109083119D01*
X132387206Y-109030316D01*
X132357882Y-108966108D01*
X132357882Y-108966107D01*
X132273049Y-108868203D01*
X132164069Y-108798166D01*
X132164065Y-108798164D01*
X132164064Y-108798164D01*
X132039774Y-108761670D01*
X132039772Y-108761670D01*
X131910228Y-108761670D01*
X131910226Y-108761670D01*
X131785935Y-108798164D01*
X131785932Y-108798165D01*
X131785931Y-108798166D01*
X131734677Y-108831104D01*
X131676950Y-108868203D01*
X131592118Y-108966107D01*
X131592117Y-108966108D01*
X131538302Y-109083944D01*
X131519867Y-109212169D01*
X130000500Y-109212169D01*
X130000500Y-108500000D01*
X143544867Y-108500000D01*
X143563302Y-108628225D01*
X143612792Y-108736590D01*
X143617118Y-108746063D01*
X143701951Y-108843967D01*
X143810931Y-108914004D01*
X143935225Y-108950499D01*
X143935227Y-108950500D01*
X143935228Y-108950500D01*
X144064773Y-108950500D01*
X144064773Y-108950499D01*
X144189069Y-108914004D01*
X144298049Y-108843967D01*
X144382882Y-108746063D01*
X144387204Y-108736598D01*
X144432955Y-108683795D01*
X144499993Y-108664107D01*
X144567034Y-108683789D01*
X144612791Y-108736590D01*
X144617116Y-108746060D01*
X144617117Y-108746061D01*
X144617118Y-108746063D01*
X144701951Y-108843967D01*
X144810931Y-108914004D01*
X144935225Y-108950499D01*
X144935227Y-108950500D01*
X144935228Y-108950500D01*
X145064773Y-108950500D01*
X145064773Y-108950499D01*
X145189069Y-108914004D01*
X145298049Y-108843967D01*
X145382882Y-108746063D01*
X145387205Y-108736595D01*
X145432961Y-108683791D01*
X145500000Y-108664107D01*
X145567040Y-108683792D01*
X145612794Y-108736595D01*
X145617118Y-108746063D01*
X145701951Y-108843967D01*
X145810931Y-108914004D01*
X145935225Y-108950499D01*
X145935227Y-108950500D01*
X145935228Y-108950500D01*
X146064773Y-108950500D01*
X146064773Y-108950499D01*
X146189069Y-108914004D01*
X146298049Y-108843967D01*
X146382882Y-108746063D01*
X146410506Y-108685575D01*
X149068777Y-108685575D01*
X149087212Y-108813800D01*
X149141027Y-108931636D01*
X149141028Y-108931638D01*
X149225861Y-109029542D01*
X149334841Y-109099579D01*
X149345825Y-109102804D01*
X149459135Y-109136074D01*
X149459137Y-109136075D01*
X149459138Y-109136075D01*
X149588683Y-109136075D01*
X149588683Y-109136074D01*
X149712979Y-109099579D01*
X149821959Y-109029542D01*
X149906792Y-108931638D01*
X149960607Y-108813801D01*
X149979043Y-108685575D01*
X149960607Y-108557349D01*
X149906792Y-108439512D01*
X149821959Y-108341608D01*
X149712979Y-108271571D01*
X149712975Y-108271569D01*
X149712974Y-108271569D01*
X149588684Y-108235075D01*
X149588682Y-108235075D01*
X149459138Y-108235075D01*
X149459136Y-108235075D01*
X149334845Y-108271569D01*
X149334842Y-108271570D01*
X149334841Y-108271571D01*
X149283587Y-108304509D01*
X149225860Y-108341608D01*
X149141028Y-108439512D01*
X149141027Y-108439513D01*
X149087212Y-108557349D01*
X149068777Y-108685575D01*
X146410506Y-108685575D01*
X146436697Y-108628226D01*
X146455133Y-108500000D01*
X146436697Y-108371774D01*
X146382882Y-108253937D01*
X146298049Y-108156033D01*
X146189069Y-108085996D01*
X146189065Y-108085994D01*
X146189064Y-108085994D01*
X146064774Y-108049500D01*
X146064772Y-108049500D01*
X145935228Y-108049500D01*
X145935226Y-108049500D01*
X145810935Y-108085994D01*
X145810932Y-108085995D01*
X145810931Y-108085996D01*
X145767350Y-108114004D01*
X145701950Y-108156033D01*
X145617118Y-108253937D01*
X145617116Y-108253940D01*
X145612793Y-108263406D01*
X145567037Y-108316209D01*
X145499997Y-108335892D01*
X145432958Y-108316206D01*
X145387207Y-108263406D01*
X145382883Y-108253940D01*
X145382882Y-108253938D01*
X145382882Y-108253937D01*
X145298049Y-108156033D01*
X145189069Y-108085996D01*
X145189065Y-108085994D01*
X145189064Y-108085994D01*
X145064774Y-108049500D01*
X145064772Y-108049500D01*
X144935228Y-108049500D01*
X144935226Y-108049500D01*
X144810935Y-108085994D01*
X144810932Y-108085995D01*
X144810931Y-108085996D01*
X144767350Y-108114004D01*
X144701950Y-108156033D01*
X144617118Y-108253937D01*
X144617115Y-108253940D01*
X144612790Y-108263411D01*
X144567031Y-108316212D01*
X144499990Y-108335892D01*
X144432952Y-108316203D01*
X144387205Y-108263403D01*
X144382882Y-108253937D01*
X144298049Y-108156033D01*
X144189069Y-108085996D01*
X144189065Y-108085994D01*
X144189064Y-108085994D01*
X144064774Y-108049500D01*
X144064772Y-108049500D01*
X143935228Y-108049500D01*
X143935226Y-108049500D01*
X143810935Y-108085994D01*
X143810932Y-108085995D01*
X143810931Y-108085996D01*
X143767350Y-108114004D01*
X143701950Y-108156033D01*
X143617118Y-108253937D01*
X143617117Y-108253938D01*
X143563302Y-108371774D01*
X143544867Y-108500000D01*
X130000500Y-108500000D01*
X130000500Y-107900000D01*
X134344867Y-107900000D01*
X134363302Y-108028225D01*
X134373475Y-108050500D01*
X134417118Y-108146063D01*
X134501951Y-108243967D01*
X134610931Y-108314004D01*
X134685477Y-108335892D01*
X134735225Y-108350499D01*
X134735227Y-108350500D01*
X134735228Y-108350500D01*
X134864773Y-108350500D01*
X134864773Y-108350499D01*
X134989069Y-108314004D01*
X135098049Y-108243967D01*
X135182882Y-108146063D01*
X135236697Y-108028226D01*
X135255133Y-107900000D01*
X135236697Y-107771774D01*
X135203919Y-107700000D01*
X137444867Y-107700000D01*
X137463302Y-107828225D01*
X137496081Y-107900000D01*
X137517118Y-107946063D01*
X137601951Y-108043967D01*
X137710931Y-108114004D01*
X137820117Y-108146063D01*
X137835225Y-108150499D01*
X137835227Y-108150500D01*
X137835228Y-108150500D01*
X137964773Y-108150500D01*
X137964773Y-108150499D01*
X138089069Y-108114004D01*
X138198049Y-108043967D01*
X138282882Y-107946063D01*
X138336697Y-107828226D01*
X138355133Y-107700000D01*
X138336697Y-107571774D01*
X138282882Y-107453937D01*
X138198049Y-107356033D01*
X138089069Y-107285996D01*
X138089065Y-107285994D01*
X138089064Y-107285994D01*
X137964774Y-107249500D01*
X137964772Y-107249500D01*
X137835228Y-107249500D01*
X137835226Y-107249500D01*
X137710935Y-107285994D01*
X137710932Y-107285995D01*
X137710931Y-107285996D01*
X137659677Y-107318934D01*
X137601950Y-107356033D01*
X137517118Y-107453937D01*
X137517117Y-107453938D01*
X137463302Y-107571774D01*
X137444867Y-107700000D01*
X135203919Y-107700000D01*
X135182882Y-107653937D01*
X135098049Y-107556033D01*
X134989069Y-107485996D01*
X134989065Y-107485994D01*
X134989064Y-107485994D01*
X134864774Y-107449500D01*
X134864772Y-107449500D01*
X134735228Y-107449500D01*
X134735226Y-107449500D01*
X134610935Y-107485994D01*
X134610932Y-107485995D01*
X134610931Y-107485996D01*
X134559677Y-107518934D01*
X134501950Y-107556033D01*
X134417118Y-107653937D01*
X134417117Y-107653938D01*
X134363302Y-107771774D01*
X134344867Y-107900000D01*
X130000500Y-107900000D01*
X130000500Y-106700000D01*
X138844867Y-106700000D01*
X138863302Y-106828225D01*
X138878141Y-106860717D01*
X138917118Y-106946063D01*
X139001951Y-107043967D01*
X139110931Y-107114004D01*
X139235225Y-107150499D01*
X139235227Y-107150500D01*
X139235228Y-107150500D01*
X139364773Y-107150500D01*
X139364773Y-107150499D01*
X139489069Y-107114004D01*
X139598049Y-107043967D01*
X139682882Y-106946063D01*
X139736697Y-106828226D01*
X139755133Y-106700000D01*
X139736697Y-106571774D01*
X139682882Y-106453937D01*
X139598049Y-106356033D01*
X139489069Y-106285996D01*
X139489065Y-106285994D01*
X139489064Y-106285994D01*
X139364774Y-106249500D01*
X139364772Y-106249500D01*
X139235228Y-106249500D01*
X139235226Y-106249500D01*
X139110935Y-106285994D01*
X139110932Y-106285995D01*
X139110931Y-106285996D01*
X139059677Y-106318934D01*
X139001950Y-106356033D01*
X138917118Y-106453937D01*
X138917117Y-106453938D01*
X138863302Y-106571774D01*
X138844867Y-106700000D01*
X130000500Y-106700000D01*
X130000500Y-104750000D01*
X139819867Y-104750000D01*
X139838302Y-104878225D01*
X139854045Y-104912696D01*
X139892118Y-104996063D01*
X139976951Y-105093967D01*
X140085931Y-105164004D01*
X140210225Y-105200499D01*
X140210227Y-105200500D01*
X140210228Y-105200500D01*
X140339773Y-105200500D01*
X140339773Y-105200499D01*
X140464069Y-105164004D01*
X140573049Y-105093967D01*
X140657882Y-104996063D01*
X140687206Y-104931852D01*
X140732961Y-104879049D01*
X140800000Y-104859365D01*
X140867040Y-104879050D01*
X140912793Y-104931852D01*
X140942118Y-104996063D01*
X141026951Y-105093967D01*
X141135931Y-105164004D01*
X141260225Y-105200499D01*
X141260227Y-105200500D01*
X141260228Y-105200500D01*
X141389773Y-105200500D01*
X141389773Y-105200499D01*
X141514069Y-105164004D01*
X141623049Y-105093967D01*
X141707882Y-104996063D01*
X141761697Y-104878226D01*
X141780133Y-104750000D01*
X141761697Y-104621774D01*
X141707882Y-104503937D01*
X141623049Y-104406033D01*
X141514069Y-104335996D01*
X141514065Y-104335994D01*
X141514064Y-104335994D01*
X141389774Y-104299500D01*
X141389772Y-104299500D01*
X141260228Y-104299500D01*
X141260226Y-104299500D01*
X141135935Y-104335994D01*
X141135932Y-104335995D01*
X141135931Y-104335996D01*
X141084677Y-104368934D01*
X141026950Y-104406033D01*
X140942118Y-104503937D01*
X140942117Y-104503938D01*
X140912794Y-104568146D01*
X140867039Y-104620950D01*
X140799999Y-104640634D01*
X140732960Y-104620949D01*
X140687206Y-104568146D01*
X140657882Y-104503938D01*
X140657882Y-104503937D01*
X140573049Y-104406033D01*
X140464069Y-104335996D01*
X140464065Y-104335994D01*
X140464064Y-104335994D01*
X140339774Y-104299500D01*
X140339772Y-104299500D01*
X140210228Y-104299500D01*
X140210226Y-104299500D01*
X140085935Y-104335994D01*
X140085932Y-104335995D01*
X140085931Y-104335996D01*
X140034677Y-104368934D01*
X139976950Y-104406033D01*
X139892118Y-104503937D01*
X139892117Y-104503938D01*
X139838302Y-104621774D01*
X139819867Y-104750000D01*
X130000500Y-104750000D01*
X130000500Y-104200000D01*
X133144867Y-104200000D01*
X133163302Y-104328225D01*
X133202477Y-104414004D01*
X133217118Y-104446063D01*
X133301951Y-104543967D01*
X133410931Y-104614004D01*
X133437394Y-104621774D01*
X133535225Y-104650499D01*
X133535227Y-104650500D01*
X133535228Y-104650500D01*
X133664773Y-104650500D01*
X133664773Y-104650499D01*
X133789069Y-104614004D01*
X133898049Y-104543967D01*
X133982882Y-104446063D01*
X134036697Y-104328226D01*
X134055133Y-104200000D01*
X134036697Y-104071774D01*
X133982882Y-103953937D01*
X133898049Y-103856033D01*
X133810860Y-103800000D01*
X138244867Y-103800000D01*
X138263302Y-103928225D01*
X138275045Y-103953937D01*
X138317118Y-104046063D01*
X138401951Y-104143967D01*
X138510931Y-104214004D01*
X138620117Y-104246063D01*
X138635225Y-104250499D01*
X138635227Y-104250500D01*
X138635228Y-104250500D01*
X138764773Y-104250500D01*
X138764773Y-104250499D01*
X138889069Y-104214004D01*
X138998049Y-104143967D01*
X139082882Y-104046063D01*
X139103919Y-104000000D01*
X148744867Y-104000000D01*
X148763302Y-104128225D01*
X148796081Y-104200000D01*
X148817118Y-104246063D01*
X148901951Y-104343967D01*
X149010931Y-104414004D01*
X149120117Y-104446063D01*
X149135225Y-104450499D01*
X149135227Y-104450500D01*
X149135228Y-104450500D01*
X149264773Y-104450500D01*
X149264773Y-104450499D01*
X149389069Y-104414004D01*
X149498049Y-104343967D01*
X149582882Y-104246063D01*
X149636697Y-104128226D01*
X149655133Y-104000000D01*
X149636697Y-103871774D01*
X149582882Y-103753937D01*
X149498049Y-103656033D01*
X149389069Y-103585996D01*
X149389065Y-103585994D01*
X149389064Y-103585994D01*
X149264774Y-103549500D01*
X149264772Y-103549500D01*
X149135228Y-103549500D01*
X149135226Y-103549500D01*
X149010935Y-103585994D01*
X149010932Y-103585995D01*
X149010931Y-103585996D01*
X148959677Y-103618934D01*
X148901950Y-103656033D01*
X148817118Y-103753937D01*
X148817117Y-103753938D01*
X148763302Y-103871774D01*
X148744867Y-104000000D01*
X139103919Y-104000000D01*
X139136697Y-103928226D01*
X139155133Y-103800000D01*
X139136697Y-103671774D01*
X139082882Y-103553937D01*
X138998049Y-103456033D01*
X138889069Y-103385996D01*
X138889065Y-103385994D01*
X138889064Y-103385994D01*
X138764774Y-103349500D01*
X138764772Y-103349500D01*
X138635228Y-103349500D01*
X138635226Y-103349500D01*
X138510935Y-103385994D01*
X138510932Y-103385995D01*
X138510931Y-103385996D01*
X138459677Y-103418934D01*
X138401950Y-103456033D01*
X138317118Y-103553937D01*
X138317117Y-103553938D01*
X138263302Y-103671774D01*
X138244867Y-103800000D01*
X133810860Y-103800000D01*
X133789069Y-103785996D01*
X133789065Y-103785994D01*
X133789064Y-103785994D01*
X133664774Y-103749500D01*
X133664772Y-103749500D01*
X133535228Y-103749500D01*
X133535226Y-103749500D01*
X133410935Y-103785994D01*
X133410932Y-103785995D01*
X133410931Y-103785996D01*
X133359677Y-103818934D01*
X133301950Y-103856033D01*
X133217118Y-103953937D01*
X133217117Y-103953938D01*
X133163302Y-104071774D01*
X133144867Y-104200000D01*
X130000500Y-104200000D01*
X130000500Y-102900000D01*
X133144867Y-102900000D01*
X133163302Y-103028225D01*
X133188788Y-103084030D01*
X133217118Y-103146063D01*
X133301951Y-103243967D01*
X133410931Y-103314004D01*
X133535225Y-103350499D01*
X133535227Y-103350500D01*
X133535228Y-103350500D01*
X133664773Y-103350500D01*
X133664773Y-103350499D01*
X133789069Y-103314004D01*
X133898049Y-103243967D01*
X133982882Y-103146063D01*
X134036697Y-103028226D01*
X134055133Y-102900000D01*
X134036697Y-102771774D01*
X133982882Y-102653937D01*
X133898049Y-102556033D01*
X133789069Y-102485996D01*
X133789065Y-102485994D01*
X133789064Y-102485994D01*
X133664774Y-102449500D01*
X133664772Y-102449500D01*
X133535228Y-102449500D01*
X133535226Y-102449500D01*
X133410935Y-102485994D01*
X133410932Y-102485995D01*
X133410931Y-102485996D01*
X133359677Y-102518934D01*
X133301950Y-102556033D01*
X133217118Y-102653937D01*
X133217117Y-102653938D01*
X133163302Y-102771774D01*
X133144867Y-102900000D01*
X130000500Y-102900000D01*
X130000500Y-100124500D01*
X130020185Y-100057461D01*
X130072989Y-100011706D01*
X130124500Y-100000500D01*
X151626000Y-100000500D01*
X151693039Y-100020185D01*
G37*
%TD.AperFunction*%
%TD*%
M02*
