%TF.GenerationSoftware,KiCad,Pcbnew,7.0.7*%
%TF.CreationDate,2023-11-09T15:37:00-05:00*%
%TF.ProjectId,Occupancy_Sensor-A,4f636375-7061-46e6-9379-5f53656e736f,rev?*%
%TF.SameCoordinates,Original*%
%TF.FileFunction,Copper,L2,Inr*%
%TF.FilePolarity,Positive*%
%FSLAX46Y46*%
G04 Gerber Fmt 4.6, Leading zero omitted, Abs format (unit mm)*
G04 Created by KiCad (PCBNEW 7.0.7) date 2023-11-09 15:37:00*
%MOMM*%
%LPD*%
G01*
G04 APERTURE LIST*
%TA.AperFunction,ComponentPad*%
%ADD10O,1.350000X1.100000*%
%TD*%
%TA.AperFunction,ViaPad*%
%ADD11C,0.800000*%
%TD*%
%TA.AperFunction,Conductor*%
%ADD12C,0.250000*%
%TD*%
G04 APERTURE END LIST*
D10*
%TO.N,unconnected-(J4-SHIELD-PadS1)*%
%TO.C,J4*%
X145600000Y-124000000D03*
X145600000Y-128300000D03*
X150400000Y-124000000D03*
X150400000Y-128300000D03*
%TD*%
D11*
%TO.N,GND*%
X165000000Y-119400000D03*
X161800000Y-119400000D03*
X150600000Y-122200000D03*
%TO.N,Net-(U3-D+_in)*%
X148400000Y-129000000D03*
X147049598Y-122775000D03*
%TO.N,GND*%
X153000000Y-112300000D03*
X154900000Y-104300000D03*
X156700000Y-101500000D03*
X158700000Y-111400000D03*
X133700000Y-120200000D03*
X134250000Y-116300000D03*
X153400000Y-119000000D03*
X134800000Y-107900000D03*
X144500000Y-120250000D03*
X131550000Y-111800000D03*
X155750000Y-119500000D03*
X141000000Y-115600000D03*
X152700000Y-101000000D03*
X133800000Y-110850000D03*
X159200000Y-119400000D03*
X155700000Y-114900000D03*
X158700000Y-109400000D03*
X138700000Y-103800000D03*
X165000000Y-121100000D03*
X159200000Y-121100000D03*
X133600000Y-104200000D03*
X154800000Y-108600000D03*
X143750000Y-123750000D03*
X150250000Y-117000000D03*
X137950000Y-117900000D03*
X158700000Y-107400000D03*
X153800000Y-113700000D03*
X133600000Y-102900000D03*
X158700000Y-101500000D03*
X155700000Y-111800000D03*
X141600000Y-122000000D03*
X144000000Y-108500000D03*
X154000000Y-122750000D03*
X156600000Y-109400000D03*
X155750000Y-117750000D03*
X158700000Y-105400000D03*
X156400000Y-105400000D03*
X158700000Y-113400000D03*
X152750000Y-109750000D03*
X158700000Y-115400000D03*
X157500000Y-123000000D03*
X165000000Y-124100000D03*
X145000000Y-108500000D03*
X146000000Y-108500000D03*
X132300000Y-122000000D03*
X161750000Y-125900000D03*
X149200000Y-104000000D03*
%TD*%
D12*
%TO.N,Net-(U3-D+_in)*%
X148400000Y-124500000D02*
X148400000Y-129000000D01*
X147049598Y-123149598D02*
X148400000Y-124500000D01*
X147049598Y-122775000D02*
X147049598Y-123149598D01*
%TD*%
%TA.AperFunction,Conductor*%
%TO.N,GND*%
G36*
X159093039Y-100020185D02*
G01*
X159138794Y-100072989D01*
X159150000Y-100124500D01*
X159150000Y-118750000D01*
X165875500Y-118750000D01*
X165942539Y-118769685D01*
X165988294Y-118822489D01*
X165999500Y-118874000D01*
X165999500Y-129875500D01*
X165979815Y-129942539D01*
X165927011Y-129988294D01*
X165875500Y-129999500D01*
X130124500Y-129999500D01*
X130057461Y-129979815D01*
X130011706Y-129927011D01*
X130000500Y-129875500D01*
X130000500Y-129200000D01*
X131344867Y-129200000D01*
X131363302Y-129328225D01*
X131402477Y-129414004D01*
X131417118Y-129446063D01*
X131501951Y-129543967D01*
X131610931Y-129614004D01*
X131735225Y-129650499D01*
X131735227Y-129650500D01*
X131735228Y-129650500D01*
X131864773Y-129650500D01*
X131864773Y-129650499D01*
X131989069Y-129614004D01*
X132098049Y-129543967D01*
X132182882Y-129446063D01*
X132187204Y-129436598D01*
X132232955Y-129383795D01*
X132299993Y-129364107D01*
X132367034Y-129383789D01*
X132412791Y-129436590D01*
X132417116Y-129446060D01*
X132417117Y-129446061D01*
X132417118Y-129446063D01*
X132501951Y-129543967D01*
X132610931Y-129614004D01*
X132735225Y-129650499D01*
X132735227Y-129650500D01*
X132735228Y-129650500D01*
X132864773Y-129650500D01*
X132864773Y-129650499D01*
X132989069Y-129614004D01*
X133098049Y-129543967D01*
X133182882Y-129446063D01*
X133187205Y-129436595D01*
X133232961Y-129383791D01*
X133300000Y-129364107D01*
X133367040Y-129383792D01*
X133412794Y-129436595D01*
X133417118Y-129446063D01*
X133501951Y-129543967D01*
X133610931Y-129614004D01*
X133735225Y-129650499D01*
X133735227Y-129650500D01*
X133735228Y-129650500D01*
X133864773Y-129650500D01*
X133864773Y-129650499D01*
X133989069Y-129614004D01*
X134098049Y-129543967D01*
X134182882Y-129446063D01*
X134236697Y-129328226D01*
X134255133Y-129200000D01*
X134236697Y-129071774D01*
X134182882Y-128953937D01*
X134098049Y-128856033D01*
X133989069Y-128785996D01*
X133989065Y-128785994D01*
X133989064Y-128785994D01*
X133864774Y-128749500D01*
X133864772Y-128749500D01*
X133735228Y-128749500D01*
X133735226Y-128749500D01*
X133610935Y-128785994D01*
X133610932Y-128785995D01*
X133610931Y-128785996D01*
X133585621Y-128802262D01*
X133501950Y-128856033D01*
X133417118Y-128953937D01*
X133417116Y-128953940D01*
X133412793Y-128963406D01*
X133367037Y-129016209D01*
X133299997Y-129035892D01*
X133232958Y-129016206D01*
X133187207Y-128963406D01*
X133184531Y-128957548D01*
X133182882Y-128953937D01*
X133098049Y-128856033D01*
X132989069Y-128785996D01*
X132989065Y-128785994D01*
X132989064Y-128785994D01*
X132864774Y-128749500D01*
X132864772Y-128749500D01*
X132735228Y-128749500D01*
X132735226Y-128749500D01*
X132610935Y-128785994D01*
X132610932Y-128785995D01*
X132610931Y-128785996D01*
X132585621Y-128802262D01*
X132501950Y-128856033D01*
X132417118Y-128953937D01*
X132417116Y-128953940D01*
X132412793Y-128963406D01*
X132367037Y-129016209D01*
X132299997Y-129035892D01*
X132232958Y-129016206D01*
X132187207Y-128963406D01*
X132184531Y-128957548D01*
X132182882Y-128953937D01*
X132098049Y-128856033D01*
X131989069Y-128785996D01*
X131989065Y-128785994D01*
X131989064Y-128785994D01*
X131864774Y-128749500D01*
X131864772Y-128749500D01*
X131735228Y-128749500D01*
X131735226Y-128749500D01*
X131610935Y-128785994D01*
X131610932Y-128785995D01*
X131610931Y-128785996D01*
X131585621Y-128802262D01*
X131501950Y-128856033D01*
X131417118Y-128953937D01*
X131417117Y-128953938D01*
X131363302Y-129071774D01*
X131344867Y-129200000D01*
X130000500Y-129200000D01*
X130000500Y-128334137D01*
X130010042Y-128301640D01*
X130007514Y-128296104D01*
X130241486Y-128296104D01*
X130243477Y-128299202D01*
X130247238Y-128316490D01*
X130263302Y-128428225D01*
X130296361Y-128500612D01*
X130317118Y-128546063D01*
X130401951Y-128643967D01*
X130510931Y-128714004D01*
X130635225Y-128750499D01*
X130635227Y-128750500D01*
X130635228Y-128750500D01*
X130764773Y-128750500D01*
X130764773Y-128750499D01*
X130889069Y-128714004D01*
X130998049Y-128643967D01*
X131082882Y-128546063D01*
X131136697Y-128428226D01*
X131155133Y-128300003D01*
X144669435Y-128300003D01*
X144689630Y-128479249D01*
X144689631Y-128479254D01*
X144749211Y-128649523D01*
X144809871Y-128746062D01*
X144845184Y-128802262D01*
X144972738Y-128929816D01*
X145011128Y-128953938D01*
X145110231Y-129016209D01*
X145125478Y-129025789D01*
X145154351Y-129035892D01*
X145295745Y-129085368D01*
X145295750Y-129085369D01*
X145386246Y-129095565D01*
X145430040Y-129100499D01*
X145430043Y-129100500D01*
X145430046Y-129100500D01*
X145769957Y-129100500D01*
X145769958Y-129100499D01*
X145837104Y-129092934D01*
X145904249Y-129085369D01*
X145904252Y-129085368D01*
X145904255Y-129085368D01*
X146074522Y-129025789D01*
X146227262Y-128929816D01*
X146354816Y-128802262D01*
X146450789Y-128649522D01*
X146510368Y-128479255D01*
X146510866Y-128474835D01*
X146530565Y-128300003D01*
X146530565Y-128299996D01*
X146510369Y-128120750D01*
X146510368Y-128120745D01*
X146485438Y-128049500D01*
X146450789Y-127950478D01*
X146421783Y-127904316D01*
X146387340Y-127849500D01*
X146354816Y-127797738D01*
X146227262Y-127670184D01*
X146082930Y-127579494D01*
X146036639Y-127527159D01*
X146025991Y-127458105D01*
X146054366Y-127394257D01*
X146112756Y-127355885D01*
X146148902Y-127350500D01*
X146164773Y-127350500D01*
X146164773Y-127350499D01*
X146289069Y-127314004D01*
X146398049Y-127243967D01*
X146482882Y-127146063D01*
X146536697Y-127028226D01*
X146555133Y-126900000D01*
X146536697Y-126771774D01*
X146482882Y-126653937D01*
X146398049Y-126556033D01*
X146289069Y-126485996D01*
X146289065Y-126485994D01*
X146289064Y-126485994D01*
X146164774Y-126449500D01*
X146164772Y-126449500D01*
X146035228Y-126449500D01*
X146035226Y-126449500D01*
X145910935Y-126485994D01*
X145910932Y-126485995D01*
X145910931Y-126485996D01*
X145859677Y-126518934D01*
X145801950Y-126556033D01*
X145717118Y-126653937D01*
X145717117Y-126653938D01*
X145663302Y-126771774D01*
X145644867Y-126900000D01*
X145663302Y-127028225D01*
X145675045Y-127053937D01*
X145717118Y-127146063D01*
X145801951Y-127243967D01*
X145844668Y-127271420D01*
X145890423Y-127324223D01*
X145900367Y-127393381D01*
X145871342Y-127456937D01*
X145812565Y-127494712D01*
X145773433Y-127499225D01*
X145773433Y-127499500D01*
X145771050Y-127499500D01*
X145770695Y-127499541D01*
X145769963Y-127499500D01*
X145769954Y-127499500D01*
X145430046Y-127499500D01*
X145430039Y-127499500D01*
X145295750Y-127514630D01*
X145295745Y-127514631D01*
X145125476Y-127574211D01*
X144972737Y-127670184D01*
X144845184Y-127797737D01*
X144749211Y-127950476D01*
X144689631Y-128120745D01*
X144689630Y-128120750D01*
X144669435Y-128299996D01*
X144669435Y-128300003D01*
X131155133Y-128300003D01*
X131155133Y-128300000D01*
X131136697Y-128171774D01*
X131082882Y-128053937D01*
X130998049Y-127956033D01*
X130917572Y-127904313D01*
X130871819Y-127851512D01*
X130861875Y-127782354D01*
X130890899Y-127718798D01*
X130917569Y-127695687D01*
X130998049Y-127643967D01*
X131082882Y-127546063D01*
X131136697Y-127428226D01*
X131155133Y-127300000D01*
X131136697Y-127171774D01*
X131082882Y-127053937D01*
X130998049Y-126956033D01*
X130917572Y-126904313D01*
X130871819Y-126851512D01*
X130861875Y-126782354D01*
X130890899Y-126718798D01*
X130917569Y-126695687D01*
X130998049Y-126643967D01*
X131082882Y-126546063D01*
X131136697Y-126428226D01*
X131155133Y-126300000D01*
X131144120Y-126223401D01*
X143739500Y-126223401D01*
X143780855Y-126364247D01*
X143780856Y-126364248D01*
X143780857Y-126364250D01*
X143860222Y-126487744D01*
X143971164Y-126583877D01*
X144012453Y-126602733D01*
X144104692Y-126644858D01*
X144104695Y-126644858D01*
X144104696Y-126644859D01*
X144213484Y-126660500D01*
X144213487Y-126660500D01*
X144286513Y-126660500D01*
X144286516Y-126660500D01*
X144395304Y-126644859D01*
X144395305Y-126644858D01*
X144395307Y-126644858D01*
X144436593Y-126626002D01*
X144528836Y-126583877D01*
X144639778Y-126487744D01*
X144719143Y-126364250D01*
X144760500Y-126223399D01*
X144760500Y-126076601D01*
X144719143Y-125935750D01*
X144639778Y-125812256D01*
X144528836Y-125716123D01*
X144528832Y-125716121D01*
X144395307Y-125655141D01*
X144395302Y-125655140D01*
X144286516Y-125639500D01*
X144213484Y-125639500D01*
X144213483Y-125639500D01*
X144104697Y-125655140D01*
X144104692Y-125655141D01*
X143971167Y-125716121D01*
X143971162Y-125716124D01*
X143860223Y-125812254D01*
X143860220Y-125812258D01*
X143780856Y-125935751D01*
X143780855Y-125935752D01*
X143739500Y-126076598D01*
X143739500Y-126223401D01*
X131144120Y-126223401D01*
X131136697Y-126171774D01*
X131082882Y-126053937D01*
X130998049Y-125956033D01*
X130917572Y-125904313D01*
X130871819Y-125851512D01*
X130861875Y-125782354D01*
X130890899Y-125718798D01*
X130917569Y-125695687D01*
X130998049Y-125643967D01*
X131082882Y-125546063D01*
X131136697Y-125428226D01*
X131155133Y-125300000D01*
X131136697Y-125171774D01*
X131082882Y-125053937D01*
X131036146Y-125000000D01*
X138444867Y-125000000D01*
X138463302Y-125128225D01*
X138475045Y-125153937D01*
X138517118Y-125246063D01*
X138601951Y-125343967D01*
X138710931Y-125414004D01*
X138759368Y-125428226D01*
X138835225Y-125450499D01*
X138835227Y-125450500D01*
X138835228Y-125450500D01*
X138964773Y-125450500D01*
X138964773Y-125450499D01*
X139089069Y-125414004D01*
X139198049Y-125343967D01*
X139236838Y-125299202D01*
X139256286Y-125276757D01*
X139315063Y-125238981D01*
X139384933Y-125238980D01*
X139443710Y-125276753D01*
X139443713Y-125276756D01*
X139443714Y-125276757D01*
X139501948Y-125343965D01*
X139501950Y-125343966D01*
X139501951Y-125343967D01*
X139610931Y-125414004D01*
X139659368Y-125428226D01*
X139735225Y-125450499D01*
X139735227Y-125450500D01*
X139735228Y-125450500D01*
X139864773Y-125450500D01*
X139864773Y-125450499D01*
X139989069Y-125414004D01*
X140098049Y-125343967D01*
X140182882Y-125246063D01*
X140236697Y-125128226D01*
X140255133Y-125000000D01*
X140236697Y-124871774D01*
X140182882Y-124753937D01*
X140098049Y-124656033D01*
X139989069Y-124585996D01*
X139989065Y-124585994D01*
X139989064Y-124585994D01*
X139864774Y-124549500D01*
X139864772Y-124549500D01*
X139735228Y-124549500D01*
X139735226Y-124549500D01*
X139610935Y-124585994D01*
X139610932Y-124585995D01*
X139610931Y-124585996D01*
X139559677Y-124618934D01*
X139501950Y-124656033D01*
X139443714Y-124723243D01*
X139384936Y-124761018D01*
X139315066Y-124761018D01*
X139256288Y-124723244D01*
X139256286Y-124723243D01*
X139198049Y-124656033D01*
X139157254Y-124629816D01*
X139089069Y-124585996D01*
X139089065Y-124585994D01*
X139089064Y-124585994D01*
X138964774Y-124549500D01*
X138964772Y-124549500D01*
X138835228Y-124549500D01*
X138835226Y-124549500D01*
X138710935Y-124585994D01*
X138710932Y-124585995D01*
X138710931Y-124585996D01*
X138659677Y-124618934D01*
X138601950Y-124656033D01*
X138517118Y-124753937D01*
X138517117Y-124753938D01*
X138463302Y-124871774D01*
X138444867Y-125000000D01*
X131036146Y-125000000D01*
X130998049Y-124956033D01*
X130889069Y-124885996D01*
X130889065Y-124885994D01*
X130889064Y-124885994D01*
X130764774Y-124849500D01*
X130764772Y-124849500D01*
X130635228Y-124849500D01*
X130635226Y-124849500D01*
X130510935Y-124885994D01*
X130510932Y-124885995D01*
X130510931Y-124885996D01*
X130480204Y-124905743D01*
X130401950Y-124956033D01*
X130317118Y-125053937D01*
X130317117Y-125053938D01*
X130263302Y-125171774D01*
X130247238Y-125283509D01*
X130241486Y-125296104D01*
X130243477Y-125299202D01*
X130247238Y-125316490D01*
X130263302Y-125428225D01*
X130308972Y-125528226D01*
X130317118Y-125546063D01*
X130401951Y-125643967D01*
X130482425Y-125695684D01*
X130528180Y-125748488D01*
X130538124Y-125817647D01*
X130509099Y-125881202D01*
X130482426Y-125904314D01*
X130453698Y-125922776D01*
X130401950Y-125956033D01*
X130317118Y-126053937D01*
X130317117Y-126053938D01*
X130263302Y-126171774D01*
X130247238Y-126283509D01*
X130241486Y-126296104D01*
X130243477Y-126299202D01*
X130247238Y-126316490D01*
X130263302Y-126428225D01*
X130317117Y-126546061D01*
X130317118Y-126546063D01*
X130401951Y-126643967D01*
X130482425Y-126695684D01*
X130528180Y-126748488D01*
X130538124Y-126817647D01*
X130509099Y-126881202D01*
X130482426Y-126904314D01*
X130453698Y-126922776D01*
X130401950Y-126956033D01*
X130317118Y-127053937D01*
X130317117Y-127053938D01*
X130263302Y-127171774D01*
X130247238Y-127283509D01*
X130241486Y-127296104D01*
X130243477Y-127299202D01*
X130247238Y-127316490D01*
X130263302Y-127428225D01*
X130295853Y-127499500D01*
X130317118Y-127546063D01*
X130401951Y-127643967D01*
X130482425Y-127695684D01*
X130528180Y-127748488D01*
X130538124Y-127817647D01*
X130509099Y-127881202D01*
X130482426Y-127904314D01*
X130453698Y-127922776D01*
X130401950Y-127956033D01*
X130317118Y-128053937D01*
X130317117Y-128053938D01*
X130263302Y-128171774D01*
X130247238Y-128283509D01*
X130241486Y-128296104D01*
X130007514Y-128296104D01*
X130001762Y-128283509D01*
X130000500Y-128265862D01*
X130000500Y-127334137D01*
X130010042Y-127301640D01*
X130001762Y-127283509D01*
X130000500Y-127265862D01*
X130000500Y-126334137D01*
X130010042Y-126301640D01*
X130001762Y-126283509D01*
X130000500Y-126265862D01*
X130000500Y-125334137D01*
X130010042Y-125301640D01*
X130001762Y-125283509D01*
X130000500Y-125265862D01*
X130000500Y-123750000D01*
X134294867Y-123750000D01*
X134313302Y-123878225D01*
X134367117Y-123996061D01*
X134367118Y-123996063D01*
X134451951Y-124093967D01*
X134560931Y-124164004D01*
X134685225Y-124200499D01*
X134685227Y-124200500D01*
X134685228Y-124200500D01*
X134814773Y-124200500D01*
X134814773Y-124200499D01*
X134939069Y-124164004D01*
X135048049Y-124093967D01*
X135129468Y-124000003D01*
X144669435Y-124000003D01*
X144689630Y-124179249D01*
X144689631Y-124179254D01*
X144749211Y-124349523D01*
X144831514Y-124480507D01*
X144845184Y-124502262D01*
X144972738Y-124629816D01*
X145013673Y-124655537D01*
X145121427Y-124723244D01*
X145125478Y-124725789D01*
X145226157Y-124761018D01*
X145295745Y-124785368D01*
X145295750Y-124785369D01*
X145386246Y-124795565D01*
X145430040Y-124800499D01*
X145430043Y-124800500D01*
X145430046Y-124800500D01*
X145769955Y-124800500D01*
X145770666Y-124800460D01*
X145770837Y-124800500D01*
X145773433Y-124800500D01*
X145773433Y-124801106D01*
X145838705Y-124816349D01*
X145887353Y-124866500D01*
X145901164Y-124934991D01*
X145875754Y-125000076D01*
X145844669Y-125028579D01*
X145801951Y-125056032D01*
X145717118Y-125153937D01*
X145717117Y-125153938D01*
X145663302Y-125271774D01*
X145644867Y-125400000D01*
X145663302Y-125528225D01*
X145671449Y-125546063D01*
X145717118Y-125646063D01*
X145801951Y-125743967D01*
X145910931Y-125814004D01*
X146035225Y-125850499D01*
X146035227Y-125850500D01*
X146035228Y-125850500D01*
X146164773Y-125850500D01*
X146164773Y-125850499D01*
X146289069Y-125814004D01*
X146398049Y-125743967D01*
X146482882Y-125646063D01*
X146536697Y-125528226D01*
X146555133Y-125400000D01*
X146536697Y-125271774D01*
X146482882Y-125153937D01*
X146398049Y-125056033D01*
X146289069Y-124985996D01*
X146289065Y-124985994D01*
X146289064Y-124985994D01*
X146164774Y-124949500D01*
X146164772Y-124949500D01*
X146148902Y-124949500D01*
X146081863Y-124929815D01*
X146036108Y-124877011D01*
X146026164Y-124807853D01*
X146055189Y-124744297D01*
X146082930Y-124720506D01*
X146104585Y-124706899D01*
X146227262Y-124629816D01*
X146354816Y-124502262D01*
X146450789Y-124349522D01*
X146510368Y-124179255D01*
X146510369Y-124179249D01*
X146530565Y-124000003D01*
X146530565Y-123999996D01*
X146510369Y-123820750D01*
X146510368Y-123820745D01*
X146450788Y-123650476D01*
X146411582Y-123588080D01*
X146354816Y-123497738D01*
X146227262Y-123370184D01*
X146177374Y-123338837D01*
X146074523Y-123274211D01*
X145904254Y-123214631D01*
X145904249Y-123214630D01*
X145769960Y-123199500D01*
X145769954Y-123199500D01*
X145430046Y-123199500D01*
X145430039Y-123199500D01*
X145295750Y-123214630D01*
X145295745Y-123214631D01*
X145125476Y-123274211D01*
X144972737Y-123370184D01*
X144845184Y-123497737D01*
X144749211Y-123650476D01*
X144689631Y-123820745D01*
X144689630Y-123820750D01*
X144669435Y-123999996D01*
X144669435Y-124000003D01*
X135129468Y-124000003D01*
X135132882Y-123996063D01*
X135186697Y-123878226D01*
X135205133Y-123750000D01*
X135186697Y-123621774D01*
X135132882Y-123503937D01*
X135048049Y-123406033D01*
X134939069Y-123335996D01*
X134939065Y-123335994D01*
X134939064Y-123335994D01*
X134814774Y-123299500D01*
X134814772Y-123299500D01*
X134685228Y-123299500D01*
X134685226Y-123299500D01*
X134560935Y-123335994D01*
X134560932Y-123335995D01*
X134560931Y-123335996D01*
X134519777Y-123362444D01*
X134451950Y-123406033D01*
X134367118Y-123503937D01*
X134367117Y-123503938D01*
X134313302Y-123621774D01*
X134294867Y-123750000D01*
X130000500Y-123750000D01*
X130000500Y-122775000D01*
X146394320Y-122775000D01*
X146413360Y-122931818D01*
X146469378Y-123079522D01*
X146469378Y-123079523D01*
X146559115Y-123209530D01*
X146677358Y-123314283D01*
X146677360Y-123314284D01*
X146677361Y-123314285D01*
X146688195Y-123319971D01*
X146732816Y-123363145D01*
X146733799Y-123362444D01*
X146737613Y-123367786D01*
X146738408Y-123368555D01*
X146739102Y-123369871D01*
X146744340Y-123377207D01*
X146749180Y-123383425D01*
X146789568Y-123420606D01*
X147988181Y-124619218D01*
X148021666Y-124680541D01*
X148024500Y-124706899D01*
X148024500Y-128407796D01*
X148004815Y-128474835D01*
X147982726Y-128500612D01*
X147908794Y-128566109D01*
X147845561Y-128595830D01*
X147776298Y-128586646D01*
X147722995Y-128541473D01*
X147703830Y-128490940D01*
X147694813Y-128428226D01*
X147686697Y-128371774D01*
X147632882Y-128253937D01*
X147548049Y-128156033D01*
X147439069Y-128085996D01*
X147439065Y-128085994D01*
X147439064Y-128085994D01*
X147314774Y-128049500D01*
X147314772Y-128049500D01*
X147185228Y-128049500D01*
X147185226Y-128049500D01*
X147060935Y-128085994D01*
X147060932Y-128085995D01*
X147060931Y-128085996D01*
X147009677Y-128118934D01*
X146951950Y-128156033D01*
X146867118Y-128253937D01*
X146867117Y-128253938D01*
X146813302Y-128371774D01*
X146794867Y-128500000D01*
X146813302Y-128628225D01*
X146823029Y-128649523D01*
X146867118Y-128746063D01*
X146951951Y-128843967D01*
X147060931Y-128914004D01*
X147147683Y-128939476D01*
X147185225Y-128950499D01*
X147185227Y-128950500D01*
X147185228Y-128950500D01*
X147314773Y-128950500D01*
X147314773Y-128950499D01*
X147439069Y-128914004D01*
X147548049Y-128843967D01*
X147548049Y-128843966D01*
X147555510Y-128839172D01*
X147556627Y-128840910D01*
X147609493Y-128816759D01*
X147678652Y-128826692D01*
X147731463Y-128872440D01*
X147751157Y-128939476D01*
X147750253Y-128954438D01*
X147744722Y-128999996D01*
X147744722Y-129000000D01*
X147763762Y-129156818D01*
X147797609Y-129246063D01*
X147819780Y-129304523D01*
X147909517Y-129434530D01*
X148027760Y-129539283D01*
X148027762Y-129539284D01*
X148167634Y-129612696D01*
X148321014Y-129650500D01*
X148321015Y-129650500D01*
X148478985Y-129650500D01*
X148632365Y-129612696D01*
X148632364Y-129612695D01*
X148772240Y-129539283D01*
X148890483Y-129434530D01*
X148980220Y-129304523D01*
X149036237Y-129156818D01*
X149055278Y-129000000D01*
X149044837Y-128914005D01*
X149036237Y-128843181D01*
X149000708Y-128749500D01*
X148980220Y-128695477D01*
X148890483Y-128565470D01*
X148890481Y-128565468D01*
X148817273Y-128500611D01*
X148780146Y-128441422D01*
X148775500Y-128407796D01*
X148775500Y-126900000D01*
X149444867Y-126900000D01*
X149463302Y-127028225D01*
X149475045Y-127053937D01*
X149517118Y-127146063D01*
X149601951Y-127243967D01*
X149710931Y-127314004D01*
X149835225Y-127350499D01*
X149835227Y-127350500D01*
X149851098Y-127350500D01*
X149918137Y-127370185D01*
X149963892Y-127422989D01*
X149973836Y-127492147D01*
X149944811Y-127555703D01*
X149917070Y-127579494D01*
X149772737Y-127670184D01*
X149645184Y-127797737D01*
X149549211Y-127950476D01*
X149489631Y-128120745D01*
X149489630Y-128120750D01*
X149469435Y-128299996D01*
X149469435Y-128300003D01*
X149489630Y-128479249D01*
X149489631Y-128479254D01*
X149549211Y-128649523D01*
X149609871Y-128746062D01*
X149645184Y-128802262D01*
X149772738Y-128929816D01*
X149811128Y-128953938D01*
X149910231Y-129016209D01*
X149925478Y-129025789D01*
X149954351Y-129035892D01*
X150095745Y-129085368D01*
X150095750Y-129085369D01*
X150186246Y-129095565D01*
X150230040Y-129100499D01*
X150230043Y-129100500D01*
X150230046Y-129100500D01*
X150569957Y-129100500D01*
X150569958Y-129100499D01*
X150637104Y-129092934D01*
X150704249Y-129085369D01*
X150704252Y-129085368D01*
X150704255Y-129085368D01*
X150874522Y-129025789D01*
X150915565Y-129000000D01*
X158044867Y-129000000D01*
X158063302Y-129128225D01*
X158096081Y-129200000D01*
X158117118Y-129246063D01*
X158201951Y-129343967D01*
X158310931Y-129414004D01*
X158420117Y-129446063D01*
X158435225Y-129450499D01*
X158435227Y-129450500D01*
X158435228Y-129450500D01*
X158564773Y-129450500D01*
X158564773Y-129450499D01*
X158689069Y-129414004D01*
X158798049Y-129343967D01*
X158882882Y-129246063D01*
X158903919Y-129200000D01*
X161694867Y-129200000D01*
X161713302Y-129328225D01*
X161752477Y-129414004D01*
X161767118Y-129446063D01*
X161851951Y-129543967D01*
X161960931Y-129614004D01*
X162085225Y-129650499D01*
X162085227Y-129650500D01*
X162085228Y-129650500D01*
X162214773Y-129650500D01*
X162214773Y-129650499D01*
X162339069Y-129614004D01*
X162448049Y-129543967D01*
X162532882Y-129446063D01*
X162537205Y-129436595D01*
X162582961Y-129383791D01*
X162650000Y-129364107D01*
X162717040Y-129383792D01*
X162762794Y-129436595D01*
X162767118Y-129446063D01*
X162851951Y-129543967D01*
X162960931Y-129614004D01*
X163085225Y-129650499D01*
X163085227Y-129650500D01*
X163085228Y-129650500D01*
X163214773Y-129650500D01*
X163214773Y-129650499D01*
X163339069Y-129614004D01*
X163448049Y-129543967D01*
X163532882Y-129446063D01*
X163537205Y-129436595D01*
X163582961Y-129383791D01*
X163650000Y-129364107D01*
X163717040Y-129383792D01*
X163762794Y-129436595D01*
X163767118Y-129446063D01*
X163851951Y-129543967D01*
X163960931Y-129614004D01*
X164085225Y-129650499D01*
X164085227Y-129650500D01*
X164085228Y-129650500D01*
X164214773Y-129650500D01*
X164214773Y-129650499D01*
X164339069Y-129614004D01*
X164448049Y-129543967D01*
X164532882Y-129446063D01*
X164586697Y-129328226D01*
X164605133Y-129200000D01*
X164586697Y-129071774D01*
X164532882Y-128953937D01*
X164448049Y-128856033D01*
X164339069Y-128785996D01*
X164339065Y-128785994D01*
X164339064Y-128785994D01*
X164214774Y-128749500D01*
X164214772Y-128749500D01*
X164085228Y-128749500D01*
X164085226Y-128749500D01*
X163960935Y-128785994D01*
X163960932Y-128785995D01*
X163960931Y-128785996D01*
X163935621Y-128802262D01*
X163851950Y-128856033D01*
X163767118Y-128953937D01*
X163767116Y-128953940D01*
X163762793Y-128963406D01*
X163717037Y-129016209D01*
X163649997Y-129035892D01*
X163582958Y-129016206D01*
X163537207Y-128963406D01*
X163534531Y-128957548D01*
X163532882Y-128953937D01*
X163448049Y-128856033D01*
X163339069Y-128785996D01*
X163339065Y-128785994D01*
X163339064Y-128785994D01*
X163214774Y-128749500D01*
X163214772Y-128749500D01*
X163085228Y-128749500D01*
X163085226Y-128749500D01*
X162960935Y-128785994D01*
X162960932Y-128785995D01*
X162960931Y-128785996D01*
X162935621Y-128802262D01*
X162851950Y-128856033D01*
X162767118Y-128953937D01*
X162767116Y-128953940D01*
X162762793Y-128963406D01*
X162717037Y-129016209D01*
X162649997Y-129035892D01*
X162582958Y-129016206D01*
X162537207Y-128963406D01*
X162534531Y-128957548D01*
X162532882Y-128953937D01*
X162448049Y-128856033D01*
X162339069Y-128785996D01*
X162339065Y-128785994D01*
X162339064Y-128785994D01*
X162214774Y-128749500D01*
X162214772Y-128749500D01*
X162085228Y-128749500D01*
X162085226Y-128749500D01*
X161960935Y-128785994D01*
X161960932Y-128785995D01*
X161960931Y-128785996D01*
X161935621Y-128802262D01*
X161851950Y-128856033D01*
X161767118Y-128953937D01*
X161767117Y-128953938D01*
X161713302Y-129071774D01*
X161694867Y-129200000D01*
X158903919Y-129200000D01*
X158936697Y-129128226D01*
X158955133Y-129000000D01*
X158936697Y-128871774D01*
X158882882Y-128753937D01*
X158798049Y-128656033D01*
X158689069Y-128585996D01*
X158689065Y-128585994D01*
X158689064Y-128585994D01*
X158564774Y-128549500D01*
X158564772Y-128549500D01*
X158435228Y-128549500D01*
X158435226Y-128549500D01*
X158310935Y-128585994D01*
X158310932Y-128585995D01*
X158310931Y-128585996D01*
X158259677Y-128618934D01*
X158201950Y-128656033D01*
X158117118Y-128753937D01*
X158117117Y-128753938D01*
X158063302Y-128871774D01*
X158044867Y-129000000D01*
X150915565Y-129000000D01*
X151027262Y-128929816D01*
X151154816Y-128802262D01*
X151250789Y-128649522D01*
X151310368Y-128479255D01*
X151310866Y-128474835D01*
X151330565Y-128300003D01*
X151330565Y-128300000D01*
X164794867Y-128300000D01*
X164813302Y-128428225D01*
X164846361Y-128500612D01*
X164867118Y-128546063D01*
X164951951Y-128643967D01*
X165060931Y-128714004D01*
X165185225Y-128750499D01*
X165185227Y-128750500D01*
X165185228Y-128750500D01*
X165314773Y-128750500D01*
X165314773Y-128750499D01*
X165439069Y-128714004D01*
X165548049Y-128643967D01*
X165632882Y-128546063D01*
X165686697Y-128428226D01*
X165705133Y-128300000D01*
X165686697Y-128171774D01*
X165632882Y-128053937D01*
X165548049Y-127956033D01*
X165467572Y-127904313D01*
X165421819Y-127851512D01*
X165411875Y-127782354D01*
X165440899Y-127718798D01*
X165467569Y-127695687D01*
X165548049Y-127643967D01*
X165632882Y-127546063D01*
X165686697Y-127428226D01*
X165705133Y-127300000D01*
X165686697Y-127171774D01*
X165632882Y-127053937D01*
X165548049Y-126956033D01*
X165439069Y-126885996D01*
X165439065Y-126885994D01*
X165439064Y-126885994D01*
X165314774Y-126849500D01*
X165314772Y-126849500D01*
X165185228Y-126849500D01*
X165185226Y-126849500D01*
X165060935Y-126885994D01*
X165060932Y-126885995D01*
X165060931Y-126885996D01*
X165009677Y-126918934D01*
X164951950Y-126956033D01*
X164867118Y-127053937D01*
X164867117Y-127053938D01*
X164813302Y-127171774D01*
X164794867Y-127300000D01*
X164813302Y-127428225D01*
X164845853Y-127499500D01*
X164867118Y-127546063D01*
X164951951Y-127643967D01*
X165032425Y-127695684D01*
X165078180Y-127748488D01*
X165088124Y-127817647D01*
X165059099Y-127881202D01*
X165032426Y-127904314D01*
X165003698Y-127922776D01*
X164951950Y-127956033D01*
X164867118Y-128053937D01*
X164867117Y-128053938D01*
X164813302Y-128171774D01*
X164794867Y-128300000D01*
X151330565Y-128300000D01*
X151330565Y-128299996D01*
X151310369Y-128120750D01*
X151310368Y-128120745D01*
X151285438Y-128049500D01*
X151250789Y-127950478D01*
X151221783Y-127904316D01*
X151187340Y-127849500D01*
X151154816Y-127797738D01*
X151027262Y-127670184D01*
X150985538Y-127643967D01*
X150874523Y-127574211D01*
X150704254Y-127514631D01*
X150704249Y-127514630D01*
X150569960Y-127499500D01*
X150569954Y-127499500D01*
X150230046Y-127499500D01*
X150230034Y-127499500D01*
X150229302Y-127499541D01*
X150229127Y-127499500D01*
X150226567Y-127499500D01*
X150226567Y-127498901D01*
X150161267Y-127483635D01*
X150112632Y-127433472D01*
X150098838Y-127364977D01*
X150124264Y-127299898D01*
X150155330Y-127271420D01*
X150198049Y-127243967D01*
X150282882Y-127146063D01*
X150336697Y-127028226D01*
X150355133Y-126900000D01*
X150336697Y-126771774D01*
X150282882Y-126653937D01*
X150198049Y-126556033D01*
X150089069Y-126485996D01*
X150089065Y-126485994D01*
X150089064Y-126485994D01*
X149964774Y-126449500D01*
X149964772Y-126449500D01*
X149835228Y-126449500D01*
X149835226Y-126449500D01*
X149710935Y-126485994D01*
X149710932Y-126485995D01*
X149710931Y-126485996D01*
X149659677Y-126518934D01*
X149601950Y-126556033D01*
X149517118Y-126653937D01*
X149517117Y-126653938D01*
X149463302Y-126771774D01*
X149444867Y-126900000D01*
X148775500Y-126900000D01*
X148775500Y-126223401D01*
X151139500Y-126223401D01*
X151180855Y-126364247D01*
X151180856Y-126364248D01*
X151180857Y-126364250D01*
X151260222Y-126487744D01*
X151371164Y-126583877D01*
X151412453Y-126602733D01*
X151504692Y-126644858D01*
X151504695Y-126644858D01*
X151504696Y-126644859D01*
X151613484Y-126660500D01*
X151613487Y-126660500D01*
X151886513Y-126660500D01*
X151886516Y-126660500D01*
X151995304Y-126644859D01*
X151995305Y-126644858D01*
X151995307Y-126644858D01*
X152036593Y-126626002D01*
X152128836Y-126583877D01*
X152239778Y-126487744D01*
X152319143Y-126364250D01*
X152360500Y-126223399D01*
X152360500Y-126076601D01*
X152319143Y-125935750D01*
X152239778Y-125812256D01*
X152128836Y-125716123D01*
X152128832Y-125716121D01*
X151995307Y-125655141D01*
X151995302Y-125655140D01*
X151886516Y-125639500D01*
X151613484Y-125639500D01*
X151613483Y-125639500D01*
X151504697Y-125655140D01*
X151504692Y-125655141D01*
X151371167Y-125716121D01*
X151371162Y-125716124D01*
X151260223Y-125812254D01*
X151260220Y-125812258D01*
X151180856Y-125935751D01*
X151180855Y-125935752D01*
X151139500Y-126076598D01*
X151139500Y-126223401D01*
X148775500Y-126223401D01*
X148775500Y-125400000D01*
X149444867Y-125400000D01*
X149463302Y-125528225D01*
X149471449Y-125546063D01*
X149517118Y-125646063D01*
X149601951Y-125743967D01*
X149710931Y-125814004D01*
X149835225Y-125850499D01*
X149835227Y-125850500D01*
X149835228Y-125850500D01*
X149964773Y-125850500D01*
X149964773Y-125850499D01*
X150089069Y-125814004D01*
X150198049Y-125743967D01*
X150282882Y-125646063D01*
X150336697Y-125528226D01*
X150355133Y-125400000D01*
X150336697Y-125271774D01*
X150282882Y-125153937D01*
X150198049Y-125056033D01*
X150155330Y-125028579D01*
X150109576Y-124975776D01*
X150099632Y-124906617D01*
X150128657Y-124843061D01*
X150187435Y-124805287D01*
X150226567Y-124800778D01*
X150226567Y-124800500D01*
X150228985Y-124800500D01*
X150229332Y-124800460D01*
X150230043Y-124800500D01*
X150230046Y-124800500D01*
X150569957Y-124800500D01*
X150569958Y-124800499D01*
X150637104Y-124792934D01*
X150704249Y-124785369D01*
X150704252Y-124785368D01*
X150704255Y-124785368D01*
X150874522Y-124725789D01*
X151027262Y-124629816D01*
X151154816Y-124502262D01*
X151250789Y-124349522D01*
X151310368Y-124179255D01*
X151310369Y-124179249D01*
X151330565Y-124000003D01*
X151330565Y-123999996D01*
X151310369Y-123820750D01*
X151310368Y-123820745D01*
X151250788Y-123650476D01*
X151211582Y-123588080D01*
X151154816Y-123497738D01*
X151027262Y-123370184D01*
X150977374Y-123338837D01*
X150874523Y-123274211D01*
X150704254Y-123214631D01*
X150704249Y-123214630D01*
X150569960Y-123199500D01*
X150569954Y-123199500D01*
X150230046Y-123199500D01*
X150230039Y-123199500D01*
X150095750Y-123214630D01*
X150095745Y-123214631D01*
X149925476Y-123274211D01*
X149772737Y-123370184D01*
X149645184Y-123497737D01*
X149549211Y-123650476D01*
X149489631Y-123820745D01*
X149489630Y-123820750D01*
X149469435Y-123999996D01*
X149469435Y-124000003D01*
X149489630Y-124179249D01*
X149489631Y-124179254D01*
X149549211Y-124349523D01*
X149631514Y-124480507D01*
X149645184Y-124502262D01*
X149772738Y-124629816D01*
X149813673Y-124655537D01*
X149917070Y-124720506D01*
X149963361Y-124772841D01*
X149974009Y-124841895D01*
X149945634Y-124905743D01*
X149887244Y-124944115D01*
X149851098Y-124949500D01*
X149835226Y-124949500D01*
X149710935Y-124985994D01*
X149710932Y-124985995D01*
X149710931Y-124985996D01*
X149659677Y-125018934D01*
X149601950Y-125056033D01*
X149517118Y-125153937D01*
X149517117Y-125153938D01*
X149463302Y-125271774D01*
X149444867Y-125400000D01*
X148775500Y-125400000D01*
X148775500Y-124551803D01*
X148778139Y-124526358D01*
X148778177Y-124526175D01*
X148780367Y-124515732D01*
X148778325Y-124499353D01*
X148775977Y-124480507D01*
X148775500Y-124472831D01*
X148775500Y-124468889D01*
X148775498Y-124468876D01*
X148771657Y-124445859D01*
X148764866Y-124391376D01*
X148764866Y-124391374D01*
X148764864Y-124391370D01*
X148762622Y-124383840D01*
X148760065Y-124376392D01*
X148760065Y-124376390D01*
X148733944Y-124328122D01*
X148709826Y-124278789D01*
X148709824Y-124278787D01*
X148709824Y-124278786D01*
X148705276Y-124272416D01*
X148700420Y-124266176D01*
X148700419Y-124266174D01*
X148660029Y-124228992D01*
X147653287Y-123222249D01*
X147619802Y-123160927D01*
X147624786Y-123091235D01*
X147628686Y-123082505D01*
X147629817Y-123079524D01*
X147629818Y-123079523D01*
X147685835Y-122931818D01*
X147704876Y-122775000D01*
X147701841Y-122750000D01*
X148544867Y-122750000D01*
X148563302Y-122878225D01*
X148587778Y-122931818D01*
X148617118Y-122996063D01*
X148701951Y-123093967D01*
X148810931Y-123164004D01*
X148935225Y-123200499D01*
X148935227Y-123200500D01*
X148935228Y-123200500D01*
X149064773Y-123200500D01*
X149064773Y-123200499D01*
X149189069Y-123164004D01*
X149298049Y-123093967D01*
X149382882Y-122996063D01*
X149436697Y-122878226D01*
X149455133Y-122750000D01*
X149436697Y-122621774D01*
X149382882Y-122503937D01*
X149298049Y-122406033D01*
X149189069Y-122335996D01*
X149189065Y-122335994D01*
X149189064Y-122335994D01*
X149064774Y-122299500D01*
X149064772Y-122299500D01*
X148935228Y-122299500D01*
X148935226Y-122299500D01*
X148810935Y-122335994D01*
X148810932Y-122335995D01*
X148810931Y-122335996D01*
X148759677Y-122368934D01*
X148701950Y-122406033D01*
X148617118Y-122503937D01*
X148617117Y-122503938D01*
X148563302Y-122621774D01*
X148544867Y-122750000D01*
X147701841Y-122750000D01*
X147685835Y-122618181D01*
X147642508Y-122503938D01*
X147629818Y-122470477D01*
X147540081Y-122340470D01*
X147421838Y-122235717D01*
X147421836Y-122235716D01*
X147421835Y-122235715D01*
X147281963Y-122162303D01*
X147128584Y-122124500D01*
X147128583Y-122124500D01*
X146970613Y-122124500D01*
X146970612Y-122124500D01*
X146817232Y-122162303D01*
X146677360Y-122235715D01*
X146605361Y-122299500D01*
X146564168Y-122335994D01*
X146559114Y-122340471D01*
X146469379Y-122470475D01*
X146469378Y-122470476D01*
X146413360Y-122618181D01*
X146394320Y-122774999D01*
X146394320Y-122775000D01*
X130000500Y-122775000D01*
X130000500Y-121600000D01*
X138244867Y-121600000D01*
X138263302Y-121728225D01*
X138275045Y-121753937D01*
X138317118Y-121846063D01*
X138401951Y-121943967D01*
X138510931Y-122014004D01*
X138635225Y-122050499D01*
X138635227Y-122050500D01*
X138635228Y-122050500D01*
X138764773Y-122050500D01*
X138764773Y-122050499D01*
X138889069Y-122014004D01*
X138910860Y-122000000D01*
X156294867Y-122000000D01*
X156313302Y-122128225D01*
X156328866Y-122162304D01*
X156367118Y-122246063D01*
X156451951Y-122343967D01*
X156560931Y-122414004D01*
X156685225Y-122450499D01*
X156685227Y-122450500D01*
X156685228Y-122450500D01*
X156814773Y-122450500D01*
X156814773Y-122450499D01*
X156939069Y-122414004D01*
X157048049Y-122343967D01*
X157132882Y-122246063D01*
X157186697Y-122128226D01*
X157205133Y-122000000D01*
X157186697Y-121871774D01*
X157132882Y-121753937D01*
X157048049Y-121656033D01*
X156939069Y-121585996D01*
X156939065Y-121585994D01*
X156939064Y-121585994D01*
X156814774Y-121549500D01*
X156814772Y-121549500D01*
X156685228Y-121549500D01*
X156685226Y-121549500D01*
X156560935Y-121585994D01*
X156560932Y-121585995D01*
X156560931Y-121585996D01*
X156509677Y-121618934D01*
X156451950Y-121656033D01*
X156367118Y-121753937D01*
X156367117Y-121753938D01*
X156313302Y-121871774D01*
X156294867Y-122000000D01*
X138910860Y-122000000D01*
X138998049Y-121943967D01*
X139082882Y-121846063D01*
X139136697Y-121728226D01*
X139155133Y-121600000D01*
X139136697Y-121471774D01*
X139082882Y-121353937D01*
X138998049Y-121256033D01*
X138889069Y-121185996D01*
X138889065Y-121185994D01*
X138889064Y-121185994D01*
X138764774Y-121149500D01*
X138764772Y-121149500D01*
X138635228Y-121149500D01*
X138635226Y-121149500D01*
X138510935Y-121185994D01*
X138510932Y-121185995D01*
X138510931Y-121185996D01*
X138459677Y-121218934D01*
X138401950Y-121256033D01*
X138317118Y-121353937D01*
X138317117Y-121353938D01*
X138263302Y-121471774D01*
X138244867Y-121600000D01*
X130000500Y-121600000D01*
X130000500Y-120600000D01*
X135444867Y-120600000D01*
X135463302Y-120728225D01*
X135517117Y-120846061D01*
X135517118Y-120846063D01*
X135601951Y-120943967D01*
X135710931Y-121014004D01*
X135835225Y-121050499D01*
X135835227Y-121050500D01*
X135835228Y-121050500D01*
X135964773Y-121050500D01*
X135964773Y-121050499D01*
X136089069Y-121014004D01*
X136198049Y-120943967D01*
X136282882Y-120846063D01*
X136336697Y-120728226D01*
X136355133Y-120600000D01*
X136336697Y-120471774D01*
X136282882Y-120353937D01*
X136198049Y-120256033D01*
X136089069Y-120185996D01*
X136089065Y-120185994D01*
X136089064Y-120185994D01*
X135964774Y-120149500D01*
X135964772Y-120149500D01*
X135835228Y-120149500D01*
X135835226Y-120149500D01*
X135710935Y-120185994D01*
X135710932Y-120185995D01*
X135710931Y-120185996D01*
X135659677Y-120218934D01*
X135601950Y-120256033D01*
X135517118Y-120353937D01*
X135517117Y-120353938D01*
X135463302Y-120471774D01*
X135444867Y-120600000D01*
X130000500Y-120600000D01*
X130000500Y-119000000D01*
X142444867Y-119000000D01*
X142463302Y-119128225D01*
X142517117Y-119246061D01*
X142517118Y-119246063D01*
X142601951Y-119343967D01*
X142710931Y-119414004D01*
X142835225Y-119450499D01*
X142835227Y-119450500D01*
X142835228Y-119450500D01*
X142964773Y-119450500D01*
X142964773Y-119450499D01*
X143089069Y-119414004D01*
X143198049Y-119343967D01*
X143282882Y-119246063D01*
X143336697Y-119128226D01*
X143355133Y-119000000D01*
X143794867Y-119000000D01*
X143813302Y-119128225D01*
X143867117Y-119246061D01*
X143867118Y-119246063D01*
X143951951Y-119343967D01*
X144060931Y-119414004D01*
X144185225Y-119450499D01*
X144185227Y-119450500D01*
X144185228Y-119450500D01*
X144314773Y-119450500D01*
X144314773Y-119450499D01*
X144439069Y-119414004D01*
X144548049Y-119343967D01*
X144632882Y-119246063D01*
X144686697Y-119128226D01*
X144705133Y-119000000D01*
X144686697Y-118871774D01*
X144632882Y-118753937D01*
X144548049Y-118656033D01*
X144439069Y-118585996D01*
X144439065Y-118585994D01*
X144439064Y-118585994D01*
X144316477Y-118550000D01*
X149794867Y-118550000D01*
X149813302Y-118678225D01*
X149846081Y-118750000D01*
X149867118Y-118796063D01*
X149951951Y-118893967D01*
X150060931Y-118964004D01*
X150185225Y-119000499D01*
X150185227Y-119000500D01*
X150185228Y-119000500D01*
X150314773Y-119000500D01*
X150314773Y-119000499D01*
X150439069Y-118964004D01*
X150548049Y-118893967D01*
X150632882Y-118796063D01*
X150686697Y-118678226D01*
X150705133Y-118550000D01*
X150686697Y-118421774D01*
X150632882Y-118303937D01*
X150548049Y-118206033D01*
X150439069Y-118135996D01*
X150439065Y-118135994D01*
X150439064Y-118135994D01*
X150314774Y-118099500D01*
X150314772Y-118099500D01*
X150185228Y-118099500D01*
X150185226Y-118099500D01*
X150060935Y-118135994D01*
X150060932Y-118135995D01*
X150060931Y-118135996D01*
X150009677Y-118168934D01*
X149951950Y-118206033D01*
X149867118Y-118303937D01*
X149867117Y-118303938D01*
X149813302Y-118421774D01*
X149794867Y-118550000D01*
X144316477Y-118550000D01*
X144314774Y-118549500D01*
X144314772Y-118549500D01*
X144185228Y-118549500D01*
X144185226Y-118549500D01*
X144060935Y-118585994D01*
X144060932Y-118585995D01*
X144060931Y-118585996D01*
X144009677Y-118618934D01*
X143951950Y-118656033D01*
X143867118Y-118753937D01*
X143867117Y-118753938D01*
X143813302Y-118871774D01*
X143794867Y-119000000D01*
X143355133Y-119000000D01*
X143336697Y-118871774D01*
X143282882Y-118753937D01*
X143198049Y-118656033D01*
X143089069Y-118585996D01*
X143089065Y-118585994D01*
X143089064Y-118585994D01*
X142964774Y-118549500D01*
X142964772Y-118549500D01*
X142835228Y-118549500D01*
X142835226Y-118549500D01*
X142710935Y-118585994D01*
X142710932Y-118585995D01*
X142710931Y-118585996D01*
X142659677Y-118618934D01*
X142601950Y-118656033D01*
X142517118Y-118753937D01*
X142517117Y-118753938D01*
X142463302Y-118871774D01*
X142444867Y-119000000D01*
X130000500Y-119000000D01*
X130000500Y-117700000D01*
X135644867Y-117700000D01*
X135663302Y-117828225D01*
X135717117Y-117946061D01*
X135717118Y-117946063D01*
X135801951Y-118043967D01*
X135910931Y-118114004D01*
X135985824Y-118135994D01*
X136035225Y-118150499D01*
X136035227Y-118150500D01*
X136035228Y-118150500D01*
X136164773Y-118150500D01*
X136164773Y-118150499D01*
X136289069Y-118114004D01*
X136398049Y-118043967D01*
X136482882Y-117946063D01*
X136536697Y-117828226D01*
X136555133Y-117700000D01*
X136536697Y-117571774D01*
X136482882Y-117453937D01*
X136398049Y-117356033D01*
X136289069Y-117285996D01*
X136289065Y-117285994D01*
X136289064Y-117285994D01*
X136164774Y-117249500D01*
X136164772Y-117249500D01*
X136035228Y-117249500D01*
X136035226Y-117249500D01*
X135910935Y-117285994D01*
X135910932Y-117285995D01*
X135910931Y-117285996D01*
X135859677Y-117318934D01*
X135801950Y-117356033D01*
X135717118Y-117453937D01*
X135717117Y-117453938D01*
X135663302Y-117571774D01*
X135644867Y-117700000D01*
X130000500Y-117700000D01*
X130000500Y-116700000D01*
X139344867Y-116700000D01*
X139363302Y-116828225D01*
X139383191Y-116871774D01*
X139417118Y-116946063D01*
X139501951Y-117043967D01*
X139610931Y-117114004D01*
X139659368Y-117128226D01*
X139735225Y-117150499D01*
X139735227Y-117150500D01*
X139735228Y-117150500D01*
X139864773Y-117150500D01*
X139864773Y-117150499D01*
X139989069Y-117114004D01*
X140098049Y-117043967D01*
X140136146Y-117000000D01*
X151794867Y-117000000D01*
X151813302Y-117128225D01*
X151823475Y-117150500D01*
X151867118Y-117246063D01*
X151951951Y-117343967D01*
X152060931Y-117414004D01*
X152185225Y-117450499D01*
X152185227Y-117450500D01*
X152185228Y-117450500D01*
X152314773Y-117450500D01*
X152314773Y-117450499D01*
X152439069Y-117414004D01*
X152548049Y-117343967D01*
X152632882Y-117246063D01*
X152686697Y-117128226D01*
X152705133Y-117000000D01*
X152686697Y-116871774D01*
X152632882Y-116753937D01*
X152548049Y-116656033D01*
X152439069Y-116585996D01*
X152439065Y-116585994D01*
X152439064Y-116585994D01*
X152314774Y-116549500D01*
X152314772Y-116549500D01*
X152185228Y-116549500D01*
X152185226Y-116549500D01*
X152060935Y-116585994D01*
X152060932Y-116585995D01*
X152060931Y-116585996D01*
X152009677Y-116618934D01*
X151951950Y-116656033D01*
X151867118Y-116753937D01*
X151867117Y-116753938D01*
X151813302Y-116871774D01*
X151794867Y-117000000D01*
X140136146Y-117000000D01*
X140182882Y-116946063D01*
X140236697Y-116828226D01*
X140255133Y-116700000D01*
X140236697Y-116571774D01*
X140182882Y-116453937D01*
X140098049Y-116356033D01*
X139989069Y-116285996D01*
X139989065Y-116285994D01*
X139989064Y-116285994D01*
X139864774Y-116249500D01*
X139864772Y-116249500D01*
X139735228Y-116249500D01*
X139735226Y-116249500D01*
X139610935Y-116285994D01*
X139610932Y-116285995D01*
X139610931Y-116285996D01*
X139559677Y-116318934D01*
X139501950Y-116356033D01*
X139417118Y-116453937D01*
X139417117Y-116453938D01*
X139363302Y-116571774D01*
X139344867Y-116700000D01*
X130000500Y-116700000D01*
X130000500Y-115750000D01*
X147044867Y-115750000D01*
X147063302Y-115878225D01*
X147117117Y-115996061D01*
X147117118Y-115996063D01*
X147201951Y-116093967D01*
X147310931Y-116164004D01*
X147435225Y-116200499D01*
X147435227Y-116200500D01*
X147435228Y-116200500D01*
X147564773Y-116200500D01*
X147564773Y-116200499D01*
X147689069Y-116164004D01*
X147798049Y-116093967D01*
X147882882Y-115996063D01*
X147936697Y-115878226D01*
X147955133Y-115750000D01*
X153294867Y-115750000D01*
X153313302Y-115878225D01*
X153367117Y-115996061D01*
X153367118Y-115996063D01*
X153451951Y-116093967D01*
X153560931Y-116164004D01*
X153685225Y-116200499D01*
X153685227Y-116200500D01*
X153685228Y-116200500D01*
X153814773Y-116200500D01*
X153814773Y-116200499D01*
X153939069Y-116164004D01*
X154048049Y-116093967D01*
X154132882Y-115996063D01*
X154186697Y-115878226D01*
X154205133Y-115750000D01*
X154186697Y-115621774D01*
X154132882Y-115503937D01*
X154048049Y-115406033D01*
X153939069Y-115335996D01*
X153939065Y-115335994D01*
X153939064Y-115335994D01*
X153814774Y-115299500D01*
X153814772Y-115299500D01*
X153685228Y-115299500D01*
X153685226Y-115299500D01*
X153560935Y-115335994D01*
X153560932Y-115335995D01*
X153560931Y-115335996D01*
X153509677Y-115368934D01*
X153451950Y-115406033D01*
X153367118Y-115503937D01*
X153367117Y-115503938D01*
X153313302Y-115621774D01*
X153294867Y-115750000D01*
X147955133Y-115750000D01*
X147936697Y-115621774D01*
X147882882Y-115503937D01*
X147798049Y-115406033D01*
X147689069Y-115335996D01*
X147689065Y-115335994D01*
X147689064Y-115335994D01*
X147564774Y-115299500D01*
X147564772Y-115299500D01*
X147435228Y-115299500D01*
X147435226Y-115299500D01*
X147310935Y-115335994D01*
X147310932Y-115335995D01*
X147310931Y-115335996D01*
X147259677Y-115368934D01*
X147201950Y-115406033D01*
X147117118Y-115503937D01*
X147117117Y-115503938D01*
X147063302Y-115621774D01*
X147044867Y-115750000D01*
X130000500Y-115750000D01*
X130000500Y-111800000D01*
X140044867Y-111800000D01*
X140063302Y-111928225D01*
X140117117Y-112046061D01*
X140117118Y-112046063D01*
X140201951Y-112143967D01*
X140310931Y-112214004D01*
X140435225Y-112250499D01*
X140435227Y-112250500D01*
X140435228Y-112250500D01*
X140564773Y-112250500D01*
X140564773Y-112250499D01*
X140689069Y-112214004D01*
X140798049Y-112143967D01*
X140882882Y-112046063D01*
X140936697Y-111928226D01*
X140955133Y-111800000D01*
X150844867Y-111800000D01*
X150863302Y-111928225D01*
X150917117Y-112046061D01*
X150917118Y-112046063D01*
X151001951Y-112143967D01*
X151110931Y-112214004D01*
X151235225Y-112250499D01*
X151235227Y-112250500D01*
X151235228Y-112250500D01*
X151364773Y-112250500D01*
X151364773Y-112250499D01*
X151489069Y-112214004D01*
X151598049Y-112143967D01*
X151682882Y-112046063D01*
X151736697Y-111928226D01*
X151755133Y-111800000D01*
X151736697Y-111671774D01*
X151682882Y-111553937D01*
X151617576Y-111478569D01*
X151593249Y-111425297D01*
X151588707Y-111426631D01*
X151521670Y-111406947D01*
X151489066Y-111385994D01*
X151364774Y-111349500D01*
X151364772Y-111349500D01*
X151235228Y-111349500D01*
X151235226Y-111349500D01*
X151110935Y-111385994D01*
X151110932Y-111385995D01*
X151110931Y-111385996D01*
X151078331Y-111406947D01*
X151001950Y-111456033D01*
X150917118Y-111553937D01*
X150917117Y-111553938D01*
X150863302Y-111671774D01*
X150844867Y-111800000D01*
X140955133Y-111800000D01*
X140936697Y-111671774D01*
X140882882Y-111553937D01*
X140798049Y-111456033D01*
X140689069Y-111385996D01*
X140689065Y-111385994D01*
X140689064Y-111385994D01*
X140564774Y-111349500D01*
X140564772Y-111349500D01*
X140435228Y-111349500D01*
X140435226Y-111349500D01*
X140310935Y-111385994D01*
X140310932Y-111385995D01*
X140310931Y-111385996D01*
X140278331Y-111406947D01*
X140201950Y-111456033D01*
X140117118Y-111553937D01*
X140117117Y-111553938D01*
X140063302Y-111671774D01*
X140044867Y-111800000D01*
X130000500Y-111800000D01*
X130000500Y-110400000D01*
X131120366Y-110400000D01*
X131138801Y-110528225D01*
X131150544Y-110553937D01*
X131192617Y-110646063D01*
X131277450Y-110743967D01*
X131386430Y-110814004D01*
X131510724Y-110850499D01*
X131510726Y-110850500D01*
X131510727Y-110850500D01*
X131640272Y-110850500D01*
X131640272Y-110850499D01*
X131764568Y-110814004D01*
X131786359Y-110800000D01*
X137894867Y-110800000D01*
X137913302Y-110928225D01*
X137958972Y-111028226D01*
X137967118Y-111046063D01*
X138051951Y-111143967D01*
X138160931Y-111214004D01*
X138285225Y-111250499D01*
X138285227Y-111250500D01*
X138285228Y-111250500D01*
X138414773Y-111250500D01*
X138414773Y-111250499D01*
X138539069Y-111214004D01*
X138648049Y-111143967D01*
X138732882Y-111046063D01*
X138786697Y-110928226D01*
X138790755Y-110900000D01*
X151544867Y-110900000D01*
X151563302Y-111028225D01*
X151571449Y-111046063D01*
X151617118Y-111146063D01*
X151675988Y-111214004D01*
X151682422Y-111221429D01*
X151706749Y-111274701D01*
X151711292Y-111273368D01*
X151778328Y-111293051D01*
X151810931Y-111314004D01*
X151935225Y-111350499D01*
X151935227Y-111350500D01*
X151935228Y-111350500D01*
X152064773Y-111350500D01*
X152064773Y-111350499D01*
X152189069Y-111314004D01*
X152298049Y-111243967D01*
X152382882Y-111146063D01*
X152436697Y-111028226D01*
X152455133Y-110900000D01*
X152436697Y-110771774D01*
X152382882Y-110653937D01*
X152298049Y-110556033D01*
X152189069Y-110485996D01*
X152189065Y-110485994D01*
X152189064Y-110485994D01*
X152064774Y-110449500D01*
X152064772Y-110449500D01*
X151935228Y-110449500D01*
X151935226Y-110449500D01*
X151810934Y-110485994D01*
X151778328Y-110506948D01*
X151711288Y-110526631D01*
X151706749Y-110525298D01*
X151682422Y-110578569D01*
X151617120Y-110653932D01*
X151617117Y-110653938D01*
X151563302Y-110771774D01*
X151544867Y-110900000D01*
X138790755Y-110900000D01*
X138805133Y-110800000D01*
X138786697Y-110671774D01*
X138732882Y-110553937D01*
X138648049Y-110456033D01*
X138539069Y-110385996D01*
X138539065Y-110385994D01*
X138539064Y-110385994D01*
X138414774Y-110349500D01*
X138414772Y-110349500D01*
X138285228Y-110349500D01*
X138285226Y-110349500D01*
X138160935Y-110385994D01*
X138160932Y-110385995D01*
X138160931Y-110385996D01*
X138117350Y-110414004D01*
X138051950Y-110456033D01*
X137967118Y-110553937D01*
X137967117Y-110553938D01*
X137913302Y-110671774D01*
X137894867Y-110800000D01*
X131786359Y-110800000D01*
X131873548Y-110743967D01*
X131958381Y-110646063D01*
X132012196Y-110528226D01*
X132030632Y-110400000D01*
X132012196Y-110271774D01*
X131958381Y-110153937D01*
X131873548Y-110056033D01*
X131764568Y-109985996D01*
X131764564Y-109985994D01*
X131764563Y-109985994D01*
X131640273Y-109949500D01*
X131640271Y-109949500D01*
X131510727Y-109949500D01*
X131510725Y-109949500D01*
X131386434Y-109985994D01*
X131386431Y-109985995D01*
X131386430Y-109985996D01*
X131335176Y-110018934D01*
X131277449Y-110056033D01*
X131192617Y-110153937D01*
X131192616Y-110153938D01*
X131138801Y-110271774D01*
X131120366Y-110400000D01*
X130000500Y-110400000D01*
X130000500Y-109212170D01*
X131519867Y-109212170D01*
X131522517Y-109230605D01*
X131538302Y-109340395D01*
X131585602Y-109443966D01*
X131592118Y-109458233D01*
X131676951Y-109556137D01*
X131785931Y-109626174D01*
X131880489Y-109653938D01*
X131910225Y-109662669D01*
X131910227Y-109662670D01*
X131910228Y-109662670D01*
X132039773Y-109662670D01*
X132039773Y-109662669D01*
X132164069Y-109626174D01*
X132273049Y-109556137D01*
X132357882Y-109458233D01*
X132387206Y-109394022D01*
X132432961Y-109341219D01*
X132500000Y-109321535D01*
X132567040Y-109341220D01*
X132612793Y-109394022D01*
X132642118Y-109458233D01*
X132726951Y-109556137D01*
X132835931Y-109626174D01*
X132930489Y-109653938D01*
X132960225Y-109662669D01*
X132960227Y-109662670D01*
X132960228Y-109662670D01*
X133089773Y-109662670D01*
X133089773Y-109662669D01*
X133214069Y-109626174D01*
X133323049Y-109556137D01*
X133407882Y-109458233D01*
X133411642Y-109450000D01*
X134344867Y-109450000D01*
X134363302Y-109578225D01*
X134401867Y-109662669D01*
X134417118Y-109696063D01*
X134501951Y-109793967D01*
X134610931Y-109864004D01*
X134735225Y-109900499D01*
X134735227Y-109900500D01*
X134735228Y-109900500D01*
X134864773Y-109900500D01*
X134864773Y-109900499D01*
X134866473Y-109900000D01*
X138694867Y-109900000D01*
X138713302Y-110028225D01*
X138758972Y-110128226D01*
X138767118Y-110146063D01*
X138851951Y-110243967D01*
X138960931Y-110314004D01*
X139085225Y-110350499D01*
X139085227Y-110350500D01*
X139085228Y-110350500D01*
X139214773Y-110350500D01*
X139214773Y-110350499D01*
X139339069Y-110314004D01*
X139448049Y-110243967D01*
X139532882Y-110146063D01*
X139586697Y-110028226D01*
X139590755Y-110000000D01*
X150844867Y-110000000D01*
X150863302Y-110128225D01*
X150871449Y-110146063D01*
X150917118Y-110246063D01*
X151001951Y-110343967D01*
X151110931Y-110414004D01*
X151235225Y-110450499D01*
X151235227Y-110450500D01*
X151235228Y-110450500D01*
X151364773Y-110450500D01*
X151364773Y-110450499D01*
X151489069Y-110414004D01*
X151521670Y-110393052D01*
X151588707Y-110373368D01*
X151593248Y-110374701D01*
X151617577Y-110321430D01*
X151682882Y-110246063D01*
X151736697Y-110128226D01*
X151755133Y-110000000D01*
X151736697Y-109871774D01*
X151682882Y-109753937D01*
X151598049Y-109656033D01*
X151489069Y-109585996D01*
X151489065Y-109585994D01*
X151489064Y-109585994D01*
X151364774Y-109549500D01*
X151364772Y-109549500D01*
X151235228Y-109549500D01*
X151235226Y-109549500D01*
X151110934Y-109585994D01*
X151078328Y-109606948D01*
X151011288Y-109626631D01*
X151006749Y-109625298D01*
X150982422Y-109678569D01*
X150917120Y-109753932D01*
X150917117Y-109753938D01*
X150863302Y-109871774D01*
X150844867Y-110000000D01*
X139590755Y-110000000D01*
X139605133Y-109900000D01*
X139586697Y-109771774D01*
X139532882Y-109653937D01*
X139448049Y-109556033D01*
X139339069Y-109485996D01*
X139339065Y-109485994D01*
X139339064Y-109485994D01*
X139214774Y-109449500D01*
X139214772Y-109449500D01*
X139085228Y-109449500D01*
X139085226Y-109449500D01*
X138960935Y-109485994D01*
X138960932Y-109485995D01*
X138960931Y-109485996D01*
X138917350Y-109514004D01*
X138851950Y-109556033D01*
X138767118Y-109653937D01*
X138767117Y-109653938D01*
X138713302Y-109771774D01*
X138694867Y-109900000D01*
X134866473Y-109900000D01*
X134989069Y-109864004D01*
X135098049Y-109793967D01*
X135182882Y-109696063D01*
X135236697Y-109578226D01*
X135255133Y-109450000D01*
X135236697Y-109321774D01*
X135182882Y-109203937D01*
X135098049Y-109106033D01*
X134989069Y-109035996D01*
X134989065Y-109035994D01*
X134989064Y-109035994D01*
X134864774Y-108999500D01*
X134864772Y-108999500D01*
X134735228Y-108999500D01*
X134735226Y-108999500D01*
X134610935Y-109035994D01*
X134610932Y-109035995D01*
X134610931Y-109035996D01*
X134559677Y-109068934D01*
X134501950Y-109106033D01*
X134417118Y-109203937D01*
X134417117Y-109203938D01*
X134363302Y-109321774D01*
X134344867Y-109450000D01*
X133411642Y-109450000D01*
X133461697Y-109340396D01*
X133480133Y-109212170D01*
X133461697Y-109083944D01*
X133407882Y-108966107D01*
X133323049Y-108868203D01*
X133214069Y-108798166D01*
X133214065Y-108798164D01*
X133214064Y-108798164D01*
X133089774Y-108761670D01*
X133089772Y-108761670D01*
X132960228Y-108761670D01*
X132960226Y-108761670D01*
X132835935Y-108798164D01*
X132835932Y-108798165D01*
X132835931Y-108798166D01*
X132784677Y-108831104D01*
X132726950Y-108868203D01*
X132642118Y-108966107D01*
X132642117Y-108966108D01*
X132612794Y-109030316D01*
X132567039Y-109083120D01*
X132499999Y-109102804D01*
X132432960Y-109083119D01*
X132387206Y-109030316D01*
X132357882Y-108966108D01*
X132357882Y-108966107D01*
X132273049Y-108868203D01*
X132164069Y-108798166D01*
X132164065Y-108798164D01*
X132164064Y-108798164D01*
X132039774Y-108761670D01*
X132039772Y-108761670D01*
X131910228Y-108761670D01*
X131910226Y-108761670D01*
X131785935Y-108798164D01*
X131785932Y-108798165D01*
X131785931Y-108798166D01*
X131734677Y-108831104D01*
X131676950Y-108868203D01*
X131592118Y-108966107D01*
X131592117Y-108966108D01*
X131538302Y-109083944D01*
X131519867Y-109212169D01*
X131519867Y-109212170D01*
X130000500Y-109212170D01*
X130000500Y-108685575D01*
X149068777Y-108685575D01*
X149087212Y-108813800D01*
X149105543Y-108853938D01*
X149141028Y-108931638D01*
X149225861Y-109029542D01*
X149334841Y-109099579D01*
X149336275Y-109100000D01*
X149459135Y-109136074D01*
X149459137Y-109136075D01*
X149459138Y-109136075D01*
X149588683Y-109136075D01*
X149588683Y-109136074D01*
X149711545Y-109100000D01*
X150144867Y-109100000D01*
X150163302Y-109228225D01*
X150205916Y-109321535D01*
X150217118Y-109346063D01*
X150301951Y-109443967D01*
X150410931Y-109514004D01*
X150535225Y-109550499D01*
X150535227Y-109550500D01*
X150535228Y-109550500D01*
X150664773Y-109550500D01*
X150664773Y-109550499D01*
X150789069Y-109514004D01*
X150821670Y-109493052D01*
X150888707Y-109473368D01*
X150893248Y-109474701D01*
X150917577Y-109421430D01*
X150982882Y-109346063D01*
X151036697Y-109228226D01*
X151055133Y-109100000D01*
X151036697Y-108971774D01*
X150982882Y-108853937D01*
X150898049Y-108756033D01*
X150789069Y-108685996D01*
X150789065Y-108685994D01*
X150789064Y-108685994D01*
X150664774Y-108649500D01*
X150664772Y-108649500D01*
X150535228Y-108649500D01*
X150535226Y-108649500D01*
X150410935Y-108685994D01*
X150410932Y-108685995D01*
X150410931Y-108685996D01*
X150359677Y-108718934D01*
X150301950Y-108756033D01*
X150217118Y-108853937D01*
X150217117Y-108853938D01*
X150163302Y-108971774D01*
X150144867Y-109100000D01*
X149711545Y-109100000D01*
X149712979Y-109099579D01*
X149821959Y-109029542D01*
X149906792Y-108931638D01*
X149960607Y-108813801D01*
X149979043Y-108685575D01*
X149960607Y-108557349D01*
X149906792Y-108439512D01*
X149821959Y-108341608D01*
X149712979Y-108271571D01*
X149712975Y-108271569D01*
X149712974Y-108271569D01*
X149588684Y-108235075D01*
X149588682Y-108235075D01*
X149459138Y-108235075D01*
X149459136Y-108235075D01*
X149334845Y-108271569D01*
X149334842Y-108271570D01*
X149334841Y-108271571D01*
X149283587Y-108304509D01*
X149225860Y-108341608D01*
X149141028Y-108439512D01*
X149141027Y-108439513D01*
X149087212Y-108557349D01*
X149068777Y-108685575D01*
X130000500Y-108685575D01*
X130000500Y-107700000D01*
X137444867Y-107700000D01*
X137463302Y-107828225D01*
X137517117Y-107946061D01*
X137517118Y-107946063D01*
X137601951Y-108043967D01*
X137710931Y-108114004D01*
X137835225Y-108150499D01*
X137835227Y-108150500D01*
X137835228Y-108150500D01*
X137964773Y-108150500D01*
X137964773Y-108150499D01*
X138089069Y-108114004D01*
X138198049Y-108043967D01*
X138282882Y-107946063D01*
X138336697Y-107828226D01*
X138355133Y-107700000D01*
X138336697Y-107571774D01*
X138282882Y-107453937D01*
X138198049Y-107356033D01*
X138089069Y-107285996D01*
X138089065Y-107285994D01*
X138089064Y-107285994D01*
X137964774Y-107249500D01*
X137964772Y-107249500D01*
X137835228Y-107249500D01*
X137835226Y-107249500D01*
X137710935Y-107285994D01*
X137710932Y-107285995D01*
X137710931Y-107285996D01*
X137659677Y-107318934D01*
X137601950Y-107356033D01*
X137517118Y-107453937D01*
X137517117Y-107453938D01*
X137463302Y-107571774D01*
X137444867Y-107700000D01*
X130000500Y-107700000D01*
X130000500Y-106700000D01*
X138844867Y-106700000D01*
X138863302Y-106828225D01*
X138917117Y-106946061D01*
X138917118Y-106946063D01*
X139001951Y-107043967D01*
X139110931Y-107114004D01*
X139235225Y-107150499D01*
X139235227Y-107150500D01*
X139235228Y-107150500D01*
X139364773Y-107150500D01*
X139364773Y-107150499D01*
X139489069Y-107114004D01*
X139598049Y-107043967D01*
X139682882Y-106946063D01*
X139736697Y-106828226D01*
X139755133Y-106700000D01*
X139736697Y-106571774D01*
X139682882Y-106453937D01*
X139598049Y-106356033D01*
X139489069Y-106285996D01*
X139489065Y-106285994D01*
X139489064Y-106285994D01*
X139364774Y-106249500D01*
X139364772Y-106249500D01*
X139235228Y-106249500D01*
X139235226Y-106249500D01*
X139110935Y-106285994D01*
X139110932Y-106285995D01*
X139110931Y-106285996D01*
X139059677Y-106318934D01*
X139001950Y-106356033D01*
X138917118Y-106453937D01*
X138917117Y-106453938D01*
X138863302Y-106571774D01*
X138844867Y-106700000D01*
X130000500Y-106700000D01*
X130000500Y-104750000D01*
X139819867Y-104750000D01*
X139838302Y-104878225D01*
X139838679Y-104879050D01*
X139892118Y-104996063D01*
X139976951Y-105093967D01*
X140085931Y-105164004D01*
X140210225Y-105200499D01*
X140210227Y-105200500D01*
X140210228Y-105200500D01*
X140339773Y-105200500D01*
X140339773Y-105200499D01*
X140464069Y-105164004D01*
X140573049Y-105093967D01*
X140657882Y-104996063D01*
X140687206Y-104931852D01*
X140732961Y-104879049D01*
X140800000Y-104859365D01*
X140867040Y-104879050D01*
X140912793Y-104931852D01*
X140942118Y-104996063D01*
X141026951Y-105093967D01*
X141135931Y-105164004D01*
X141260225Y-105200499D01*
X141260227Y-105200500D01*
X141260228Y-105200500D01*
X141389773Y-105200500D01*
X141389773Y-105200499D01*
X141514069Y-105164004D01*
X141613661Y-105100000D01*
X152444867Y-105100000D01*
X152463302Y-105228225D01*
X152517117Y-105346061D01*
X152517118Y-105346063D01*
X152601951Y-105443967D01*
X152710931Y-105514004D01*
X152835225Y-105550499D01*
X152835227Y-105550500D01*
X152835228Y-105550500D01*
X152964773Y-105550500D01*
X152964773Y-105550499D01*
X153089069Y-105514004D01*
X153198049Y-105443967D01*
X153282882Y-105346063D01*
X153336697Y-105228226D01*
X153355133Y-105100000D01*
X153336697Y-104971774D01*
X153282882Y-104853937D01*
X153198049Y-104756033D01*
X153089069Y-104685996D01*
X153089065Y-104685994D01*
X153089064Y-104685994D01*
X152964774Y-104649500D01*
X152964772Y-104649500D01*
X152835228Y-104649500D01*
X152835226Y-104649500D01*
X152710935Y-104685994D01*
X152710932Y-104685995D01*
X152710931Y-104685996D01*
X152659677Y-104718934D01*
X152601950Y-104756033D01*
X152517118Y-104853937D01*
X152517117Y-104853938D01*
X152463302Y-104971774D01*
X152444867Y-105100000D01*
X141613661Y-105100000D01*
X141623049Y-105093967D01*
X141707882Y-104996063D01*
X141761697Y-104878226D01*
X141780133Y-104750000D01*
X141761697Y-104621774D01*
X141707882Y-104503937D01*
X141623049Y-104406033D01*
X141514069Y-104335996D01*
X141514065Y-104335994D01*
X141514064Y-104335994D01*
X141389774Y-104299500D01*
X141389772Y-104299500D01*
X141260228Y-104299500D01*
X141260226Y-104299500D01*
X141135935Y-104335994D01*
X141135932Y-104335995D01*
X141135931Y-104335996D01*
X141084677Y-104368934D01*
X141026950Y-104406033D01*
X140942118Y-104503937D01*
X140942117Y-104503938D01*
X140912794Y-104568146D01*
X140867039Y-104620950D01*
X140799999Y-104640634D01*
X140732960Y-104620949D01*
X140687206Y-104568146D01*
X140657882Y-104503938D01*
X140657882Y-104503937D01*
X140573049Y-104406033D01*
X140464069Y-104335996D01*
X140464065Y-104335994D01*
X140464064Y-104335994D01*
X140339774Y-104299500D01*
X140339772Y-104299500D01*
X140210228Y-104299500D01*
X140210226Y-104299500D01*
X140085935Y-104335994D01*
X140085932Y-104335995D01*
X140085931Y-104335996D01*
X140034677Y-104368934D01*
X139976950Y-104406033D01*
X139892118Y-104503937D01*
X139892117Y-104503938D01*
X139838302Y-104621774D01*
X139819867Y-104750000D01*
X130000500Y-104750000D01*
X130000500Y-103300000D01*
X141294867Y-103300000D01*
X141313302Y-103428225D01*
X141367117Y-103546061D01*
X141367118Y-103546063D01*
X141451951Y-103643967D01*
X141560931Y-103714004D01*
X141685225Y-103750499D01*
X141685227Y-103750500D01*
X141685228Y-103750500D01*
X141814773Y-103750500D01*
X141814773Y-103750499D01*
X141939069Y-103714004D01*
X142048049Y-103643967D01*
X142132882Y-103546063D01*
X142186697Y-103428226D01*
X142205133Y-103300000D01*
X142186697Y-103171774D01*
X142132882Y-103053937D01*
X142048049Y-102956033D01*
X141939069Y-102885996D01*
X141939065Y-102885994D01*
X141939064Y-102885994D01*
X141814774Y-102849500D01*
X141814772Y-102849500D01*
X141685228Y-102849500D01*
X141685226Y-102849500D01*
X141560935Y-102885994D01*
X141560932Y-102885995D01*
X141560931Y-102885996D01*
X141509677Y-102918934D01*
X141451950Y-102956033D01*
X141367118Y-103053937D01*
X141367117Y-103053938D01*
X141313302Y-103171774D01*
X141294867Y-103300000D01*
X130000500Y-103300000D01*
X130000500Y-102649500D01*
X145444867Y-102649500D01*
X145463302Y-102777725D01*
X145496081Y-102849500D01*
X145517118Y-102895563D01*
X145601951Y-102993467D01*
X145710931Y-103063504D01*
X145835225Y-103099999D01*
X145835227Y-103100000D01*
X145835228Y-103100000D01*
X145964773Y-103100000D01*
X145964773Y-103099999D01*
X146089069Y-103063504D01*
X146198049Y-102993467D01*
X146282882Y-102895563D01*
X146336697Y-102777726D01*
X146355133Y-102649500D01*
X146336697Y-102521274D01*
X146282882Y-102403437D01*
X146198049Y-102305533D01*
X146089069Y-102235496D01*
X146089065Y-102235494D01*
X146089064Y-102235494D01*
X145964774Y-102199000D01*
X145964772Y-102199000D01*
X145835228Y-102199000D01*
X145835226Y-102199000D01*
X145710935Y-102235494D01*
X145710932Y-102235495D01*
X145710931Y-102235496D01*
X145659677Y-102268434D01*
X145601950Y-102305533D01*
X145517118Y-102403437D01*
X145517117Y-102403438D01*
X145463302Y-102521274D01*
X145444867Y-102649500D01*
X130000500Y-102649500D01*
X130000500Y-101060000D01*
X133084867Y-101060000D01*
X133103302Y-101188225D01*
X133157117Y-101306061D01*
X133157118Y-101306063D01*
X133241951Y-101403967D01*
X133350931Y-101474004D01*
X133475225Y-101510499D01*
X133475227Y-101510500D01*
X133475228Y-101510500D01*
X133604773Y-101510500D01*
X133604773Y-101510499D01*
X133729069Y-101474004D01*
X133838049Y-101403967D01*
X133922882Y-101306063D01*
X133976697Y-101188226D01*
X133995133Y-101060000D01*
X133976697Y-100931774D01*
X133922882Y-100813937D01*
X133838049Y-100716033D01*
X133729069Y-100645996D01*
X133729065Y-100645994D01*
X133729064Y-100645994D01*
X133604774Y-100609500D01*
X133604772Y-100609500D01*
X133475228Y-100609500D01*
X133475226Y-100609500D01*
X133350935Y-100645994D01*
X133350932Y-100645995D01*
X133350931Y-100645996D01*
X133299677Y-100678934D01*
X133241950Y-100716033D01*
X133157118Y-100813937D01*
X133157117Y-100813938D01*
X133103302Y-100931774D01*
X133084867Y-101060000D01*
X130000500Y-101060000D01*
X130000500Y-100124500D01*
X130020185Y-100057461D01*
X130072989Y-100011706D01*
X130124500Y-100000500D01*
X159026000Y-100000500D01*
X159093039Y-100020185D01*
G37*
%TD.AperFunction*%
%TD*%
M02*
