%TF.GenerationSoftware,KiCad,Pcbnew,7.0.7*%
%TF.CreationDate,2023-11-09T15:37:00-05:00*%
%TF.ProjectId,Occupancy_Sensor-A,4f636375-7061-46e6-9379-5f53656e736f,rev?*%
%TF.SameCoordinates,Original*%
%TF.FileFunction,Copper,L4,Bot*%
%TF.FilePolarity,Positive*%
%FSLAX46Y46*%
G04 Gerber Fmt 4.6, Leading zero omitted, Abs format (unit mm)*
G04 Created by KiCad (PCBNEW 7.0.7) date 2023-11-09 15:37:00*
%MOMM*%
%LPD*%
G01*
G04 APERTURE LIST*
G04 Aperture macros list*
%AMRoundRect*
0 Rectangle with rounded corners*
0 $1 Rounding radius*
0 $2 $3 $4 $5 $6 $7 $8 $9 X,Y pos of 4 corners*
0 Add a 4 corners polygon primitive as box body*
4,1,4,$2,$3,$4,$5,$6,$7,$8,$9,$2,$3,0*
0 Add four circle primitives for the rounded corners*
1,1,$1+$1,$2,$3*
1,1,$1+$1,$4,$5*
1,1,$1+$1,$6,$7*
1,1,$1+$1,$8,$9*
0 Add four rect primitives between the rounded corners*
20,1,$1+$1,$2,$3,$4,$5,0*
20,1,$1+$1,$4,$5,$6,$7,0*
20,1,$1+$1,$6,$7,$8,$9,0*
20,1,$1+$1,$8,$9,$2,$3,0*%
%AMOutline5P*
0 Free polygon, 5 corners , with rotation*
0 The origin of the aperture is its center*
0 number of corners: always 5*
0 $1 to $10 corner X, Y*
0 $11 Rotation angle, in degrees counterclockwise*
0 create outline with 5 corners*
4,1,5,$1,$2,$3,$4,$5,$6,$7,$8,$9,$10,$1,$2,$11*%
%AMOutline6P*
0 Free polygon, 6 corners , with rotation*
0 The origin of the aperture is its center*
0 number of corners: always 6*
0 $1 to $12 corner X, Y*
0 $13 Rotation angle, in degrees counterclockwise*
0 create outline with 6 corners*
4,1,6,$1,$2,$3,$4,$5,$6,$7,$8,$9,$10,$11,$12,$1,$2,$13*%
%AMOutline7P*
0 Free polygon, 7 corners , with rotation*
0 The origin of the aperture is its center*
0 number of corners: always 7*
0 $1 to $14 corner X, Y*
0 $15 Rotation angle, in degrees counterclockwise*
0 create outline with 7 corners*
4,1,7,$1,$2,$3,$4,$5,$6,$7,$8,$9,$10,$11,$12,$13,$14,$1,$2,$15*%
%AMOutline8P*
0 Free polygon, 8 corners , with rotation*
0 The origin of the aperture is its center*
0 number of corners: always 8*
0 $1 to $16 corner X, Y*
0 $17 Rotation angle, in degrees counterclockwise*
0 create outline with 8 corners*
4,1,8,$1,$2,$3,$4,$5,$6,$7,$8,$9,$10,$11,$12,$13,$14,$15,$16,$1,$2,$17*%
%AMFreePoly0*
4,1,9,0.200000,-0.057500,0.300000,-0.057500,0.300000,-0.257500,0.100000,-0.257500,-0.100000,-0.257500,-0.300000,-0.257500,-0.300000,0.257500,0.200000,0.257500,0.200000,-0.057500,0.200000,-0.057500,$1*%
G04 Aperture macros list end*
%TA.AperFunction,ComponentPad*%
%ADD10O,1.350000X1.100000*%
%TD*%
%TA.AperFunction,SMDPad,CuDef*%
%ADD11RoundRect,0.135000X0.185000X-0.135000X0.185000X0.135000X-0.185000X0.135000X-0.185000X-0.135000X0*%
%TD*%
%TA.AperFunction,SMDPad,CuDef*%
%ADD12RoundRect,0.140000X0.170000X-0.140000X0.170000X0.140000X-0.170000X0.140000X-0.170000X-0.140000X0*%
%TD*%
%TA.AperFunction,SMDPad,CuDef*%
%ADD13RoundRect,0.140000X-0.140000X-0.170000X0.140000X-0.170000X0.140000X0.170000X-0.140000X0.170000X0*%
%TD*%
%TA.AperFunction,SMDPad,CuDef*%
%ADD14RoundRect,0.135000X0.135000X0.185000X-0.135000X0.185000X-0.135000X-0.185000X0.135000X-0.185000X0*%
%TD*%
%TA.AperFunction,SMDPad,CuDef*%
%ADD15RoundRect,0.150000X0.150000X-0.587500X0.150000X0.587500X-0.150000X0.587500X-0.150000X-0.587500X0*%
%TD*%
%TA.AperFunction,SMDPad,CuDef*%
%ADD16RoundRect,0.150000X-0.512500X-0.150000X0.512500X-0.150000X0.512500X0.150000X-0.512500X0.150000X0*%
%TD*%
%TA.AperFunction,SMDPad,CuDef*%
%ADD17RoundRect,0.150000X-0.587500X-0.150000X0.587500X-0.150000X0.587500X0.150000X-0.587500X0.150000X0*%
%TD*%
%TA.AperFunction,SMDPad,CuDef*%
%ADD18RoundRect,0.135000X-0.185000X0.135000X-0.185000X-0.135000X0.185000X-0.135000X0.185000X0.135000X0*%
%TD*%
%TA.AperFunction,SMDPad,CuDef*%
%ADD19C,1.000000*%
%TD*%
%TA.AperFunction,SMDPad,CuDef*%
%ADD20RoundRect,0.140000X-0.170000X0.140000X-0.170000X-0.140000X0.170000X-0.140000X0.170000X0.140000X0*%
%TD*%
%TA.AperFunction,SMDPad,CuDef*%
%ADD21FreePoly0,180.000000*%
%TD*%
%TA.AperFunction,SMDPad,CuDef*%
%ADD22R,0.500000X0.515000*%
%TD*%
%TA.AperFunction,SMDPad,CuDef*%
%ADD23R,0.535000X0.500000*%
%TD*%
%TA.AperFunction,SMDPad,CuDef*%
%ADD24R,2.316000X1.200000*%
%TD*%
%TA.AperFunction,SMDPad,CuDef*%
%ADD25RoundRect,0.150000X0.512500X0.150000X-0.512500X0.150000X-0.512500X-0.150000X0.512500X-0.150000X0*%
%TD*%
%TA.AperFunction,SMDPad,CuDef*%
%ADD26Outline5P,-0.250000X0.175000X0.075000X0.175000X0.250000X0.000000X0.250000X-0.175000X-0.250000X-0.175000X0.000000*%
%TD*%
%TA.AperFunction,SMDPad,CuDef*%
%ADD27R,0.500000X0.350000*%
%TD*%
%TA.AperFunction,SMDPad,CuDef*%
%ADD28RoundRect,0.140000X0.140000X0.170000X-0.140000X0.170000X-0.140000X-0.170000X0.140000X-0.170000X0*%
%TD*%
%TA.AperFunction,ViaPad*%
%ADD29C,0.800000*%
%TD*%
%TA.AperFunction,Conductor*%
%ADD30C,0.250000*%
%TD*%
%TA.AperFunction,Conductor*%
%ADD31C,0.200000*%
%TD*%
G04 APERTURE END LIST*
D10*
%TO.P,J4,S1,SHIELD*%
%TO.N,unconnected-(J4-SHIELD-PadS1)*%
X145600000Y-124000000D03*
X145600000Y-128300000D03*
X150400000Y-124000000D03*
X150400000Y-128300000D03*
%TD*%
D11*
%TO.P,R3,1*%
%TO.N,Net-(U2-SPI_I2C_N)*%
X145120000Y-110910000D03*
%TO.P,R3,2*%
%TO.N,GND*%
X145120000Y-109890000D03*
%TD*%
D12*
%TO.P,C5,1*%
%TO.N,+3.3V*%
X132100000Y-124980000D03*
%TO.P,C5,2*%
%TO.N,GND*%
X132100000Y-124020000D03*
%TD*%
D13*
%TO.P,C1,1*%
%TO.N,+3.3V*%
X148520000Y-110915000D03*
%TO.P,C1,2*%
%TO.N,GND*%
X149480000Y-110915000D03*
%TD*%
%TO.P,C8,1*%
%TO.N,+1V8*%
X145540000Y-118915000D03*
%TO.P,C8,2*%
%TO.N,GND*%
X146500000Y-118915000D03*
%TD*%
D14*
%TO.P,R14,1*%
%TO.N,+1V8*%
X140310000Y-119100000D03*
%TO.P,R14,2*%
%TO.N,/INT_CLR_1V8*%
X139290000Y-119100000D03*
%TD*%
D15*
%TO.P,Q3,1,G*%
%TO.N,+1V8*%
X140750000Y-117137500D03*
%TO.P,Q3,2,S*%
%TO.N,/INT_CLR_1V8*%
X138850000Y-117137500D03*
%TO.P,Q3,3,D*%
%TO.N,INT_CLR_3V3*%
X139800000Y-115262500D03*
%TD*%
D11*
%TO.P,R5,1*%
%TO.N,/I2C_RST_1V8*%
X146320000Y-110910000D03*
%TO.P,R5,2*%
%TO.N,GND*%
X146320000Y-109890000D03*
%TD*%
D16*
%TO.P,U4,1,IN*%
%TO.N,VBUS*%
X159862500Y-126850000D03*
%TO.P,U4,2,GND*%
%TO.N,GND*%
X159862500Y-125900000D03*
%TO.P,U4,3,EN*%
%TO.N,1V8_EN*%
X159862500Y-124950000D03*
%TO.P,U4,4,NC*%
%TO.N,unconnected-(U4-NC-Pad4)*%
X162137500Y-124950000D03*
%TO.P,U4,5,OUT*%
%TO.N,+1V8*%
X162137500Y-126850000D03*
%TD*%
D12*
%TO.P,C6,1*%
%TO.N,VBUS*%
X158100000Y-124980000D03*
%TO.P,C6,2*%
%TO.N,GND*%
X158100000Y-124020000D03*
%TD*%
%TO.P,C7,1*%
%TO.N,+1V8*%
X163900000Y-126880000D03*
%TO.P,C7,2*%
%TO.N,GND*%
X163900000Y-125920000D03*
%TD*%
D17*
%TO.P,Q1,1,G*%
%TO.N,+1V8*%
X146262500Y-103650000D03*
%TO.P,Q1,2,S*%
%TO.N,/INT_TOF_1V8*%
X146262500Y-101750000D03*
%TO.P,Q1,3,D*%
%TO.N,INT_TOF_3V3*%
X148137500Y-102700000D03*
%TD*%
D18*
%TO.P,R12,1*%
%TO.N,/LPn_1V8*%
X154300000Y-102190000D03*
%TO.P,R12,2*%
%TO.N,GND*%
X154300000Y-103210000D03*
%TD*%
D15*
%TO.P,Q4,1,G*%
%TO.N,+1V8*%
X137050000Y-117125000D03*
%TO.P,Q4,2,S*%
%TO.N,SCL_1V8*%
X135150000Y-117125000D03*
%TO.P,Q4,3,D*%
%TO.N,SCL_3V3*%
X136100000Y-115250000D03*
%TD*%
D19*
%TO.P,TP3,1,1*%
%TO.N,SCL_3V3*%
X135700000Y-113200000D03*
%TD*%
D11*
%TO.P,R10,1*%
%TO.N,+3.3V*%
X150137500Y-106510000D03*
%TO.P,R10,2*%
%TO.N,SYNC_3V3*%
X150137500Y-105490000D03*
%TD*%
D14*
%TO.P,R16,1*%
%TO.N,+1V8*%
X136610000Y-119187500D03*
%TO.P,R16,2*%
%TO.N,SCL_1V8*%
X135590000Y-119187500D03*
%TD*%
D20*
%TO.P,C4,1*%
%TO.N,+1V8*%
X147750000Y-116635000D03*
%TO.P,C4,2*%
%TO.N,GND*%
X147750000Y-117595000D03*
%TD*%
D18*
%TO.P,R20,1*%
%TO.N,+3.3V*%
X133700000Y-112190000D03*
%TO.P,R20,2*%
%TO.N,SDA_3V3*%
X133700000Y-113210000D03*
%TD*%
D21*
%TO.P,U2,A1,INT*%
%TO.N,/INT_TOF_1V8*%
X145965000Y-114472500D03*
D22*
%TO.P,U2,A2,LPn*%
%TO.N,/LPn_1V8*%
X146765000Y-114472500D03*
%TO.P,U2,A3,IOVDD*%
%TO.N,+1V8*%
X147515000Y-114472500D03*
%TO.P,U2,A4,SDA/MOSI*%
%TO.N,SDA_1V8*%
X148265000Y-114472500D03*
%TO.P,U2,A5,SCL/MCLK*%
%TO.N,SCL_1V8*%
X149015000Y-114472500D03*
%TO.P,U2,A6,RSVD1*%
%TO.N,GND*%
X149765000Y-114472500D03*
%TO.P,U2,A7,RSVD2*%
X150515000Y-114472500D03*
D23*
%TO.P,U2,B1,SYNC*%
%TO.N,/SYNC_1V8*%
X145597500Y-113415000D03*
D24*
%TO.P,U2,B4,PAD*%
%TO.N,GND*%
X148265000Y-113415000D03*
D23*
%TO.P,U2,B7,CORE_1V8*%
%TO.N,+1V8*%
X150932500Y-113415000D03*
D22*
%TO.P,U2,C1,SPI_I2C_N*%
%TO.N,Net-(U2-SPI_I2C_N)*%
X146015000Y-112357500D03*
%TO.P,U2,C2,NCS*%
%TO.N,/I2C_RST_1V8*%
X146765000Y-112357500D03*
%TO.P,U2,C3,GND*%
%TO.N,GND*%
X147515000Y-112357500D03*
%TO.P,U2,C4,AVDD*%
%TO.N,+3.3V*%
X148265000Y-112357500D03*
%TO.P,U2,C5,MISO*%
%TO.N,unconnected-(U2-MISO-PadC5)*%
X149015000Y-112357500D03*
%TO.P,U2,C6,RSVD3*%
%TO.N,GND*%
X149765000Y-112357500D03*
%TO.P,U2,C7,GND*%
X150515000Y-112357500D03*
%TD*%
D18*
%TO.P,R4,1*%
%TO.N,I2C_RST*%
X147420000Y-109890000D03*
%TO.P,R4,2*%
%TO.N,/I2C_RST_1V8*%
X147420000Y-110910000D03*
%TD*%
D17*
%TO.P,Q2,1,G*%
%TO.N,+1V8*%
X146262500Y-107350000D03*
%TO.P,Q2,2,S*%
%TO.N,/SYNC_1V8*%
X146262500Y-105450000D03*
%TO.P,Q2,3,D*%
%TO.N,SYNC_3V3*%
X148137500Y-106400000D03*
%TD*%
D25*
%TO.P,U1,1,IN*%
%TO.N,VBUS*%
X136137500Y-124950000D03*
%TO.P,U1,2,GND*%
%TO.N,GND*%
X136137500Y-125900000D03*
%TO.P,U1,3,EN*%
%TO.N,VBUS*%
X136137500Y-126850000D03*
%TO.P,U1,4,NC*%
%TO.N,unconnected-(U1-NC-Pad4)*%
X133862500Y-126850000D03*
%TO.P,U1,5,OUT*%
%TO.N,+3.3V*%
X133862500Y-124950000D03*
%TD*%
D19*
%TO.P,TP5,1,1*%
%TO.N,INT_TOF_3V3*%
X151750000Y-105250000D03*
%TD*%
%TO.P,TP4,1,1*%
%TO.N,SDA_3V3*%
X132000000Y-113200000D03*
%TD*%
D26*
%TO.P,U5,1,VDD*%
%TO.N,+1V8*%
X145450000Y-117775000D03*
D27*
%TO.P,U5,2,SDA*%
%TO.N,SDA_1V8*%
X145450000Y-117135000D03*
%TO.P,U5,3,SCL*%
%TO.N,SCL_1V8*%
X145450000Y-116495000D03*
%TO.P,U5,4,INT*%
%TO.N,/INT_CLR_1V8*%
X145450000Y-115855000D03*
%TO.P,U5,5,N/C*%
%TO.N,unconnected-(U5-N{slash}C-Pad5)*%
X146550000Y-115855000D03*
%TO.P,U5,6,N/C*%
%TO.N,unconnected-(U5-N{slash}C-Pad6)*%
X146550000Y-116495000D03*
%TO.P,U5,7,GND*%
%TO.N,GND*%
X146550000Y-117135000D03*
%TO.P,U5,8,GND*%
X146550000Y-117775000D03*
%TD*%
D28*
%TO.P,C2,1*%
%TO.N,+1V8*%
X151980000Y-116000000D03*
%TO.P,C2,2*%
%TO.N,GND*%
X151020000Y-116000000D03*
%TD*%
D12*
%TO.P,C3,1*%
%TO.N,VBUS*%
X137900000Y-124980000D03*
%TO.P,C3,2*%
%TO.N,GND*%
X137900000Y-124020000D03*
%TD*%
D18*
%TO.P,R17,1*%
%TO.N,+3.3V*%
X139400000Y-112190000D03*
%TO.P,R17,2*%
%TO.N,INT_CLR_3V3*%
X139400000Y-113210000D03*
%TD*%
D19*
%TO.P,TP7,1,1*%
%TO.N,INT_CLR_3V3*%
X140900000Y-113200000D03*
%TD*%
D11*
%TO.P,R6,1*%
%TO.N,+1V8*%
X144100000Y-103110000D03*
%TO.P,R6,2*%
%TO.N,/INT_TOF_1V8*%
X144100000Y-102090000D03*
%TD*%
D15*
%TO.P,Q7,1,G*%
%TO.N,+1V8*%
X133250000Y-117137500D03*
%TO.P,Q7,2,S*%
%TO.N,SDA_1V8*%
X131350000Y-117137500D03*
%TO.P,Q7,3,D*%
%TO.N,SDA_3V3*%
X132300000Y-115262500D03*
%TD*%
D14*
%TO.P,R19,1*%
%TO.N,+1V8*%
X132860000Y-119187500D03*
%TO.P,R19,2*%
%TO.N,SDA_1V8*%
X131840000Y-119187500D03*
%TD*%
D11*
%TO.P,R11,1*%
%TO.N,LPn_3V3*%
X153000000Y-103210000D03*
%TO.P,R11,2*%
%TO.N,/LPn_1V8*%
X153000000Y-102190000D03*
%TD*%
%TO.P,R7,1*%
%TO.N,+1V8*%
X144137500Y-106910000D03*
%TO.P,R7,2*%
%TO.N,/SYNC_1V8*%
X144137500Y-105890000D03*
%TD*%
D18*
%TO.P,R9,1*%
%TO.N,+3.3V*%
X150200000Y-102190000D03*
%TO.P,R9,2*%
%TO.N,INT_TOF_3V3*%
X150200000Y-103210000D03*
%TD*%
D11*
%TO.P,R18,1*%
%TO.N,+3.3V*%
X137400000Y-113210000D03*
%TO.P,R18,2*%
%TO.N,SCL_3V3*%
X137400000Y-112190000D03*
%TD*%
D29*
%TO.N,GND*%
X165000000Y-119400000D03*
X161800000Y-119400000D03*
X150600000Y-122200000D03*
%TO.N,VBUS*%
X139800000Y-125000000D03*
X138900000Y-125000000D03*
%TO.N,Net-(U3-D+_in)*%
X148400000Y-129000000D03*
%TO.N,Net-(U3-D-_in)*%
X149000000Y-122750000D03*
%TO.N,Net-(U3-D+_in)*%
X147049598Y-122775000D03*
%TO.N,Net-(U3-D-_in)*%
X147250000Y-128500000D03*
%TO.N,VBUS*%
X149900000Y-126900000D03*
X149900000Y-125400000D03*
%TO.N,GND*%
X153000000Y-112300000D03*
X154900000Y-104300000D03*
X156700000Y-101500000D03*
X158700000Y-111400000D03*
X133700000Y-120200000D03*
X134250000Y-116300000D03*
X153400000Y-119000000D03*
X134800000Y-107900000D03*
X144500000Y-120250000D03*
X131550000Y-111800000D03*
X155750000Y-119500000D03*
X141000000Y-115600000D03*
X152700000Y-101000000D03*
X133800000Y-110850000D03*
X159200000Y-119400000D03*
X155700000Y-114900000D03*
X158700000Y-109400000D03*
X138700000Y-103800000D03*
X165000000Y-121100000D03*
X159200000Y-121100000D03*
X133600000Y-104200000D03*
X154800000Y-108600000D03*
X143750000Y-123750000D03*
X150250000Y-117000000D03*
X137950000Y-117900000D03*
X158700000Y-107400000D03*
X153800000Y-113700000D03*
X133600000Y-102900000D03*
X158700000Y-101500000D03*
X155700000Y-111800000D03*
X141600000Y-122000000D03*
X144000000Y-108500000D03*
X154000000Y-122750000D03*
X156600000Y-109400000D03*
X155750000Y-117750000D03*
X158700000Y-105400000D03*
X156400000Y-105400000D03*
X158700000Y-113400000D03*
X152750000Y-109750000D03*
X158700000Y-115400000D03*
X157500000Y-123000000D03*
X165000000Y-124100000D03*
X145000000Y-108500000D03*
X146000000Y-108500000D03*
X132300000Y-122000000D03*
X161750000Y-125900000D03*
X149200000Y-104000000D03*
%TO.N,+1V8*%
X165250000Y-128300000D03*
X147500000Y-115750000D03*
X164150000Y-129200000D03*
X152250000Y-117000000D03*
X162150000Y-129200000D03*
X145900000Y-102649500D03*
X165250000Y-127300000D03*
X163150000Y-129200000D03*
X139800000Y-116700000D03*
X136100000Y-117700000D03*
X144250000Y-119000000D03*
X135900000Y-120600000D03*
%TO.N,+3.3V*%
X131800000Y-129200000D03*
X153750000Y-115750000D03*
X140500000Y-111800000D03*
X133800000Y-129200000D03*
X133540000Y-101060000D03*
X130700000Y-125300000D03*
X130700000Y-128300000D03*
X130700000Y-126300000D03*
X141750000Y-103300000D03*
X158500000Y-129000000D03*
X132800000Y-129200000D03*
X130700000Y-127300000D03*
X152900000Y-105100000D03*
X131575499Y-110400000D03*
X150600000Y-109100000D03*
%TO.N,VBUS*%
X146100000Y-126900000D03*
X146100000Y-125400000D03*
%TO.N,NRST*%
X150250000Y-118550000D03*
X134750000Y-123750000D03*
%TO.N,USB_N*%
X133025000Y-109212170D03*
X141325000Y-104750000D03*
%TO.N,USB_P*%
X140275000Y-104750000D03*
X131975000Y-109212170D03*
%TO.N,INT_CLR_3V3*%
X137900000Y-107700000D03*
%TO.N,SCL_3V3*%
X139150000Y-109900000D03*
%TO.N,SDA_3V3*%
X138350000Y-110800000D03*
%TO.N,I2C_RST*%
X149523910Y-108685575D03*
%TO.N,INT_TOF_3V3*%
X152000000Y-110900000D03*
%TO.N,SYNC_3V3*%
X151300000Y-110000000D03*
%TO.N,Net-(JP2-B)*%
X139300000Y-106700000D03*
X134800000Y-109450000D03*
%TO.N,SDA_1V8*%
X138700000Y-121600000D03*
X142900000Y-119000000D03*
%TO.N,LPn_3V3*%
X151300000Y-111800000D03*
%TO.N,1V8_EN*%
X156750000Y-122000000D03*
%TD*%
D30*
%TO.N,GND*%
X136137500Y-125900000D02*
X135600000Y-125900000D01*
%TO.N,+1V8*%
X133300000Y-117125000D02*
X133300000Y-118747500D01*
X136675000Y-117125000D02*
X136100000Y-117700000D01*
X147800000Y-105328249D02*
X147800000Y-104200000D01*
X137050000Y-117125000D02*
X137050000Y-118747500D01*
X140750000Y-118660000D02*
X140310000Y-119100000D01*
X146262500Y-103650000D02*
X146262500Y-103012000D01*
X146262500Y-103650000D02*
X144640000Y-103650000D01*
X137050000Y-118747500D02*
X136610000Y-119187500D01*
X144640000Y-103650000D02*
X144100000Y-103110000D01*
X135152500Y-120600000D02*
X135900000Y-120600000D01*
X145450000Y-117775000D02*
X145450000Y-118825000D01*
X137050000Y-117125000D02*
X136675000Y-117125000D01*
X147800000Y-104200000D02*
X147250000Y-103650000D01*
X147515000Y-114472500D02*
X147515000Y-115713787D01*
X145540000Y-118915000D02*
X144485000Y-118915000D01*
X133300000Y-118747500D02*
X132860000Y-119187500D01*
X146262500Y-107350000D02*
X144577500Y-107350000D01*
X146262500Y-103012000D02*
X145900000Y-102649500D01*
X147750000Y-115865000D02*
X147750000Y-116635000D01*
X140237500Y-117137500D02*
X139800000Y-116700000D01*
X146262500Y-107350000D02*
X146262500Y-106865749D01*
X147500000Y-115615000D02*
X147750000Y-115865000D01*
X146262500Y-106865749D02*
X147800000Y-105328249D01*
X140750000Y-117137500D02*
X140237500Y-117137500D01*
X147250000Y-103650000D02*
X146262500Y-103650000D01*
X145450000Y-118825000D02*
X145540000Y-118915000D01*
X133300000Y-118747500D02*
X135152500Y-120600000D01*
X144577500Y-107350000D02*
X144137500Y-106910000D01*
X140750000Y-117137500D02*
X140750000Y-118660000D01*
X147500004Y-115750004D02*
G75*
G03*
X147515000Y-115713787I-36204J36204D01*
G01*
%TO.N,+3.3V*%
X148520000Y-110915000D02*
X148520000Y-110300000D01*
X131575499Y-110400000D02*
X133365499Y-112190000D01*
X150200000Y-102190000D02*
X152900000Y-104890000D01*
X150600000Y-107372500D02*
X150137500Y-106910000D01*
X152900000Y-104890000D02*
X152900000Y-105100000D01*
X150137500Y-106910000D02*
X150137500Y-106510000D01*
X133365499Y-112190000D02*
X133700000Y-112190000D01*
X148520000Y-110915000D02*
X148300000Y-111135000D01*
X139400000Y-112190000D02*
X140110000Y-112190000D01*
X149800000Y-109900000D02*
X150600000Y-109100000D01*
X140500000Y-111800000D02*
X140500000Y-111990000D01*
X148300000Y-111135000D02*
X148300000Y-112357500D01*
X148520000Y-110300000D02*
X148920000Y-109900000D01*
X137990000Y-113210000D02*
X137400000Y-113210000D01*
X140110000Y-112190000D02*
X140500000Y-111800000D01*
X148920000Y-109900000D02*
X149800000Y-109900000D01*
X139400000Y-112190000D02*
X139010000Y-112190000D01*
X139010000Y-112190000D02*
X137990000Y-113210000D01*
X150600000Y-109100000D02*
X150600000Y-107372500D01*
%TO.N,NRST*%
X135550000Y-122950000D02*
X134750000Y-123750000D01*
X150250000Y-118550000D02*
X146275000Y-122525000D01*
X142500000Y-122950000D02*
X135550000Y-122950000D01*
X142925000Y-122525000D02*
X142500000Y-122950000D01*
X146275000Y-122525000D02*
X142925000Y-122525000D01*
%TO.N,/INT_CLR_1V8*%
X139290000Y-119100000D02*
X139290000Y-119490000D01*
X141400000Y-118250000D02*
X141400000Y-119300000D01*
X145450000Y-115855000D02*
X143795000Y-115855000D01*
X143795000Y-115855000D02*
X141400000Y-118250000D01*
X139600000Y-120000000D02*
X139290000Y-119690000D01*
X141400000Y-119300000D02*
X140700000Y-120000000D01*
X138850000Y-118660000D02*
X139290000Y-119100000D01*
X138850000Y-117137500D02*
X138850000Y-118660000D01*
X139290000Y-119690000D02*
X139290000Y-119100000D01*
X140700000Y-120000000D02*
X139600000Y-120000000D01*
D31*
%TO.N,USB_N*%
X140350000Y-105725000D02*
X134393200Y-105725000D01*
X134393200Y-105725000D02*
X132725001Y-107393199D01*
X132725001Y-108912171D02*
X133025000Y-109212170D01*
X132725001Y-107393199D02*
X132725001Y-108912171D01*
X141325000Y-104750000D02*
X140350000Y-105725000D01*
%TO.N,USB_P*%
X132274999Y-107206801D02*
X132274999Y-108912171D01*
X134206800Y-105275000D02*
X132274999Y-107206801D01*
X132274999Y-108912171D02*
X131975000Y-109212170D01*
X140275000Y-104750000D02*
X140275000Y-105163603D01*
X140275000Y-105163603D02*
X140163603Y-105275000D01*
X140163603Y-105275000D02*
X134206800Y-105275000D01*
D30*
%TO.N,INT_CLR_3V3*%
X139277500Y-113187500D02*
X139290000Y-113200000D01*
X139400000Y-113210000D02*
X140890000Y-113210000D01*
X140500000Y-107700000D02*
X141300000Y-108500000D01*
X139400000Y-113200000D02*
X139400000Y-113800000D01*
X141300000Y-112800000D02*
X141300000Y-108500000D01*
X137900000Y-107700000D02*
X140500000Y-107700000D01*
X139800000Y-114200000D02*
X139800000Y-115262500D01*
X140900000Y-113200000D02*
X141300000Y-112800000D01*
X139400000Y-113800000D02*
X139800000Y-114200000D01*
X140890000Y-113210000D02*
X140900000Y-113200000D01*
%TO.N,SCL_3V3*%
X135700000Y-113800000D02*
X136100000Y-114200000D01*
X137400000Y-112190000D02*
X136710000Y-112190000D01*
X136100000Y-114200000D02*
X136100000Y-115250000D01*
X136710000Y-112190000D02*
X135700000Y-113200000D01*
X135700000Y-113200000D02*
X135700000Y-113800000D01*
X139300000Y-110050000D02*
X139300000Y-111100000D01*
X139300000Y-111100000D02*
X138210000Y-112190000D01*
X138210000Y-112190000D02*
X137400000Y-112190000D01*
X139150000Y-109900000D02*
X139300000Y-110050000D01*
%TO.N,SDA_3V3*%
X132000000Y-113800000D02*
X132350000Y-114150000D01*
X132350000Y-114150000D02*
X132350000Y-115250000D01*
X132000000Y-113200000D02*
X132000000Y-113800000D01*
X132350000Y-113250000D02*
X132400000Y-113200000D01*
X132410000Y-113210000D02*
X134190000Y-113210000D01*
X136600000Y-110800000D02*
X138350000Y-110800000D01*
X132400000Y-113200000D02*
X132410000Y-113210000D01*
X134190000Y-113210000D02*
X136600000Y-110800000D01*
%TO.N,SCL_1V8*%
X149375000Y-118520000D02*
X145895000Y-122000000D01*
X149015000Y-114765000D02*
X149375000Y-115125000D01*
X149375000Y-115125000D02*
X149375000Y-118520000D01*
X142000000Y-121100000D02*
X141100000Y-121100000D01*
X141100000Y-121100000D02*
X140700000Y-120700000D01*
X145895000Y-122000000D02*
X142900000Y-122000000D01*
X140700000Y-120700000D02*
X137102500Y-120700000D01*
X149015000Y-114472500D02*
X149015000Y-114765000D01*
X142000000Y-121100000D02*
X142700000Y-121800000D01*
X142000000Y-119000000D02*
X142000000Y-118750000D01*
X142000000Y-119000000D02*
X142000000Y-121100000D01*
X144255000Y-116495000D02*
X142000000Y-118750000D01*
X135150000Y-118747500D02*
X135590000Y-119187500D01*
X135150000Y-117125000D02*
X135150000Y-118747500D01*
X137102500Y-120700000D02*
X135590000Y-119187500D01*
X142900000Y-122000000D02*
X142700000Y-121800000D01*
X145450000Y-116495000D02*
X144255000Y-116495000D01*
%TO.N,I2C_RST*%
X147420000Y-109890000D02*
X148624425Y-108685575D01*
X148624425Y-108685575D02*
X149523910Y-108685575D01*
%TO.N,/SYNC_1V8*%
X146262500Y-105450000D02*
X144577500Y-105450000D01*
X144577500Y-105450000D02*
X144137500Y-105890000D01*
X143600000Y-105900000D02*
X143100000Y-106400000D01*
X143100000Y-112900000D02*
X143615000Y-113415000D01*
X144137500Y-105890000D02*
X144127500Y-105900000D01*
X144127500Y-105900000D02*
X143600000Y-105900000D01*
X143615000Y-113415000D02*
X145597500Y-113415000D01*
X143100000Y-106400000D02*
X143100000Y-112900000D01*
%TO.N,/INT_TOF_1V8*%
X145965000Y-114472500D02*
X143572500Y-114472500D01*
X142500000Y-113400000D02*
X142500000Y-106100000D01*
X144440000Y-101750000D02*
X144100000Y-102090000D01*
X143510000Y-102090000D02*
X144100000Y-102090000D01*
X146262500Y-101750000D02*
X144440000Y-101750000D01*
X143200000Y-105400000D02*
X143200000Y-102400000D01*
X142500000Y-106100000D02*
X143200000Y-105400000D01*
X143572500Y-114472500D02*
X142500000Y-113400000D01*
X143200000Y-102400000D02*
X143510000Y-102090000D01*
%TO.N,INT_TOF_3V3*%
X152025000Y-105525000D02*
X151750000Y-105250000D01*
X149100000Y-102700000D02*
X149610000Y-103210000D01*
X152025000Y-110875000D02*
X152025000Y-105525000D01*
X150870000Y-104370000D02*
X150870000Y-103880000D01*
X151750000Y-105250000D02*
X150870000Y-104370000D01*
X152000000Y-110900000D02*
X152025000Y-110875000D01*
X148137500Y-102700000D02*
X149100000Y-102700000D01*
X149610000Y-103210000D02*
X150200000Y-103210000D01*
X150200000Y-103210000D02*
X150870000Y-103880000D01*
%TO.N,Net-(U2-SPI_I2C_N)*%
X146050000Y-111840000D02*
X145120000Y-110910000D01*
X146050000Y-112357500D02*
X146050000Y-111840000D01*
%TO.N,/LPn_1V8*%
X141900000Y-114000000D02*
X141900000Y-105600000D01*
X150500000Y-101000000D02*
X151690000Y-102190000D01*
X141900000Y-105600000D02*
X142600000Y-104900000D01*
X145545000Y-115215000D02*
X146239620Y-115215000D01*
X142600000Y-102000000D02*
X143600000Y-101000000D01*
X142600000Y-104900000D02*
X142600000Y-102000000D01*
X146765000Y-114689620D02*
X146765000Y-114472500D01*
X151690000Y-102190000D02*
X154300000Y-102190000D01*
X146239620Y-115215000D02*
X146765000Y-114689620D01*
X143115000Y-115215000D02*
X141900000Y-114000000D01*
X143600000Y-101000000D02*
X150500000Y-101000000D01*
X145545000Y-115215000D02*
X143115000Y-115215000D01*
%TO.N,/I2C_RST_1V8*%
X146800000Y-111390000D02*
X146320000Y-110910000D01*
X146800000Y-112357500D02*
X146800000Y-111390000D01*
X147280000Y-110910000D02*
X146800000Y-111390000D01*
X147420000Y-110910000D02*
X147280000Y-110910000D01*
%TO.N,SYNC_3V3*%
X151325000Y-109975000D02*
X151325000Y-106425000D01*
X150137500Y-105490000D02*
X150390000Y-105490000D01*
X150010000Y-105490000D02*
X150137500Y-105490000D01*
X150390000Y-105490000D02*
X151325000Y-106425000D01*
X150010000Y-105490000D02*
X149100000Y-106400000D01*
X149100000Y-106400000D02*
X148137500Y-106400000D01*
X151300000Y-110000000D02*
X151325000Y-109975000D01*
%TO.N,Net-(JP2-B)*%
X137600000Y-106700000D02*
X139300000Y-106700000D01*
X134850000Y-109450000D02*
X136225000Y-108075000D01*
X134800000Y-109450000D02*
X134850000Y-109450000D01*
X136225000Y-108075000D02*
X137600000Y-106700000D01*
%TO.N,SDA_1V8*%
X148265000Y-114472500D02*
X148265000Y-115015000D01*
X134000000Y-121600000D02*
X133650000Y-121250000D01*
X131840000Y-119187500D02*
X131840000Y-119440000D01*
X148750000Y-118245000D02*
X145745000Y-121250000D01*
X143350000Y-121250000D02*
X142900000Y-120800000D01*
X142900000Y-119000000D02*
X144765000Y-117135000D01*
X148265000Y-115015000D02*
X148750000Y-115500000D01*
X148750000Y-115500000D02*
X148750000Y-118245000D01*
X145745000Y-121250000D02*
X143350000Y-121250000D01*
X131355000Y-117170000D02*
X131355000Y-118702500D01*
X131400000Y-117125000D02*
X131355000Y-117170000D01*
X144765000Y-117135000D02*
X145450000Y-117135000D01*
X142900000Y-119000000D02*
X142900000Y-120800000D01*
X131840000Y-119440000D02*
X133650000Y-121250000D01*
X131355000Y-118702500D02*
X131840000Y-119187500D01*
X138700000Y-121600000D02*
X134000000Y-121600000D01*
%TO.N,LPn_3V3*%
X153650000Y-105650000D02*
X153900000Y-105400000D01*
X153000000Y-103900000D02*
X153000000Y-103210000D01*
X153900000Y-105400000D02*
X153900000Y-104800000D01*
X152400000Y-111800000D02*
X153650000Y-110550000D01*
X153900000Y-104800000D02*
X153000000Y-103900000D01*
X153650000Y-110550000D02*
X153650000Y-105650000D01*
X151300000Y-111800000D02*
X152400000Y-111800000D01*
%TO.N,1V8_EN*%
X158500000Y-122000000D02*
X159862500Y-123362500D01*
X156750000Y-122000000D02*
X158500000Y-122000000D01*
X159862500Y-123362500D02*
X159862500Y-124950000D01*
%TD*%
%TA.AperFunction,Conductor*%
%TO.N,+1V8*%
G36*
X165942539Y-126519685D02*
G01*
X165988294Y-126572489D01*
X165999500Y-126624000D01*
X165999500Y-129875500D01*
X165979815Y-129942539D01*
X165927011Y-129988294D01*
X165875500Y-129999500D01*
X161624000Y-129999500D01*
X161556961Y-129979815D01*
X161511206Y-129927011D01*
X161500000Y-129875500D01*
X161500000Y-127774000D01*
X161519685Y-127706961D01*
X161572489Y-127661206D01*
X161624000Y-127650000D01*
X161887500Y-127650000D01*
X161887500Y-127100000D01*
X162387500Y-127100000D01*
X162387500Y-127650000D01*
X162715644Y-127650000D01*
X162752489Y-127647100D01*
X162752495Y-127647099D01*
X162910193Y-127601283D01*
X162910196Y-127601282D01*
X163051552Y-127517685D01*
X163051556Y-127517682D01*
X163099387Y-127469850D01*
X163160710Y-127436364D01*
X163230401Y-127441347D01*
X163274751Y-127469849D01*
X163334616Y-127529714D01*
X163334625Y-127529721D01*
X163473804Y-127612031D01*
X163629089Y-127657145D01*
X163650000Y-127658789D01*
X163650000Y-127130000D01*
X164150000Y-127130000D01*
X164150000Y-127658789D01*
X164170910Y-127657145D01*
X164326195Y-127612031D01*
X164465374Y-127529721D01*
X164465383Y-127529714D01*
X164579714Y-127415383D01*
X164579721Y-127415374D01*
X164662031Y-127276195D01*
X164704504Y-127130000D01*
X164150000Y-127130000D01*
X163650000Y-127130000D01*
X163131362Y-127130000D01*
X163064323Y-127110315D01*
X163051523Y-127100000D01*
X162387500Y-127100000D01*
X161887500Y-127100000D01*
X161887500Y-126724000D01*
X161907185Y-126656961D01*
X161959989Y-126611206D01*
X162011500Y-126600000D01*
X163258638Y-126600000D01*
X163325677Y-126619685D01*
X163338477Y-126630000D01*
X164704505Y-126630000D01*
X164712926Y-126618783D01*
X164713013Y-126588723D01*
X164750956Y-126530054D01*
X164814595Y-126501212D01*
X164831889Y-126500000D01*
X165875500Y-126500000D01*
X165942539Y-126519685D01*
G37*
%TD.AperFunction*%
%TD*%
%TA.AperFunction,Conductor*%
%TO.N,+1V8*%
G36*
X152943039Y-113119685D02*
G01*
X152988794Y-113172489D01*
X153000000Y-113224000D01*
X153000000Y-117576000D01*
X152980315Y-117643039D01*
X152927511Y-117688794D01*
X152876000Y-117700000D01*
X151724000Y-117700000D01*
X151656961Y-117680315D01*
X151611206Y-117627511D01*
X151600000Y-117576000D01*
X151600000Y-113900000D01*
X150574000Y-113900000D01*
X150506961Y-113880315D01*
X150461206Y-113827511D01*
X150450000Y-113776000D01*
X150450000Y-113224000D01*
X150469685Y-113156961D01*
X150522489Y-113111206D01*
X150574000Y-113100000D01*
X152876000Y-113100000D01*
X152943039Y-113119685D01*
G37*
%TD.AperFunction*%
%TD*%
%TA.AperFunction,Conductor*%
%TO.N,+3.3V*%
G36*
X131235150Y-124619685D02*
G01*
X131280905Y-124672489D01*
X131287677Y-124719587D01*
X131295495Y-124730000D01*
X132665253Y-124730000D01*
X132715004Y-124702834D01*
X132741362Y-124700000D01*
X133988500Y-124700000D01*
X134055539Y-124719685D01*
X134101294Y-124772489D01*
X134112500Y-124824000D01*
X134112500Y-125750000D01*
X134176000Y-125750000D01*
X134243039Y-125769685D01*
X134288794Y-125822489D01*
X134300000Y-125874000D01*
X134300000Y-126175500D01*
X134280315Y-126242539D01*
X134227511Y-126288294D01*
X134176000Y-126299500D01*
X133318482Y-126299500D01*
X133237519Y-126312323D01*
X133224696Y-126314354D01*
X133111658Y-126371950D01*
X133111657Y-126371950D01*
X133111657Y-126371951D01*
X133111652Y-126371954D01*
X133021954Y-126461652D01*
X133021951Y-126461657D01*
X132964352Y-126574698D01*
X132949500Y-126668475D01*
X132949500Y-127031517D01*
X132960292Y-127099657D01*
X132964354Y-127125304D01*
X133021950Y-127238342D01*
X133021952Y-127238344D01*
X133021954Y-127238347D01*
X133111652Y-127328045D01*
X133111654Y-127328046D01*
X133111658Y-127328050D01*
X133224696Y-127385646D01*
X133224698Y-127385647D01*
X133318475Y-127400499D01*
X133318481Y-127400500D01*
X134176000Y-127400499D01*
X134243039Y-127420183D01*
X134288794Y-127472987D01*
X134300000Y-127524499D01*
X134300000Y-129875500D01*
X134280315Y-129942539D01*
X134227511Y-129988294D01*
X134176000Y-129999500D01*
X130124500Y-129999500D01*
X130057461Y-129979815D01*
X130011706Y-129927011D01*
X130000500Y-129875500D01*
X130000500Y-125230000D01*
X131295496Y-125230000D01*
X131337968Y-125376195D01*
X131420278Y-125515374D01*
X131420285Y-125515383D01*
X131534616Y-125629714D01*
X131534625Y-125629721D01*
X131673804Y-125712031D01*
X131829089Y-125757145D01*
X131850000Y-125758789D01*
X132350000Y-125758789D01*
X132370910Y-125757145D01*
X132526195Y-125712031D01*
X132665374Y-125629721D01*
X132665383Y-125629714D01*
X132725248Y-125569850D01*
X132786571Y-125536365D01*
X132856263Y-125541349D01*
X132900610Y-125569850D01*
X132948438Y-125617678D01*
X132948447Y-125617685D01*
X133089803Y-125701282D01*
X133089806Y-125701283D01*
X133247504Y-125747099D01*
X133247510Y-125747100D01*
X133284356Y-125750000D01*
X133612499Y-125750000D01*
X133612500Y-125200000D01*
X132944747Y-125200000D01*
X132894996Y-125227166D01*
X132868638Y-125230000D01*
X132350000Y-125230000D01*
X132350000Y-125758789D01*
X131850000Y-125758789D01*
X131850000Y-125230000D01*
X131295496Y-125230000D01*
X130000500Y-125230000D01*
X130000500Y-124724000D01*
X130020185Y-124656961D01*
X130072989Y-124611206D01*
X130124500Y-124600000D01*
X131168111Y-124600000D01*
X131235150Y-124619685D01*
G37*
%TD.AperFunction*%
%TD*%
%TA.AperFunction,Conductor*%
%TO.N,GND*%
G36*
X159093039Y-100020185D02*
G01*
X159138794Y-100072989D01*
X159150000Y-100124500D01*
X159150000Y-118750000D01*
X165875500Y-118750000D01*
X165942539Y-118769685D01*
X165988294Y-118822489D01*
X165999500Y-118874000D01*
X165999500Y-126120500D01*
X165979815Y-126187539D01*
X165927011Y-126233294D01*
X165875500Y-126244500D01*
X164827414Y-126244500D01*
X164826806Y-126244521D01*
X164759120Y-126227191D01*
X164723312Y-126195049D01*
X164704505Y-126170000D01*
X163095495Y-126170000D01*
X163100116Y-126185905D01*
X163099917Y-126255775D01*
X163061975Y-126314445D01*
X162998336Y-126343288D01*
X162981040Y-126344500D01*
X162864239Y-126344500D01*
X162807946Y-126330986D01*
X162775300Y-126314352D01*
X162681524Y-126299500D01*
X161593482Y-126299500D01*
X161512519Y-126312323D01*
X161499696Y-126314354D01*
X161386658Y-126371950D01*
X161386657Y-126371950D01*
X161386657Y-126371951D01*
X161386652Y-126371954D01*
X161296954Y-126461652D01*
X161296951Y-126461657D01*
X161239352Y-126574698D01*
X161224500Y-126668475D01*
X161224500Y-127031517D01*
X161235292Y-127099657D01*
X161239354Y-127125304D01*
X161296950Y-127238342D01*
X161296952Y-127238344D01*
X161296954Y-127238347D01*
X161376115Y-127317508D01*
X161409600Y-127378831D01*
X161404616Y-127448523D01*
X161369641Y-127498898D01*
X161352373Y-127513862D01*
X161352371Y-127513864D01*
X161320743Y-127546640D01*
X161274534Y-127634977D01*
X161274533Y-127634977D01*
X161254851Y-127702009D01*
X161254848Y-127702021D01*
X161244500Y-127773998D01*
X161244500Y-129875500D01*
X161224815Y-129942539D01*
X161172011Y-129988294D01*
X161120500Y-129999500D01*
X160879500Y-129999500D01*
X160812461Y-129979815D01*
X160766706Y-129927011D01*
X160755500Y-129875500D01*
X160755500Y-127774000D01*
X160749661Y-127719687D01*
X160745295Y-127699616D01*
X160738457Y-127668183D01*
X160738456Y-127668182D01*
X160738455Y-127668176D01*
X160731219Y-127641802D01*
X160727332Y-127634976D01*
X160681894Y-127555181D01*
X160681888Y-127555172D01*
X160636136Y-127502371D01*
X160636134Y-127502369D01*
X160626654Y-127493221D01*
X160592083Y-127432503D01*
X160595827Y-127362734D01*
X160625078Y-127316313D01*
X160703050Y-127238342D01*
X160760646Y-127125304D01*
X160760646Y-127125302D01*
X160760647Y-127125301D01*
X160775499Y-127031524D01*
X160775500Y-127031519D01*
X160775499Y-126668482D01*
X160771745Y-126644780D01*
X160780698Y-126575490D01*
X160806538Y-126537700D01*
X160892678Y-126451561D01*
X160892685Y-126451552D01*
X160976281Y-126310198D01*
X161022100Y-126152486D01*
X161022295Y-126150001D01*
X161022295Y-126150000D01*
X159736500Y-126150000D01*
X159669461Y-126130315D01*
X159623706Y-126077511D01*
X159612500Y-126026000D01*
X159612500Y-125774000D01*
X159632185Y-125706961D01*
X159674840Y-125670000D01*
X163095496Y-125670000D01*
X163650000Y-125670000D01*
X163650000Y-125141210D01*
X163649999Y-125141209D01*
X164150000Y-125141209D01*
X164150000Y-125670000D01*
X164704504Y-125670000D01*
X164662031Y-125523804D01*
X164579721Y-125384625D01*
X164579714Y-125384616D01*
X164465383Y-125270285D01*
X164465374Y-125270278D01*
X164326195Y-125187968D01*
X164326190Y-125187966D01*
X164170918Y-125142855D01*
X164170912Y-125142854D01*
X164150000Y-125141209D01*
X163649999Y-125141209D01*
X163629087Y-125142854D01*
X163629081Y-125142855D01*
X163473809Y-125187966D01*
X163473804Y-125187968D01*
X163334625Y-125270278D01*
X163334620Y-125270282D01*
X163231930Y-125372972D01*
X163170607Y-125406456D01*
X163137500Y-125404088D01*
X163155159Y-125451432D01*
X163140981Y-125516610D01*
X163141066Y-125516647D01*
X163140879Y-125517078D01*
X163140308Y-125519705D01*
X163138212Y-125523392D01*
X163137969Y-125523801D01*
X163137968Y-125523804D01*
X163095496Y-125670000D01*
X159674840Y-125670000D01*
X159684989Y-125661206D01*
X159736500Y-125650000D01*
X161022295Y-125650000D01*
X161022295Y-125649998D01*
X161022100Y-125647513D01*
X160976281Y-125489801D01*
X160892685Y-125348447D01*
X160892678Y-125348438D01*
X160806538Y-125262298D01*
X160773053Y-125200975D01*
X160771746Y-125155219D01*
X160775500Y-125131519D01*
X160775500Y-125131517D01*
X161224500Y-125131517D01*
X161228255Y-125155224D01*
X161239354Y-125225304D01*
X161296950Y-125338342D01*
X161296952Y-125338344D01*
X161296954Y-125338347D01*
X161386652Y-125428045D01*
X161386654Y-125428046D01*
X161386658Y-125428050D01*
X161499694Y-125485645D01*
X161499698Y-125485647D01*
X161593475Y-125500499D01*
X161593481Y-125500500D01*
X162681518Y-125500499D01*
X162775304Y-125485646D01*
X162888342Y-125428050D01*
X162943795Y-125372596D01*
X163005116Y-125339113D01*
X163038223Y-125341480D01*
X163020565Y-125294135D01*
X163032633Y-125234583D01*
X163032631Y-125234583D01*
X163032639Y-125234557D01*
X163033767Y-125228990D01*
X163035646Y-125225304D01*
X163039500Y-125200975D01*
X163045120Y-125165486D01*
X163050500Y-125131519D01*
X163050499Y-124768482D01*
X163035646Y-124674696D01*
X162978050Y-124561658D01*
X162978046Y-124561654D01*
X162978045Y-124561652D01*
X162888347Y-124471954D01*
X162888344Y-124471952D01*
X162888342Y-124471950D01*
X162807944Y-124430985D01*
X162775301Y-124414352D01*
X162681524Y-124399500D01*
X161593482Y-124399500D01*
X161512519Y-124412323D01*
X161499696Y-124414354D01*
X161386658Y-124471950D01*
X161386657Y-124471950D01*
X161386657Y-124471951D01*
X161386652Y-124471954D01*
X161296954Y-124561652D01*
X161296951Y-124561657D01*
X161239352Y-124674698D01*
X161224500Y-124768475D01*
X161224500Y-125131517D01*
X160775500Y-125131517D01*
X160775499Y-124768482D01*
X160760646Y-124674696D01*
X160703050Y-124561658D01*
X160703046Y-124561654D01*
X160703045Y-124561652D01*
X160613347Y-124471954D01*
X160613344Y-124471952D01*
X160613342Y-124471950D01*
X160532944Y-124430985D01*
X160500301Y-124414352D01*
X160406524Y-124399500D01*
X160406519Y-124399500D01*
X160362000Y-124399500D01*
X160294961Y-124379815D01*
X160249206Y-124327011D01*
X160238000Y-124275500D01*
X160238000Y-123414304D01*
X160240639Y-123388859D01*
X160241285Y-123385775D01*
X160242867Y-123378232D01*
X160240821Y-123361818D01*
X160238477Y-123343006D01*
X160238000Y-123335330D01*
X160238000Y-123331389D01*
X160237998Y-123331376D01*
X160237829Y-123330366D01*
X160234157Y-123308359D01*
X160227366Y-123253874D01*
X160227364Y-123253870D01*
X160225122Y-123246340D01*
X160222565Y-123238892D01*
X160222565Y-123238890D01*
X160196444Y-123190622D01*
X160172326Y-123141289D01*
X160172324Y-123141287D01*
X160172324Y-123141286D01*
X160167776Y-123134916D01*
X160162920Y-123128676D01*
X160162919Y-123128674D01*
X160122529Y-123091492D01*
X159465565Y-122434528D01*
X158802149Y-121771111D01*
X158786022Y-121751252D01*
X158780086Y-121742167D01*
X158780083Y-121742163D01*
X158752074Y-121720363D01*
X158746310Y-121715272D01*
X158743515Y-121712477D01*
X158724505Y-121698906D01*
X158681189Y-121665190D01*
X158674274Y-121661448D01*
X158667200Y-121657990D01*
X158614596Y-121642329D01*
X158562658Y-121624499D01*
X158554923Y-121623208D01*
X158547085Y-121622231D01*
X158492244Y-121624500D01*
X157346308Y-121624500D01*
X157279269Y-121604815D01*
X157244257Y-121570938D01*
X157240483Y-121565470D01*
X157122240Y-121460717D01*
X157122238Y-121460716D01*
X157122237Y-121460715D01*
X156982365Y-121387303D01*
X156828986Y-121349500D01*
X156828985Y-121349500D01*
X156671015Y-121349500D01*
X156671014Y-121349500D01*
X156517634Y-121387303D01*
X156377762Y-121460715D01*
X156361073Y-121475500D01*
X156275755Y-121551085D01*
X156259516Y-121565471D01*
X156169781Y-121695475D01*
X156169780Y-121695476D01*
X156113762Y-121843181D01*
X156094722Y-121999999D01*
X156094722Y-122000000D01*
X156113762Y-122156818D01*
X156152074Y-122257836D01*
X156169780Y-122304523D01*
X156259517Y-122434530D01*
X156377760Y-122539283D01*
X156377762Y-122539284D01*
X156517634Y-122612696D01*
X156671014Y-122650500D01*
X156671015Y-122650500D01*
X156828985Y-122650500D01*
X156982365Y-122612696D01*
X157056049Y-122574023D01*
X157122240Y-122539283D01*
X157240483Y-122434530D01*
X157244257Y-122429061D01*
X157298537Y-122385071D01*
X157346308Y-122375500D01*
X158293101Y-122375500D01*
X158360140Y-122395185D01*
X158380782Y-122411819D01*
X159450681Y-123481718D01*
X159484166Y-123543041D01*
X159487000Y-123569399D01*
X159487000Y-124275500D01*
X159467315Y-124342539D01*
X159414511Y-124388294D01*
X159363003Y-124399500D01*
X159318483Y-124399500D01*
X159239550Y-124412001D01*
X159224696Y-124414354D01*
X159111658Y-124471950D01*
X159111657Y-124471950D01*
X159111657Y-124471951D01*
X159111652Y-124471954D01*
X159078473Y-124505133D01*
X159017150Y-124538618D01*
X158947458Y-124533632D01*
X158891525Y-124491760D01*
X158867109Y-124426296D01*
X158871717Y-124382856D01*
X158904505Y-124270000D01*
X157367573Y-124270000D01*
X157332996Y-124265081D01*
X157270299Y-124246875D01*
X157270296Y-124246874D01*
X157198279Y-124236739D01*
X152365331Y-124251172D01*
X151441006Y-124250470D01*
X151373981Y-124230734D01*
X151328267Y-124177896D01*
X151317880Y-124112586D01*
X151330565Y-124000002D01*
X151330565Y-123999996D01*
X151310369Y-123820750D01*
X151310368Y-123820745D01*
X151310367Y-123820744D01*
X151292611Y-123770000D01*
X157295496Y-123770000D01*
X157850000Y-123770000D01*
X157850000Y-123241210D01*
X157849999Y-123241209D01*
X158350000Y-123241209D01*
X158350000Y-123770000D01*
X158904504Y-123770000D01*
X158862031Y-123623804D01*
X158779721Y-123484625D01*
X158779714Y-123484616D01*
X158665383Y-123370285D01*
X158665374Y-123370278D01*
X158526195Y-123287968D01*
X158526190Y-123287966D01*
X158370918Y-123242855D01*
X158370912Y-123242854D01*
X158350000Y-123241209D01*
X157849999Y-123241209D01*
X157829087Y-123242854D01*
X157829081Y-123242855D01*
X157673809Y-123287966D01*
X157673804Y-123287968D01*
X157534625Y-123370278D01*
X157534616Y-123370285D01*
X157420285Y-123484616D01*
X157420278Y-123484625D01*
X157337968Y-123623804D01*
X157295496Y-123770000D01*
X151292611Y-123770000D01*
X151250789Y-123650478D01*
X151243709Y-123639211D01*
X151183282Y-123543041D01*
X151154816Y-123497738D01*
X151027262Y-123370184D01*
X151013948Y-123361818D01*
X150874523Y-123274211D01*
X150704254Y-123214631D01*
X150704249Y-123214630D01*
X150569960Y-123199500D01*
X150569954Y-123199500D01*
X150230046Y-123199500D01*
X150230039Y-123199500D01*
X150095750Y-123214630D01*
X150095745Y-123214631D01*
X149925476Y-123274211D01*
X149772737Y-123370184D01*
X149645184Y-123497737D01*
X149549211Y-123650476D01*
X149489631Y-123820745D01*
X149489630Y-123820750D01*
X149469435Y-123999996D01*
X149469435Y-124000004D01*
X149481942Y-124111012D01*
X149469887Y-124179834D01*
X149422538Y-124231213D01*
X149358628Y-124248895D01*
X146641415Y-124246838D01*
X146574391Y-124227103D01*
X146528676Y-124174264D01*
X146518289Y-124108954D01*
X146530565Y-124000002D01*
X146530565Y-123999996D01*
X146510369Y-123820750D01*
X146510368Y-123820745D01*
X146510367Y-123820744D01*
X146450789Y-123650478D01*
X146443709Y-123639211D01*
X146383282Y-123543041D01*
X146354816Y-123497738D01*
X146227262Y-123370184D01*
X146213948Y-123361818D01*
X146074523Y-123274211D01*
X145904254Y-123214631D01*
X145904249Y-123214630D01*
X145769960Y-123199500D01*
X145769954Y-123199500D01*
X145430046Y-123199500D01*
X145430039Y-123199500D01*
X145295750Y-123214630D01*
X145295745Y-123214631D01*
X145125476Y-123274211D01*
X144972737Y-123370184D01*
X144845184Y-123497737D01*
X144749211Y-123650476D01*
X144689631Y-123820745D01*
X144689630Y-123820750D01*
X144669435Y-123999996D01*
X144669435Y-124000003D01*
X144681533Y-124107379D01*
X144669478Y-124176201D01*
X144622129Y-124227580D01*
X144558219Y-124245262D01*
X143550097Y-124244500D01*
X138798367Y-124244500D01*
X138789434Y-124244813D01*
X138783025Y-124245262D01*
X138767678Y-124246337D01*
X138767677Y-124246337D01*
X138689098Y-124266214D01*
X138658691Y-124270000D01*
X137095495Y-124270000D01*
X137100116Y-124285905D01*
X137099917Y-124355775D01*
X137061975Y-124414445D01*
X136998336Y-124443288D01*
X136981040Y-124444500D01*
X136864239Y-124444500D01*
X136807946Y-124430986D01*
X136798741Y-124426296D01*
X136775304Y-124414354D01*
X136775303Y-124414353D01*
X136775300Y-124414352D01*
X136681524Y-124399500D01*
X135593482Y-124399500D01*
X135512519Y-124412323D01*
X135499696Y-124414354D01*
X135386658Y-124471950D01*
X135386657Y-124471950D01*
X135386657Y-124471951D01*
X135386652Y-124471954D01*
X135296954Y-124561652D01*
X135296951Y-124561657D01*
X135239352Y-124674698D01*
X135224500Y-124768475D01*
X135224500Y-125131522D01*
X135228254Y-125155224D01*
X135219296Y-125224517D01*
X135193462Y-125262298D01*
X135107318Y-125348442D01*
X135107314Y-125348447D01*
X135023718Y-125489801D01*
X134977899Y-125647513D01*
X134977704Y-125649998D01*
X134977705Y-125650000D01*
X136263500Y-125650000D01*
X136330539Y-125669685D01*
X136376294Y-125722489D01*
X136387500Y-125774000D01*
X136387500Y-126026000D01*
X136367815Y-126093039D01*
X136315011Y-126138794D01*
X136263500Y-126150000D01*
X134977705Y-126150000D01*
X134977704Y-126150001D01*
X134977899Y-126152486D01*
X135023718Y-126310198D01*
X135107314Y-126451552D01*
X135107321Y-126451561D01*
X135193460Y-126537700D01*
X135226945Y-126599023D01*
X135228253Y-126644773D01*
X135224500Y-126668475D01*
X135224500Y-127031517D01*
X135235292Y-127099657D01*
X135239354Y-127125304D01*
X135296950Y-127238342D01*
X135296952Y-127238344D01*
X135296954Y-127238347D01*
X135329830Y-127271223D01*
X135363315Y-127332546D01*
X135358331Y-127402238D01*
X135316459Y-127458171D01*
X135307910Y-127463775D01*
X135305172Y-127465712D01*
X135252371Y-127511465D01*
X135220743Y-127544241D01*
X135174534Y-127632578D01*
X135174533Y-127632578D01*
X135154851Y-127699610D01*
X135154848Y-127699622D01*
X135144500Y-127771599D01*
X135144500Y-129875500D01*
X135124815Y-129942539D01*
X135072011Y-129988294D01*
X135020500Y-129999500D01*
X134679500Y-129999500D01*
X134612461Y-129979815D01*
X134566706Y-129927011D01*
X134555500Y-129875500D01*
X134555500Y-127524499D01*
X134549661Y-127470187D01*
X134548506Y-127464878D01*
X134553487Y-127395190D01*
X134595355Y-127339254D01*
X134613305Y-127328077D01*
X134613336Y-127328054D01*
X134613337Y-127328052D01*
X134613342Y-127328050D01*
X134703050Y-127238342D01*
X134760646Y-127125304D01*
X134760646Y-127125302D01*
X134760647Y-127125301D01*
X134775499Y-127031524D01*
X134775500Y-127031519D01*
X134775499Y-126668482D01*
X134760646Y-126574696D01*
X134703050Y-126461658D01*
X134703046Y-126461654D01*
X134703045Y-126461652D01*
X134613347Y-126371954D01*
X134613339Y-126371948D01*
X134612200Y-126371368D01*
X134611066Y-126370297D01*
X134605450Y-126366217D01*
X134605977Y-126365490D01*
X134561406Y-126323393D01*
X134544612Y-126255571D01*
X134545758Y-126243252D01*
X134555500Y-126175500D01*
X134555500Y-125874000D01*
X134549661Y-125819687D01*
X134538455Y-125768176D01*
X134531219Y-125741802D01*
X134529389Y-125738588D01*
X134481898Y-125655187D01*
X134481890Y-125655176D01*
X134481888Y-125655172D01*
X134481884Y-125655168D01*
X134481417Y-125654508D01*
X134481274Y-125654092D01*
X134478874Y-125649877D01*
X134479672Y-125649422D01*
X134458752Y-125588417D01*
X134475417Y-125520563D01*
X134526117Y-125472493D01*
X134613342Y-125428050D01*
X134703050Y-125338342D01*
X134760646Y-125225304D01*
X134760646Y-125225302D01*
X134760647Y-125225301D01*
X134771282Y-125158147D01*
X134775500Y-125131519D01*
X134775499Y-124768482D01*
X134760646Y-124674696D01*
X134712799Y-124580792D01*
X134699904Y-124512126D01*
X134726180Y-124447385D01*
X134783287Y-124407128D01*
X134823285Y-124400500D01*
X134828985Y-124400500D01*
X134982365Y-124362696D01*
X135064162Y-124319765D01*
X135122240Y-124289283D01*
X135240483Y-124184530D01*
X135330220Y-124054523D01*
X135386237Y-123906818D01*
X135405278Y-123750000D01*
X135399102Y-123699144D01*
X135410561Y-123630225D01*
X135434513Y-123596522D01*
X135669219Y-123361818D01*
X135730544Y-123328334D01*
X135756901Y-123325500D01*
X137096990Y-123325500D01*
X137164029Y-123345185D01*
X137209784Y-123397989D01*
X137219728Y-123467147D01*
X137203722Y-123512621D01*
X137137968Y-123623804D01*
X137095496Y-123770000D01*
X138704504Y-123770000D01*
X138662031Y-123623804D01*
X138596278Y-123512621D01*
X138579095Y-123444897D01*
X138601255Y-123378634D01*
X138655721Y-123334871D01*
X138703010Y-123325500D01*
X142448196Y-123325500D01*
X142473641Y-123328139D01*
X142477440Y-123328935D01*
X142484268Y-123330367D01*
X142505225Y-123327754D01*
X142519492Y-123325977D01*
X142527168Y-123325500D01*
X142531112Y-123325500D01*
X142531114Y-123325500D01*
X142531116Y-123325499D01*
X142531122Y-123325499D01*
X142546487Y-123322934D01*
X142554140Y-123321657D01*
X142608626Y-123314866D01*
X142608627Y-123314865D01*
X142608629Y-123314865D01*
X142616141Y-123312628D01*
X142623606Y-123310066D01*
X142623606Y-123310065D01*
X142623610Y-123310065D01*
X142671877Y-123283944D01*
X142721211Y-123259826D01*
X142721213Y-123259823D01*
X142727598Y-123255265D01*
X142733819Y-123250422D01*
X142733826Y-123250419D01*
X142771007Y-123210030D01*
X143044218Y-122936819D01*
X143105542Y-122903334D01*
X143131900Y-122900500D01*
X146223196Y-122900500D01*
X146248641Y-122903139D01*
X146252440Y-122903935D01*
X146259268Y-122905367D01*
X146280225Y-122902754D01*
X146294492Y-122900977D01*
X146302168Y-122900500D01*
X146311244Y-122900500D01*
X146311244Y-122901733D01*
X146373931Y-122914623D01*
X146423897Y-122963461D01*
X146431692Y-122980154D01*
X146469379Y-123079525D01*
X146477640Y-123091493D01*
X146559115Y-123209530D01*
X146677358Y-123314283D01*
X146677360Y-123314284D01*
X146817232Y-123387696D01*
X146970612Y-123425500D01*
X146970613Y-123425500D01*
X147128583Y-123425500D01*
X147281963Y-123387696D01*
X147299995Y-123378232D01*
X147421838Y-123314283D01*
X147540081Y-123209530D01*
X147629818Y-123079523D01*
X147685835Y-122931818D01*
X147704876Y-122775000D01*
X147701841Y-122750000D01*
X148344722Y-122750000D01*
X148363762Y-122906818D01*
X148419780Y-123054523D01*
X148509517Y-123184530D01*
X148627760Y-123289283D01*
X148627762Y-123289284D01*
X148767634Y-123362696D01*
X148921014Y-123400500D01*
X148921015Y-123400500D01*
X149078985Y-123400500D01*
X149232365Y-123362696D01*
X149265729Y-123345185D01*
X149372240Y-123289283D01*
X149490483Y-123184530D01*
X149580220Y-123054523D01*
X149636237Y-122906818D01*
X149655278Y-122750000D01*
X149641943Y-122640171D01*
X149636237Y-122593181D01*
X149589701Y-122470477D01*
X149580220Y-122445477D01*
X149490483Y-122315470D01*
X149372240Y-122210717D01*
X149372238Y-122210716D01*
X149372237Y-122210715D01*
X149232365Y-122137303D01*
X149078986Y-122099500D01*
X149078985Y-122099500D01*
X148921015Y-122099500D01*
X148921014Y-122099500D01*
X148767634Y-122137303D01*
X148627762Y-122210715D01*
X148509516Y-122315471D01*
X148419781Y-122445475D01*
X148419780Y-122445476D01*
X148363762Y-122593181D01*
X148344722Y-122749999D01*
X148344722Y-122750000D01*
X147701841Y-122750000D01*
X147685835Y-122618181D01*
X147655913Y-122539284D01*
X147629818Y-122470477D01*
X147540081Y-122340470D01*
X147421838Y-122235717D01*
X147377976Y-122212696D01*
X147356921Y-122201645D01*
X147306709Y-122153060D01*
X147290735Y-122085041D01*
X147314071Y-122019183D01*
X147326860Y-122004175D01*
X150094217Y-119236819D01*
X150155541Y-119203334D01*
X150181899Y-119200500D01*
X150328985Y-119200500D01*
X150482365Y-119162696D01*
X150493564Y-119156818D01*
X150622240Y-119089283D01*
X150740483Y-118984530D01*
X150830220Y-118854523D01*
X150886237Y-118706818D01*
X150905278Y-118550000D01*
X150902643Y-118528294D01*
X150886237Y-118393181D01*
X150838534Y-118267400D01*
X150830220Y-118245477D01*
X150740483Y-118115470D01*
X150622240Y-118010717D01*
X150622238Y-118010716D01*
X150622237Y-118010715D01*
X150482365Y-117937303D01*
X150328986Y-117899500D01*
X150328985Y-117899500D01*
X150171015Y-117899500D01*
X150171014Y-117899500D01*
X150017637Y-117937303D01*
X149932126Y-117982183D01*
X149863617Y-117995908D01*
X149798564Y-117970415D01*
X149757620Y-117913799D01*
X149750500Y-117872386D01*
X149750500Y-116250000D01*
X150241210Y-116250000D01*
X150242854Y-116270910D01*
X150287968Y-116426195D01*
X150370278Y-116565374D01*
X150370285Y-116565383D01*
X150484616Y-116679714D01*
X150484625Y-116679721D01*
X150623804Y-116762031D01*
X150770000Y-116804504D01*
X150770000Y-116250000D01*
X150241210Y-116250000D01*
X149750500Y-116250000D01*
X149750500Y-115354000D01*
X149770185Y-115286961D01*
X149822989Y-115241206D01*
X149874500Y-115230000D01*
X150062828Y-115230000D01*
X150062841Y-115229999D01*
X150126743Y-115223128D01*
X150153257Y-115223128D01*
X150217158Y-115229999D01*
X150217172Y-115230000D01*
X150275886Y-115230000D01*
X150342925Y-115249685D01*
X150388680Y-115302489D01*
X150398624Y-115371647D01*
X150373867Y-115429998D01*
X150370281Y-115434620D01*
X150287968Y-115573804D01*
X150287966Y-115573809D01*
X150242855Y-115729081D01*
X150242854Y-115729087D01*
X150241209Y-115749999D01*
X150241210Y-115750000D01*
X151146000Y-115750000D01*
X151213039Y-115769685D01*
X151258794Y-115822489D01*
X151270000Y-115874000D01*
X151270000Y-116804504D01*
X151294952Y-116823239D01*
X151336743Y-116879232D01*
X151344500Y-116922400D01*
X151344500Y-117576002D01*
X151350338Y-117630312D01*
X151357823Y-117664716D01*
X151361545Y-117681824D01*
X151364671Y-117693217D01*
X151368779Y-117708193D01*
X151368783Y-117708203D01*
X151418105Y-117794818D01*
X151418111Y-117794827D01*
X151453905Y-117836136D01*
X151463867Y-117847632D01*
X151496641Y-117879257D01*
X151584976Y-117925465D01*
X151584977Y-117925465D01*
X151584977Y-117925466D01*
X151629218Y-117938456D01*
X151652015Y-117945150D01*
X151652019Y-117945150D01*
X151652021Y-117945151D01*
X151663652Y-117946823D01*
X151724000Y-117955500D01*
X151724001Y-117955500D01*
X152876000Y-117955500D01*
X152930313Y-117949661D01*
X152946440Y-117946152D01*
X152981817Y-117938457D01*
X152981817Y-117938456D01*
X152981824Y-117938455D01*
X153008198Y-117931219D01*
X153063900Y-117899500D01*
X153094818Y-117881894D01*
X153094821Y-117881891D01*
X153094828Y-117881888D01*
X153131281Y-117850301D01*
X153147629Y-117836136D01*
X153153435Y-117830119D01*
X153179257Y-117803359D01*
X153225465Y-117715024D01*
X153227470Y-117708198D01*
X153240237Y-117664716D01*
X153245150Y-117647985D01*
X153255500Y-117576000D01*
X153255500Y-116430237D01*
X153275185Y-116363198D01*
X153327989Y-116317443D01*
X153397147Y-116307499D01*
X153437124Y-116320440D01*
X153517635Y-116362696D01*
X153558731Y-116372825D01*
X153671014Y-116400500D01*
X153671015Y-116400500D01*
X153828985Y-116400500D01*
X153982365Y-116362696D01*
X154021685Y-116342059D01*
X154122240Y-116289283D01*
X154240483Y-116184530D01*
X154330220Y-116054523D01*
X154386237Y-115906818D01*
X154405278Y-115750000D01*
X154386237Y-115593182D01*
X154385709Y-115591791D01*
X154348864Y-115494638D01*
X154330220Y-115445477D01*
X154240483Y-115315470D01*
X154122240Y-115210717D01*
X154122238Y-115210716D01*
X154122237Y-115210715D01*
X153982365Y-115137303D01*
X153828986Y-115099500D01*
X153828985Y-115099500D01*
X153671015Y-115099500D01*
X153671014Y-115099500D01*
X153517634Y-115137303D01*
X153437126Y-115179558D01*
X153368617Y-115193284D01*
X153303564Y-115167791D01*
X153262620Y-115111176D01*
X153255500Y-115069762D01*
X153255500Y-113224000D01*
X153249661Y-113169687D01*
X153243273Y-113140321D01*
X153238457Y-113118183D01*
X153238456Y-113118182D01*
X153238455Y-113118176D01*
X153231219Y-113091802D01*
X153224346Y-113079732D01*
X153181894Y-113005181D01*
X153181888Y-113005172D01*
X153136136Y-112952371D01*
X153132811Y-112949163D01*
X153103359Y-112920743D01*
X153015024Y-112874535D01*
X153015023Y-112874534D01*
X153015022Y-112874534D01*
X153015022Y-112874533D01*
X152947990Y-112854851D01*
X152947978Y-112854848D01*
X152876001Y-112844500D01*
X152876000Y-112844500D01*
X152000000Y-112844500D01*
X152000000Y-112175500D01*
X152348196Y-112175500D01*
X152373641Y-112178139D01*
X152377440Y-112178935D01*
X152384268Y-112180367D01*
X152405225Y-112177754D01*
X152419492Y-112175977D01*
X152427168Y-112175500D01*
X152431112Y-112175500D01*
X152431114Y-112175500D01*
X152431116Y-112175499D01*
X152431122Y-112175499D01*
X152446487Y-112172934D01*
X152454140Y-112171657D01*
X152508626Y-112164866D01*
X152508627Y-112164865D01*
X152508629Y-112164865D01*
X152516141Y-112162628D01*
X152523606Y-112160066D01*
X152523606Y-112160065D01*
X152523610Y-112160065D01*
X152571877Y-112133944D01*
X152621211Y-112109826D01*
X152621213Y-112109823D01*
X152627594Y-112105268D01*
X152633819Y-112100422D01*
X152633826Y-112100419D01*
X152671007Y-112060029D01*
X153878892Y-110852144D01*
X153898741Y-110836025D01*
X153907836Y-110830084D01*
X153929644Y-110802062D01*
X153934721Y-110796316D01*
X153937520Y-110793518D01*
X153951094Y-110774504D01*
X153975476Y-110743180D01*
X153984807Y-110731192D01*
X153988547Y-110724280D01*
X153992003Y-110717207D01*
X153992010Y-110717199D01*
X154007670Y-110664596D01*
X154025500Y-110612660D01*
X154025500Y-110612655D01*
X154026790Y-110604924D01*
X154027768Y-110597085D01*
X154025500Y-110542244D01*
X154025500Y-105856899D01*
X154045185Y-105789860D01*
X154061819Y-105769218D01*
X154128888Y-105702149D01*
X154148751Y-105686019D01*
X154157836Y-105680084D01*
X154179638Y-105652071D01*
X154184733Y-105646303D01*
X154187519Y-105643518D01*
X154187528Y-105643506D01*
X154201086Y-105624516D01*
X154234807Y-105581192D01*
X154238547Y-105574278D01*
X154242006Y-105567203D01*
X154242010Y-105567199D01*
X154250899Y-105537340D01*
X154257672Y-105514593D01*
X154275500Y-105462661D01*
X154276791Y-105454924D01*
X154277768Y-105447086D01*
X154275500Y-105392244D01*
X154275500Y-104851804D01*
X154278139Y-104826359D01*
X154278785Y-104823275D01*
X154280367Y-104815732D01*
X154278498Y-104800740D01*
X154275977Y-104780506D01*
X154275500Y-104772830D01*
X154275500Y-104768889D01*
X154275498Y-104768876D01*
X154271657Y-104745859D01*
X154271483Y-104744461D01*
X154264866Y-104691374D01*
X154264864Y-104691370D01*
X154262622Y-104683840D01*
X154260065Y-104676392D01*
X154260065Y-104676390D01*
X154233944Y-104628122D01*
X154209826Y-104578789D01*
X154209824Y-104578787D01*
X154209824Y-104578786D01*
X154205276Y-104572416D01*
X154200420Y-104566176D01*
X154200419Y-104566174D01*
X154187016Y-104553836D01*
X154160030Y-104528993D01*
X153783169Y-104152132D01*
X153749684Y-104090809D01*
X153754668Y-104021117D01*
X153796540Y-103965184D01*
X153862004Y-103940767D01*
X153905445Y-103945375D01*
X154014871Y-103977166D01*
X154014877Y-103977167D01*
X154050000Y-103979931D01*
X154050000Y-103460000D01*
X154550000Y-103460000D01*
X154550000Y-103979930D01*
X154585122Y-103977167D01*
X154585128Y-103977166D01*
X154739188Y-103932407D01*
X154739191Y-103932406D01*
X154877285Y-103850738D01*
X154877294Y-103850731D01*
X154990731Y-103737294D01*
X154990738Y-103737285D01*
X155072404Y-103599194D01*
X155112844Y-103460000D01*
X154550000Y-103460000D01*
X154050000Y-103460000D01*
X154050000Y-103084000D01*
X154069685Y-103016961D01*
X154122489Y-102971206D01*
X154174000Y-102960000D01*
X155112844Y-102960000D01*
X155072404Y-102820805D01*
X154990738Y-102682714D01*
X154990731Y-102682705D01*
X154884412Y-102576386D01*
X154850927Y-102515063D01*
X154855911Y-102445371D01*
X154859239Y-102437628D01*
X154859580Y-102436524D01*
X154859580Y-102436521D01*
X154859582Y-102436518D01*
X154870500Y-102361582D01*
X154870500Y-102018418D01*
X154859582Y-101943482D01*
X154831189Y-101885403D01*
X154803078Y-101827900D01*
X154803076Y-101827897D01*
X154712102Y-101736923D01*
X154712099Y-101736921D01*
X154596521Y-101680419D01*
X154596519Y-101680418D01*
X154596518Y-101680418D01*
X154521582Y-101669500D01*
X154078418Y-101669500D01*
X154003482Y-101680418D01*
X154003480Y-101680418D01*
X154003478Y-101680419D01*
X153887900Y-101736921D01*
X153887897Y-101736923D01*
X153846642Y-101778180D01*
X153785319Y-101811666D01*
X153758960Y-101814500D01*
X153541040Y-101814500D01*
X153474001Y-101794815D01*
X153453358Y-101778180D01*
X153412102Y-101736923D01*
X153412099Y-101736921D01*
X153296521Y-101680419D01*
X153296519Y-101680418D01*
X153296518Y-101680418D01*
X153221582Y-101669500D01*
X152778418Y-101669500D01*
X152703482Y-101680418D01*
X152703480Y-101680418D01*
X152703478Y-101680419D01*
X152587900Y-101736921D01*
X152587897Y-101736923D01*
X152546642Y-101778180D01*
X152485319Y-101811666D01*
X152458960Y-101814500D01*
X151896899Y-101814500D01*
X151829860Y-101794815D01*
X151809218Y-101778181D01*
X150802149Y-100771111D01*
X150786022Y-100751252D01*
X150780086Y-100742167D01*
X150780083Y-100742163D01*
X150752074Y-100720363D01*
X150746310Y-100715272D01*
X150743515Y-100712477D01*
X150724505Y-100698906D01*
X150681189Y-100665190D01*
X150674274Y-100661448D01*
X150667200Y-100657990D01*
X150614596Y-100642329D01*
X150562658Y-100624499D01*
X150554923Y-100623208D01*
X150547085Y-100622231D01*
X150492244Y-100624500D01*
X143651803Y-100624500D01*
X143626358Y-100621861D01*
X143615732Y-100619633D01*
X143615729Y-100619633D01*
X143580507Y-100624023D01*
X143572831Y-100624500D01*
X143568886Y-100624500D01*
X143563072Y-100625470D01*
X143545856Y-100628342D01*
X143527696Y-100630606D01*
X143491375Y-100635134D01*
X143491371Y-100635135D01*
X143483842Y-100637377D01*
X143476383Y-100639937D01*
X143428118Y-100666058D01*
X143378791Y-100690172D01*
X143372381Y-100694748D01*
X143366175Y-100699579D01*
X143328992Y-100739970D01*
X142371108Y-101697852D01*
X142351254Y-101713976D01*
X142342165Y-101719914D01*
X142342164Y-101719915D01*
X142320363Y-101747923D01*
X142315286Y-101753674D01*
X142312484Y-101756477D01*
X142312474Y-101756488D01*
X142298905Y-101775495D01*
X142265192Y-101818808D01*
X142261447Y-101825729D01*
X142257988Y-101832804D01*
X142242329Y-101885403D01*
X142224500Y-101937338D01*
X142223206Y-101945092D01*
X142222231Y-101952911D01*
X142224500Y-102007755D01*
X142224500Y-102609265D01*
X142204815Y-102676304D01*
X142152011Y-102722059D01*
X142082853Y-102732003D01*
X142042874Y-102719062D01*
X141982365Y-102687304D01*
X141982362Y-102687303D01*
X141828986Y-102649500D01*
X141828985Y-102649500D01*
X141671015Y-102649500D01*
X141671014Y-102649500D01*
X141517634Y-102687303D01*
X141377762Y-102760715D01*
X141259516Y-102865471D01*
X141169781Y-102995475D01*
X141169780Y-102995476D01*
X141113762Y-103143181D01*
X141094722Y-103299999D01*
X141094722Y-103300000D01*
X141113762Y-103456818D01*
X141163055Y-103586790D01*
X141169780Y-103604523D01*
X141259517Y-103734530D01*
X141377760Y-103839283D01*
X141410918Y-103856686D01*
X141428100Y-103865704D01*
X141478312Y-103914289D01*
X141494286Y-103982308D01*
X141470950Y-104048166D01*
X141415714Y-104090952D01*
X141370473Y-104099500D01*
X141246014Y-104099500D01*
X141092634Y-104137303D01*
X140952761Y-104210715D01*
X140952759Y-104210717D01*
X140882226Y-104273203D01*
X140818993Y-104302924D01*
X140749729Y-104293740D01*
X140717774Y-104273203D01*
X140647240Y-104210717D01*
X140647238Y-104210715D01*
X140507365Y-104137303D01*
X140353986Y-104099500D01*
X140353985Y-104099500D01*
X140196015Y-104099500D01*
X140196014Y-104099500D01*
X140042634Y-104137303D01*
X139902762Y-104210715D01*
X139784516Y-104315471D01*
X139694781Y-104445475D01*
X139694780Y-104445476D01*
X139638762Y-104593181D01*
X139619722Y-104749999D01*
X139619722Y-104750000D01*
X139624039Y-104785554D01*
X139612579Y-104854477D01*
X139565675Y-104906263D01*
X139500943Y-104924500D01*
X134256006Y-104924500D01*
X134230561Y-104921861D01*
X134221485Y-104919958D01*
X134221482Y-104919958D01*
X134188868Y-104924023D01*
X134181192Y-104924500D01*
X134177760Y-104924500D01*
X134163419Y-104926892D01*
X134156248Y-104928089D01*
X134139421Y-104930186D01*
X134105407Y-104934427D01*
X134105406Y-104934427D01*
X134105401Y-104934428D01*
X134098375Y-104936519D01*
X134091423Y-104938906D01*
X134046355Y-104963295D01*
X134000312Y-104985803D01*
X133994366Y-104990048D01*
X133988542Y-104994581D01*
X133953842Y-105032275D01*
X132061954Y-106924162D01*
X132042105Y-106940283D01*
X132034330Y-106945363D01*
X132014142Y-106971299D01*
X132009066Y-106977049D01*
X132006633Y-106979482D01*
X132006622Y-106979495D01*
X131993953Y-106997239D01*
X131962482Y-107037673D01*
X131958974Y-107044154D01*
X131955759Y-107050733D01*
X131941137Y-107099846D01*
X131924497Y-107148317D01*
X131923293Y-107155534D01*
X131922381Y-107162847D01*
X131924499Y-107214031D01*
X131924499Y-108457501D01*
X131904814Y-108524540D01*
X131852010Y-108570295D01*
X131830174Y-108577898D01*
X131742633Y-108599474D01*
X131602762Y-108672885D01*
X131602759Y-108672887D01*
X131602760Y-108672887D01*
X131495469Y-108767938D01*
X131484516Y-108777641D01*
X131394781Y-108907645D01*
X131394780Y-108907646D01*
X131338762Y-109055351D01*
X131319721Y-109212169D01*
X131319721Y-109212170D01*
X131338762Y-109368988D01*
X131375354Y-109465471D01*
X131394780Y-109516693D01*
X131398347Y-109521861D01*
X131444851Y-109589234D01*
X131466734Y-109655589D01*
X131449268Y-109723240D01*
X131398000Y-109770710D01*
X131372478Y-109780070D01*
X131343136Y-109787302D01*
X131343133Y-109787303D01*
X131203261Y-109860715D01*
X131085015Y-109965471D01*
X130995280Y-110095475D01*
X130995279Y-110095476D01*
X130939261Y-110243181D01*
X130920221Y-110399999D01*
X130920221Y-110400000D01*
X130939261Y-110556818D01*
X130980290Y-110665000D01*
X130995279Y-110704523D01*
X131085016Y-110834530D01*
X131203259Y-110939283D01*
X131203261Y-110939284D01*
X131343133Y-111012696D01*
X131496513Y-111050500D01*
X131643600Y-111050500D01*
X131710639Y-111070185D01*
X131731281Y-111086819D01*
X133063348Y-112418886D01*
X133079477Y-112438747D01*
X133085202Y-112447511D01*
X133085415Y-112447836D01*
X133113431Y-112469641D01*
X133119192Y-112474730D01*
X133121981Y-112477519D01*
X133140983Y-112491086D01*
X133160497Y-112506275D01*
X133190932Y-112543753D01*
X133190953Y-112543739D01*
X133191183Y-112544061D01*
X133195729Y-112549659D01*
X133196921Y-112552098D01*
X133196922Y-112552099D01*
X133196923Y-112552100D01*
X133196924Y-112552102D01*
X133246641Y-112601819D01*
X133257141Y-112612319D01*
X133290625Y-112673643D01*
X133285640Y-112743334D01*
X133257144Y-112787677D01*
X133246645Y-112798177D01*
X133185324Y-112831665D01*
X133158960Y-112834500D01*
X132725230Y-112834500D01*
X132658191Y-112814815D01*
X132620237Y-112776473D01*
X132590477Y-112729110D01*
X132470890Y-112609523D01*
X132470884Y-112609518D01*
X132327697Y-112519547D01*
X132327694Y-112519545D01*
X132168056Y-112463685D01*
X132000003Y-112444751D01*
X131999997Y-112444751D01*
X131831943Y-112463685D01*
X131672305Y-112519545D01*
X131672302Y-112519547D01*
X131529115Y-112609518D01*
X131529109Y-112609523D01*
X131409523Y-112729109D01*
X131409518Y-112729115D01*
X131319547Y-112872302D01*
X131319545Y-112872305D01*
X131263685Y-113031943D01*
X131244751Y-113199997D01*
X131244751Y-113200002D01*
X131263685Y-113368056D01*
X131319545Y-113527694D01*
X131319547Y-113527697D01*
X131409518Y-113670884D01*
X131409520Y-113670886D01*
X131409523Y-113670890D01*
X131529110Y-113790477D01*
X131575286Y-113819491D01*
X131578364Y-113821425D01*
X131624655Y-113873760D01*
X131631910Y-113898867D01*
X131632203Y-113898780D01*
X131637373Y-113916147D01*
X131639934Y-113923608D01*
X131639935Y-113923610D01*
X131649269Y-113940858D01*
X131666055Y-113971877D01*
X131690174Y-114021211D01*
X131694742Y-114027609D01*
X131699582Y-114033827D01*
X131739971Y-114071009D01*
X131876103Y-114207141D01*
X131909588Y-114268464D01*
X131904604Y-114338156D01*
X131876104Y-114382503D01*
X131821951Y-114436655D01*
X131821951Y-114436657D01*
X131764352Y-114549698D01*
X131749500Y-114643475D01*
X131749500Y-115881517D01*
X131754209Y-115911248D01*
X131764354Y-115975304D01*
X131769185Y-115984785D01*
X131771472Y-115989273D01*
X131784367Y-116057942D01*
X131758090Y-116122682D01*
X131700983Y-116162938D01*
X131634960Y-116165767D01*
X131634943Y-116165880D01*
X131634389Y-116165792D01*
X131631177Y-116165930D01*
X131626109Y-116164480D01*
X131531524Y-116149500D01*
X131168482Y-116149500D01*
X131093102Y-116161439D01*
X131074696Y-116164354D01*
X130961658Y-116221950D01*
X130961657Y-116221951D01*
X130961652Y-116221954D01*
X130871954Y-116311652D01*
X130871951Y-116311657D01*
X130871950Y-116311658D01*
X130867475Y-116320441D01*
X130814352Y-116424698D01*
X130799500Y-116518475D01*
X130799500Y-117756517D01*
X130805568Y-117794827D01*
X130814354Y-117850304D01*
X130871950Y-117963342D01*
X130871952Y-117963344D01*
X130871954Y-117963347D01*
X130943181Y-118034574D01*
X130976666Y-118095897D01*
X130979500Y-118122255D01*
X130979499Y-118650696D01*
X130976861Y-118676135D01*
X130974633Y-118686762D01*
X130974633Y-118686770D01*
X130979023Y-118721993D01*
X130979499Y-118729656D01*
X130979499Y-118733605D01*
X130979500Y-118733614D01*
X130983342Y-118756642D01*
X130990134Y-118811127D01*
X130992373Y-118818647D01*
X130994934Y-118826108D01*
X130994935Y-118826110D01*
X131019287Y-118871109D01*
X131021055Y-118874377D01*
X131045174Y-118923711D01*
X131049742Y-118930109D01*
X131054582Y-118936327D01*
X131094971Y-118973509D01*
X131139970Y-119018507D01*
X131283182Y-119161718D01*
X131316666Y-119223039D01*
X131319500Y-119249398D01*
X131319500Y-119409082D01*
X131330418Y-119484018D01*
X131330418Y-119484019D01*
X131330419Y-119484021D01*
X131386921Y-119599599D01*
X131386923Y-119599602D01*
X131477897Y-119690576D01*
X131477900Y-119690578D01*
X131593477Y-119747080D01*
X131593479Y-119747080D01*
X131593482Y-119747082D01*
X131593484Y-119747082D01*
X131596780Y-119748101D01*
X131601991Y-119751242D01*
X131602133Y-119751312D01*
X131602126Y-119751324D01*
X131647857Y-119778894D01*
X133697849Y-121828886D01*
X133713978Y-121848747D01*
X133719916Y-121857836D01*
X133747929Y-121879639D01*
X133753691Y-121884728D01*
X133756483Y-121887520D01*
X133775486Y-121901088D01*
X133818811Y-121934809D01*
X133818813Y-121934809D01*
X133825718Y-121938546D01*
X133832796Y-121942006D01*
X133832801Y-121942010D01*
X133885402Y-121957670D01*
X133885403Y-121957670D01*
X133937338Y-121975500D01*
X133945072Y-121976790D01*
X133952910Y-121977767D01*
X133952912Y-121977768D01*
X133952913Y-121977767D01*
X133952914Y-121977768D01*
X134007756Y-121975500D01*
X138103692Y-121975500D01*
X138170731Y-121995185D01*
X138205742Y-122029061D01*
X138208163Y-122032569D01*
X138209515Y-122034528D01*
X138209517Y-122034530D01*
X138327760Y-122139283D01*
X138327762Y-122139284D01*
X138467634Y-122212696D01*
X138621014Y-122250500D01*
X138621015Y-122250500D01*
X138778985Y-122250500D01*
X138932365Y-122212696D01*
X138936139Y-122210715D01*
X139072240Y-122139283D01*
X139190483Y-122034530D01*
X139280220Y-121904523D01*
X139336237Y-121756818D01*
X139355278Y-121600000D01*
X139353434Y-121584809D01*
X139336237Y-121443181D01*
X139312138Y-121379638D01*
X139280220Y-121295477D01*
X139262592Y-121269939D01*
X139240710Y-121203586D01*
X139258175Y-121135934D01*
X139309443Y-121088464D01*
X139364643Y-121075500D01*
X140493101Y-121075500D01*
X140560140Y-121095185D01*
X140580782Y-121111819D01*
X140797849Y-121328886D01*
X140813977Y-121348745D01*
X140819916Y-121357836D01*
X140847932Y-121379641D01*
X140853693Y-121384730D01*
X140856482Y-121387519D01*
X140875483Y-121401085D01*
X140918811Y-121434809D01*
X140925722Y-121438549D01*
X140932800Y-121442010D01*
X140985405Y-121457670D01*
X140985405Y-121457671D01*
X141037340Y-121475500D01*
X141037342Y-121475500D01*
X141045079Y-121476791D01*
X141052909Y-121477767D01*
X141052911Y-121477768D01*
X141052912Y-121477767D01*
X141052913Y-121477768D01*
X141107755Y-121475500D01*
X141793101Y-121475500D01*
X141860140Y-121495185D01*
X141880782Y-121511819D01*
X142556281Y-122187318D01*
X142589766Y-122248641D01*
X142584782Y-122318333D01*
X142556281Y-122362680D01*
X142380781Y-122538181D01*
X142319458Y-122571666D01*
X142293100Y-122574500D01*
X135601803Y-122574500D01*
X135576358Y-122571861D01*
X135565732Y-122569633D01*
X135565729Y-122569633D01*
X135530507Y-122574023D01*
X135522831Y-122574500D01*
X135518886Y-122574500D01*
X135501615Y-122577381D01*
X135495858Y-122578342D01*
X135441370Y-122585134D01*
X135433857Y-122587371D01*
X135426387Y-122589936D01*
X135378122Y-122616055D01*
X135328792Y-122640171D01*
X135322375Y-122644753D01*
X135316175Y-122649579D01*
X135278992Y-122689970D01*
X134905780Y-123063181D01*
X134844457Y-123096666D01*
X134818099Y-123099500D01*
X134671014Y-123099500D01*
X134517634Y-123137303D01*
X134377762Y-123210715D01*
X134259516Y-123315471D01*
X134169781Y-123445475D01*
X134169780Y-123445476D01*
X134113762Y-123593181D01*
X134094721Y-123749999D01*
X134094721Y-123750000D01*
X134113762Y-123906818D01*
X134169780Y-124054523D01*
X134169781Y-124054524D01*
X134259518Y-124184532D01*
X134264491Y-124190145D01*
X134262962Y-124191499D01*
X134294560Y-124241871D01*
X134293794Y-124311736D01*
X134255378Y-124370097D01*
X134191509Y-124398424D01*
X134175207Y-124399500D01*
X133318482Y-124399500D01*
X133224694Y-124414354D01*
X133192056Y-124430985D01*
X133135761Y-124444500D01*
X133018960Y-124444500D01*
X132951921Y-124424815D01*
X132906166Y-124372011D01*
X132896222Y-124302853D01*
X132899884Y-124285905D01*
X132904505Y-124270000D01*
X131295494Y-124270000D01*
X131276501Y-124295296D01*
X131220507Y-124337087D01*
X131172540Y-124343950D01*
X131172540Y-124344500D01*
X131168701Y-124344500D01*
X131168505Y-124344528D01*
X131168113Y-124344500D01*
X131168111Y-124344500D01*
X130124500Y-124344500D01*
X130057461Y-124324815D01*
X130011706Y-124272011D01*
X130000500Y-124220500D01*
X130000500Y-123770000D01*
X131295496Y-123770000D01*
X131849999Y-123770000D01*
X131849999Y-123241209D01*
X132350000Y-123241209D01*
X132350000Y-123770000D01*
X132904504Y-123770000D01*
X132862031Y-123623804D01*
X132779721Y-123484625D01*
X132779714Y-123484616D01*
X132665383Y-123370285D01*
X132665374Y-123370278D01*
X132526195Y-123287968D01*
X132526190Y-123287966D01*
X132370918Y-123242855D01*
X132370912Y-123242854D01*
X132350000Y-123241209D01*
X131849999Y-123241209D01*
X131849999Y-123241208D01*
X131829090Y-123242854D01*
X131829078Y-123242856D01*
X131673809Y-123287966D01*
X131673804Y-123287968D01*
X131534625Y-123370278D01*
X131534616Y-123370285D01*
X131420285Y-123484616D01*
X131420278Y-123484625D01*
X131337968Y-123623804D01*
X131295496Y-123770000D01*
X130000500Y-123770000D01*
X130000500Y-101060000D01*
X132884721Y-101060000D01*
X132903762Y-101216818D01*
X132959779Y-101364523D01*
X132959780Y-101364523D01*
X133049517Y-101494530D01*
X133167760Y-101599283D01*
X133167762Y-101599284D01*
X133307634Y-101672696D01*
X133461014Y-101710500D01*
X133461015Y-101710500D01*
X133618985Y-101710500D01*
X133772365Y-101672696D01*
X133779056Y-101669184D01*
X133912240Y-101599283D01*
X134030483Y-101494530D01*
X134120220Y-101364523D01*
X134176237Y-101216818D01*
X134195278Y-101060000D01*
X134176237Y-100903182D01*
X134120220Y-100755477D01*
X134030483Y-100625470D01*
X133912240Y-100520717D01*
X133912238Y-100520716D01*
X133912237Y-100520715D01*
X133772365Y-100447303D01*
X133618986Y-100409500D01*
X133618985Y-100409500D01*
X133461015Y-100409500D01*
X133461014Y-100409500D01*
X133307634Y-100447303D01*
X133167762Y-100520715D01*
X133049516Y-100625471D01*
X132959781Y-100755475D01*
X132959780Y-100755476D01*
X132903762Y-100903181D01*
X132884721Y-101059999D01*
X132884721Y-101060000D01*
X130000500Y-101060000D01*
X130000500Y-100124500D01*
X130020185Y-100057461D01*
X130072989Y-100011706D01*
X130124500Y-100000500D01*
X159026000Y-100000500D01*
X159093039Y-100020185D01*
G37*
%TD.AperFunction*%
%TA.AperFunction,Conductor*%
G36*
X133519087Y-119500710D02*
G01*
X133537009Y-119515546D01*
X134850349Y-120828886D01*
X134866478Y-120848747D01*
X134872416Y-120857836D01*
X134900429Y-120879639D01*
X134906191Y-120884728D01*
X134908983Y-120887520D01*
X134927986Y-120901088D01*
X134971311Y-120934809D01*
X134971313Y-120934809D01*
X134978235Y-120938555D01*
X134985298Y-120942008D01*
X134985301Y-120942010D01*
X135037912Y-120957673D01*
X135063876Y-120966586D01*
X135089839Y-120975500D01*
X135097598Y-120976795D01*
X135102869Y-120977452D01*
X135107836Y-120979608D01*
X135111808Y-120980189D01*
X135133533Y-120976606D01*
X135154277Y-120975747D01*
X135160269Y-120975500D01*
X135303692Y-120975500D01*
X135370731Y-120995185D01*
X135405751Y-121029074D01*
X135406444Y-121030078D01*
X135428315Y-121096435D01*
X135410839Y-121164084D01*
X135359563Y-121211545D01*
X135304382Y-121224500D01*
X135138658Y-121224500D01*
X135117230Y-121218208D01*
X135107479Y-121222885D01*
X135087530Y-121224500D01*
X134206899Y-121224500D01*
X134139860Y-121204815D01*
X134119222Y-121188185D01*
X133893518Y-120962480D01*
X133893517Y-120962479D01*
X133891880Y-120960842D01*
X133891865Y-120960828D01*
X132900719Y-119969681D01*
X132867234Y-119908358D01*
X132872218Y-119838666D01*
X132914090Y-119782733D01*
X132979554Y-119758316D01*
X132988400Y-119758000D01*
X133031577Y-119758000D01*
X133031582Y-119758000D01*
X133106518Y-119747082D01*
X133183411Y-119709491D01*
X133222099Y-119690578D01*
X133222102Y-119690576D01*
X133313076Y-119599602D01*
X133337927Y-119548768D01*
X133385054Y-119497185D01*
X133452588Y-119479270D01*
X133519087Y-119500710D01*
G37*
%TD.AperFunction*%
%TA.AperFunction,Conductor*%
G36*
X143659246Y-119294508D02*
G01*
X143677050Y-119315055D01*
X143759515Y-119434528D01*
X143759517Y-119434530D01*
X143877760Y-119539283D01*
X143877762Y-119539284D01*
X144017634Y-119612696D01*
X144171014Y-119650500D01*
X144171015Y-119650500D01*
X144328985Y-119650500D01*
X144482365Y-119612696D01*
X144516613Y-119594721D01*
X144622240Y-119539283D01*
X144740483Y-119434530D01*
X144802929Y-119344060D01*
X144857213Y-119300070D01*
X144904980Y-119290500D01*
X145001887Y-119290500D01*
X145068926Y-119310185D01*
X145089568Y-119326819D01*
X145167603Y-119404854D01*
X145167605Y-119404855D01*
X145167609Y-119404859D01*
X145277825Y-119461017D01*
X145277826Y-119461017D01*
X145277828Y-119461018D01*
X145312947Y-119466579D01*
X145369265Y-119475500D01*
X145710734Y-119475499D01*
X145710737Y-119475499D01*
X145742543Y-119470461D01*
X145764586Y-119466970D01*
X145800574Y-119471620D01*
X145800000Y-119800000D01*
X146663961Y-119800000D01*
X145625781Y-120838181D01*
X145564458Y-120871666D01*
X145538100Y-120874500D01*
X143556899Y-120874500D01*
X143489860Y-120854815D01*
X143469222Y-120838185D01*
X143311816Y-120680779D01*
X143278334Y-120619458D01*
X143275500Y-120593100D01*
X143275500Y-119592202D01*
X143295185Y-119525163D01*
X143317274Y-119499386D01*
X143319759Y-119497185D01*
X143390483Y-119434530D01*
X143472950Y-119315054D01*
X143527232Y-119271065D01*
X143596681Y-119263405D01*
X143659246Y-119294508D01*
G37*
%TD.AperFunction*%
%TA.AperFunction,Conductor*%
G36*
X136802613Y-112730936D02*
G01*
X136858546Y-112772808D01*
X136882963Y-112838272D01*
X136870680Y-112901577D01*
X136840418Y-112963479D01*
X136837371Y-112984397D01*
X136829500Y-113038418D01*
X136829500Y-113381582D01*
X136840418Y-113456518D01*
X136840418Y-113456519D01*
X136840419Y-113456521D01*
X136896921Y-113572099D01*
X136896923Y-113572102D01*
X136987897Y-113663076D01*
X136987900Y-113663078D01*
X137094109Y-113715000D01*
X137103482Y-113719582D01*
X137178418Y-113730500D01*
X137178423Y-113730500D01*
X137621577Y-113730500D01*
X137621582Y-113730500D01*
X137696518Y-113719582D01*
X137775502Y-113680969D01*
X137812099Y-113663078D01*
X137812102Y-113663076D01*
X137852865Y-113622313D01*
X137914188Y-113588827D01*
X137965991Y-113588632D01*
X137970979Y-113589677D01*
X137974268Y-113590367D01*
X137995225Y-113587754D01*
X138009492Y-113585977D01*
X138017168Y-113585500D01*
X138021112Y-113585500D01*
X138021114Y-113585500D01*
X138021116Y-113585499D01*
X138021122Y-113585499D01*
X138036487Y-113582934D01*
X138044140Y-113581657D01*
X138098626Y-113574866D01*
X138098627Y-113574865D01*
X138098629Y-113574865D01*
X138106141Y-113572628D01*
X138113606Y-113570066D01*
X138113606Y-113570065D01*
X138113610Y-113570065D01*
X138161877Y-113543944D01*
X138211211Y-113519826D01*
X138211213Y-113519823D01*
X138217594Y-113515268D01*
X138223819Y-113510422D01*
X138223826Y-113510419D01*
X138261007Y-113470029D01*
X138617819Y-113113216D01*
X138679142Y-113079732D01*
X138748834Y-113084716D01*
X138804767Y-113126588D01*
X138829184Y-113192052D01*
X138829500Y-113200898D01*
X138829500Y-113381582D01*
X138840418Y-113456518D01*
X138840418Y-113456519D01*
X138840419Y-113456521D01*
X138896921Y-113572099D01*
X138896923Y-113572101D01*
X138896924Y-113572102D01*
X138987689Y-113662867D01*
X139021173Y-113724188D01*
X139021369Y-113775990D01*
X139019633Y-113784270D01*
X139024023Y-113819491D01*
X139024500Y-113827167D01*
X139024500Y-113831116D01*
X139028342Y-113854141D01*
X139035134Y-113908627D01*
X139037373Y-113916147D01*
X139039934Y-113923608D01*
X139039935Y-113923610D01*
X139049269Y-113940858D01*
X139066055Y-113971877D01*
X139090174Y-114021211D01*
X139094742Y-114027609D01*
X139099582Y-114033827D01*
X139139971Y-114071009D01*
X139326103Y-114257141D01*
X139359588Y-114318464D01*
X139354604Y-114388156D01*
X139326107Y-114432499D01*
X139321955Y-114436650D01*
X139321951Y-114436657D01*
X139264352Y-114549698D01*
X139249500Y-114643475D01*
X139249500Y-115881517D01*
X139254209Y-115911248D01*
X139264354Y-115975304D01*
X139269185Y-115984785D01*
X139271472Y-115989273D01*
X139284367Y-116057942D01*
X139258090Y-116122682D01*
X139200983Y-116162938D01*
X139134960Y-116165767D01*
X139134943Y-116165880D01*
X139134389Y-116165792D01*
X139131177Y-116165930D01*
X139126109Y-116164480D01*
X139031524Y-116149500D01*
X138668482Y-116149500D01*
X138593102Y-116161439D01*
X138574696Y-116164354D01*
X138461658Y-116221950D01*
X138461656Y-116221951D01*
X138461657Y-116221951D01*
X138461652Y-116221954D01*
X138371954Y-116311652D01*
X138371951Y-116311657D01*
X138371950Y-116311658D01*
X138367475Y-116320441D01*
X138314352Y-116424698D01*
X138299500Y-116518475D01*
X138299500Y-117756517D01*
X138305568Y-117794827D01*
X138314354Y-117850304D01*
X138371950Y-117963342D01*
X138438182Y-118029574D01*
X138471666Y-118090895D01*
X138474500Y-118117254D01*
X138474500Y-118608196D01*
X138471862Y-118633634D01*
X138469633Y-118644268D01*
X138469633Y-118644269D01*
X138469633Y-118644271D01*
X138474023Y-118679491D01*
X138474500Y-118687167D01*
X138474500Y-118691116D01*
X138478342Y-118714141D01*
X138485134Y-118768627D01*
X138487373Y-118776147D01*
X138489934Y-118783608D01*
X138489935Y-118783610D01*
X138510975Y-118822489D01*
X138516055Y-118831877D01*
X138540174Y-118881211D01*
X138544751Y-118887621D01*
X138549579Y-118893824D01*
X138549580Y-118893825D01*
X138549581Y-118893826D01*
X138589969Y-118931007D01*
X138733182Y-119074219D01*
X138766666Y-119135540D01*
X138769500Y-119161899D01*
X138769500Y-119321582D01*
X138780418Y-119396518D01*
X138780418Y-119396519D01*
X138780419Y-119396521D01*
X138836918Y-119512093D01*
X138836925Y-119512103D01*
X138877688Y-119552866D01*
X138911173Y-119614189D01*
X138911369Y-119665990D01*
X138909633Y-119674270D01*
X138914023Y-119709491D01*
X138914500Y-119717167D01*
X138914500Y-119721116D01*
X138918342Y-119744141D01*
X138925134Y-119798627D01*
X138927373Y-119806147D01*
X138929934Y-119813608D01*
X138929935Y-119813610D01*
X138939664Y-119831588D01*
X138956055Y-119861877D01*
X138980174Y-119911211D01*
X138984742Y-119917609D01*
X138989582Y-119923827D01*
X139029971Y-119961009D01*
X139068795Y-119999832D01*
X139181783Y-120112820D01*
X139215267Y-120174142D01*
X139210283Y-120243833D01*
X139168412Y-120299767D01*
X139102947Y-120324184D01*
X139094101Y-120324500D01*
X137309399Y-120324500D01*
X137242360Y-120304815D01*
X137221718Y-120288181D01*
X136861180Y-119927643D01*
X136827695Y-119866320D01*
X136832679Y-119796628D01*
X136874551Y-119740695D01*
X136894397Y-119728563D01*
X136972102Y-119690576D01*
X137063076Y-119599602D01*
X137063078Y-119599599D01*
X137110907Y-119501762D01*
X137119582Y-119484018D01*
X137130500Y-119409082D01*
X137130500Y-119249398D01*
X137150185Y-119182360D01*
X137166813Y-119161723D01*
X137278896Y-119049640D01*
X137298741Y-119033525D01*
X137307836Y-119027584D01*
X137329644Y-118999562D01*
X137334721Y-118993816D01*
X137337520Y-118991018D01*
X137351094Y-118972004D01*
X137365844Y-118953054D01*
X137384807Y-118928692D01*
X137388547Y-118921780D01*
X137392003Y-118914707D01*
X137392010Y-118914699D01*
X137407670Y-118862096D01*
X137425500Y-118810160D01*
X137425500Y-118810155D01*
X137426790Y-118802424D01*
X137427768Y-118794585D01*
X137425500Y-118739744D01*
X137425500Y-118104754D01*
X137445185Y-118037715D01*
X137461814Y-118017077D01*
X137528050Y-117950842D01*
X137585646Y-117837804D01*
X137585646Y-117837802D01*
X137585647Y-117837801D01*
X137598520Y-117756518D01*
X137600500Y-117744019D01*
X137600499Y-116505982D01*
X137585646Y-116412196D01*
X137528050Y-116299158D01*
X137528046Y-116299154D01*
X137528045Y-116299152D01*
X137438347Y-116209454D01*
X137438344Y-116209452D01*
X137438342Y-116209450D01*
X137352930Y-116165930D01*
X137325301Y-116151852D01*
X137231524Y-116137000D01*
X136868482Y-116137000D01*
X136797649Y-116148218D01*
X136774696Y-116151854D01*
X136774695Y-116151854D01*
X136765057Y-116153381D01*
X136764736Y-116151359D01*
X136707478Y-116152989D01*
X136647649Y-116116902D01*
X136616827Y-116054198D01*
X136624799Y-115984785D01*
X136628514Y-115976800D01*
X136635646Y-115962804D01*
X136650500Y-115869019D01*
X136650499Y-114630982D01*
X136635646Y-114537196D01*
X136578050Y-114424158D01*
X136578046Y-114424154D01*
X136578045Y-114424152D01*
X136511819Y-114357926D01*
X136478334Y-114296603D01*
X136475500Y-114270245D01*
X136475500Y-114251803D01*
X136478139Y-114226358D01*
X136479218Y-114221211D01*
X136480367Y-114215731D01*
X136477028Y-114188944D01*
X136475977Y-114180508D01*
X136475500Y-114172832D01*
X136475500Y-114168889D01*
X136475499Y-114168883D01*
X136474973Y-114165733D01*
X136471655Y-114145847D01*
X136469115Y-114125465D01*
X136464865Y-114091373D01*
X136462617Y-114083827D01*
X136460065Y-114076390D01*
X136433942Y-114028119D01*
X136433097Y-114026390D01*
X136409826Y-113978788D01*
X136409823Y-113978785D01*
X136409823Y-113978784D01*
X136405267Y-113972402D01*
X136400423Y-113966178D01*
X136400419Y-113966174D01*
X136360041Y-113929003D01*
X136283883Y-113852845D01*
X136250398Y-113791522D01*
X136255382Y-113721830D01*
X136283886Y-113677480D01*
X136290477Y-113670890D01*
X136380456Y-113527690D01*
X136436313Y-113368059D01*
X136436313Y-113368058D01*
X136436314Y-113368056D01*
X136455249Y-113200002D01*
X136455249Y-113199997D01*
X136440293Y-113067264D01*
X136439230Y-113057830D01*
X136451284Y-112989009D01*
X136474766Y-112956269D01*
X136671601Y-112759435D01*
X136732921Y-112725952D01*
X136802613Y-112730936D01*
G37*
%TD.AperFunction*%
%TA.AperFunction,Conductor*%
G36*
X134872051Y-113161497D02*
G01*
X134927985Y-113203368D01*
X134951938Y-113263795D01*
X134963685Y-113368055D01*
X135019545Y-113527694D01*
X135019547Y-113527697D01*
X135109518Y-113670884D01*
X135109520Y-113670886D01*
X135109523Y-113670890D01*
X135229110Y-113790477D01*
X135275286Y-113819491D01*
X135278364Y-113821425D01*
X135324655Y-113873760D01*
X135331910Y-113898867D01*
X135332203Y-113898780D01*
X135337373Y-113916147D01*
X135339934Y-113923608D01*
X135339935Y-113923610D01*
X135349269Y-113940858D01*
X135366055Y-113971877D01*
X135390174Y-114021211D01*
X135394742Y-114027609D01*
X135399582Y-114033827D01*
X135439971Y-114071009D01*
X135619854Y-114250891D01*
X135653339Y-114312214D01*
X135648355Y-114381905D01*
X135626725Y-114415564D01*
X135627686Y-114416263D01*
X135621952Y-114424155D01*
X135621950Y-114424157D01*
X135621950Y-114424158D01*
X135615581Y-114436658D01*
X135564352Y-114537198D01*
X135549500Y-114630975D01*
X135549500Y-115869017D01*
X135559971Y-115935129D01*
X135564354Y-115962804D01*
X135571469Y-115976767D01*
X135571472Y-115976773D01*
X135584367Y-116045442D01*
X135558090Y-116110182D01*
X135500983Y-116150438D01*
X135434960Y-116153267D01*
X135434943Y-116153380D01*
X135434389Y-116153292D01*
X135431177Y-116153430D01*
X135426109Y-116151980D01*
X135331524Y-116137000D01*
X134968482Y-116137000D01*
X134887519Y-116149823D01*
X134874696Y-116151854D01*
X134761658Y-116209450D01*
X134761657Y-116209451D01*
X134761652Y-116209454D01*
X134671954Y-116299152D01*
X134671951Y-116299157D01*
X134671950Y-116299158D01*
X134661106Y-116320441D01*
X134614352Y-116412198D01*
X134599500Y-116505975D01*
X134599500Y-117744017D01*
X134607548Y-117794828D01*
X134614354Y-117837804D01*
X134671950Y-117950842D01*
X134738182Y-118017074D01*
X134771666Y-118078395D01*
X134774500Y-118104754D01*
X134774500Y-118695696D01*
X134771862Y-118721134D01*
X134769633Y-118731768D01*
X134769633Y-118731769D01*
X134769633Y-118731771D01*
X134774023Y-118766991D01*
X134774500Y-118774667D01*
X134774500Y-118778616D01*
X134778342Y-118801641D01*
X134785134Y-118856127D01*
X134787373Y-118863647D01*
X134789934Y-118871108D01*
X134789935Y-118871110D01*
X134815675Y-118918674D01*
X134816055Y-118919377D01*
X134840174Y-118968711D01*
X134844751Y-118975121D01*
X134849579Y-118981324D01*
X134849580Y-118981325D01*
X134849581Y-118981326D01*
X134889969Y-119018507D01*
X135033182Y-119161719D01*
X135066666Y-119223040D01*
X135069500Y-119249398D01*
X135069500Y-119409082D01*
X135080418Y-119484018D01*
X135080418Y-119484019D01*
X135080419Y-119484021D01*
X135136921Y-119599599D01*
X135136923Y-119599602D01*
X135227897Y-119690576D01*
X135227900Y-119690578D01*
X135330417Y-119740695D01*
X135343482Y-119747082D01*
X135418418Y-119758000D01*
X135578101Y-119758000D01*
X135645140Y-119777685D01*
X135665782Y-119794319D01*
X135673818Y-119802355D01*
X135707303Y-119863678D01*
X135702319Y-119933370D01*
X135660447Y-119989303D01*
X135643764Y-119999832D01*
X135527758Y-120060717D01*
X135411776Y-120163467D01*
X135348543Y-120193188D01*
X135279279Y-120184004D01*
X135241869Y-120158332D01*
X134488396Y-119404859D01*
X133711819Y-118628281D01*
X133678334Y-118566958D01*
X133675500Y-118540600D01*
X133675500Y-118067253D01*
X133695185Y-118000214D01*
X133711818Y-117979573D01*
X133728050Y-117963342D01*
X133785646Y-117850304D01*
X133785646Y-117850302D01*
X133785647Y-117850301D01*
X133800499Y-117756524D01*
X133800500Y-117756519D01*
X133800499Y-116518482D01*
X133785646Y-116424696D01*
X133728050Y-116311658D01*
X133728046Y-116311654D01*
X133728045Y-116311652D01*
X133638347Y-116221954D01*
X133638344Y-116221952D01*
X133638342Y-116221950D01*
X133546198Y-116175000D01*
X133525301Y-116164352D01*
X133431524Y-116149500D01*
X133068482Y-116149500D01*
X132997649Y-116160718D01*
X132974696Y-116164354D01*
X132974695Y-116164354D01*
X132965057Y-116165881D01*
X132964736Y-116163859D01*
X132907478Y-116165489D01*
X132847649Y-116129402D01*
X132816827Y-116066698D01*
X132824799Y-115997285D01*
X132828514Y-115989300D01*
X132835646Y-115975304D01*
X132850500Y-115881519D01*
X132850499Y-114643482D01*
X132835646Y-114549696D01*
X132778050Y-114436658D01*
X132773891Y-114432499D01*
X132761817Y-114420424D01*
X132728333Y-114359100D01*
X132725500Y-114332745D01*
X132725500Y-114201804D01*
X132728140Y-114176355D01*
X132730367Y-114165733D01*
X132729091Y-114155500D01*
X132725975Y-114130507D01*
X132725499Y-114122826D01*
X132725500Y-114118886D01*
X132722137Y-114098739D01*
X132721657Y-114095858D01*
X132714866Y-114041376D01*
X132714866Y-114041374D01*
X132714864Y-114041370D01*
X132712622Y-114033840D01*
X132710065Y-114026392D01*
X132710065Y-114026390D01*
X132683944Y-113978122D01*
X132659826Y-113928789D01*
X132659824Y-113928787D01*
X132659824Y-113928786D01*
X132655276Y-113922416D01*
X132650420Y-113916176D01*
X132650419Y-113916174D01*
X132641170Y-113907660D01*
X132610031Y-113878994D01*
X132583883Y-113852846D01*
X132550398Y-113791523D01*
X132555382Y-113721831D01*
X132583887Y-113677480D01*
X132584317Y-113677049D01*
X132590477Y-113670890D01*
X132607669Y-113643528D01*
X132660003Y-113597237D01*
X132712663Y-113585500D01*
X133158960Y-113585500D01*
X133225999Y-113605185D01*
X133246642Y-113621820D01*
X133287897Y-113663076D01*
X133287900Y-113663078D01*
X133394109Y-113715000D01*
X133403482Y-113719582D01*
X133478418Y-113730500D01*
X133478423Y-113730500D01*
X133921577Y-113730500D01*
X133921582Y-113730500D01*
X133996518Y-113719582D01*
X134075502Y-113680969D01*
X134112093Y-113663081D01*
X134112095Y-113663079D01*
X134112102Y-113663076D01*
X134155290Y-113619886D01*
X134216613Y-113586401D01*
X134222548Y-113585260D01*
X134236911Y-113582863D01*
X134244141Y-113581657D01*
X134253187Y-113580529D01*
X134298626Y-113574866D01*
X134298627Y-113574865D01*
X134298629Y-113574865D01*
X134306141Y-113572628D01*
X134313606Y-113570066D01*
X134313606Y-113570065D01*
X134313610Y-113570065D01*
X134361877Y-113543944D01*
X134411211Y-113519826D01*
X134411213Y-113519823D01*
X134417594Y-113515268D01*
X134423819Y-113510422D01*
X134423826Y-113510419D01*
X134461008Y-113470028D01*
X134741039Y-113189996D01*
X134802360Y-113156513D01*
X134872051Y-113161497D01*
G37*
%TD.AperFunction*%
%TA.AperFunction,Conductor*%
G36*
X140254376Y-113605185D02*
G01*
X140292331Y-113643529D01*
X140309521Y-113670887D01*
X140309523Y-113670890D01*
X140429109Y-113790476D01*
X140429115Y-113790481D01*
X140572302Y-113880452D01*
X140572305Y-113880454D01*
X140572309Y-113880455D01*
X140572310Y-113880456D01*
X140624677Y-113898780D01*
X140731943Y-113936314D01*
X140899997Y-113955249D01*
X140900000Y-113955249D01*
X140900003Y-113955249D01*
X141068056Y-113936314D01*
X141088947Y-113929004D01*
X141227690Y-113880456D01*
X141334528Y-113813324D01*
X141401764Y-113794324D01*
X141468599Y-113814691D01*
X141513813Y-113867959D01*
X141524500Y-113918318D01*
X141524500Y-113948196D01*
X141521862Y-113973634D01*
X141519633Y-113984268D01*
X141519633Y-113984269D01*
X141519633Y-113984271D01*
X141524023Y-114019491D01*
X141524500Y-114027167D01*
X141524500Y-114031116D01*
X141528342Y-114054141D01*
X141535134Y-114108627D01*
X141537373Y-114116147D01*
X141539934Y-114123608D01*
X141539935Y-114123610D01*
X141562730Y-114165732D01*
X141566055Y-114171877D01*
X141590174Y-114221211D01*
X141594742Y-114227609D01*
X141599582Y-114233827D01*
X141639971Y-114271009D01*
X142812849Y-115443886D01*
X142828977Y-115463745D01*
X142834916Y-115472836D01*
X142862932Y-115494641D01*
X142868693Y-115499730D01*
X142871482Y-115502519D01*
X142890483Y-115516085D01*
X142933811Y-115549809D01*
X142940722Y-115553549D01*
X142947800Y-115557010D01*
X143000405Y-115572670D01*
X143000405Y-115572671D01*
X143052340Y-115590500D01*
X143052342Y-115590500D01*
X143060079Y-115591791D01*
X143067909Y-115592767D01*
X143067911Y-115592768D01*
X143067912Y-115592767D01*
X143067913Y-115592768D01*
X143122755Y-115590500D01*
X143229098Y-115590500D01*
X143296137Y-115610185D01*
X143341892Y-115662989D01*
X143351836Y-115732147D01*
X143322811Y-115795703D01*
X143316779Y-115802181D01*
X141512180Y-117606780D01*
X141450857Y-117640265D01*
X141381165Y-117635281D01*
X141325232Y-117593409D01*
X141300815Y-117527945D01*
X141300499Y-117519121D01*
X141300499Y-116518482D01*
X141285646Y-116424696D01*
X141228050Y-116311658D01*
X141228046Y-116311654D01*
X141228045Y-116311652D01*
X141138347Y-116221954D01*
X141138344Y-116221952D01*
X141138342Y-116221950D01*
X141046198Y-116175000D01*
X141025301Y-116164352D01*
X140931524Y-116149500D01*
X140568482Y-116149500D01*
X140497649Y-116160718D01*
X140474696Y-116164354D01*
X140474695Y-116164354D01*
X140465057Y-116165881D01*
X140464736Y-116163859D01*
X140407478Y-116165489D01*
X140347649Y-116129402D01*
X140316827Y-116066698D01*
X140324799Y-115997285D01*
X140328514Y-115989300D01*
X140335646Y-115975304D01*
X140350500Y-115881519D01*
X140350499Y-114643482D01*
X140335646Y-114549696D01*
X140278050Y-114436658D01*
X140278046Y-114436654D01*
X140278045Y-114436652D01*
X140211819Y-114370426D01*
X140178334Y-114309103D01*
X140175500Y-114282745D01*
X140175500Y-114251803D01*
X140178139Y-114226358D01*
X140179218Y-114221211D01*
X140180367Y-114215731D01*
X140177028Y-114188944D01*
X140175977Y-114180508D01*
X140175500Y-114172832D01*
X140175500Y-114168889D01*
X140175499Y-114168883D01*
X140174973Y-114165733D01*
X140171655Y-114145847D01*
X140169115Y-114125465D01*
X140164865Y-114091373D01*
X140162617Y-114083827D01*
X140160065Y-114076390D01*
X140133942Y-114028119D01*
X140133097Y-114026390D01*
X140109826Y-113978788D01*
X140109823Y-113978785D01*
X140109823Y-113978784D01*
X140105267Y-113972402D01*
X140100423Y-113966178D01*
X140100419Y-113966174D01*
X140060041Y-113929003D01*
X139928219Y-113797181D01*
X139894734Y-113735858D01*
X139899718Y-113666166D01*
X139941590Y-113610233D01*
X140007054Y-113585816D01*
X140015900Y-113585500D01*
X140187337Y-113585500D01*
X140254376Y-113605185D01*
G37*
%TD.AperFunction*%
%TA.AperFunction,Conductor*%
G36*
X149490845Y-106636876D02*
G01*
X149548461Y-106676399D01*
X149575055Y-106736871D01*
X149577917Y-106756518D01*
X149577918Y-106756520D01*
X149634421Y-106872099D01*
X149634423Y-106872102D01*
X149725396Y-106963075D01*
X149729924Y-106966308D01*
X149773047Y-107021282D01*
X149775152Y-107026960D01*
X149777434Y-107033608D01*
X149777435Y-107033610D01*
X149794279Y-107064736D01*
X149803555Y-107081877D01*
X149827674Y-107131211D01*
X149832242Y-107137609D01*
X149837082Y-107143827D01*
X149877470Y-107181008D01*
X150188181Y-107491718D01*
X150221666Y-107553041D01*
X150224500Y-107579399D01*
X150224500Y-108161666D01*
X150204815Y-108228705D01*
X150152011Y-108274460D01*
X150082853Y-108284404D01*
X150019297Y-108255379D01*
X150018274Y-108254482D01*
X149896150Y-108146292D01*
X149896148Y-108146290D01*
X149756275Y-108072878D01*
X149602896Y-108035075D01*
X149602895Y-108035075D01*
X149444925Y-108035075D01*
X149444924Y-108035075D01*
X149291544Y-108072878D01*
X149151672Y-108146290D01*
X149033426Y-108251045D01*
X149031055Y-108254482D01*
X149029652Y-108256513D01*
X148975373Y-108300504D01*
X148927602Y-108310075D01*
X148676229Y-108310075D01*
X148650784Y-108307436D01*
X148640158Y-108305208D01*
X148640155Y-108305208D01*
X148604933Y-108309598D01*
X148597257Y-108310075D01*
X148593311Y-108310075D01*
X148577602Y-108312696D01*
X148570283Y-108313917D01*
X148515795Y-108320709D01*
X148508282Y-108322946D01*
X148500812Y-108325511D01*
X148452547Y-108351630D01*
X148403217Y-108375746D01*
X148396800Y-108380328D01*
X148390600Y-108385154D01*
X148353417Y-108425545D01*
X147445781Y-109333181D01*
X147384458Y-109366666D01*
X147358100Y-109369500D01*
X147198418Y-109369500D01*
X147123482Y-109380418D01*
X147123481Y-109380418D01*
X147123477Y-109380419D01*
X147122293Y-109380785D01*
X147120825Y-109380805D01*
X147113952Y-109381807D01*
X147113820Y-109380903D01*
X147052430Y-109381762D01*
X146998015Y-109349989D01*
X146897294Y-109249268D01*
X146897285Y-109249261D01*
X146759191Y-109167593D01*
X146759188Y-109167592D01*
X146605130Y-109122834D01*
X146570000Y-109120068D01*
X146570000Y-110016000D01*
X146550315Y-110083039D01*
X146497511Y-110128794D01*
X146446000Y-110140000D01*
X144307156Y-110140000D01*
X144347595Y-110279194D01*
X144429261Y-110417285D01*
X144429268Y-110417294D01*
X144535587Y-110523613D01*
X144569072Y-110584936D01*
X144564088Y-110654628D01*
X144560761Y-110662368D01*
X144560419Y-110663476D01*
X144560418Y-110663481D01*
X144560418Y-110663482D01*
X144549500Y-110738418D01*
X144549500Y-111081582D01*
X144560418Y-111156518D01*
X144560418Y-111156519D01*
X144560419Y-111156521D01*
X144616921Y-111272099D01*
X144616923Y-111272102D01*
X144707897Y-111363076D01*
X144707900Y-111363078D01*
X144818656Y-111417222D01*
X144823482Y-111419582D01*
X144898418Y-111430500D01*
X145058101Y-111430500D01*
X145125140Y-111450185D01*
X145145782Y-111466819D01*
X145518034Y-111839071D01*
X145551519Y-111900394D01*
X145546535Y-111970086D01*
X145533456Y-111995641D01*
X145529035Y-112002257D01*
X145529032Y-112002264D01*
X145514500Y-112075321D01*
X145514500Y-112100000D01*
X145300000Y-112100000D01*
X145300000Y-112915558D01*
X145232264Y-112929032D01*
X145232260Y-112929034D01*
X145149401Y-112984397D01*
X145140766Y-112993033D01*
X145139990Y-112992257D01*
X145095796Y-113029195D01*
X145046303Y-113039500D01*
X143821899Y-113039500D01*
X143754860Y-113019815D01*
X143734218Y-113003181D01*
X143511819Y-112780781D01*
X143478334Y-112719458D01*
X143475500Y-112693100D01*
X143475500Y-109640000D01*
X144307156Y-109640000D01*
X144870000Y-109640000D01*
X145370000Y-109640000D01*
X146070000Y-109640000D01*
X146070000Y-109120068D01*
X146069999Y-109120068D01*
X146034869Y-109122834D01*
X146034868Y-109122834D01*
X145880811Y-109167592D01*
X145880808Y-109167593D01*
X145783121Y-109225365D01*
X145715397Y-109242548D01*
X145656879Y-109225365D01*
X145559191Y-109167593D01*
X145559188Y-109167592D01*
X145405130Y-109122834D01*
X145370000Y-109120068D01*
X145370000Y-109640000D01*
X144870000Y-109640000D01*
X144870000Y-109120068D01*
X144869999Y-109120068D01*
X144834869Y-109122834D01*
X144834868Y-109122834D01*
X144680811Y-109167592D01*
X144680808Y-109167593D01*
X144542714Y-109249261D01*
X144542705Y-109249268D01*
X144429268Y-109362705D01*
X144429261Y-109362714D01*
X144347595Y-109500805D01*
X144307156Y-109640000D01*
X143475500Y-109640000D01*
X143475500Y-107412541D01*
X143495185Y-107345502D01*
X143547989Y-107299747D01*
X143617147Y-107289803D01*
X143680703Y-107318828D01*
X143687181Y-107324860D01*
X143725397Y-107363076D01*
X143725400Y-107363078D01*
X143832166Y-107415272D01*
X143840982Y-107419582D01*
X143915918Y-107430500D01*
X144075600Y-107430500D01*
X144142639Y-107450185D01*
X144163281Y-107466819D01*
X144275350Y-107578888D01*
X144291475Y-107598744D01*
X144297413Y-107607832D01*
X144297416Y-107607836D01*
X144325425Y-107629636D01*
X144331187Y-107634725D01*
X144333982Y-107637520D01*
X144352995Y-107651094D01*
X144396311Y-107684809D01*
X144396318Y-107684811D01*
X144403220Y-107688547D01*
X144410296Y-107692006D01*
X144410301Y-107692010D01*
X144462903Y-107707670D01*
X144514838Y-107725500D01*
X144522572Y-107726790D01*
X144530410Y-107727767D01*
X144530412Y-107727768D01*
X144530413Y-107727767D01*
X144530414Y-107727768D01*
X144585256Y-107725500D01*
X145282746Y-107725500D01*
X145349785Y-107745185D01*
X145370422Y-107761814D01*
X145436658Y-107828050D01*
X145549694Y-107885645D01*
X145549698Y-107885647D01*
X145643475Y-107900499D01*
X145643481Y-107900500D01*
X146881518Y-107900499D01*
X146975304Y-107885646D01*
X147088342Y-107828050D01*
X147178050Y-107738342D01*
X147235646Y-107625304D01*
X147235646Y-107625302D01*
X147235647Y-107625301D01*
X147250499Y-107531524D01*
X147250500Y-107531519D01*
X147250499Y-107168482D01*
X147235646Y-107074696D01*
X147235645Y-107074694D01*
X147234119Y-107065057D01*
X147236142Y-107064736D01*
X147234506Y-107007494D01*
X147270584Y-106947660D01*
X147333284Y-106916830D01*
X147402698Y-106924792D01*
X147410708Y-106928519D01*
X147424696Y-106935646D01*
X147424698Y-106935646D01*
X147424700Y-106935647D01*
X147424698Y-106935647D01*
X147518475Y-106950499D01*
X147518481Y-106950500D01*
X148756518Y-106950499D01*
X148850304Y-106935646D01*
X148963342Y-106878050D01*
X149027614Y-106813777D01*
X149088934Y-106780293D01*
X149099960Y-106778411D01*
X149119495Y-106775976D01*
X149127169Y-106775500D01*
X149131112Y-106775500D01*
X149131114Y-106775500D01*
X149131116Y-106775499D01*
X149131122Y-106775499D01*
X149146487Y-106772934D01*
X149154140Y-106771657D01*
X149208626Y-106764866D01*
X149208627Y-106764865D01*
X149208629Y-106764865D01*
X149216141Y-106762628D01*
X149223606Y-106760066D01*
X149223606Y-106760065D01*
X149223610Y-106760065D01*
X149271877Y-106733944D01*
X149321211Y-106709826D01*
X149321213Y-106709823D01*
X149327594Y-106705268D01*
X149333819Y-106700422D01*
X149333826Y-106700419D01*
X149361122Y-106670766D01*
X149421007Y-106634777D01*
X149490845Y-106636876D01*
G37*
%TD.AperFunction*%
%TA.AperFunction,Conductor*%
G36*
X137611627Y-106085665D02*
G01*
X137637254Y-106075886D01*
X137647033Y-106075500D01*
X138704382Y-106075500D01*
X138771421Y-106095185D01*
X138817176Y-106147989D01*
X138827120Y-106217147D01*
X138806444Y-106269920D01*
X138805751Y-106270924D01*
X138751479Y-106314922D01*
X138703692Y-106324500D01*
X137651803Y-106324500D01*
X137626365Y-106321862D01*
X137621587Y-106320860D01*
X137614308Y-106316956D01*
X137611943Y-106318477D01*
X137592345Y-106322548D01*
X137580506Y-106324023D01*
X137572830Y-106324500D01*
X137568886Y-106324500D01*
X137557371Y-106326421D01*
X137545856Y-106328342D01*
X137527696Y-106330606D01*
X137491375Y-106335134D01*
X137491371Y-106335135D01*
X137483842Y-106337377D01*
X137476383Y-106339937D01*
X137428118Y-106366058D01*
X137378791Y-106390172D01*
X137372381Y-106394748D01*
X137366175Y-106399579D01*
X137328992Y-106439970D01*
X135937477Y-107831485D01*
X135001022Y-108767938D01*
X134939699Y-108801423D01*
X134883667Y-108800654D01*
X134878985Y-108799500D01*
X134721015Y-108799500D01*
X134721014Y-108799500D01*
X134567634Y-108837303D01*
X134427762Y-108910715D01*
X134309516Y-109015471D01*
X134219781Y-109145475D01*
X134219780Y-109145476D01*
X134163762Y-109293181D01*
X134144721Y-109449999D01*
X134144721Y-109450000D01*
X134163762Y-109606818D01*
X134215479Y-109743182D01*
X134219780Y-109754523D01*
X134309517Y-109884530D01*
X134427760Y-109989283D01*
X134427762Y-109989284D01*
X134567634Y-110062696D01*
X134721014Y-110100500D01*
X134721015Y-110100500D01*
X134878985Y-110100500D01*
X135032365Y-110062696D01*
X135060512Y-110047923D01*
X135172240Y-109989283D01*
X135290483Y-109884530D01*
X135380220Y-109754523D01*
X135436237Y-109606818D01*
X135455278Y-109450000D01*
X135454517Y-109443736D01*
X135465973Y-109374815D01*
X135489928Y-109341107D01*
X136512520Y-108318517D01*
X136512519Y-108318516D01*
X136548826Y-108282211D01*
X136548839Y-108282196D01*
X136869896Y-107961139D01*
X137052333Y-107778702D01*
X137113655Y-107745218D01*
X137183347Y-107750202D01*
X137239280Y-107792074D01*
X137263108Y-107851431D01*
X137263761Y-107856814D01*
X137263762Y-107856818D01*
X137311155Y-107981781D01*
X137319780Y-108004523D01*
X137409517Y-108134530D01*
X137527760Y-108239283D01*
X137527762Y-108239284D01*
X137667634Y-108312696D01*
X137821014Y-108350500D01*
X137821015Y-108350500D01*
X137978985Y-108350500D01*
X138132365Y-108312696D01*
X138146632Y-108305208D01*
X138272240Y-108239283D01*
X138390483Y-108134530D01*
X138394257Y-108129061D01*
X138448537Y-108085071D01*
X138496308Y-108075500D01*
X140293101Y-108075500D01*
X140360140Y-108095185D01*
X140380782Y-108111819D01*
X140888182Y-108619219D01*
X140921666Y-108680540D01*
X140924500Y-108706898D01*
X140924500Y-111083023D01*
X140904815Y-111150062D01*
X140852011Y-111195817D01*
X140782853Y-111205761D01*
X140742875Y-111192820D01*
X140732365Y-111187304D01*
X140732362Y-111187303D01*
X140578986Y-111149500D01*
X140578985Y-111149500D01*
X140421015Y-111149500D01*
X140421014Y-111149500D01*
X140267634Y-111187303D01*
X140127762Y-111260715D01*
X140009516Y-111365471D01*
X139919781Y-111495474D01*
X139873916Y-111616409D01*
X139831737Y-111672111D01*
X139766140Y-111696168D01*
X139703516Y-111683838D01*
X139696522Y-111680419D01*
X139696519Y-111680418D01*
X139696518Y-111680418D01*
X139621582Y-111669500D01*
X139621577Y-111669500D01*
X139560899Y-111669500D01*
X139493860Y-111649815D01*
X139448105Y-111597011D01*
X139438161Y-111527853D01*
X139467186Y-111464297D01*
X139473217Y-111457820D01*
X139500537Y-111430500D01*
X139528891Y-111402145D01*
X139548741Y-111386025D01*
X139557836Y-111380084D01*
X139579644Y-111352062D01*
X139584721Y-111346316D01*
X139587520Y-111343518D01*
X139601094Y-111324504D01*
X139634809Y-111281189D01*
X139634809Y-111281187D01*
X139638547Y-111274280D01*
X139642003Y-111267207D01*
X139642010Y-111267199D01*
X139657670Y-111214596D01*
X139675500Y-111162660D01*
X139675500Y-111162655D01*
X139676790Y-111154924D01*
X139677768Y-111147085D01*
X139675500Y-111092244D01*
X139675500Y-110322438D01*
X139695185Y-110255399D01*
X139697427Y-110252030D01*
X139730220Y-110204523D01*
X139786237Y-110056818D01*
X139805278Y-109900000D01*
X139791536Y-109786819D01*
X139786237Y-109743181D01*
X139764992Y-109687163D01*
X139730220Y-109595477D01*
X139640483Y-109465470D01*
X139522240Y-109360717D01*
X139522238Y-109360716D01*
X139522237Y-109360715D01*
X139382365Y-109287303D01*
X139228986Y-109249500D01*
X139228985Y-109249500D01*
X139071015Y-109249500D01*
X139071014Y-109249500D01*
X138917634Y-109287303D01*
X138777762Y-109360715D01*
X138755085Y-109380805D01*
X138684047Y-109443739D01*
X138659516Y-109465471D01*
X138569781Y-109595475D01*
X138569780Y-109595476D01*
X138513762Y-109743181D01*
X138496600Y-109884530D01*
X138494722Y-109900000D01*
X138508145Y-110010554D01*
X138496686Y-110079477D01*
X138449782Y-110131263D01*
X138385050Y-110149500D01*
X138271014Y-110149500D01*
X138117634Y-110187303D01*
X137977762Y-110260715D01*
X137859516Y-110365470D01*
X137857089Y-110368987D01*
X137855742Y-110370938D01*
X137801463Y-110414929D01*
X137753692Y-110424500D01*
X136651803Y-110424500D01*
X136626358Y-110421861D01*
X136615732Y-110419633D01*
X136615729Y-110419633D01*
X136580507Y-110424023D01*
X136572831Y-110424500D01*
X136568886Y-110424500D01*
X136551615Y-110427381D01*
X136545858Y-110428342D01*
X136491370Y-110435134D01*
X136483857Y-110437371D01*
X136476387Y-110439936D01*
X136428122Y-110466055D01*
X136378792Y-110490171D01*
X136372375Y-110494753D01*
X136366175Y-110499579D01*
X136328992Y-110539970D01*
X134482181Y-112386780D01*
X134420858Y-112420265D01*
X134351166Y-112415281D01*
X134295233Y-112373409D01*
X134270816Y-112307945D01*
X134270500Y-112299099D01*
X134270500Y-112018423D01*
X134270500Y-112018418D01*
X134259582Y-111943482D01*
X134252976Y-111929970D01*
X134203078Y-111827900D01*
X134203076Y-111827897D01*
X134112102Y-111736923D01*
X134112099Y-111736921D01*
X133996521Y-111680419D01*
X133996519Y-111680418D01*
X133996518Y-111680418D01*
X133921582Y-111669500D01*
X133478418Y-111669500D01*
X133463437Y-111671682D01*
X133450619Y-111673550D01*
X133381442Y-111663735D01*
X133345063Y-111638526D01*
X132260016Y-110553480D01*
X132226531Y-110492157D01*
X132224601Y-110450857D01*
X132230777Y-110400000D01*
X132211736Y-110243182D01*
X132155719Y-110095477D01*
X132105646Y-110022934D01*
X132083764Y-109956580D01*
X132101229Y-109888929D01*
X132152497Y-109841459D01*
X132178023Y-109832098D01*
X132207365Y-109824866D01*
X132278936Y-109787302D01*
X132347240Y-109751453D01*
X132417775Y-109688965D01*
X132481004Y-109659245D01*
X132550268Y-109668428D01*
X132582225Y-109688966D01*
X132643423Y-109743181D01*
X132650555Y-109749500D01*
X132652759Y-109751452D01*
X132652761Y-109751454D01*
X132792634Y-109824866D01*
X132946014Y-109862670D01*
X132946015Y-109862670D01*
X133103985Y-109862670D01*
X133257365Y-109824866D01*
X133328936Y-109787302D01*
X133397240Y-109751453D01*
X133515483Y-109646700D01*
X133605220Y-109516693D01*
X133661237Y-109368988D01*
X133680278Y-109212170D01*
X133674866Y-109167593D01*
X133661237Y-109055351D01*
X133606384Y-108910717D01*
X133605220Y-108907647D01*
X133515483Y-108777640D01*
X133397240Y-108672887D01*
X133397238Y-108672886D01*
X133397237Y-108672885D01*
X133257366Y-108599474D01*
X133169825Y-108577897D01*
X133109444Y-108542740D01*
X133077656Y-108480521D01*
X133075500Y-108457509D01*
X133075500Y-107589741D01*
X133095185Y-107522703D01*
X133111814Y-107502066D01*
X134502062Y-106111819D01*
X134563386Y-106078334D01*
X134589744Y-106075500D01*
X137577008Y-106075500D01*
X137611627Y-106085665D01*
G37*
%TD.AperFunction*%
%TA.AperFunction,Conductor*%
G36*
X150602089Y-109770185D02*
G01*
X150647844Y-109822989D01*
X150658145Y-109889445D01*
X150656634Y-109901898D01*
X150644722Y-110000000D01*
X150663762Y-110156818D01*
X150708773Y-110275500D01*
X150719780Y-110304523D01*
X150809517Y-110434530D01*
X150927760Y-110539283D01*
X150927762Y-110539284D01*
X151067634Y-110612696D01*
X151221014Y-110650500D01*
X151235050Y-110650500D01*
X151302089Y-110670185D01*
X151347844Y-110722989D01*
X151358145Y-110789445D01*
X151344722Y-110900000D01*
X151358145Y-111010554D01*
X151346686Y-111079477D01*
X151299782Y-111131263D01*
X151235050Y-111149500D01*
X151221014Y-111149500D01*
X151067634Y-111187303D01*
X150927762Y-111260715D01*
X150809516Y-111365471D01*
X150719781Y-111495475D01*
X150719780Y-111495476D01*
X150710491Y-111519971D01*
X150668313Y-111575674D01*
X150602716Y-111599731D01*
X150594549Y-111600000D01*
X150555000Y-111600000D01*
X150555000Y-111869691D01*
X150535315Y-111936730D01*
X150518681Y-111957372D01*
X150376053Y-112100000D01*
X149668946Y-112100000D01*
X150163136Y-111605809D01*
X150143575Y-111564925D01*
X150132396Y-111495955D01*
X150148699Y-111448283D01*
X150212030Y-111341197D01*
X150212033Y-111341190D01*
X150257144Y-111185918D01*
X150257145Y-111185912D01*
X150258790Y-111165000D01*
X149354000Y-111165000D01*
X149286961Y-111145315D01*
X149241206Y-111092511D01*
X149230000Y-111041000D01*
X149230000Y-110789000D01*
X149249685Y-110721961D01*
X149302489Y-110676206D01*
X149354000Y-110665000D01*
X150258790Y-110665000D01*
X150257145Y-110644089D01*
X150212031Y-110488804D01*
X150129721Y-110349625D01*
X150129714Y-110349616D01*
X150093248Y-110313151D01*
X150059762Y-110251829D01*
X150064746Y-110182137D01*
X150093245Y-110137790D01*
X150444217Y-109786819D01*
X150505541Y-109753334D01*
X150531899Y-109750500D01*
X150535050Y-109750500D01*
X150602089Y-109770185D01*
G37*
%TD.AperFunction*%
%TA.AperFunction,Conductor*%
G36*
X152582125Y-105667816D02*
G01*
X152667635Y-105712696D01*
X152744325Y-105731597D01*
X152821014Y-105750500D01*
X152821015Y-105750500D01*
X152978985Y-105750500D01*
X153120826Y-105715540D01*
X153190627Y-105718609D01*
X153247690Y-105758929D01*
X153273895Y-105823699D01*
X153274500Y-105835937D01*
X153274500Y-110343099D01*
X153254815Y-110410138D01*
X153238181Y-110430780D01*
X152847667Y-110821294D01*
X152786344Y-110854779D01*
X152716652Y-110849795D01*
X152660719Y-110807923D01*
X152636890Y-110748560D01*
X152636237Y-110743182D01*
X152580220Y-110595477D01*
X152490483Y-110465470D01*
X152490480Y-110465467D01*
X152490478Y-110465465D01*
X152442273Y-110422759D01*
X152405146Y-110363570D01*
X152400500Y-110329944D01*
X152400500Y-105777613D01*
X152420185Y-105710574D01*
X152472989Y-105664819D01*
X152542147Y-105654875D01*
X152582125Y-105667816D01*
G37*
%TD.AperFunction*%
%TA.AperFunction,Conductor*%
G36*
X149071907Y-103204087D02*
G01*
X149082471Y-103213508D01*
X149200127Y-103331165D01*
X149307850Y-103438888D01*
X149323975Y-103458744D01*
X149329913Y-103467832D01*
X149329916Y-103467836D01*
X149357925Y-103489636D01*
X149363687Y-103494725D01*
X149366482Y-103497520D01*
X149385495Y-103511094D01*
X149428811Y-103544809D01*
X149428818Y-103544811D01*
X149435720Y-103548547D01*
X149442796Y-103552006D01*
X149442801Y-103552010D01*
X149479972Y-103563076D01*
X149495403Y-103567670D01*
X149547338Y-103585500D01*
X149555072Y-103586790D01*
X149562910Y-103587767D01*
X149562912Y-103587768D01*
X149562913Y-103587767D01*
X149562914Y-103587768D01*
X149617756Y-103585500D01*
X149658960Y-103585500D01*
X149725999Y-103605185D01*
X149746642Y-103621820D01*
X149787897Y-103663076D01*
X149787900Y-103663078D01*
X149877279Y-103706772D01*
X149903482Y-103719582D01*
X149978418Y-103730500D01*
X150138101Y-103730500D01*
X150205140Y-103750185D01*
X150225782Y-103766819D01*
X150458181Y-103999217D01*
X150491666Y-104060540D01*
X150494500Y-104086898D01*
X150494500Y-104318196D01*
X150491862Y-104343634D01*
X150489633Y-104354268D01*
X150489633Y-104354269D01*
X150489633Y-104354271D01*
X150494023Y-104389491D01*
X150494500Y-104397167D01*
X150494500Y-104401116D01*
X150498342Y-104424141D01*
X150505134Y-104478627D01*
X150507373Y-104486147D01*
X150509934Y-104493608D01*
X150509935Y-104493610D01*
X150519221Y-104510769D01*
X150536055Y-104541877D01*
X150560174Y-104591211D01*
X150564742Y-104597609D01*
X150569581Y-104603826D01*
X150609970Y-104641007D01*
X150975231Y-105006268D01*
X151008715Y-105067590D01*
X151010769Y-105107831D01*
X150994751Y-105249996D01*
X150994751Y-105250002D01*
X150994909Y-105251405D01*
X150994751Y-105252307D01*
X150994751Y-105256964D01*
X150993935Y-105256964D01*
X150982855Y-105320227D01*
X150935506Y-105371607D01*
X150867895Y-105389231D01*
X150801489Y-105367505D01*
X150784008Y-105352970D01*
X150728894Y-105297856D01*
X150701324Y-105252127D01*
X150701311Y-105252134D01*
X150701238Y-105251985D01*
X150698103Y-105246785D01*
X150697084Y-105243487D01*
X150679020Y-105206537D01*
X150640576Y-105127898D01*
X150640575Y-105127897D01*
X150640575Y-105127896D01*
X150549602Y-105036923D01*
X150549599Y-105036921D01*
X150434021Y-104980419D01*
X150434019Y-104980418D01*
X150434018Y-104980418D01*
X150359082Y-104969500D01*
X149915918Y-104969500D01*
X149840982Y-104980418D01*
X149840980Y-104980418D01*
X149840978Y-104980419D01*
X149725400Y-105036921D01*
X149725397Y-105036923D01*
X149634423Y-105127897D01*
X149634421Y-105127900D01*
X149577919Y-105243478D01*
X149577918Y-105243480D01*
X149577918Y-105243482D01*
X149567000Y-105318418D01*
X149567000Y-105318423D01*
X149567000Y-105350599D01*
X149547315Y-105417638D01*
X149530681Y-105438280D01*
X149082473Y-105886487D01*
X149021150Y-105919972D01*
X148951458Y-105914988D01*
X148938497Y-105909291D01*
X148850301Y-105864352D01*
X148756524Y-105849500D01*
X148756519Y-105849500D01*
X148109147Y-105849500D01*
X148042108Y-105829815D01*
X147996353Y-105777011D01*
X147986409Y-105707853D01*
X148015434Y-105644297D01*
X148021460Y-105637825D01*
X148021459Y-105637825D01*
X148028883Y-105630401D01*
X148048746Y-105614271D01*
X148057836Y-105608333D01*
X148079638Y-105580320D01*
X148084733Y-105574552D01*
X148087519Y-105571767D01*
X148087528Y-105571755D01*
X148101086Y-105552765D01*
X148134807Y-105509441D01*
X148138547Y-105502527D01*
X148142006Y-105495452D01*
X148142010Y-105495448D01*
X148151771Y-105462661D01*
X148157672Y-105442842D01*
X148175500Y-105390910D01*
X148176791Y-105383173D01*
X148177768Y-105375335D01*
X148175500Y-105320493D01*
X148175500Y-104251803D01*
X148178139Y-104226358D01*
X148178785Y-104223274D01*
X148180367Y-104215731D01*
X148176617Y-104185645D01*
X148175977Y-104180508D01*
X148175500Y-104172832D01*
X148175500Y-104168889D01*
X148175499Y-104168883D01*
X148171655Y-104145846D01*
X148164865Y-104091373D01*
X148162617Y-104083827D01*
X148160065Y-104076390D01*
X148133942Y-104028119D01*
X148127905Y-104015770D01*
X148109826Y-103978788D01*
X148109823Y-103978785D01*
X148109823Y-103978784D01*
X148105267Y-103972402D01*
X148100423Y-103966178D01*
X148100419Y-103966174D01*
X148060041Y-103929003D01*
X147593218Y-103462180D01*
X147559733Y-103400857D01*
X147564717Y-103331165D01*
X147606589Y-103275232D01*
X147672053Y-103250815D01*
X147680874Y-103250499D01*
X148756518Y-103250499D01*
X148850304Y-103235646D01*
X148938500Y-103190707D01*
X149007166Y-103177811D01*
X149071907Y-103204087D01*
G37*
%TD.AperFunction*%
%TD*%
%TA.AperFunction,Conductor*%
%TO.N,GND*%
G36*
X147203982Y-116897175D02*
G01*
X147260136Y-117007384D01*
X147260141Y-117007391D01*
X147347608Y-117094858D01*
X147347615Y-117094863D01*
X147457820Y-117151015D01*
X147457821Y-117151015D01*
X147457825Y-117151017D01*
X147549265Y-117165500D01*
X147950734Y-117165499D01*
X148042175Y-117151017D01*
X148100000Y-117121553D01*
X148100000Y-118363962D01*
X146663962Y-119800000D01*
X145800000Y-119800000D01*
X145800591Y-119461267D01*
X145802175Y-119461017D01*
X145861733Y-119430670D01*
X145912384Y-119404863D01*
X145912386Y-119404861D01*
X145912391Y-119404859D01*
X145999859Y-119317391D01*
X146034294Y-119249809D01*
X146056015Y-119207180D01*
X146056015Y-119207178D01*
X146056017Y-119207175D01*
X146070500Y-119115735D01*
X146070499Y-118714266D01*
X146056017Y-118622825D01*
X146056017Y-118622824D01*
X145999863Y-118512615D01*
X145999858Y-118512608D01*
X145965379Y-118478129D01*
X146200000Y-118300000D01*
X146200000Y-116904455D01*
X146202260Y-116905966D01*
X146275326Y-116920500D01*
X146824674Y-116920500D01*
X146897740Y-116905966D01*
X146929118Y-116885000D01*
X147202054Y-116885000D01*
X147203982Y-116897175D01*
G37*
%TD.AperFunction*%
%TD*%
%TA.AperFunction,Conductor*%
%TO.N,GND*%
G36*
X145564500Y-112634748D02*
G01*
X145576133Y-112693231D01*
X145593882Y-112719795D01*
X145620447Y-112759552D01*
X145639999Y-112772616D01*
X145686769Y-112803867D01*
X145745252Y-112815500D01*
X145745255Y-112815500D01*
X146284745Y-112815500D01*
X146284748Y-112815500D01*
X146343231Y-112803867D01*
X146362776Y-112790806D01*
X146399558Y-112783489D01*
X146417224Y-112790807D01*
X146436767Y-112803866D01*
X146436769Y-112803867D01*
X146495252Y-112815500D01*
X146495255Y-112815500D01*
X147034745Y-112815500D01*
X147034748Y-112815500D01*
X147093231Y-112803867D01*
X147159552Y-112759552D01*
X147203867Y-112693231D01*
X147215500Y-112634748D01*
X147215500Y-112100000D01*
X147814500Y-112100000D01*
X147814500Y-112634748D01*
X147826133Y-112693231D01*
X147843882Y-112719795D01*
X147870447Y-112759552D01*
X147889999Y-112772616D01*
X147936769Y-112803867D01*
X147995252Y-112815500D01*
X147995255Y-112815500D01*
X148534745Y-112815500D01*
X148534748Y-112815500D01*
X148593231Y-112803867D01*
X148612776Y-112790806D01*
X148649558Y-112783489D01*
X148667224Y-112790807D01*
X148686767Y-112803866D01*
X148686769Y-112803867D01*
X148745252Y-112815500D01*
X148745255Y-112815500D01*
X149284745Y-112815500D01*
X149284748Y-112815500D01*
X149343231Y-112803867D01*
X149409552Y-112759552D01*
X149453867Y-112693231D01*
X149465500Y-112634748D01*
X149465500Y-112100000D01*
X150774287Y-112100000D01*
X150775464Y-112102841D01*
X150871718Y-112228282D01*
X150997159Y-112324536D01*
X150997161Y-112324536D01*
X150997163Y-112324538D01*
X151143238Y-112385043D01*
X151143238Y-112385044D01*
X151300000Y-112405682D01*
X151456762Y-112385044D01*
X151602841Y-112324536D01*
X151728282Y-112228282D01*
X151792438Y-112144671D01*
X151824917Y-112125919D01*
X151831313Y-112125500D01*
X152000000Y-112125500D01*
X152000000Y-112844500D01*
X150573994Y-112844500D01*
X150519700Y-112850337D01*
X150519677Y-112850340D01*
X150468188Y-112861542D01*
X150468187Y-112861542D01*
X150441800Y-112868781D01*
X150355173Y-112918110D01*
X150302372Y-112963862D01*
X150302372Y-112963863D01*
X150270742Y-112996641D01*
X150224533Y-113084980D01*
X150204849Y-113152015D01*
X150204849Y-113152017D01*
X150194500Y-113223995D01*
X150194500Y-113776006D01*
X150200337Y-113830299D01*
X150200340Y-113830322D01*
X150211542Y-113881812D01*
X150211542Y-113881813D01*
X150218781Y-113908199D01*
X150268110Y-113994826D01*
X150313862Y-114047627D01*
X150313863Y-114047628D01*
X150313866Y-114047631D01*
X150313867Y-114047632D01*
X150346641Y-114079257D01*
X150434976Y-114125465D01*
X150502015Y-114145150D01*
X150574000Y-114155500D01*
X151295500Y-114155500D01*
X151330148Y-114169852D01*
X151344500Y-114204500D01*
X151344500Y-114800000D01*
X149510326Y-114800000D01*
X149479852Y-114769526D01*
X149465500Y-114734878D01*
X149465500Y-114195255D01*
X149465500Y-114195252D01*
X149453867Y-114136769D01*
X149427301Y-114097012D01*
X149409552Y-114070447D01*
X149362778Y-114039194D01*
X149343231Y-114026133D01*
X149284748Y-114014500D01*
X148745252Y-114014500D01*
X148686769Y-114026133D01*
X148667222Y-114039194D01*
X148630440Y-114046509D01*
X148612778Y-114039194D01*
X148593231Y-114026133D01*
X148534748Y-114014500D01*
X147995252Y-114014500D01*
X147936768Y-114026133D01*
X147936769Y-114026133D01*
X147917222Y-114039194D01*
X147880440Y-114046509D01*
X147862778Y-114039194D01*
X147843231Y-114026133D01*
X147784748Y-114014500D01*
X147245252Y-114014500D01*
X147186768Y-114026133D01*
X147186769Y-114026133D01*
X147167222Y-114039194D01*
X147130440Y-114046509D01*
X147112778Y-114039194D01*
X147093231Y-114026133D01*
X147034748Y-114014500D01*
X146495252Y-114014500D01*
X146436769Y-114026133D01*
X146417222Y-114039194D01*
X146380440Y-114046509D01*
X146362778Y-114039194D01*
X146343231Y-114026133D01*
X146265000Y-114010572D01*
X145665000Y-114010572D01*
X145586768Y-114026133D01*
X145586769Y-114026133D01*
X145520447Y-114070447D01*
X145483848Y-114125223D01*
X145452665Y-114146058D01*
X145443106Y-114147000D01*
X145300000Y-114147000D01*
X145300000Y-113863460D01*
X145308142Y-113865080D01*
X145310246Y-113865499D01*
X145310249Y-113865499D01*
X145310252Y-113865500D01*
X145310253Y-113865500D01*
X145884745Y-113865500D01*
X145884748Y-113865500D01*
X145943231Y-113853867D01*
X146009552Y-113809552D01*
X146053867Y-113743231D01*
X146065500Y-113684748D01*
X146065500Y-113145252D01*
X146053867Y-113086769D01*
X146027301Y-113047012D01*
X146009552Y-113020447D01*
X145969795Y-112993882D01*
X145943231Y-112976133D01*
X145884748Y-112964500D01*
X145310252Y-112964500D01*
X145303036Y-112965935D01*
X145300000Y-112966539D01*
X145300000Y-112100000D01*
X145564500Y-112100000D01*
X145564500Y-112634748D01*
G37*
%TD.AperFunction*%
%TD*%
%TA.AperFunction,Conductor*%
%TO.N,VBUS*%
G36*
X157266146Y-124511723D02*
G01*
X157312058Y-124564390D01*
X157322208Y-124633518D01*
X157318495Y-124650832D01*
X157295495Y-124730000D01*
X158226000Y-124730000D01*
X158293039Y-124749685D01*
X158338794Y-124802489D01*
X158350000Y-124854000D01*
X158350000Y-125758789D01*
X158370910Y-125757145D01*
X158526195Y-125712031D01*
X158665374Y-125629721D01*
X158665379Y-125629717D01*
X158749816Y-125545280D01*
X158811139Y-125511795D01*
X158880831Y-125516779D01*
X158936765Y-125558650D01*
X158961182Y-125624114D01*
X158959972Y-125652357D01*
X158949500Y-125718479D01*
X158949500Y-126081522D01*
X158953254Y-126105224D01*
X158944296Y-126174517D01*
X158918462Y-126212298D01*
X158832318Y-126298442D01*
X158832314Y-126298447D01*
X158748718Y-126439801D01*
X158702899Y-126597513D01*
X158702704Y-126599998D01*
X158702705Y-126600000D01*
X159988500Y-126600000D01*
X160055539Y-126619685D01*
X160101294Y-126672489D01*
X160112500Y-126724000D01*
X160112500Y-127650000D01*
X160376000Y-127650000D01*
X160443039Y-127669685D01*
X160488794Y-127722489D01*
X160500000Y-127774000D01*
X160500000Y-129875500D01*
X160480315Y-129942539D01*
X160427511Y-129988294D01*
X160376000Y-129999500D01*
X135524000Y-129999500D01*
X135456961Y-129979815D01*
X135411206Y-129927011D01*
X135400000Y-129875500D01*
X135400000Y-128300003D01*
X144669435Y-128300003D01*
X144689630Y-128479249D01*
X144689631Y-128479254D01*
X144749211Y-128649523D01*
X144845184Y-128802261D01*
X144845184Y-128802262D01*
X144972738Y-128929816D01*
X145125478Y-129025789D01*
X145223199Y-129059983D01*
X145295745Y-129085368D01*
X145295750Y-129085369D01*
X145386246Y-129095565D01*
X145430040Y-129100499D01*
X145430043Y-129100500D01*
X145430046Y-129100500D01*
X145769957Y-129100500D01*
X145769958Y-129100499D01*
X145837104Y-129092934D01*
X145904249Y-129085369D01*
X145904252Y-129085368D01*
X145904255Y-129085368D01*
X146074522Y-129025789D01*
X146227262Y-128929816D01*
X146354816Y-128802262D01*
X146418122Y-128701511D01*
X146470456Y-128655221D01*
X146539509Y-128644573D01*
X146603358Y-128672948D01*
X146639057Y-128723513D01*
X146669780Y-128804523D01*
X146759517Y-128934530D01*
X146877760Y-129039283D01*
X146877762Y-129039284D01*
X147017634Y-129112696D01*
X147171014Y-129150500D01*
X147171015Y-129150500D01*
X147328985Y-129150500D01*
X147482365Y-129112696D01*
X147582801Y-129059982D01*
X147651306Y-129046257D01*
X147716360Y-129071749D01*
X147757304Y-129128364D01*
X147763520Y-129154821D01*
X147763762Y-129156817D01*
X147763762Y-129156818D01*
X147819780Y-129304523D01*
X147909517Y-129434530D01*
X148027760Y-129539283D01*
X148027762Y-129539284D01*
X148167634Y-129612696D01*
X148321014Y-129650500D01*
X148321015Y-129650500D01*
X148478985Y-129650500D01*
X148632365Y-129612696D01*
X148632364Y-129612695D01*
X148772240Y-129539283D01*
X148890483Y-129434530D01*
X148980220Y-129304523D01*
X149036237Y-129156818D01*
X149055278Y-129000000D01*
X149036237Y-128843182D01*
X148980220Y-128695477D01*
X148890483Y-128565470D01*
X148772240Y-128460717D01*
X148772238Y-128460716D01*
X148772237Y-128460715D01*
X148632365Y-128387303D01*
X148478986Y-128349500D01*
X148478985Y-128349500D01*
X148321015Y-128349500D01*
X148321014Y-128349500D01*
X148167634Y-128387303D01*
X148067200Y-128440016D01*
X147998691Y-128453742D01*
X147933638Y-128428249D01*
X147892694Y-128371634D01*
X147886478Y-128345166D01*
X147886237Y-128343181D01*
X147869861Y-128300003D01*
X149469435Y-128300003D01*
X149489630Y-128479249D01*
X149489631Y-128479254D01*
X149549211Y-128649523D01*
X149645184Y-128802261D01*
X149645184Y-128802262D01*
X149772738Y-128929816D01*
X149925478Y-129025789D01*
X150023199Y-129059983D01*
X150095745Y-129085368D01*
X150095750Y-129085369D01*
X150186246Y-129095565D01*
X150230040Y-129100499D01*
X150230043Y-129100500D01*
X150230046Y-129100500D01*
X150569957Y-129100500D01*
X150569958Y-129100499D01*
X150637104Y-129092934D01*
X150704249Y-129085369D01*
X150704252Y-129085368D01*
X150704255Y-129085368D01*
X150874522Y-129025789D01*
X150915565Y-129000000D01*
X157844722Y-129000000D01*
X157863762Y-129156818D01*
X157919779Y-129304523D01*
X157919780Y-129304523D01*
X158009517Y-129434530D01*
X158127760Y-129539283D01*
X158127762Y-129539284D01*
X158267634Y-129612696D01*
X158421014Y-129650500D01*
X158421015Y-129650500D01*
X158578985Y-129650500D01*
X158732365Y-129612696D01*
X158732365Y-129612695D01*
X158872240Y-129539283D01*
X158990483Y-129434530D01*
X159080220Y-129304523D01*
X159136237Y-129156818D01*
X159155278Y-129000000D01*
X159136237Y-128843182D01*
X159080220Y-128695477D01*
X158990483Y-128565470D01*
X158872240Y-128460717D01*
X158872238Y-128460716D01*
X158872237Y-128460715D01*
X158732365Y-128387303D01*
X158578986Y-128349500D01*
X158578985Y-128349500D01*
X158421015Y-128349500D01*
X158421014Y-128349500D01*
X158267634Y-128387303D01*
X158127762Y-128460715D01*
X158009516Y-128565471D01*
X157919781Y-128695475D01*
X157919780Y-128695476D01*
X157863762Y-128843181D01*
X157844722Y-128999999D01*
X157844722Y-129000000D01*
X150915565Y-129000000D01*
X151027262Y-128929816D01*
X151154816Y-128802262D01*
X151250789Y-128649522D01*
X151310368Y-128479255D01*
X151316115Y-128428249D01*
X151330565Y-128300003D01*
X151330565Y-128299996D01*
X151310369Y-128120750D01*
X151310368Y-128120745D01*
X151291026Y-128065470D01*
X151250789Y-127950478D01*
X151154816Y-127797738D01*
X151027262Y-127670184D01*
X151009156Y-127658807D01*
X150874523Y-127574211D01*
X150704254Y-127514631D01*
X150704249Y-127514630D01*
X150569960Y-127499500D01*
X150569954Y-127499500D01*
X150230046Y-127499500D01*
X150230039Y-127499500D01*
X150095750Y-127514630D01*
X150095745Y-127514631D01*
X149925476Y-127574211D01*
X149772737Y-127670184D01*
X149645184Y-127797737D01*
X149549211Y-127950476D01*
X149489631Y-128120745D01*
X149489630Y-128120750D01*
X149469435Y-128299996D01*
X149469435Y-128300003D01*
X147869861Y-128300003D01*
X147864992Y-128287164D01*
X147830220Y-128195477D01*
X147740483Y-128065470D01*
X147622240Y-127960717D01*
X147622238Y-127960716D01*
X147622237Y-127960715D01*
X147482365Y-127887303D01*
X147328986Y-127849500D01*
X147328985Y-127849500D01*
X147171015Y-127849500D01*
X147171014Y-127849500D01*
X147017634Y-127887303D01*
X146877762Y-127960715D01*
X146759515Y-128065471D01*
X146719888Y-128122881D01*
X146665605Y-128166871D01*
X146596157Y-128174530D01*
X146533592Y-128143426D01*
X146500797Y-128093394D01*
X146491026Y-128065471D01*
X146450789Y-127950478D01*
X146354816Y-127797738D01*
X146227262Y-127670184D01*
X146209156Y-127658807D01*
X146074523Y-127574211D01*
X145904254Y-127514631D01*
X145904249Y-127514630D01*
X145769960Y-127499500D01*
X145769954Y-127499500D01*
X145430046Y-127499500D01*
X145430039Y-127499500D01*
X145295750Y-127514630D01*
X145295745Y-127514631D01*
X145125476Y-127574211D01*
X144972737Y-127670184D01*
X144845184Y-127797737D01*
X144749211Y-127950476D01*
X144689631Y-128120745D01*
X144689630Y-128120750D01*
X144669435Y-128299996D01*
X144669435Y-128300003D01*
X135400000Y-128300003D01*
X135400000Y-127771601D01*
X135419685Y-127704562D01*
X135472489Y-127658807D01*
X135533728Y-127647983D01*
X135559356Y-127650000D01*
X135887500Y-127650000D01*
X135887500Y-127100000D01*
X136387500Y-127100000D01*
X136387500Y-127650000D01*
X136715644Y-127650000D01*
X136752489Y-127647100D01*
X136752495Y-127647099D01*
X136910193Y-127601283D01*
X136910196Y-127601282D01*
X137051552Y-127517685D01*
X137051561Y-127517678D01*
X137167678Y-127401561D01*
X137167685Y-127401552D01*
X137251281Y-127260198D01*
X137297100Y-127102486D01*
X137297295Y-127100001D01*
X158702704Y-127100001D01*
X158702899Y-127102486D01*
X158748718Y-127260198D01*
X158832314Y-127401552D01*
X158832321Y-127401561D01*
X158948438Y-127517678D01*
X158948447Y-127517685D01*
X159089803Y-127601282D01*
X159089806Y-127601283D01*
X159247504Y-127647099D01*
X159247510Y-127647100D01*
X159284356Y-127650000D01*
X159612500Y-127650000D01*
X159612500Y-127100000D01*
X158702705Y-127100000D01*
X158702704Y-127100001D01*
X137297295Y-127100001D01*
X137297295Y-127100000D01*
X136387500Y-127100000D01*
X135887500Y-127100000D01*
X135887500Y-126724000D01*
X135907185Y-126656961D01*
X135959989Y-126611206D01*
X136011500Y-126600000D01*
X137297295Y-126600000D01*
X137297295Y-126599998D01*
X137297100Y-126597513D01*
X137251281Y-126439801D01*
X137167685Y-126298447D01*
X137167678Y-126298438D01*
X137092641Y-126223401D01*
X143739500Y-126223401D01*
X143780855Y-126364247D01*
X143780856Y-126364248D01*
X143780857Y-126364250D01*
X143860222Y-126487744D01*
X143971164Y-126583877D01*
X144012453Y-126602733D01*
X144104692Y-126644858D01*
X144104695Y-126644858D01*
X144104696Y-126644859D01*
X144213484Y-126660500D01*
X144213487Y-126660500D01*
X144286513Y-126660500D01*
X144286516Y-126660500D01*
X144395304Y-126644859D01*
X144395305Y-126644858D01*
X144395307Y-126644858D01*
X144450427Y-126619685D01*
X144528836Y-126583877D01*
X144639778Y-126487744D01*
X144719143Y-126364250D01*
X144760499Y-126223401D01*
X151139500Y-126223401D01*
X151180855Y-126364247D01*
X151180856Y-126364248D01*
X151180857Y-126364250D01*
X151260222Y-126487744D01*
X151371164Y-126583877D01*
X151412453Y-126602733D01*
X151504692Y-126644858D01*
X151504695Y-126644858D01*
X151504696Y-126644859D01*
X151613484Y-126660500D01*
X151613487Y-126660500D01*
X151886513Y-126660500D01*
X151886516Y-126660500D01*
X151995304Y-126644859D01*
X151995305Y-126644858D01*
X151995307Y-126644858D01*
X152050427Y-126619685D01*
X152128836Y-126583877D01*
X152239778Y-126487744D01*
X152319143Y-126364250D01*
X152360500Y-126223399D01*
X152360500Y-126076601D01*
X152319143Y-125935750D01*
X152239778Y-125812256D01*
X152128836Y-125716123D01*
X152119876Y-125712031D01*
X151995307Y-125655141D01*
X151995302Y-125655140D01*
X151886516Y-125639500D01*
X151613484Y-125639500D01*
X151613483Y-125639500D01*
X151504697Y-125655140D01*
X151504692Y-125655141D01*
X151371167Y-125716121D01*
X151371162Y-125716124D01*
X151260223Y-125812254D01*
X151260220Y-125812258D01*
X151180856Y-125935751D01*
X151180855Y-125935752D01*
X151139500Y-126076598D01*
X151139500Y-126223401D01*
X144760499Y-126223401D01*
X144760500Y-126223399D01*
X144760500Y-126076601D01*
X144719143Y-125935750D01*
X144639778Y-125812256D01*
X144528836Y-125716123D01*
X144519876Y-125712031D01*
X144395307Y-125655141D01*
X144395302Y-125655140D01*
X144286516Y-125639500D01*
X144213484Y-125639500D01*
X144213483Y-125639500D01*
X144104697Y-125655140D01*
X144104692Y-125655141D01*
X143971167Y-125716121D01*
X143971162Y-125716124D01*
X143860223Y-125812254D01*
X143860220Y-125812258D01*
X143780856Y-125935751D01*
X143780855Y-125935752D01*
X143739500Y-126076598D01*
X143739500Y-126223401D01*
X137092641Y-126223401D01*
X137081538Y-126212298D01*
X137048053Y-126150975D01*
X137046746Y-126105219D01*
X137050500Y-126081519D01*
X137050499Y-125718482D01*
X137050125Y-125716123D01*
X137049396Y-125711517D01*
X137046745Y-125694780D01*
X137055698Y-125625490D01*
X137081537Y-125587701D01*
X137099389Y-125569849D01*
X137160712Y-125536364D01*
X137230404Y-125541348D01*
X137274751Y-125569849D01*
X137334616Y-125629714D01*
X137334625Y-125629721D01*
X137473804Y-125712031D01*
X137629089Y-125757145D01*
X137650000Y-125758789D01*
X137650000Y-125230000D01*
X138150000Y-125230000D01*
X138150000Y-125758789D01*
X138170910Y-125757145D01*
X138326195Y-125712031D01*
X138465374Y-125629721D01*
X138465383Y-125629714D01*
X138579714Y-125515383D01*
X138579721Y-125515374D01*
X138662031Y-125376195D01*
X138704504Y-125230000D01*
X157295496Y-125230000D01*
X157337968Y-125376195D01*
X157420278Y-125515374D01*
X157420285Y-125515383D01*
X157534616Y-125629714D01*
X157534625Y-125629721D01*
X157673804Y-125712031D01*
X157829089Y-125757145D01*
X157850000Y-125758789D01*
X157850000Y-125230000D01*
X157295496Y-125230000D01*
X138704504Y-125230000D01*
X138150000Y-125230000D01*
X137650000Y-125230000D01*
X137131362Y-125230000D01*
X137064323Y-125210315D01*
X137051523Y-125200000D01*
X136011500Y-125200000D01*
X135944461Y-125180315D01*
X135898706Y-125127511D01*
X135887500Y-125076000D01*
X135887500Y-124824000D01*
X135907185Y-124756961D01*
X135959989Y-124711206D01*
X136011500Y-124700000D01*
X137258638Y-124700000D01*
X137325677Y-124719685D01*
X137338477Y-124730000D01*
X138704504Y-124730000D01*
X138683759Y-124658595D01*
X138683959Y-124588725D01*
X138721902Y-124530055D01*
X138785540Y-124501212D01*
X138802836Y-124500000D01*
X143550000Y-124500000D01*
X144792597Y-124500940D01*
X144859617Y-124520674D01*
X144880180Y-124537258D01*
X144972738Y-124629816D01*
X145044164Y-124674696D01*
X145115763Y-124719685D01*
X145125478Y-124725789D01*
X145247485Y-124768481D01*
X145295745Y-124785368D01*
X145295750Y-124785369D01*
X145386246Y-124795565D01*
X145430040Y-124800499D01*
X145430043Y-124800500D01*
X145430046Y-124800500D01*
X145769957Y-124800500D01*
X145769958Y-124800499D01*
X145837104Y-124792934D01*
X145904249Y-124785369D01*
X145904252Y-124785368D01*
X145904255Y-124785368D01*
X146074522Y-124725789D01*
X146227262Y-124629816D01*
X146318601Y-124538476D01*
X146379920Y-124504994D01*
X146406356Y-124502161D01*
X149596232Y-124504576D01*
X149663253Y-124524310D01*
X149683816Y-124540893D01*
X149772738Y-124629816D01*
X149844164Y-124674696D01*
X149915763Y-124719685D01*
X149925478Y-124725789D01*
X150047485Y-124768481D01*
X150095745Y-124785368D01*
X150095750Y-124785369D01*
X150186246Y-124795565D01*
X150230040Y-124800499D01*
X150230043Y-124800500D01*
X150230046Y-124800500D01*
X150569957Y-124800500D01*
X150569958Y-124800499D01*
X150637104Y-124792934D01*
X150704249Y-124785369D01*
X150704252Y-124785368D01*
X150704255Y-124785368D01*
X150874522Y-124725789D01*
X151027262Y-124629816D01*
X151114971Y-124542106D01*
X151176290Y-124508624D01*
X151202725Y-124505791D01*
X152365616Y-124506672D01*
X157199049Y-124492239D01*
X157266146Y-124511723D01*
G37*
%TD.AperFunction*%
%TD*%
M02*
