%TF.GenerationSoftware,KiCad,Pcbnew,7.0.7*%
%TF.CreationDate,2023-11-09T15:37:00-05:00*%
%TF.ProjectId,Occupancy_Sensor-A,4f636375-7061-46e6-9379-5f53656e736f,rev?*%
%TF.SameCoordinates,Original*%
%TF.FileFunction,Legend,Bot*%
%TF.FilePolarity,Positive*%
%FSLAX46Y46*%
G04 Gerber Fmt 4.6, Leading zero omitted, Abs format (unit mm)*
G04 Created by KiCad (PCBNEW 7.0.7) date 2023-11-09 15:37:00*
%MOMM*%
%LPD*%
G01*
G04 APERTURE LIST*
G04 Aperture macros list*
%AMRoundRect*
0 Rectangle with rounded corners*
0 $1 Rounding radius*
0 $2 $3 $4 $5 $6 $7 $8 $9 X,Y pos of 4 corners*
0 Add a 4 corners polygon primitive as box body*
4,1,4,$2,$3,$4,$5,$6,$7,$8,$9,$2,$3,0*
0 Add four circle primitives for the rounded corners*
1,1,$1+$1,$2,$3*
1,1,$1+$1,$4,$5*
1,1,$1+$1,$6,$7*
1,1,$1+$1,$8,$9*
0 Add four rect primitives between the rounded corners*
20,1,$1+$1,$2,$3,$4,$5,0*
20,1,$1+$1,$4,$5,$6,$7,0*
20,1,$1+$1,$6,$7,$8,$9,0*
20,1,$1+$1,$8,$9,$2,$3,0*%
%AMOutline5P*
0 Free polygon, 5 corners , with rotation*
0 The origin of the aperture is its center*
0 number of corners: always 5*
0 $1 to $10 corner X, Y*
0 $11 Rotation angle, in degrees counterclockwise*
0 create outline with 5 corners*
4,1,5,$1,$2,$3,$4,$5,$6,$7,$8,$9,$10,$1,$2,$11*%
%AMOutline6P*
0 Free polygon, 6 corners , with rotation*
0 The origin of the aperture is its center*
0 number of corners: always 6*
0 $1 to $12 corner X, Y*
0 $13 Rotation angle, in degrees counterclockwise*
0 create outline with 6 corners*
4,1,6,$1,$2,$3,$4,$5,$6,$7,$8,$9,$10,$11,$12,$1,$2,$13*%
%AMOutline7P*
0 Free polygon, 7 corners , with rotation*
0 The origin of the aperture is its center*
0 number of corners: always 7*
0 $1 to $14 corner X, Y*
0 $15 Rotation angle, in degrees counterclockwise*
0 create outline with 7 corners*
4,1,7,$1,$2,$3,$4,$5,$6,$7,$8,$9,$10,$11,$12,$13,$14,$1,$2,$15*%
%AMOutline8P*
0 Free polygon, 8 corners , with rotation*
0 The origin of the aperture is its center*
0 number of corners: always 8*
0 $1 to $16 corner X, Y*
0 $17 Rotation angle, in degrees counterclockwise*
0 create outline with 8 corners*
4,1,8,$1,$2,$3,$4,$5,$6,$7,$8,$9,$10,$11,$12,$13,$14,$15,$16,$1,$2,$17*%
%AMFreePoly0*
4,1,17,0.235355,0.292855,0.250000,0.257500,0.250000,-0.007500,0.300000,-0.007500,0.335355,-0.022145,0.350000,-0.057500,0.350000,-0.257500,0.335355,-0.292855,0.300000,-0.307500,-0.300000,-0.307500,-0.335355,-0.292855,-0.350000,-0.257500,-0.350000,0.257500,-0.335355,0.292855,-0.300000,0.307500,0.200000,0.307500,0.235355,0.292855,0.235355,0.292855,$1*%
G04 Aperture macros list end*
%ADD10C,0.150000*%
%ADD11C,0.120000*%
%ADD12C,0.520000*%
%ADD13O,0.720000X0.520000*%
%ADD14O,1.350000X1.100000*%
%ADD15RoundRect,0.135000X0.185000X-0.135000X0.185000X0.135000X-0.185000X0.135000X-0.185000X-0.135000X0*%
%ADD16RoundRect,0.140000X0.170000X-0.140000X0.170000X0.140000X-0.170000X0.140000X-0.170000X-0.140000X0*%
%ADD17RoundRect,0.140000X-0.140000X-0.170000X0.140000X-0.170000X0.140000X0.170000X-0.140000X0.170000X0*%
%ADD18RoundRect,0.135000X0.135000X0.185000X-0.135000X0.185000X-0.135000X-0.185000X0.135000X-0.185000X0*%
%ADD19RoundRect,0.150000X0.150000X-0.587500X0.150000X0.587500X-0.150000X0.587500X-0.150000X-0.587500X0*%
%ADD20RoundRect,0.150000X-0.512500X-0.150000X0.512500X-0.150000X0.512500X0.150000X-0.512500X0.150000X0*%
%ADD21RoundRect,0.150000X-0.587500X-0.150000X0.587500X-0.150000X0.587500X0.150000X-0.587500X0.150000X0*%
%ADD22RoundRect,0.135000X-0.185000X0.135000X-0.185000X-0.135000X0.185000X-0.135000X0.185000X0.135000X0*%
%ADD23C,1.000000*%
%ADD24RoundRect,0.140000X-0.170000X0.140000X-0.170000X-0.140000X0.170000X-0.140000X0.170000X0.140000X0*%
%ADD25FreePoly0,180.000000*%
%ADD26RoundRect,0.050000X0.250000X0.257500X-0.250000X0.257500X-0.250000X-0.257500X0.250000X-0.257500X0*%
%ADD27RoundRect,0.050000X0.267500X0.250000X-0.267500X0.250000X-0.267500X-0.250000X0.267500X-0.250000X0*%
%ADD28RoundRect,0.050000X1.158000X0.600000X-1.158000X0.600000X-1.158000X-0.600000X1.158000X-0.600000X0*%
%ADD29RoundRect,0.150000X0.512500X0.150000X-0.512500X0.150000X-0.512500X-0.150000X0.512500X-0.150000X0*%
%ADD30Outline5P,-0.250000X0.175000X0.075000X0.175000X0.250000X0.000000X0.250000X-0.175000X-0.250000X-0.175000X0.000000*%
%ADD31R,0.500000X0.350000*%
%ADD32RoundRect,0.140000X0.140000X0.170000X-0.140000X0.170000X-0.140000X-0.170000X0.140000X-0.170000X0*%
G04 APERTURE END LIST*
D10*
X136107200Y-109709524D02*
X136154819Y-109852381D01*
X136154819Y-109852381D02*
X136154819Y-110090476D01*
X136154819Y-110090476D02*
X136107200Y-110185714D01*
X136107200Y-110185714D02*
X136059580Y-110233333D01*
X136059580Y-110233333D02*
X135964342Y-110280952D01*
X135964342Y-110280952D02*
X135869104Y-110280952D01*
X135869104Y-110280952D02*
X135773866Y-110233333D01*
X135773866Y-110233333D02*
X135726247Y-110185714D01*
X135726247Y-110185714D02*
X135678628Y-110090476D01*
X135678628Y-110090476D02*
X135631009Y-109900000D01*
X135631009Y-109900000D02*
X135583390Y-109804762D01*
X135583390Y-109804762D02*
X135535771Y-109757143D01*
X135535771Y-109757143D02*
X135440533Y-109709524D01*
X135440533Y-109709524D02*
X135345295Y-109709524D01*
X135345295Y-109709524D02*
X135250057Y-109757143D01*
X135250057Y-109757143D02*
X135202438Y-109804762D01*
X135202438Y-109804762D02*
X135154819Y-109900000D01*
X135154819Y-109900000D02*
X135154819Y-110138095D01*
X135154819Y-110138095D02*
X135202438Y-110280952D01*
X136059580Y-111280952D02*
X136107200Y-111233333D01*
X136107200Y-111233333D02*
X136154819Y-111090476D01*
X136154819Y-111090476D02*
X136154819Y-110995238D01*
X136154819Y-110995238D02*
X136107200Y-110852381D01*
X136107200Y-110852381D02*
X136011961Y-110757143D01*
X136011961Y-110757143D02*
X135916723Y-110709524D01*
X135916723Y-110709524D02*
X135726247Y-110661905D01*
X135726247Y-110661905D02*
X135583390Y-110661905D01*
X135583390Y-110661905D02*
X135392914Y-110709524D01*
X135392914Y-110709524D02*
X135297676Y-110757143D01*
X135297676Y-110757143D02*
X135202438Y-110852381D01*
X135202438Y-110852381D02*
X135154819Y-110995238D01*
X135154819Y-110995238D02*
X135154819Y-111090476D01*
X135154819Y-111090476D02*
X135202438Y-111233333D01*
X135202438Y-111233333D02*
X135250057Y-111280952D01*
X136154819Y-112185714D02*
X136154819Y-111709524D01*
X136154819Y-111709524D02*
X135154819Y-111709524D01*
X152204819Y-101564286D02*
X151204819Y-101564286D01*
X152204819Y-102040476D02*
X151204819Y-102040476D01*
X151204819Y-102040476D02*
X152204819Y-102611904D01*
X152204819Y-102611904D02*
X151204819Y-102611904D01*
X151204819Y-102945238D02*
X151204819Y-103516666D01*
X152204819Y-103230952D02*
X151204819Y-103230952D01*
X151204819Y-103707143D02*
X151204819Y-104278571D01*
X152204819Y-103992857D02*
X151204819Y-103992857D01*
X132407200Y-109685714D02*
X132454819Y-109828571D01*
X132454819Y-109828571D02*
X132454819Y-110066666D01*
X132454819Y-110066666D02*
X132407200Y-110161904D01*
X132407200Y-110161904D02*
X132359580Y-110209523D01*
X132359580Y-110209523D02*
X132264342Y-110257142D01*
X132264342Y-110257142D02*
X132169104Y-110257142D01*
X132169104Y-110257142D02*
X132073866Y-110209523D01*
X132073866Y-110209523D02*
X132026247Y-110161904D01*
X132026247Y-110161904D02*
X131978628Y-110066666D01*
X131978628Y-110066666D02*
X131931009Y-109876190D01*
X131931009Y-109876190D02*
X131883390Y-109780952D01*
X131883390Y-109780952D02*
X131835771Y-109733333D01*
X131835771Y-109733333D02*
X131740533Y-109685714D01*
X131740533Y-109685714D02*
X131645295Y-109685714D01*
X131645295Y-109685714D02*
X131550057Y-109733333D01*
X131550057Y-109733333D02*
X131502438Y-109780952D01*
X131502438Y-109780952D02*
X131454819Y-109876190D01*
X131454819Y-109876190D02*
X131454819Y-110114285D01*
X131454819Y-110114285D02*
X131502438Y-110257142D01*
X132454819Y-110685714D02*
X131454819Y-110685714D01*
X131454819Y-110685714D02*
X131454819Y-110923809D01*
X131454819Y-110923809D02*
X131502438Y-111066666D01*
X131502438Y-111066666D02*
X131597676Y-111161904D01*
X131597676Y-111161904D02*
X131692914Y-111209523D01*
X131692914Y-111209523D02*
X131883390Y-111257142D01*
X131883390Y-111257142D02*
X132026247Y-111257142D01*
X132026247Y-111257142D02*
X132216723Y-111209523D01*
X132216723Y-111209523D02*
X132311961Y-111161904D01*
X132311961Y-111161904D02*
X132407200Y-111066666D01*
X132407200Y-111066666D02*
X132454819Y-110923809D01*
X132454819Y-110923809D02*
X132454819Y-110685714D01*
X132169104Y-111638095D02*
X132169104Y-112114285D01*
X132454819Y-111542857D02*
X131454819Y-111876190D01*
X131454819Y-111876190D02*
X132454819Y-112209523D01*
X142254819Y-109195238D02*
X141254819Y-109195238D01*
X142254819Y-109671428D02*
X141254819Y-109671428D01*
X141254819Y-109671428D02*
X142254819Y-110242856D01*
X142254819Y-110242856D02*
X141254819Y-110242856D01*
X141254819Y-110576190D02*
X141254819Y-111147618D01*
X142254819Y-110861904D02*
X141254819Y-110861904D01*
X142159580Y-112052380D02*
X142207200Y-112004761D01*
X142207200Y-112004761D02*
X142254819Y-111861904D01*
X142254819Y-111861904D02*
X142254819Y-111766666D01*
X142254819Y-111766666D02*
X142207200Y-111623809D01*
X142207200Y-111623809D02*
X142111961Y-111528571D01*
X142111961Y-111528571D02*
X142016723Y-111480952D01*
X142016723Y-111480952D02*
X141826247Y-111433333D01*
X141826247Y-111433333D02*
X141683390Y-111433333D01*
X141683390Y-111433333D02*
X141492914Y-111480952D01*
X141492914Y-111480952D02*
X141397676Y-111528571D01*
X141397676Y-111528571D02*
X141302438Y-111623809D01*
X141302438Y-111623809D02*
X141254819Y-111766666D01*
X141254819Y-111766666D02*
X141254819Y-111861904D01*
X141254819Y-111861904D02*
X141302438Y-112004761D01*
X141302438Y-112004761D02*
X141350057Y-112052380D01*
D11*
%TO.C,R3*%
X144740000Y-110553641D02*
X144740000Y-110246359D01*
X145500000Y-110553641D02*
X145500000Y-110246359D01*
%TO.C,C5*%
X131740000Y-124607836D02*
X131740000Y-124392164D01*
X132460000Y-124607836D02*
X132460000Y-124392164D01*
%TO.C,C1*%
X148892164Y-110555000D02*
X149107836Y-110555000D01*
X148892164Y-111275000D02*
X149107836Y-111275000D01*
%TO.C,C8*%
X145912164Y-118555000D02*
X146127836Y-118555000D01*
X145912164Y-119275000D02*
X146127836Y-119275000D01*
%TO.C,R14*%
X139953641Y-119480000D02*
X139646359Y-119480000D01*
X139953641Y-118720000D02*
X139646359Y-118720000D01*
%TO.C,Q3*%
X138240000Y-116200000D02*
X138240000Y-116850000D01*
X138240000Y-116200000D02*
X138240000Y-115550000D01*
X141360000Y-116200000D02*
X141360000Y-117875000D01*
X141360000Y-116200000D02*
X141360000Y-115550000D01*
%TO.C,R5*%
X145940000Y-110553641D02*
X145940000Y-110246359D01*
X146700000Y-110553641D02*
X146700000Y-110246359D01*
%TO.C,U4*%
X161000000Y-124340000D02*
X160200000Y-124340000D01*
X161000000Y-124340000D02*
X161800000Y-124340000D01*
X161000000Y-127460000D02*
X159200000Y-127460000D01*
X161000000Y-127460000D02*
X161800000Y-127460000D01*
%TO.C,C6*%
X157740000Y-124607836D02*
X157740000Y-124392164D01*
X158460000Y-124607836D02*
X158460000Y-124392164D01*
%TO.C,C7*%
X163540000Y-126507836D02*
X163540000Y-126292164D01*
X164260000Y-126507836D02*
X164260000Y-126292164D01*
%TO.C,Q1*%
X147200000Y-101140000D02*
X146550000Y-101140000D01*
X147200000Y-101140000D02*
X147850000Y-101140000D01*
X147200000Y-104260000D02*
X145525000Y-104260000D01*
X147200000Y-104260000D02*
X147850000Y-104260000D01*
%TO.C,R12*%
X154680000Y-102546359D02*
X154680000Y-102853641D01*
X153920000Y-102546359D02*
X153920000Y-102853641D01*
%TO.C,Q4*%
X134540000Y-116187500D02*
X134540000Y-116837500D01*
X134540000Y-116187500D02*
X134540000Y-115537500D01*
X137660000Y-116187500D02*
X137660000Y-117862500D01*
X137660000Y-116187500D02*
X137660000Y-115537500D01*
%TO.C,TP3*%
X136400000Y-113200000D02*
G75*
G03*
X136400000Y-113200000I-700000J0D01*
G01*
%TO.C,R10*%
X149757500Y-106153641D02*
X149757500Y-105846359D01*
X150517500Y-106153641D02*
X150517500Y-105846359D01*
%TO.C,R16*%
X136253641Y-119567500D02*
X135946359Y-119567500D01*
X136253641Y-118807500D02*
X135946359Y-118807500D01*
%TO.C,C4*%
X148110000Y-117007164D02*
X148110000Y-117222836D01*
X147390000Y-117007164D02*
X147390000Y-117222836D01*
%TO.C,R20*%
X134080000Y-112546359D02*
X134080000Y-112853641D01*
X133320000Y-112546359D02*
X133320000Y-112853641D01*
%TO.C,U2*%
X151465000Y-115030000D02*
X151465000Y-113415000D01*
X151465000Y-113415000D02*
X151465000Y-111800000D01*
X151465000Y-111800000D02*
X145065000Y-111800000D01*
X145065000Y-115030000D02*
X151465000Y-115030000D01*
X145065000Y-115030000D02*
X145065000Y-113430000D01*
X145065000Y-113415000D02*
X145065000Y-111800000D01*
X145615000Y-115015000D02*
X145065000Y-115030000D01*
X145065000Y-114465000D01*
X145615000Y-115015000D01*
G36*
X145615000Y-115015000D02*
G01*
X145065000Y-115030000D01*
X145065000Y-114465000D01*
X145615000Y-115015000D01*
G37*
%TO.C,R4*%
X147800000Y-110246359D02*
X147800000Y-110553641D01*
X147040000Y-110246359D02*
X147040000Y-110553641D01*
%TO.C,Q2*%
X147200000Y-104840000D02*
X146550000Y-104840000D01*
X147200000Y-104840000D02*
X147850000Y-104840000D01*
X147200000Y-107960000D02*
X145525000Y-107960000D01*
X147200000Y-107960000D02*
X147850000Y-107960000D01*
%TO.C,U1*%
X135000000Y-127460000D02*
X135800000Y-127460000D01*
X135000000Y-127460000D02*
X134200000Y-127460000D01*
X135000000Y-124340000D02*
X136800000Y-124340000D01*
X135000000Y-124340000D02*
X134200000Y-124340000D01*
%TO.C,TP5*%
X152450000Y-105250000D02*
G75*
G03*
X152450000Y-105250000I-700000J0D01*
G01*
%TO.C,TP4*%
X132700000Y-113200000D02*
G75*
G03*
X132700000Y-113200000I-700000J0D01*
G01*
%TO.C,U5*%
X145000000Y-118115000D02*
X145000000Y-117515000D01*
X145600000Y-118115000D02*
X145000000Y-118115000D01*
%TO.C,C2*%
X151607836Y-116360000D02*
X151392164Y-116360000D01*
X151607836Y-115640000D02*
X151392164Y-115640000D01*
%TO.C,C3*%
X137540000Y-124607836D02*
X137540000Y-124392164D01*
X138260000Y-124607836D02*
X138260000Y-124392164D01*
%TO.C,R17*%
X139780000Y-112546359D02*
X139780000Y-112853641D01*
X139020000Y-112546359D02*
X139020000Y-112853641D01*
%TO.C,TP7*%
X141600000Y-113200000D02*
G75*
G03*
X141600000Y-113200000I-700000J0D01*
G01*
%TO.C,R6*%
X143720000Y-102753641D02*
X143720000Y-102446359D01*
X144480000Y-102753641D02*
X144480000Y-102446359D01*
%TO.C,Q7*%
X130740000Y-116200000D02*
X130740000Y-116850000D01*
X130740000Y-116200000D02*
X130740000Y-115550000D01*
X133860000Y-116200000D02*
X133860000Y-117875000D01*
X133860000Y-116200000D02*
X133860000Y-115550000D01*
%TO.C,R19*%
X132503641Y-119567500D02*
X132196359Y-119567500D01*
X132503641Y-118807500D02*
X132196359Y-118807500D01*
%TO.C,R11*%
X152620000Y-102853641D02*
X152620000Y-102546359D01*
X153380000Y-102853641D02*
X153380000Y-102546359D01*
%TO.C,R7*%
X143757500Y-106553641D02*
X143757500Y-106246359D01*
X144517500Y-106553641D02*
X144517500Y-106246359D01*
%TO.C,R9*%
X150580000Y-102546359D02*
X150580000Y-102853641D01*
X149820000Y-102546359D02*
X149820000Y-102853641D01*
%TO.C,R18*%
X137020000Y-112853641D02*
X137020000Y-112546359D01*
X137780000Y-112853641D02*
X137780000Y-112546359D01*
%TD*%
%LPC*%
D12*
%TO.C,J4*%
X144250000Y-126150000D03*
D13*
X151750000Y-126150000D03*
D14*
X145600000Y-124000000D03*
X145600000Y-128300000D03*
X150400000Y-124000000D03*
X150400000Y-128300000D03*
%TD*%
D15*
%TO.C,R3*%
X145120000Y-110910000D03*
X145120000Y-109890000D03*
%TD*%
D16*
%TO.C,C5*%
X132100000Y-124980000D03*
X132100000Y-124020000D03*
%TD*%
D17*
%TO.C,C1*%
X148520000Y-110915000D03*
X149480000Y-110915000D03*
%TD*%
%TO.C,C8*%
X145540000Y-118915000D03*
X146500000Y-118915000D03*
%TD*%
D18*
%TO.C,R14*%
X140310000Y-119100000D03*
X139290000Y-119100000D03*
%TD*%
D19*
%TO.C,Q3*%
X140750000Y-117137500D03*
X138850000Y-117137500D03*
X139800000Y-115262500D03*
%TD*%
D15*
%TO.C,R5*%
X146320000Y-110910000D03*
X146320000Y-109890000D03*
%TD*%
D20*
%TO.C,U4*%
X159862500Y-126850000D03*
X159862500Y-125900000D03*
X159862500Y-124950000D03*
X162137500Y-124950000D03*
X162137500Y-126850000D03*
%TD*%
D16*
%TO.C,C6*%
X158100000Y-124980000D03*
X158100000Y-124020000D03*
%TD*%
%TO.C,C7*%
X163900000Y-126880000D03*
X163900000Y-125920000D03*
%TD*%
D21*
%TO.C,Q1*%
X146262500Y-103650000D03*
X146262500Y-101750000D03*
X148137500Y-102700000D03*
%TD*%
D22*
%TO.C,R12*%
X154300000Y-102190000D03*
X154300000Y-103210000D03*
%TD*%
D19*
%TO.C,Q4*%
X137050000Y-117125000D03*
X135150000Y-117125000D03*
X136100000Y-115250000D03*
%TD*%
D23*
%TO.C,TP3*%
X135700000Y-113200000D03*
%TD*%
D15*
%TO.C,R10*%
X150137500Y-106510000D03*
X150137500Y-105490000D03*
%TD*%
D18*
%TO.C,R16*%
X136610000Y-119187500D03*
X135590000Y-119187500D03*
%TD*%
D24*
%TO.C,C4*%
X147750000Y-116635000D03*
X147750000Y-117595000D03*
%TD*%
D22*
%TO.C,R20*%
X133700000Y-112190000D03*
X133700000Y-113210000D03*
%TD*%
D25*
%TO.C,U2*%
X145965000Y-114472500D03*
D26*
X146765000Y-114472500D03*
X147515000Y-114472500D03*
X148265000Y-114472500D03*
X149015000Y-114472500D03*
X149765000Y-114472500D03*
X150515000Y-114472500D03*
D27*
X145597500Y-113415000D03*
D28*
X148265000Y-113415000D03*
D27*
X150932500Y-113415000D03*
D26*
X146015000Y-112357500D03*
X146765000Y-112357500D03*
X147515000Y-112357500D03*
X148265000Y-112357500D03*
X149015000Y-112357500D03*
X149765000Y-112357500D03*
X150515000Y-112357500D03*
%TD*%
D22*
%TO.C,R4*%
X147420000Y-109890000D03*
X147420000Y-110910000D03*
%TD*%
D21*
%TO.C,Q2*%
X146262500Y-107350000D03*
X146262500Y-105450000D03*
X148137500Y-106400000D03*
%TD*%
D29*
%TO.C,U1*%
X136137500Y-124950000D03*
X136137500Y-125900000D03*
X136137500Y-126850000D03*
X133862500Y-126850000D03*
X133862500Y-124950000D03*
%TD*%
D23*
%TO.C,TP5*%
X151750000Y-105250000D03*
%TD*%
%TO.C,TP4*%
X132000000Y-113200000D03*
%TD*%
D30*
%TO.C,U5*%
X145450000Y-117775000D03*
D31*
X145450000Y-117135000D03*
X145450000Y-116495000D03*
X145450000Y-115855000D03*
X146550000Y-115855000D03*
X146550000Y-116495000D03*
X146550000Y-117135000D03*
X146550000Y-117775000D03*
%TD*%
D32*
%TO.C,C2*%
X151980000Y-116000000D03*
X151020000Y-116000000D03*
%TD*%
D16*
%TO.C,C3*%
X137900000Y-124980000D03*
X137900000Y-124020000D03*
%TD*%
D22*
%TO.C,R17*%
X139400000Y-112190000D03*
X139400000Y-113210000D03*
%TD*%
D23*
%TO.C,TP7*%
X140900000Y-113200000D03*
%TD*%
D15*
%TO.C,R6*%
X144100000Y-103110000D03*
X144100000Y-102090000D03*
%TD*%
D19*
%TO.C,Q7*%
X133250000Y-117137500D03*
X131350000Y-117137500D03*
X132300000Y-115262500D03*
%TD*%
D18*
%TO.C,R19*%
X132860000Y-119187500D03*
X131840000Y-119187500D03*
%TD*%
D15*
%TO.C,R11*%
X153000000Y-103210000D03*
X153000000Y-102190000D03*
%TD*%
%TO.C,R7*%
X144137500Y-106910000D03*
X144137500Y-105890000D03*
%TD*%
D22*
%TO.C,R9*%
X150200000Y-102190000D03*
X150200000Y-103210000D03*
%TD*%
D15*
%TO.C,R18*%
X137400000Y-113210000D03*
X137400000Y-112190000D03*
%TD*%
%LPD*%
M02*
