  0
SECTION
  2
HEADER
  9
$ANGBASE
  50
0.0
  9
$ANGDIR
  70
1
  9
$MEASUREMENT
  70
1
  0
ENDSEC
  0
SECTION
  2
TABLES
  0
TABLE
  2
LTYPE
  70
4
  0
LTYPE
  5
40F
  2
CONTINUOUS
  70
0
  3
Solid line
  72
65
  73
0
  40
0.0
  0
LTYPE
  5
410
  2
DASHDOT
 70
0
  3
Dash Dot ____ _ ____ _
 72
65
 73
4
 40
2.0
 49
1.25
 49
-0.25
 49
0.25
 49
-0.25
  0
LTYPE
  5
411
  2
DASHED
 70
0
  3
Dashed __ __ __ __ __
 72
65
 73
2
 40
0.75
 49
0.5
 49
-0.25
  0
LTYPE
  5
43B
  2
DOTTED
 70
0
  3
Dotted .  .  .  .
 72
65
 73
2
 40
0.2
 49
0.0
 49
-0.2
  0
ENDTAB
  0
TABLE
  2
STYLE
  70
4
  0
STYLE
  2
KICAD
  70
0
  40
0
  41
1
  42
1
  50
0
  71
0
  3
isocp.shx
  0
STYLE
  2
KICADB
  70
0
  40
0
  41
1
  42
1
  50
0
  71
0
  3
isocp.shx
  0
STYLE
  2
KICADI
  70
0
  40
0
  41
1
  42
1
  50
15
  71
0
  3
isocp.shx
  0
STYLE
  2
KICADBI
  70
0
  40
0
  41
1
  42
1
  50
15
  71
0
  3
isocp.shx
  0
ENDTAB
  0
TABLE
  2
LAYER
  70
1
  0
LAYER
  2
BLACK
  70
0
  62
7
  6
CONTINUOUS
  0
ENDTAB
  0
ENDSEC
  0
SECTION
  2
ENTITIES
0
LINE
8
BLACK
6
CONTINUOUS
10
166
20
-100
11
130
21
-100
0
LINE
8
BLACK
6
CONTINUOUS
10
130
20
-130
11
166
21
-130
0
LINE
8
BLACK
6
CONTINUOUS
10
166
20
-130
11
166
21
-100
0
LINE
8
BLACK
6
CONTINUOUS
10
130
20
-100
11
130
21
-130
0
LINE
8
BLACK
6
CONTINUOUS
10
130.5
20
-125.1
11
130.9
21
-125.5
0
LINE
8
BLACK
6
CONTINUOUS
10
130.9
20
-125.1
11
130.5
21
-125.5
0
LINE
8
BLACK
6
CONTINUOUS
10
130.5
20
-126.1
11
130.9
21
-126.5
0
LINE
8
BLACK
6
CONTINUOUS
10
130.9
20
-126.1
11
130.5
21
-126.5
0
LINE
8
BLACK
6
CONTINUOUS
10
130.5
20
-127.1
11
130.9
21
-127.5
0
LINE
8
BLACK
6
CONTINUOUS
10
130.9
20
-127.1
11
130.5
21
-127.5
0
LINE
8
BLACK
6
CONTINUOUS
10
130.5
20
-128.1
11
130.9
21
-128.5
0
LINE
8
BLACK
6
CONTINUOUS
10
130.9
20
-128.1
11
130.5
21
-128.5
0
LINE
8
BLACK
6
CONTINUOUS
10
131.35
20
-111.6
11
131.75
21
-112
0
LINE
8
BLACK
6
CONTINUOUS
10
131.75
20
-111.6
11
131.35
21
-112
0
LINE
8
BLACK
6
CONTINUOUS
10
131.375
20
-110.2
11
131.775
21
-110.6
0
LINE
8
BLACK
6
CONTINUOUS
10
131.775
20
-110.2
11
131.375
21
-110.6
0
LINE
8
BLACK
6
CONTINUOUS
10
131.6
20
-129
11
132
21
-129.4
0
LINE
8
BLACK
6
CONTINUOUS
10
132
20
-129
11
131.6
21
-129.4
0
LINE
8
BLACK
6
CONTINUOUS
10
131.775
20
-109.012
11
132.175
21
-109.412
0
LINE
8
BLACK
6
CONTINUOUS
10
132.175
20
-109.012
11
131.775
21
-109.412
0
LINE
8
BLACK
6
CONTINUOUS
10
132.1
20
-121.8
11
132.5
21
-122.2
0
LINE
8
BLACK
6
CONTINUOUS
10
132.5
20
-121.8
11
132.1
21
-122.2
0
LINE
8
BLACK
6
CONTINUOUS
10
132.6
20
-129
11
133
21
-129.4
0
LINE
8
BLACK
6
CONTINUOUS
10
133
20
-129
11
132.6
21
-129.4
0
LINE
8
BLACK
6
CONTINUOUS
10
132.825
20
-109.012
11
133.225
21
-109.412
0
LINE
8
BLACK
6
CONTINUOUS
10
133.225
20
-109.012
11
132.825
21
-109.412
0
LINE
8
BLACK
6
CONTINUOUS
10
133.34
20
-100.86
11
133.74
21
-101.26
0
LINE
8
BLACK
6
CONTINUOUS
10
133.74
20
-100.86
11
133.34
21
-101.26
0
LINE
8
BLACK
6
CONTINUOUS
10
133.4
20
-102.7
11
133.8
21
-103.1
0
LINE
8
BLACK
6
CONTINUOUS
10
133.8
20
-102.7
11
133.4
21
-103.1
0
LINE
8
BLACK
6
CONTINUOUS
10
133.4
20
-104
11
133.8
21
-104.4
0
LINE
8
BLACK
6
CONTINUOUS
10
133.8
20
-104
11
133.4
21
-104.4
0
LINE
8
BLACK
6
CONTINUOUS
10
133.5
20
-120
11
133.9
21
-120.4
0
LINE
8
BLACK
6
CONTINUOUS
10
133.9
20
-120
11
133.5
21
-120.4
0
LINE
8
BLACK
6
CONTINUOUS
10
133.6
20
-110.65
11
134
21
-111.05
0
LINE
8
BLACK
6
CONTINUOUS
10
134
20
-110.65
11
133.6
21
-111.05
0
LINE
8
BLACK
6
CONTINUOUS
10
133.6
20
-129
11
134
21
-129.4
0
LINE
8
BLACK
6
CONTINUOUS
10
134
20
-129
11
133.6
21
-129.4
0
LINE
8
BLACK
6
CONTINUOUS
10
134.05
20
-116.1
11
134.45
21
-116.5
0
LINE
8
BLACK
6
CONTINUOUS
10
134.45
20
-116.1
11
134.05
21
-116.5
0
LINE
8
BLACK
6
CONTINUOUS
10
134.55
20
-123.55
11
134.95
21
-123.95
0
LINE
8
BLACK
6
CONTINUOUS
10
134.95
20
-123.55
11
134.55
21
-123.95
0
LINE
8
BLACK
6
CONTINUOUS
10
134.6
20
-107.7
11
135
21
-108.1
0
LINE
8
BLACK
6
CONTINUOUS
10
135
20
-107.7
11
134.6
21
-108.1
0
LINE
8
BLACK
6
CONTINUOUS
10
134.6
20
-109.25
11
135
21
-109.65
0
LINE
8
BLACK
6
CONTINUOUS
10
135
20
-109.25
11
134.6
21
-109.65
0
LINE
8
BLACK
6
CONTINUOUS
10
135.7
20
-120.4
11
136.1
21
-120.8
0
LINE
8
BLACK
6
CONTINUOUS
10
136.1
20
-120.4
11
135.7
21
-120.8
0
LINE
8
BLACK
6
CONTINUOUS
10
135.9
20
-117.5
11
136.3
21
-117.9
0
LINE
8
BLACK
6
CONTINUOUS
10
136.3
20
-117.5
11
135.9
21
-117.9
0
LINE
8
BLACK
6
CONTINUOUS
10
137.7
20
-107.5
11
138.1
21
-107.9
0
LINE
8
BLACK
6
CONTINUOUS
10
138.1
20
-107.5
11
137.7
21
-107.9
0
LINE
8
BLACK
6
CONTINUOUS
10
137.75
20
-117.7
11
138.15
21
-118.1
0
LINE
8
BLACK
6
CONTINUOUS
10
138.15
20
-117.7
11
137.75
21
-118.1
0
LINE
8
BLACK
6
CONTINUOUS
10
138.15
20
-110.6
11
138.55
21
-111
0
LINE
8
BLACK
6
CONTINUOUS
10
138.55
20
-110.6
11
138.15
21
-111
0
LINE
8
BLACK
6
CONTINUOUS
10
138.5
20
-103.6
11
138.9
21
-104
0
LINE
8
BLACK
6
CONTINUOUS
10
138.9
20
-103.6
11
138.5
21
-104
0
LINE
8
BLACK
6
CONTINUOUS
10
138.5
20
-121.4
11
138.9
21
-121.8
0
LINE
8
BLACK
6
CONTINUOUS
10
138.9
20
-121.4
11
138.5
21
-121.8
0
LINE
8
BLACK
6
CONTINUOUS
10
138.7
20
-124.8
11
139.1
21
-125.2
0
LINE
8
BLACK
6
CONTINUOUS
10
139.1
20
-124.8
11
138.7
21
-125.2
0
LINE
8
BLACK
6
CONTINUOUS
10
138.95
20
-109.7
11
139.35
21
-110.1
0
LINE
8
BLACK
6
CONTINUOUS
10
139.35
20
-109.7
11
138.95
21
-110.1
0
LINE
8
BLACK
6
CONTINUOUS
10
139.1
20
-106.5
11
139.5
21
-106.9
0
LINE
8
BLACK
6
CONTINUOUS
10
139.5
20
-106.5
11
139.1
21
-106.9
0
LINE
8
BLACK
6
CONTINUOUS
10
139.6
20
-116.5
11
140
21
-116.9
0
LINE
8
BLACK
6
CONTINUOUS
10
140
20
-116.5
11
139.6
21
-116.9
0
LINE
8
BLACK
6
CONTINUOUS
10
139.6
20
-124.8
11
140
21
-125.2
0
LINE
8
BLACK
6
CONTINUOUS
10
140
20
-124.8
11
139.6
21
-125.2
0
LINE
8
BLACK
6
CONTINUOUS
10
140.075
20
-104.55
11
140.475
21
-104.95
0
LINE
8
BLACK
6
CONTINUOUS
10
140.475
20
-104.55
11
140.075
21
-104.95
0
LINE
8
BLACK
6
CONTINUOUS
10
140.3
20
-111.6
11
140.7
21
-112
0
LINE
8
BLACK
6
CONTINUOUS
10
140.7
20
-111.6
11
140.3
21
-112
0
LINE
8
BLACK
6
CONTINUOUS
10
140.8
20
-115.4
11
141.2
21
-115.8
0
LINE
8
BLACK
6
CONTINUOUS
10
141.2
20
-115.4
11
140.8
21
-115.8
0
LINE
8
BLACK
6
CONTINUOUS
10
141.125
20
-104.55
11
141.525
21
-104.95
0
LINE
8
BLACK
6
CONTINUOUS
10
141.525
20
-104.55
11
141.125
21
-104.95
0
LINE
8
BLACK
6
CONTINUOUS
10
141.4
20
-121.8
11
141.8
21
-122.2
0
LINE
8
BLACK
6
CONTINUOUS
10
141.8
20
-121.8
11
141.4
21
-122.2
0
LINE
8
BLACK
6
CONTINUOUS
10
141.55
20
-103.1
11
141.95
21
-103.5
0
LINE
8
BLACK
6
CONTINUOUS
10
141.95
20
-103.1
11
141.55
21
-103.5
0
LINE
8
BLACK
6
CONTINUOUS
10
142.7
20
-118.8
11
143.1
21
-119.2
0
LINE
8
BLACK
6
CONTINUOUS
10
143.1
20
-118.8
11
142.7
21
-119.2
0
LINE
8
BLACK
6
CONTINUOUS
10
143.55
20
-123.55
11
143.95
21
-123.95
0
LINE
8
BLACK
6
CONTINUOUS
10
143.95
20
-123.55
11
143.55
21
-123.95
0
LINE
8
BLACK
6
CONTINUOUS
10
143.8
20
-108.3
11
144.2
21
-108.7
0
LINE
8
BLACK
6
CONTINUOUS
10
144.2
20
-108.3
11
143.8
21
-108.7
0
LINE
8
BLACK
6
CONTINUOUS
10
144.05
20
-118.8
11
144.45
21
-119.2
0
LINE
8
BLACK
6
CONTINUOUS
10
144.45
20
-118.8
11
144.05
21
-119.2
0
LINE
8
BLACK
6
CONTINUOUS
10
144.3
20
-120.05
11
144.7
21
-120.45
0
LINE
8
BLACK
6
CONTINUOUS
10
144.7
20
-120.05
11
144.3
21
-120.45
0
LINE
8
BLACK
6
CONTINUOUS
10
144.8
20
-108.3
11
145.2
21
-108.7
0
LINE
8
BLACK
6
CONTINUOUS
10
145.2
20
-108.3
11
144.8
21
-108.7
0
LINE
8
BLACK
6
CONTINUOUS
10
145.7
20
-102.45
11
146.1
21
-102.849
0
LINE
8
BLACK
6
CONTINUOUS
10
146.1
20
-102.45
11
145.7
21
-102.849
0
LINE
8
BLACK
6
CONTINUOUS
10
145.8
20
-108.3
11
146.2
21
-108.7
0
LINE
8
BLACK
6
CONTINUOUS
10
146.2
20
-108.3
11
145.8
21
-108.7
0
LINE
8
BLACK
6
CONTINUOUS
10
145.9
20
-125.2
11
146.3
21
-125.6
0
LINE
8
BLACK
6
CONTINUOUS
10
146.3
20
-125.2
11
145.9
21
-125.6
0
LINE
8
BLACK
6
CONTINUOUS
10
145.9
20
-126.7
11
146.3
21
-127.1
0
LINE
8
BLACK
6
CONTINUOUS
10
146.3
20
-126.7
11
145.9
21
-127.1
0
LINE
8
BLACK
6
CONTINUOUS
10
146.85
20
-122.575
11
147.25
21
-122.975
0
LINE
8
BLACK
6
CONTINUOUS
10
147.25
20
-122.575
11
146.85
21
-122.975
0
LINE
8
BLACK
6
CONTINUOUS
10
147.05
20
-128.3
11
147.45
21
-128.7
0
LINE
8
BLACK
6
CONTINUOUS
10
147.45
20
-128.3
11
147.05
21
-128.7
0
LINE
8
BLACK
6
CONTINUOUS
10
147.3
20
-115.55
11
147.7
21
-115.95
0
LINE
8
BLACK
6
CONTINUOUS
10
147.7
20
-115.55
11
147.3
21
-115.95
0
LINE
8
BLACK
6
CONTINUOUS
10
148.2
20
-128.8
11
148.6
21
-129.2
0
LINE
8
BLACK
6
CONTINUOUS
10
148.6
20
-128.8
11
148.2
21
-129.2
0
LINE
8
BLACK
6
CONTINUOUS
10
148.8
20
-122.55
11
149.2
21
-122.95
0
LINE
8
BLACK
6
CONTINUOUS
10
149.2
20
-122.55
11
148.8
21
-122.95
0
LINE
8
BLACK
6
CONTINUOUS
10
149
20
-103.8
11
149.4
21
-104.2
0
LINE
8
BLACK
6
CONTINUOUS
10
149.4
20
-103.8
11
149
21
-104.2
0
LINE
8
BLACK
6
CONTINUOUS
10
149.324
20
-108.486
11
149.724
21
-108.886
0
LINE
8
BLACK
6
CONTINUOUS
10
149.724
20
-108.486
11
149.324
21
-108.886
0
LINE
8
BLACK
6
CONTINUOUS
10
149.7
20
-125.2
11
150.1
21
-125.6
0
LINE
8
BLACK
6
CONTINUOUS
10
150.1
20
-125.2
11
149.7
21
-125.6
0
LINE
8
BLACK
6
CONTINUOUS
10
149.7
20
-126.7
11
150.1
21
-127.1
0
LINE
8
BLACK
6
CONTINUOUS
10
150.1
20
-126.7
11
149.7
21
-127.1
0
LINE
8
BLACK
6
CONTINUOUS
10
150.05
20
-116.8
11
150.45
21
-117.2
0
LINE
8
BLACK
6
CONTINUOUS
10
150.45
20
-116.8
11
150.05
21
-117.2
0
LINE
8
BLACK
6
CONTINUOUS
10
150.05
20
-118.35
11
150.45
21
-118.75
0
LINE
8
BLACK
6
CONTINUOUS
10
150.45
20
-118.35
11
150.05
21
-118.75
0
LINE
8
BLACK
6
CONTINUOUS
10
150.4
20
-108.9
11
150.8
21
-109.3
0
LINE
8
BLACK
6
CONTINUOUS
10
150.8
20
-108.9
11
150.4
21
-109.3
0
LINE
8
BLACK
6
CONTINUOUS
10
150.4
20
-122
11
150.8
21
-122.4
0
LINE
8
BLACK
6
CONTINUOUS
10
150.8
20
-122
11
150.4
21
-122.4
0
LINE
8
BLACK
6
CONTINUOUS
10
151.1
20
-109.8
11
151.5
21
-110.2
0
LINE
8
BLACK
6
CONTINUOUS
10
151.5
20
-109.8
11
151.1
21
-110.2
0
LINE
8
BLACK
6
CONTINUOUS
10
151.1
20
-111.6
11
151.5
21
-112
0
LINE
8
BLACK
6
CONTINUOUS
10
151.5
20
-111.6
11
151.1
21
-112
0
LINE
8
BLACK
6
CONTINUOUS
10
151.8
20
-110.7
11
152.2
21
-111.1
0
LINE
8
BLACK
6
CONTINUOUS
10
152.2
20
-110.7
11
151.8
21
-111.1
0
LINE
8
BLACK
6
CONTINUOUS
10
152.05
20
-116.8
11
152.45
21
-117.2
0
LINE
8
BLACK
6
CONTINUOUS
10
152.45
20
-116.8
11
152.05
21
-117.2
0
LINE
8
BLACK
6
CONTINUOUS
10
152.5
20
-100.8
11
152.9
21
-101.2
0
LINE
8
BLACK
6
CONTINUOUS
10
152.9
20
-100.8
11
152.5
21
-101.2
0
LINE
8
BLACK
6
CONTINUOUS
10
152.55
20
-109.55
11
152.95
21
-109.95
0
LINE
8
BLACK
6
CONTINUOUS
10
152.95
20
-109.55
11
152.55
21
-109.95
0
LINE
8
BLACK
6
CONTINUOUS
10
152.7
20
-104.9
11
153.1
21
-105.3
0
LINE
8
BLACK
6
CONTINUOUS
10
153.1
20
-104.9
11
152.7
21
-105.3
0
LINE
8
BLACK
6
CONTINUOUS
10
152.8
20
-112.1
11
153.2
21
-112.5
0
LINE
8
BLACK
6
CONTINUOUS
10
153.2
20
-112.1
11
152.8
21
-112.5
0
LINE
8
BLACK
6
CONTINUOUS
10
153.2
20
-118.8
11
153.6
21
-119.2
0
LINE
8
BLACK
6
CONTINUOUS
10
153.6
20
-118.8
11
153.2
21
-119.2
0
LINE
8
BLACK
6
CONTINUOUS
10
153.55
20
-115.55
11
153.95
21
-115.95
0
LINE
8
BLACK
6
CONTINUOUS
10
153.95
20
-115.55
11
153.55
21
-115.95
0
LINE
8
BLACK
6
CONTINUOUS
10
153.6
20
-113.5
11
154
21
-113.9
0
LINE
8
BLACK
6
CONTINUOUS
10
154
20
-113.5
11
153.6
21
-113.9
0
LINE
8
BLACK
6
CONTINUOUS
10
153.8
20
-122.55
11
154.2
21
-122.95
0
LINE
8
BLACK
6
CONTINUOUS
10
154.2
20
-122.55
11
153.8
21
-122.95
0
LINE
8
BLACK
6
CONTINUOUS
10
154.6
20
-108.4
11
155
21
-108.8
0
LINE
8
BLACK
6
CONTINUOUS
10
155
20
-108.4
11
154.6
21
-108.8
0
LINE
8
BLACK
6
CONTINUOUS
10
154.7
20
-104.1
11
155.1
21
-104.5
0
LINE
8
BLACK
6
CONTINUOUS
10
155.1
20
-104.1
11
154.7
21
-104.5
0
LINE
8
BLACK
6
CONTINUOUS
10
155.5
20
-111.6
11
155.9
21
-112
0
LINE
8
BLACK
6
CONTINUOUS
10
155.9
20
-111.6
11
155.5
21
-112
0
LINE
8
BLACK
6
CONTINUOUS
10
155.5
20
-114.7
11
155.9
21
-115.1
0
LINE
8
BLACK
6
CONTINUOUS
10
155.9
20
-114.7
11
155.5
21
-115.1
0
LINE
8
BLACK
6
CONTINUOUS
10
155.55
20
-117.55
11
155.95
21
-117.95
0
LINE
8
BLACK
6
CONTINUOUS
10
155.95
20
-117.55
11
155.55
21
-117.95
0
LINE
8
BLACK
6
CONTINUOUS
10
155.55
20
-119.3
11
155.95
21
-119.7
0
LINE
8
BLACK
6
CONTINUOUS
10
155.95
20
-119.3
11
155.55
21
-119.7
0
LINE
8
BLACK
6
CONTINUOUS
10
156.2
20
-105.2
11
156.6
21
-105.6
0
LINE
8
BLACK
6
CONTINUOUS
10
156.6
20
-105.2
11
156.2
21
-105.6
0
LINE
8
BLACK
6
CONTINUOUS
10
156.4
20
-109.2
11
156.8
21
-109.6
0
LINE
8
BLACK
6
CONTINUOUS
10
156.8
20
-109.2
11
156.4
21
-109.6
0
LINE
8
BLACK
6
CONTINUOUS
10
156.5
20
-101.3
11
156.9
21
-101.7
0
LINE
8
BLACK
6
CONTINUOUS
10
156.9
20
-101.3
11
156.5
21
-101.7
0
LINE
8
BLACK
6
CONTINUOUS
10
156.55
20
-121.8
11
156.95
21
-122.2
0
LINE
8
BLACK
6
CONTINUOUS
10
156.95
20
-121.8
11
156.55
21
-122.2
0
LINE
8
BLACK
6
CONTINUOUS
10
157.3
20
-122.8
11
157.7
21
-123.2
0
LINE
8
BLACK
6
CONTINUOUS
10
157.7
20
-122.8
11
157.3
21
-123.2
0
LINE
8
BLACK
6
CONTINUOUS
10
158.3
20
-128.8
11
158.7
21
-129.2
0
LINE
8
BLACK
6
CONTINUOUS
10
158.7
20
-128.8
11
158.3
21
-129.2
0
LINE
8
BLACK
6
CONTINUOUS
10
158.5
20
-101.3
11
158.9
21
-101.7
0
LINE
8
BLACK
6
CONTINUOUS
10
158.9
20
-101.3
11
158.5
21
-101.7
0
LINE
8
BLACK
6
CONTINUOUS
10
158.5
20
-105.2
11
158.9
21
-105.6
0
LINE
8
BLACK
6
CONTINUOUS
10
158.9
20
-105.2
11
158.5
21
-105.6
0
LINE
8
BLACK
6
CONTINUOUS
10
158.5
20
-107.2
11
158.9
21
-107.6
0
LINE
8
BLACK
6
CONTINUOUS
10
158.9
20
-107.2
11
158.5
21
-107.6
0
LINE
8
BLACK
6
CONTINUOUS
10
158.5
20
-109.2
11
158.9
21
-109.6
0
LINE
8
BLACK
6
CONTINUOUS
10
158.9
20
-109.2
11
158.5
21
-109.6
0
LINE
8
BLACK
6
CONTINUOUS
10
158.5
20
-111.2
11
158.9
21
-111.6
0
LINE
8
BLACK
6
CONTINUOUS
10
158.9
20
-111.2
11
158.5
21
-111.6
0
LINE
8
BLACK
6
CONTINUOUS
10
158.5
20
-113.2
11
158.9
21
-113.6
0
LINE
8
BLACK
6
CONTINUOUS
10
158.9
20
-113.2
11
158.5
21
-113.6
0
LINE
8
BLACK
6
CONTINUOUS
10
158.5
20
-115.2
11
158.9
21
-115.6
0
LINE
8
BLACK
6
CONTINUOUS
10
158.9
20
-115.2
11
158.5
21
-115.6
0
LINE
8
BLACK
6
CONTINUOUS
10
159
20
-119.2
11
159.4
21
-119.6
0
LINE
8
BLACK
6
CONTINUOUS
10
159.4
20
-119.2
11
159
21
-119.6
0
LINE
8
BLACK
6
CONTINUOUS
10
159
20
-120.9
11
159.4
21
-121.3
0
LINE
8
BLACK
6
CONTINUOUS
10
159.4
20
-120.9
11
159
21
-121.3
0
LINE
8
BLACK
6
CONTINUOUS
10
161.55
20
-125.7
11
161.95
21
-126.1
0
LINE
8
BLACK
6
CONTINUOUS
10
161.95
20
-125.7
11
161.55
21
-126.1
0
LINE
8
BLACK
6
CONTINUOUS
10
161.6
20
-119.2
11
162
21
-119.6
0
LINE
8
BLACK
6
CONTINUOUS
10
162
20
-119.2
11
161.6
21
-119.6
0
LINE
8
BLACK
6
CONTINUOUS
10
161.95
20
-129
11
162.35
21
-129.4
0
LINE
8
BLACK
6
CONTINUOUS
10
162.35
20
-129
11
161.95
21
-129.4
0
LINE
8
BLACK
6
CONTINUOUS
10
162.95
20
-129
11
163.35
21
-129.4
0
LINE
8
BLACK
6
CONTINUOUS
10
163.35
20
-129
11
162.95
21
-129.4
0
LINE
8
BLACK
6
CONTINUOUS
10
163.95
20
-129
11
164.35
21
-129.4
0
LINE
8
BLACK
6
CONTINUOUS
10
164.35
20
-129
11
163.95
21
-129.4
0
LINE
8
BLACK
6
CONTINUOUS
10
164.8
20
-119.2
11
165.2
21
-119.6
0
LINE
8
BLACK
6
CONTINUOUS
10
165.2
20
-119.2
11
164.8
21
-119.6
0
LINE
8
BLACK
6
CONTINUOUS
10
164.8
20
-120.9
11
165.2
21
-121.3
0
LINE
8
BLACK
6
CONTINUOUS
10
165.2
20
-120.9
11
164.8
21
-121.3
0
LINE
8
BLACK
6
CONTINUOUS
10
164.8
20
-123.9
11
165.2
21
-124.3
0
LINE
8
BLACK
6
CONTINUOUS
10
165.2
20
-123.9
11
164.8
21
-124.3
0
LINE
8
BLACK
6
CONTINUOUS
10
165.05
20
-127.1
11
165.45
21
-127.5
0
LINE
8
BLACK
6
CONTINUOUS
10
165.45
20
-127.1
11
165.05
21
-127.5
0
LINE
8
BLACK
6
CONTINUOUS
10
165.05
20
-128.1
11
165.45
21
-128.5
0
LINE
8
BLACK
6
CONTINUOUS
10
165.45
20
-128.1
11
165.05
21
-128.5
0
CIRCLE
8
BLACK
10
145.6
20
-124
40
0.3
0
LINE
8
BLACK
6
CONTINUOUS
10
145.475
20
-124.3
11
145.725
21
-124.3
0
ARC
8
BLACK
10
145.725
20
-124
40
0.3
50
270
51
450
0
LINE
8
BLACK
6
CONTINUOUS
10
145.725
20
-123.7
11
145.475
21
-123.7
0
ARC
8
BLACK
10
145.475
20
-124
40
0.3
50
90
51
270
0
CIRCLE
8
BLACK
10
145.6
20
-128.3
40
0.3
0
LINE
8
BLACK
6
CONTINUOUS
10
145.475
20
-128.6
11
145.725
21
-128.6
0
ARC
8
BLACK
10
145.725
20
-128.3
40
0.3
50
270
51
450
0
LINE
8
BLACK
6
CONTINUOUS
10
145.725
20
-128
11
145.475
21
-128
0
ARC
8
BLACK
10
145.475
20
-128.3
40
0.3
50
90
51
270
0
CIRCLE
8
BLACK
10
150.4
20
-124
40
0.3
0
LINE
8
BLACK
6
CONTINUOUS
10
150.275
20
-124.3
11
150.525
21
-124.3
0
ARC
8
BLACK
10
150.525
20
-124
40
0.3
50
270
51
450
0
LINE
8
BLACK
6
CONTINUOUS
10
150.525
20
-123.7
11
150.275
21
-123.7
0
ARC
8
BLACK
10
150.275
20
-124
40
0.3
50
90
51
270
0
CIRCLE
8
BLACK
10
150.4
20
-128.3
40
0.3
0
LINE
8
BLACK
6
CONTINUOUS
10
150.275
20
-128.6
11
150.525
21
-128.6
0
ARC
8
BLACK
10
150.525
20
-128.3
40
0.3
50
270
51
450
0
LINE
8
BLACK
6
CONTINUOUS
10
150.525
20
-128
11
150.275
21
-128
0
ARC
8
BLACK
10
150.275
20
-128.3
40
0.3
50
90
51
270
0
LINE
8
BLACK
6
CONTINUOUS
10
132.558
20
-133.165
11
132.558
21
-131.165
0
LINE
8
BLACK
6
CONTINUOUS
10
132.558
20
-131.165
11
133.034
21
-131.165
0
LINE
8
BLACK
6
CONTINUOUS
10
133.034
20
-131.165
11
133.32
21
-131.26
0
LINE
8
BLACK
6
CONTINUOUS
10
133.32
20
-131.26
11
133.51
21
-131.451
0
LINE
8
BLACK
6
CONTINUOUS
10
133.51
20
-131.451
11
133.605
21
-131.641
0
LINE
8
BLACK
6
CONTINUOUS
10
133.605
20
-131.641
11
133.701
21
-132.022
0
LINE
8
BLACK
6
CONTINUOUS
10
133.701
20
-132.022
11
133.701
21
-132.308
0
LINE
8
BLACK
6
CONTINUOUS
10
133.701
20
-132.308
11
133.605
21
-132.689
0
LINE
8
BLACK
6
CONTINUOUS
10
133.605
20
-132.689
11
133.51
21
-132.879
0
LINE
8
BLACK
6
CONTINUOUS
10
133.51
20
-132.879
11
133.32
21
-133.07
0
LINE
8
BLACK
6
CONTINUOUS
10
133.32
20
-133.07
11
133.034
21
-133.165
0
LINE
8
BLACK
6
CONTINUOUS
10
133.034
20
-133.165
11
132.558
21
-133.165
0
LINE
8
BLACK
6
CONTINUOUS
10
134.558
20
-133.165
11
134.558
21
-131.832
0
LINE
8
BLACK
6
CONTINUOUS
10
134.558
20
-132.212
11
134.653
21
-132.022
0
LINE
8
BLACK
6
CONTINUOUS
10
134.653
20
-132.022
11
134.748
21
-131.927
0
LINE
8
BLACK
6
CONTINUOUS
10
134.748
20
-131.927
11
134.939
21
-131.832
0
LINE
8
BLACK
6
CONTINUOUS
10
134.939
20
-131.832
11
135.129
21
-131.832
0
LINE
8
BLACK
6
CONTINUOUS
10
135.796
20
-133.165
11
135.796
21
-131.832
0
LINE
8
BLACK
6
CONTINUOUS
10
135.796
20
-131.165
11
135.701
21
-131.26
0
LINE
8
BLACK
6
CONTINUOUS
10
135.701
20
-131.26
11
135.796
21
-131.355
0
LINE
8
BLACK
6
CONTINUOUS
10
135.796
20
-131.355
11
135.891
21
-131.26
0
LINE
8
BLACK
6
CONTINUOUS
10
135.891
20
-131.26
11
135.796
21
-131.165
0
LINE
8
BLACK
6
CONTINUOUS
10
135.796
20
-131.165
11
135.796
21
-131.355
0
LINE
8
BLACK
6
CONTINUOUS
10
137.034
20
-133.165
11
136.843
21
-133.07
0
LINE
8
BLACK
6
CONTINUOUS
10
136.843
20
-133.07
11
136.748
21
-132.879
0
LINE
8
BLACK
6
CONTINUOUS
10
136.748
20
-132.879
11
136.748
21
-131.165
0
LINE
8
BLACK
6
CONTINUOUS
10
138.082
20
-133.165
11
137.891
21
-133.07
0
LINE
8
BLACK
6
CONTINUOUS
10
137.891
20
-133.07
11
137.796
21
-132.879
0
LINE
8
BLACK
6
CONTINUOUS
10
137.796
20
-132.879
11
137.796
21
-131.165
0
LINE
8
BLACK
6
CONTINUOUS
10
140.367
20
-133.165
11
140.367
21
-131.165
0
LINE
8
BLACK
6
CONTINUOUS
10
140.367
20
-131.165
11
141.034
21
-132.593
0
LINE
8
BLACK
6
CONTINUOUS
10
141.034
20
-132.593
11
141.701
21
-131.165
0
LINE
8
BLACK
6
CONTINUOUS
10
141.701
20
-131.165
11
141.701
21
-133.165
0
LINE
8
BLACK
6
CONTINUOUS
10
143.51
20
-133.165
11
143.51
21
-132.117
0
LINE
8
BLACK
6
CONTINUOUS
10
143.51
20
-132.117
11
143.415
21
-131.927
0
LINE
8
BLACK
6
CONTINUOUS
10
143.415
20
-131.927
11
143.224
21
-131.832
0
LINE
8
BLACK
6
CONTINUOUS
10
143.224
20
-131.832
11
142.843
21
-131.832
0
LINE
8
BLACK
6
CONTINUOUS
10
142.843
20
-131.832
11
142.653
21
-131.927
0
LINE
8
BLACK
6
CONTINUOUS
10
143.51
20
-133.07
11
143.32
21
-133.165
0
LINE
8
BLACK
6
CONTINUOUS
10
143.32
20
-133.165
11
142.843
21
-133.165
0
LINE
8
BLACK
6
CONTINUOUS
10
142.843
20
-133.165
11
142.653
21
-133.07
0
LINE
8
BLACK
6
CONTINUOUS
10
142.653
20
-133.07
11
142.558
21
-132.879
0
LINE
8
BLACK
6
CONTINUOUS
10
142.558
20
-132.879
11
142.558
21
-132.689
0
LINE
8
BLACK
6
CONTINUOUS
10
142.558
20
-132.689
11
142.653
21
-132.498
0
LINE
8
BLACK
6
CONTINUOUS
10
142.653
20
-132.498
11
142.843
21
-132.403
0
LINE
8
BLACK
6
CONTINUOUS
10
142.843
20
-132.403
11
143.32
21
-132.403
0
LINE
8
BLACK
6
CONTINUOUS
10
143.32
20
-132.403
11
143.51
21
-132.308
0
LINE
8
BLACK
6
CONTINUOUS
10
144.463
20
-131.832
11
144.463
21
-133.832
0
LINE
8
BLACK
6
CONTINUOUS
10
144.463
20
-131.927
11
144.653
21
-131.832
0
LINE
8
BLACK
6
CONTINUOUS
10
144.653
20
-131.832
11
145.034
21
-131.832
0
LINE
8
BLACK
6
CONTINUOUS
10
145.034
20
-131.832
11
145.224
21
-131.927
0
LINE
8
BLACK
6
CONTINUOUS
10
145.224
20
-131.927
11
145.32
21
-132.022
0
LINE
8
BLACK
6
CONTINUOUS
10
145.32
20
-132.022
11
145.415
21
-132.212
0
LINE
8
BLACK
6
CONTINUOUS
10
145.415
20
-132.212
11
145.415
21
-132.784
0
LINE
8
BLACK
6
CONTINUOUS
10
145.415
20
-132.784
11
145.32
21
-132.974
0
LINE
8
BLACK
6
CONTINUOUS
10
145.32
20
-132.974
11
145.224
21
-133.07
0
LINE
8
BLACK
6
CONTINUOUS
10
145.224
20
-133.07
11
145.034
21
-133.165
0
LINE
8
BLACK
6
CONTINUOUS
10
145.034
20
-133.165
11
144.653
21
-133.165
0
LINE
8
BLACK
6
CONTINUOUS
10
144.653
20
-133.165
11
144.463
21
-133.07
0
LINE
8
BLACK
6
CONTINUOUS
10
146.272
20
-132.974
11
146.367
21
-133.07
0
LINE
8
BLACK
6
CONTINUOUS
10
146.367
20
-133.07
11
146.272
21
-133.165
0
LINE
8
BLACK
6
CONTINUOUS
10
146.272
20
-133.165
11
146.177
21
-133.07
0
LINE
8
BLACK
6
CONTINUOUS
10
146.177
20
-133.07
11
146.272
21
-132.974
0
LINE
8
BLACK
6
CONTINUOUS
10
146.272
20
-132.974
11
146.272
21
-133.165
0
LINE
8
BLACK
6
CONTINUOUS
10
146.272
20
-131.927
11
146.367
21
-132.022
0
LINE
8
BLACK
6
CONTINUOUS
10
146.367
20
-132.022
11
146.272
21
-132.117
0
LINE
8
BLACK
6
CONTINUOUS
10
146.272
20
-132.117
11
146.177
21
-132.022
0
LINE
8
BLACK
6
CONTINUOUS
10
146.177
20
-132.022
11
146.272
21
-131.927
0
LINE
8
BLACK
6
CONTINUOUS
10
146.272
20
-131.927
11
146.272
21
-132.117
0
LINE
8
BLACK
6
CONTINUOUS
10
129.55
20
-136.25
11
129.95
21
-136.65
0
LINE
8
BLACK
6
CONTINUOUS
10
129.95
20
-136.25
11
129.55
21
-136.65
0
LINE
8
BLACK
6
CONTINUOUS
10
132.939
20
-135.365
11
133.129
21
-135.365
0
LINE
8
BLACK
6
CONTINUOUS
10
133.129
20
-135.365
11
133.32
21
-135.46
0
LINE
8
BLACK
6
CONTINUOUS
10
133.32
20
-135.46
11
133.415
21
-135.555
0
LINE
8
BLACK
6
CONTINUOUS
10
133.415
20
-135.555
11
133.51
21
-135.746
0
LINE
8
BLACK
6
CONTINUOUS
10
133.51
20
-135.746
11
133.605
21
-136.127
0
LINE
8
BLACK
6
CONTINUOUS
10
133.605
20
-136.127
11
133.605
21
-136.603
0
LINE
8
BLACK
6
CONTINUOUS
10
133.605
20
-136.603
11
133.51
21
-136.984
0
LINE
8
BLACK
6
CONTINUOUS
10
133.51
20
-136.984
11
133.415
21
-137.174
0
LINE
8
BLACK
6
CONTINUOUS
10
133.415
20
-137.174
11
133.32
21
-137.27
0
LINE
8
BLACK
6
CONTINUOUS
10
133.32
20
-137.27
11
133.129
21
-137.365
0
LINE
8
BLACK
6
CONTINUOUS
10
133.129
20
-137.365
11
132.939
21
-137.365
0
LINE
8
BLACK
6
CONTINUOUS
10
132.939
20
-137.365
11
132.748
21
-137.27
0
LINE
8
BLACK
6
CONTINUOUS
10
132.748
20
-137.27
11
132.653
21
-137.174
0
LINE
8
BLACK
6
CONTINUOUS
10
132.653
20
-137.174
11
132.558
21
-136.984
0
LINE
8
BLACK
6
CONTINUOUS
10
132.558
20
-136.984
11
132.463
21
-136.603
0
LINE
8
BLACK
6
CONTINUOUS
10
132.463
20
-136.603
11
132.463
21
-136.127
0
LINE
8
BLACK
6
CONTINUOUS
10
132.463
20
-136.127
11
132.558
21
-135.746
0
LINE
8
BLACK
6
CONTINUOUS
10
132.558
20
-135.746
11
132.653
21
-135.555
0
LINE
8
BLACK
6
CONTINUOUS
10
132.653
20
-135.555
11
132.748
21
-135.46
0
LINE
8
BLACK
6
CONTINUOUS
10
132.748
20
-135.46
11
132.939
21
-135.365
0
LINE
8
BLACK
6
CONTINUOUS
10
134.463
20
-137.174
11
134.558
21
-137.27
0
LINE
8
BLACK
6
CONTINUOUS
10
134.558
20
-137.27
11
134.463
21
-137.365
0
LINE
8
BLACK
6
CONTINUOUS
10
134.463
20
-137.365
11
134.367
21
-137.27
0
LINE
8
BLACK
6
CONTINUOUS
10
134.367
20
-137.27
11
134.463
21
-137.174
0
LINE
8
BLACK
6
CONTINUOUS
10
134.463
20
-137.174
11
134.463
21
-137.365
0
LINE
8
BLACK
6
CONTINUOUS
10
136.272
20
-136.032
11
136.272
21
-137.365
0
LINE
8
BLACK
6
CONTINUOUS
10
135.796
20
-135.27
11
135.32
21
-136.698
0
LINE
8
BLACK
6
CONTINUOUS
10
135.32
20
-136.698
11
136.558
21
-136.698
0
LINE
8
BLACK
6
CONTINUOUS
10
137.701
20
-135.365
11
137.891
21
-135.365
0
LINE
8
BLACK
6
CONTINUOUS
10
137.891
20
-135.365
11
138.082
21
-135.46
0
LINE
8
BLACK
6
CONTINUOUS
10
138.082
20
-135.46
11
138.177
21
-135.555
0
LINE
8
BLACK
6
CONTINUOUS
10
138.177
20
-135.555
11
138.272
21
-135.746
0
LINE
8
BLACK
6
CONTINUOUS
10
138.272
20
-135.746
11
138.367
21
-136.127
0
LINE
8
BLACK
6
CONTINUOUS
10
138.367
20
-136.127
11
138.367
21
-136.603
0
LINE
8
BLACK
6
CONTINUOUS
10
138.367
20
-136.603
11
138.272
21
-136.984
0
LINE
8
BLACK
6
CONTINUOUS
10
138.272
20
-136.984
11
138.177
21
-137.174
0
LINE
8
BLACK
6
CONTINUOUS
10
138.177
20
-137.174
11
138.082
21
-137.27
0
LINE
8
BLACK
6
CONTINUOUS
10
138.082
20
-137.27
11
137.891
21
-137.365
0
LINE
8
BLACK
6
CONTINUOUS
10
137.891
20
-137.365
11
137.701
21
-137.365
0
LINE
8
BLACK
6
CONTINUOUS
10
137.701
20
-137.365
11
137.51
21
-137.27
0
LINE
8
BLACK
6
CONTINUOUS
10
137.51
20
-137.27
11
137.415
21
-137.174
0
LINE
8
BLACK
6
CONTINUOUS
10
137.415
20
-137.174
11
137.32
21
-136.984
0
LINE
8
BLACK
6
CONTINUOUS
10
137.32
20
-136.984
11
137.224
21
-136.603
0
LINE
8
BLACK
6
CONTINUOUS
10
137.224
20
-136.603
11
137.224
21
-136.127
0
LINE
8
BLACK
6
CONTINUOUS
10
137.224
20
-136.127
11
137.32
21
-135.746
0
LINE
8
BLACK
6
CONTINUOUS
10
137.32
20
-135.746
11
137.415
21
-135.555
0
LINE
8
BLACK
6
CONTINUOUS
10
137.415
20
-135.555
11
137.51
21
-135.46
0
LINE
8
BLACK
6
CONTINUOUS
10
137.51
20
-135.46
11
137.701
21
-135.365
0
LINE
8
BLACK
6
CONTINUOUS
10
139.605
20
-135.365
11
139.796
21
-135.365
0
LINE
8
BLACK
6
CONTINUOUS
10
139.796
20
-135.365
11
139.986
21
-135.46
0
LINE
8
BLACK
6
CONTINUOUS
10
139.986
20
-135.46
11
140.082
21
-135.555
0
LINE
8
BLACK
6
CONTINUOUS
10
140.082
20
-135.555
11
140.177
21
-135.746
0
LINE
8
BLACK
6
CONTINUOUS
10
140.177
20
-135.746
11
140.272
21
-136.127
0
LINE
8
BLACK
6
CONTINUOUS
10
140.272
20
-136.127
11
140.272
21
-136.603
0
LINE
8
BLACK
6
CONTINUOUS
10
140.272
20
-136.603
11
140.177
21
-136.984
0
LINE
8
BLACK
6
CONTINUOUS
10
140.177
20
-136.984
11
140.082
21
-137.174
0
LINE
8
BLACK
6
CONTINUOUS
10
140.082
20
-137.174
11
139.986
21
-137.27
0
LINE
8
BLACK
6
CONTINUOUS
10
139.986
20
-137.27
11
139.796
21
-137.365
0
LINE
8
BLACK
6
CONTINUOUS
10
139.796
20
-137.365
11
139.605
21
-137.365
0
LINE
8
BLACK
6
CONTINUOUS
10
139.605
20
-137.365
11
139.415
21
-137.27
0
LINE
8
BLACK
6
CONTINUOUS
10
139.415
20
-137.27
11
139.32
21
-137.174
0
LINE
8
BLACK
6
CONTINUOUS
10
139.32
20
-137.174
11
139.224
21
-136.984
0
LINE
8
BLACK
6
CONTINUOUS
10
139.224
20
-136.984
11
139.129
21
-136.603
0
LINE
8
BLACK
6
CONTINUOUS
10
139.129
20
-136.603
11
139.129
21
-136.127
0
LINE
8
BLACK
6
CONTINUOUS
10
139.129
20
-136.127
11
139.224
21
-135.746
0
LINE
8
BLACK
6
CONTINUOUS
10
139.224
20
-135.746
11
139.32
21
-135.555
0
LINE
8
BLACK
6
CONTINUOUS
10
139.32
20
-135.555
11
139.415
21
-135.46
0
LINE
8
BLACK
6
CONTINUOUS
10
139.415
20
-135.46
11
139.605
21
-135.365
0
LINE
8
BLACK
6
CONTINUOUS
10
141.129
20
-137.365
11
141.129
21
-136.032
0
LINE
8
BLACK
6
CONTINUOUS
10
141.129
20
-136.222
11
141.224
21
-136.127
0
LINE
8
BLACK
6
CONTINUOUS
10
141.224
20
-136.127
11
141.415
21
-136.032
0
LINE
8
BLACK
6
CONTINUOUS
10
141.415
20
-136.032
11
141.701
21
-136.032
0
LINE
8
BLACK
6
CONTINUOUS
10
141.701
20
-136.032
11
141.891
21
-136.127
0
LINE
8
BLACK
6
CONTINUOUS
10
141.891
20
-136.127
11
141.986
21
-136.317
0
LINE
8
BLACK
6
CONTINUOUS
10
141.986
20
-136.317
11
141.986
21
-137.365
0
LINE
8
BLACK
6
CONTINUOUS
10
141.986
20
-136.317
11
142.082
21
-136.127
0
LINE
8
BLACK
6
CONTINUOUS
10
142.082
20
-136.127
11
142.272
21
-136.032
0
LINE
8
BLACK
6
CONTINUOUS
10
142.272
20
-136.032
11
142.558
21
-136.032
0
LINE
8
BLACK
6
CONTINUOUS
10
142.558
20
-136.032
11
142.748
21
-136.127
0
LINE
8
BLACK
6
CONTINUOUS
10
142.748
20
-136.127
11
142.843
21
-136.317
0
LINE
8
BLACK
6
CONTINUOUS
10
142.843
20
-136.317
11
142.843
21
-137.365
0
LINE
8
BLACK
6
CONTINUOUS
10
143.796
20
-137.365
11
143.796
21
-136.032
0
LINE
8
BLACK
6
CONTINUOUS
10
143.796
20
-136.222
11
143.891
21
-136.127
0
LINE
8
BLACK
6
CONTINUOUS
10
143.891
20
-136.127
11
144.082
21
-136.032
0
LINE
8
BLACK
6
CONTINUOUS
10
144.082
20
-136.032
11
144.367
21
-136.032
0
LINE
8
BLACK
6
CONTINUOUS
10
144.367
20
-136.032
11
144.558
21
-136.127
0
LINE
8
BLACK
6
CONTINUOUS
10
144.558
20
-136.127
11
144.653
21
-136.317
0
LINE
8
BLACK
6
CONTINUOUS
10
144.653
20
-136.317
11
144.653
21
-137.365
0
LINE
8
BLACK
6
CONTINUOUS
10
144.653
20
-136.317
11
144.748
21
-136.127
0
LINE
8
BLACK
6
CONTINUOUS
10
144.748
20
-136.127
11
144.939
21
-136.032
0
LINE
8
BLACK
6
CONTINUOUS
10
144.939
20
-136.032
11
145.224
21
-136.032
0
LINE
8
BLACK
6
CONTINUOUS
10
145.224
20
-136.032
11
145.415
21
-136.127
0
LINE
8
BLACK
6
CONTINUOUS
10
145.415
20
-136.127
11
145.51
21
-136.317
0
LINE
8
BLACK
6
CONTINUOUS
10
145.51
20
-136.317
11
145.51
21
-137.365
0
LINE
8
BLACK
6
CONTINUOUS
10
149.415
20
-135.27
11
147.701
21
-137.841
0
LINE
8
BLACK
6
CONTINUOUS
10
151.986
20
-135.365
11
152.177
21
-135.365
0
LINE
8
BLACK
6
CONTINUOUS
10
152.177
20
-135.365
11
152.367
21
-135.46
0
LINE
8
BLACK
6
CONTINUOUS
10
152.367
20
-135.46
11
152.463
21
-135.555
0
LINE
8
BLACK
6
CONTINUOUS
10
152.463
20
-135.555
11
152.558
21
-135.746
0
LINE
8
BLACK
6
CONTINUOUS
10
152.558
20
-135.746
11
152.653
21
-136.127
0
LINE
8
BLACK
6
CONTINUOUS
10
152.653
20
-136.127
11
152.653
21
-136.603
0
LINE
8
BLACK
6
CONTINUOUS
10
152.653
20
-136.603
11
152.558
21
-136.984
0
LINE
8
BLACK
6
CONTINUOUS
10
152.558
20
-136.984
11
152.463
21
-137.174
0
LINE
8
BLACK
6
CONTINUOUS
10
152.463
20
-137.174
11
152.367
21
-137.27
0
LINE
8
BLACK
6
CONTINUOUS
10
152.367
20
-137.27
11
152.177
21
-137.365
0
LINE
8
BLACK
6
CONTINUOUS
10
152.177
20
-137.365
11
151.986
21
-137.365
0
LINE
8
BLACK
6
CONTINUOUS
10
151.986
20
-137.365
11
151.796
21
-137.27
0
LINE
8
BLACK
6
CONTINUOUS
10
151.796
20
-137.27
11
151.701
21
-137.174
0
LINE
8
BLACK
6
CONTINUOUS
10
151.701
20
-137.174
11
151.605
21
-136.984
0
LINE
8
BLACK
6
CONTINUOUS
10
151.605
20
-136.984
11
151.51
21
-136.603
0
LINE
8
BLACK
6
CONTINUOUS
10
151.51
20
-136.603
11
151.51
21
-136.127
0
LINE
8
BLACK
6
CONTINUOUS
10
151.51
20
-136.127
11
151.605
21
-135.746
0
LINE
8
BLACK
6
CONTINUOUS
10
151.605
20
-135.746
11
151.701
21
-135.555
0
LINE
8
BLACK
6
CONTINUOUS
10
151.701
20
-135.555
11
151.796
21
-135.46
0
LINE
8
BLACK
6
CONTINUOUS
10
151.796
20
-135.46
11
151.986
21
-135.365
0
LINE
8
BLACK
6
CONTINUOUS
10
153.51
20
-137.174
11
153.605
21
-137.27
0
LINE
8
BLACK
6
CONTINUOUS
10
153.605
20
-137.27
11
153.51
21
-137.365
0
LINE
8
BLACK
6
CONTINUOUS
10
153.51
20
-137.365
11
153.415
21
-137.27
0
LINE
8
BLACK
6
CONTINUOUS
10
153.415
20
-137.27
11
153.51
21
-137.174
0
LINE
8
BLACK
6
CONTINUOUS
10
153.51
20
-137.174
11
153.51
21
-137.365
0
LINE
8
BLACK
6
CONTINUOUS
10
154.843
20
-135.365
11
155.034
21
-135.365
0
LINE
8
BLACK
6
CONTINUOUS
10
155.034
20
-135.365
11
155.224
21
-135.46
0
LINE
8
BLACK
6
CONTINUOUS
10
155.224
20
-135.46
11
155.32
21
-135.555
0
LINE
8
BLACK
6
CONTINUOUS
10
155.32
20
-135.555
11
155.415
21
-135.746
0
LINE
8
BLACK
6
CONTINUOUS
10
155.415
20
-135.746
11
155.51
21
-136.127
0
LINE
8
BLACK
6
CONTINUOUS
10
155.51
20
-136.127
11
155.51
21
-136.603
0
LINE
8
BLACK
6
CONTINUOUS
10
155.51
20
-136.603
11
155.415
21
-136.984
0
LINE
8
BLACK
6
CONTINUOUS
10
155.415
20
-136.984
11
155.32
21
-137.174
0
LINE
8
BLACK
6
CONTINUOUS
10
155.32
20
-137.174
11
155.224
21
-137.27
0
LINE
8
BLACK
6
CONTINUOUS
10
155.224
20
-137.27
11
155.034
21
-137.365
0
LINE
8
BLACK
6
CONTINUOUS
10
155.034
20
-137.365
11
154.843
21
-137.365
0
LINE
8
BLACK
6
CONTINUOUS
10
154.843
20
-137.365
11
154.653
21
-137.27
0
LINE
8
BLACK
6
CONTINUOUS
10
154.653
20
-137.27
11
154.558
21
-137.174
0
LINE
8
BLACK
6
CONTINUOUS
10
154.558
20
-137.174
11
154.463
21
-136.984
0
LINE
8
BLACK
6
CONTINUOUS
10
154.463
20
-136.984
11
154.367
21
-136.603
0
LINE
8
BLACK
6
CONTINUOUS
10
154.367
20
-136.603
11
154.367
21
-136.127
0
LINE
8
BLACK
6
CONTINUOUS
10
154.367
20
-136.127
11
154.463
21
-135.746
0
LINE
8
BLACK
6
CONTINUOUS
10
154.463
20
-135.746
11
154.558
21
-135.555
0
LINE
8
BLACK
6
CONTINUOUS
10
154.558
20
-135.555
11
154.653
21
-135.46
0
LINE
8
BLACK
6
CONTINUOUS
10
154.653
20
-135.46
11
154.843
21
-135.365
0
LINE
8
BLACK
6
CONTINUOUS
10
157.415
20
-137.365
11
156.272
21
-137.365
0
LINE
8
BLACK
6
CONTINUOUS
10
156.843
20
-137.365
11
156.843
21
-135.365
0
LINE
8
BLACK
6
CONTINUOUS
10
156.843
20
-135.365
11
156.653
21
-135.651
0
LINE
8
BLACK
6
CONTINUOUS
10
156.653
20
-135.651
11
156.463
21
-135.841
0
LINE
8
BLACK
6
CONTINUOUS
10
156.463
20
-135.841
11
156.272
21
-135.936
0
LINE
8
BLACK
6
CONTINUOUS
10
159.224
20
-135.365
11
158.272
21
-135.365
0
LINE
8
BLACK
6
CONTINUOUS
10
158.272
20
-135.365
11
158.177
21
-136.317
0
LINE
8
BLACK
6
CONTINUOUS
10
158.177
20
-136.317
11
158.272
21
-136.222
0
LINE
8
BLACK
6
CONTINUOUS
10
158.272
20
-136.222
11
158.463
21
-136.127
0
LINE
8
BLACK
6
CONTINUOUS
10
158.463
20
-136.127
11
158.939
21
-136.127
0
LINE
8
BLACK
6
CONTINUOUS
10
158.939
20
-136.127
11
159.129
21
-136.222
0
LINE
8
BLACK
6
CONTINUOUS
10
159.129
20
-136.222
11
159.224
21
-136.317
0
LINE
8
BLACK
6
CONTINUOUS
10
159.224
20
-136.317
11
159.32
21
-136.508
0
LINE
8
BLACK
6
CONTINUOUS
10
159.32
20
-136.508
11
159.32
21
-136.984
0
LINE
8
BLACK
6
CONTINUOUS
10
159.32
20
-136.984
11
159.224
21
-137.174
0
LINE
8
BLACK
6
CONTINUOUS
10
159.224
20
-137.174
11
159.129
21
-137.27
0
LINE
8
BLACK
6
CONTINUOUS
10
159.129
20
-137.27
11
158.939
21
-137.365
0
LINE
8
BLACK
6
CONTINUOUS
10
158.939
20
-137.365
11
158.463
21
-137.365
0
LINE
8
BLACK
6
CONTINUOUS
10
158.463
20
-137.365
11
158.272
21
-137.27
0
LINE
8
BLACK
6
CONTINUOUS
10
158.272
20
-137.27
11
158.177
21
-137.174
0
LINE
8
BLACK
6
CONTINUOUS
10
159.986
20
-135.365
11
161.32
21
-135.365
0
LINE
8
BLACK
6
CONTINUOUS
10
161.32
20
-135.365
11
160.463
21
-137.365
0
LINE
8
BLACK
6
CONTINUOUS
10
161.986
20
-135.365
11
161.986
21
-135.746
0
LINE
8
BLACK
6
CONTINUOUS
10
162.748
20
-135.365
11
162.748
21
-135.746
0
LINE
8
BLACK
6
CONTINUOUS
10
165.701
20
-138.127
11
165.605
21
-138.032
0
LINE
8
BLACK
6
CONTINUOUS
10
165.605
20
-138.032
11
165.415
21
-137.746
0
LINE
8
BLACK
6
CONTINUOUS
10
165.415
20
-137.746
11
165.32
21
-137.555
0
LINE
8
BLACK
6
CONTINUOUS
10
165.32
20
-137.555
11
165.224
21
-137.27
0
LINE
8
BLACK
6
CONTINUOUS
10
165.224
20
-137.27
11
165.129
21
-136.793
0
LINE
8
BLACK
6
CONTINUOUS
10
165.129
20
-136.793
11
165.129
21
-136.412
0
LINE
8
BLACK
6
CONTINUOUS
10
165.129
20
-136.412
11
165.224
21
-135.936
0
LINE
8
BLACK
6
CONTINUOUS
10
165.224
20
-135.936
11
165.32
21
-135.651
0
LINE
8
BLACK
6
CONTINUOUS
10
165.32
20
-135.651
11
165.415
21
-135.46
0
LINE
8
BLACK
6
CONTINUOUS
10
165.415
20
-135.46
11
165.605
21
-135.174
0
LINE
8
BLACK
6
CONTINUOUS
10
165.605
20
-135.174
11
165.701
21
-135.079
0
LINE
8
BLACK
6
CONTINUOUS
10
167.51
20
-137.365
11
166.367
21
-137.365
0
LINE
8
BLACK
6
CONTINUOUS
10
166.939
20
-137.365
11
166.939
21
-135.365
0
LINE
8
BLACK
6
CONTINUOUS
10
166.939
20
-135.365
11
166.748
21
-135.651
0
LINE
8
BLACK
6
CONTINUOUS
10
166.748
20
-135.651
11
166.558
21
-135.841
0
LINE
8
BLACK
6
CONTINUOUS
10
166.558
20
-135.841
11
166.367
21
-135.936
0
LINE
8
BLACK
6
CONTINUOUS
10
168.748
20
-135.365
11
168.939
21
-135.365
0
LINE
8
BLACK
6
CONTINUOUS
10
168.939
20
-135.365
11
169.129
21
-135.46
0
LINE
8
BLACK
6
CONTINUOUS
10
169.129
20
-135.46
11
169.224
21
-135.555
0
LINE
8
BLACK
6
CONTINUOUS
10
169.224
20
-135.555
11
169.32
21
-135.746
0
LINE
8
BLACK
6
CONTINUOUS
10
169.32
20
-135.746
11
169.415
21
-136.127
0
LINE
8
BLACK
6
CONTINUOUS
10
169.415
20
-136.127
11
169.415
21
-136.603
0
LINE
8
BLACK
6
CONTINUOUS
10
169.415
20
-136.603
11
169.32
21
-136.984
0
LINE
8
BLACK
6
CONTINUOUS
10
169.32
20
-136.984
11
169.224
21
-137.174
0
LINE
8
BLACK
6
CONTINUOUS
10
169.224
20
-137.174
11
169.129
21
-137.27
0
LINE
8
BLACK
6
CONTINUOUS
10
169.129
20
-137.27
11
168.939
21
-137.365
0
LINE
8
BLACK
6
CONTINUOUS
10
168.939
20
-137.365
11
168.748
21
-137.365
0
LINE
8
BLACK
6
CONTINUOUS
10
168.748
20
-137.365
11
168.558
21
-137.27
0
LINE
8
BLACK
6
CONTINUOUS
10
168.558
20
-137.27
11
168.463
21
-137.174
0
LINE
8
BLACK
6
CONTINUOUS
10
168.463
20
-137.174
11
168.367
21
-136.984
0
LINE
8
BLACK
6
CONTINUOUS
10
168.367
20
-136.984
11
168.272
21
-136.603
0
LINE
8
BLACK
6
CONTINUOUS
10
168.272
20
-136.603
11
168.272
21
-136.127
0
LINE
8
BLACK
6
CONTINUOUS
10
168.272
20
-136.127
11
168.367
21
-135.746
0
LINE
8
BLACK
6
CONTINUOUS
10
168.367
20
-135.746
11
168.463
21
-135.555
0
LINE
8
BLACK
6
CONTINUOUS
10
168.463
20
-135.555
11
168.558
21
-135.46
0
LINE
8
BLACK
6
CONTINUOUS
10
168.558
20
-135.46
11
168.748
21
-135.365
0
LINE
8
BLACK
6
CONTINUOUS
10
171.224
20
-135.365
11
170.272
21
-135.365
0
LINE
8
BLACK
6
CONTINUOUS
10
170.272
20
-135.365
11
170.177
21
-136.317
0
LINE
8
BLACK
6
CONTINUOUS
10
170.177
20
-136.317
11
170.272
21
-136.222
0
LINE
8
BLACK
6
CONTINUOUS
10
170.272
20
-136.222
11
170.463
21
-136.127
0
LINE
8
BLACK
6
CONTINUOUS
10
170.463
20
-136.127
11
170.939
21
-136.127
0
LINE
8
BLACK
6
CONTINUOUS
10
170.939
20
-136.127
11
171.129
21
-136.222
0
LINE
8
BLACK
6
CONTINUOUS
10
171.129
20
-136.222
11
171.224
21
-136.317
0
LINE
8
BLACK
6
CONTINUOUS
10
171.224
20
-136.317
11
171.32
21
-136.508
0
LINE
8
BLACK
6
CONTINUOUS
10
171.32
20
-136.508
11
171.32
21
-136.984
0
LINE
8
BLACK
6
CONTINUOUS
10
171.32
20
-136.984
11
171.224
21
-137.174
0
LINE
8
BLACK
6
CONTINUOUS
10
171.224
20
-137.174
11
171.129
21
-137.27
0
LINE
8
BLACK
6
CONTINUOUS
10
171.129
20
-137.27
11
170.939
21
-137.365
0
LINE
8
BLACK
6
CONTINUOUS
10
170.939
20
-137.365
11
170.463
21
-137.365
0
LINE
8
BLACK
6
CONTINUOUS
10
170.463
20
-137.365
11
170.272
21
-137.27
0
LINE
8
BLACK
6
CONTINUOUS
10
170.272
20
-137.27
11
170.177
21
-137.174
0
LINE
8
BLACK
6
CONTINUOUS
10
173.701
20
-137.365
11
173.701
21
-135.365
0
LINE
8
BLACK
6
CONTINUOUS
10
174.558
20
-137.365
11
174.558
21
-136.317
0
LINE
8
BLACK
6
CONTINUOUS
10
174.558
20
-136.317
11
174.463
21
-136.127
0
LINE
8
BLACK
6
CONTINUOUS
10
174.463
20
-136.127
11
174.272
21
-136.032
0
LINE
8
BLACK
6
CONTINUOUS
10
174.272
20
-136.032
11
173.986
21
-136.032
0
LINE
8
BLACK
6
CONTINUOUS
10
173.986
20
-136.032
11
173.796
21
-136.127
0
LINE
8
BLACK
6
CONTINUOUS
10
173.796
20
-136.127
11
173.701
21
-136.222
0
LINE
8
BLACK
6
CONTINUOUS
10
175.796
20
-137.365
11
175.605
21
-137.27
0
LINE
8
BLACK
6
CONTINUOUS
10
175.605
20
-137.27
11
175.51
21
-137.174
0
LINE
8
BLACK
6
CONTINUOUS
10
175.51
20
-137.174
11
175.415
21
-136.984
0
LINE
8
BLACK
6
CONTINUOUS
10
175.415
20
-136.984
11
175.415
21
-136.412
0
LINE
8
BLACK
6
CONTINUOUS
10
175.415
20
-136.412
11
175.51
21
-136.222
0
LINE
8
BLACK
6
CONTINUOUS
10
175.51
20
-136.222
11
175.605
21
-136.127
0
LINE
8
BLACK
6
CONTINUOUS
10
175.605
20
-136.127
11
175.796
21
-136.032
0
LINE
8
BLACK
6
CONTINUOUS
10
175.796
20
-136.032
11
176.082
21
-136.032
0
LINE
8
BLACK
6
CONTINUOUS
10
176.082
20
-136.032
11
176.272
21
-136.127
0
LINE
8
BLACK
6
CONTINUOUS
10
176.272
20
-136.127
11
176.367
21
-136.222
0
LINE
8
BLACK
6
CONTINUOUS
10
176.367
20
-136.222
11
176.463
21
-136.412
0
LINE
8
BLACK
6
CONTINUOUS
10
176.463
20
-136.412
11
176.463
21
-136.984
0
LINE
8
BLACK
6
CONTINUOUS
10
176.463
20
-136.984
11
176.367
21
-137.174
0
LINE
8
BLACK
6
CONTINUOUS
10
176.367
20
-137.174
11
176.272
21
-137.27
0
LINE
8
BLACK
6
CONTINUOUS
10
176.272
20
-137.27
11
176.082
21
-137.365
0
LINE
8
BLACK
6
CONTINUOUS
10
176.082
20
-137.365
11
175.796
21
-137.365
0
LINE
8
BLACK
6
CONTINUOUS
10
177.605
20
-137.365
11
177.415
21
-137.27
0
LINE
8
BLACK
6
CONTINUOUS
10
177.415
20
-137.27
11
177.32
21
-137.079
0
LINE
8
BLACK
6
CONTINUOUS
10
177.32
20
-137.079
11
177.32
21
-135.365
0
LINE
8
BLACK
6
CONTINUOUS
10
179.129
20
-137.27
11
178.939
21
-137.365
0
LINE
8
BLACK
6
CONTINUOUS
10
178.939
20
-137.365
11
178.558
21
-137.365
0
LINE
8
BLACK
6
CONTINUOUS
10
178.558
20
-137.365
11
178.367
21
-137.27
0
LINE
8
BLACK
6
CONTINUOUS
10
178.367
20
-137.27
11
178.272
21
-137.079
0
LINE
8
BLACK
6
CONTINUOUS
10
178.272
20
-137.079
11
178.272
21
-136.317
0
LINE
8
BLACK
6
CONTINUOUS
10
178.272
20
-136.317
11
178.367
21
-136.127
0
LINE
8
BLACK
6
CONTINUOUS
10
178.367
20
-136.127
11
178.558
21
-136.032
0
LINE
8
BLACK
6
CONTINUOUS
10
178.558
20
-136.032
11
178.939
21
-136.032
0
LINE
8
BLACK
6
CONTINUOUS
10
178.939
20
-136.032
11
179.129
21
-136.127
0
LINE
8
BLACK
6
CONTINUOUS
10
179.129
20
-136.127
11
179.224
21
-136.317
0
LINE
8
BLACK
6
CONTINUOUS
10
179.224
20
-136.317
11
179.224
21
-136.508
0
LINE
8
BLACK
6
CONTINUOUS
10
179.224
20
-136.508
11
178.272
21
-136.698
0
LINE
8
BLACK
6
CONTINUOUS
10
179.986
20
-137.27
11
180.177
21
-137.365
0
LINE
8
BLACK
6
CONTINUOUS
10
180.177
20
-137.365
11
180.558
21
-137.365
0
LINE
8
BLACK
6
CONTINUOUS
10
180.558
20
-137.365
11
180.748
21
-137.27
0
LINE
8
BLACK
6
CONTINUOUS
10
180.748
20
-137.27
11
180.843
21
-137.079
0
LINE
8
BLACK
6
CONTINUOUS
10
180.843
20
-137.079
11
180.843
21
-136.984
0
LINE
8
BLACK
6
CONTINUOUS
10
180.843
20
-136.984
11
180.748
21
-136.793
0
LINE
8
BLACK
6
CONTINUOUS
10
180.748
20
-136.793
11
180.558
21
-136.698
0
LINE
8
BLACK
6
CONTINUOUS
10
180.558
20
-136.698
11
180.272
21
-136.698
0
LINE
8
BLACK
6
CONTINUOUS
10
180.272
20
-136.698
11
180.082
21
-136.603
0
LINE
8
BLACK
6
CONTINUOUS
10
180.082
20
-136.603
11
179.986
21
-136.412
0
LINE
8
BLACK
6
CONTINUOUS
10
179.986
20
-136.412
11
179.986
21
-136.317
0
LINE
8
BLACK
6
CONTINUOUS
10
179.986
20
-136.317
11
180.082
21
-136.127
0
LINE
8
BLACK
6
CONTINUOUS
10
180.082
20
-136.127
11
180.272
21
-136.032
0
LINE
8
BLACK
6
CONTINUOUS
10
180.272
20
-136.032
11
180.558
21
-136.032
0
LINE
8
BLACK
6
CONTINUOUS
10
180.558
20
-136.032
11
180.748
21
-136.127
0
LINE
8
BLACK
6
CONTINUOUS
10
181.51
20
-138.127
11
181.605
21
-138.032
0
LINE
8
BLACK
6
CONTINUOUS
10
181.605
20
-138.032
11
181.796
21
-137.746
0
LINE
8
BLACK
6
CONTINUOUS
10
181.796
20
-137.746
11
181.891
21
-137.555
0
LINE
8
BLACK
6
CONTINUOUS
10
181.891
20
-137.555
11
181.986
21
-137.27
0
LINE
8
BLACK
6
CONTINUOUS
10
181.986
20
-137.27
11
182.082
21
-136.793
0
LINE
8
BLACK
6
CONTINUOUS
10
182.082
20
-136.793
11
182.082
21
-136.412
0
LINE
8
BLACK
6
CONTINUOUS
10
182.082
20
-136.412
11
181.986
21
-135.936
0
LINE
8
BLACK
6
CONTINUOUS
10
181.986
20
-135.936
11
181.891
21
-135.651
0
LINE
8
BLACK
6
CONTINUOUS
10
181.891
20
-135.651
11
181.796
21
-135.46
0
LINE
8
BLACK
6
CONTINUOUS
10
181.796
20
-135.46
11
181.605
21
-135.174
0
LINE
8
BLACK
6
CONTINUOUS
10
181.605
20
-135.174
11
181.51
21
-135.079
0
CIRCLE
8
BLACK
10
129.65
20
-139.09
40
0.3
0
LINE
8
BLACK
6
CONTINUOUS
10
132.939
20
-138.005
11
133.129
21
-138.005
0
LINE
8
BLACK
6
CONTINUOUS
10
133.129
20
-138.005
11
133.32
21
-138.1
0
LINE
8
BLACK
6
CONTINUOUS
10
133.32
20
-138.1
11
133.415
21
-138.195
0
LINE
8
BLACK
6
CONTINUOUS
10
133.415
20
-138.195
11
133.51
21
-138.386
0
LINE
8
BLACK
6
CONTINUOUS
10
133.51
20
-138.386
11
133.605
21
-138.767
0
LINE
8
BLACK
6
CONTINUOUS
10
133.605
20
-138.767
11
133.605
21
-139.243
0
LINE
8
BLACK
6
CONTINUOUS
10
133.605
20
-139.243
11
133.51
21
-139.624
0
LINE
8
BLACK
6
CONTINUOUS
10
133.51
20
-139.624
11
133.415
21
-139.814
0
LINE
8
BLACK
6
CONTINUOUS
10
133.415
20
-139.814
11
133.32
21
-139.91
0
LINE
8
BLACK
6
CONTINUOUS
10
133.32
20
-139.91
11
133.129
21
-140.005
0
LINE
8
BLACK
6
CONTINUOUS
10
133.129
20
-140.005
11
132.939
21
-140.005
0
LINE
8
BLACK
6
CONTINUOUS
10
132.939
20
-140.005
11
132.748
21
-139.91
0
LINE
8
BLACK
6
CONTINUOUS
10
132.748
20
-139.91
11
132.653
21
-139.814
0
LINE
8
BLACK
6
CONTINUOUS
10
132.653
20
-139.814
11
132.558
21
-139.624
0
LINE
8
BLACK
6
CONTINUOUS
10
132.558
20
-139.624
11
132.463
21
-139.243
0
LINE
8
BLACK
6
CONTINUOUS
10
132.463
20
-139.243
11
132.463
21
-138.767
0
LINE
8
BLACK
6
CONTINUOUS
10
132.463
20
-138.767
11
132.558
21
-138.386
0
LINE
8
BLACK
6
CONTINUOUS
10
132.558
20
-138.386
11
132.653
21
-138.195
0
LINE
8
BLACK
6
CONTINUOUS
10
132.653
20
-138.195
11
132.748
21
-138.1
0
LINE
8
BLACK
6
CONTINUOUS
10
132.748
20
-138.1
11
132.939
21
-138.005
0
LINE
8
BLACK
6
CONTINUOUS
10
134.463
20
-139.814
11
134.558
21
-139.91
0
LINE
8
BLACK
6
CONTINUOUS
10
134.558
20
-139.91
11
134.463
21
-140.005
0
LINE
8
BLACK
6
CONTINUOUS
10
134.463
20
-140.005
11
134.367
21
-139.91
0
LINE
8
BLACK
6
CONTINUOUS
10
134.367
20
-139.91
11
134.463
21
-139.814
0
LINE
8
BLACK
6
CONTINUOUS
10
134.463
20
-139.814
11
134.463
21
-140.005
0
LINE
8
BLACK
6
CONTINUOUS
10
136.272
20
-138.005
11
135.891
21
-138.005
0
LINE
8
BLACK
6
CONTINUOUS
10
135.891
20
-138.005
11
135.701
21
-138.1
0
LINE
8
BLACK
6
CONTINUOUS
10
135.701
20
-138.1
11
135.605
21
-138.195
0
LINE
8
BLACK
6
CONTINUOUS
10
135.605
20
-138.195
11
135.415
21
-138.481
0
LINE
8
BLACK
6
CONTINUOUS
10
135.415
20
-138.481
11
135.32
21
-138.862
0
LINE
8
BLACK
6
CONTINUOUS
10
135.32
20
-138.862
11
135.32
21
-139.624
0
LINE
8
BLACK
6
CONTINUOUS
10
135.32
20
-139.624
11
135.415
21
-139.814
0
LINE
8
BLACK
6
CONTINUOUS
10
135.415
20
-139.814
11
135.51
21
-139.91
0
LINE
8
BLACK
6
CONTINUOUS
10
135.51
20
-139.91
11
135.701
21
-140.005
0
LINE
8
BLACK
6
CONTINUOUS
10
135.701
20
-140.005
11
136.082
21
-140.005
0
LINE
8
BLACK
6
CONTINUOUS
10
136.082
20
-140.005
11
136.272
21
-139.91
0
LINE
8
BLACK
6
CONTINUOUS
10
136.272
20
-139.91
11
136.367
21
-139.814
0
LINE
8
BLACK
6
CONTINUOUS
10
136.367
20
-139.814
11
136.463
21
-139.624
0
LINE
8
BLACK
6
CONTINUOUS
10
136.463
20
-139.624
11
136.463
21
-139.148
0
LINE
8
BLACK
6
CONTINUOUS
10
136.463
20
-139.148
11
136.367
21
-138.957
0
LINE
8
BLACK
6
CONTINUOUS
10
136.367
20
-138.957
11
136.272
21
-138.862
0
LINE
8
BLACK
6
CONTINUOUS
10
136.272
20
-138.862
11
136.082
21
-138.767
0
LINE
8
BLACK
6
CONTINUOUS
10
136.082
20
-138.767
11
135.701
21
-138.767
0
LINE
8
BLACK
6
CONTINUOUS
10
135.701
20
-138.767
11
135.51
21
-138.862
0
LINE
8
BLACK
6
CONTINUOUS
10
135.51
20
-138.862
11
135.415
21
-138.957
0
LINE
8
BLACK
6
CONTINUOUS
10
135.415
20
-138.957
11
135.32
21
-139.148
0
LINE
8
BLACK
6
CONTINUOUS
10
137.701
20
-138.005
11
137.891
21
-138.005
0
LINE
8
BLACK
6
CONTINUOUS
10
137.891
20
-138.005
11
138.082
21
-138.1
0
LINE
8
BLACK
6
CONTINUOUS
10
138.082
20
-138.1
11
138.177
21
-138.195
0
LINE
8
BLACK
6
CONTINUOUS
10
138.177
20
-138.195
11
138.272
21
-138.386
0
LINE
8
BLACK
6
CONTINUOUS
10
138.272
20
-138.386
11
138.367
21
-138.767
0
LINE
8
BLACK
6
CONTINUOUS
10
138.367
20
-138.767
11
138.367
21
-139.243
0
LINE
8
BLACK
6
CONTINUOUS
10
138.367
20
-139.243
11
138.272
21
-139.624
0
LINE
8
BLACK
6
CONTINUOUS
10
138.272
20
-139.624
11
138.177
21
-139.814
0
LINE
8
BLACK
6
CONTINUOUS
10
138.177
20
-139.814
11
138.082
21
-139.91
0
LINE
8
BLACK
6
CONTINUOUS
10
138.082
20
-139.91
11
137.891
21
-140.005
0
LINE
8
BLACK
6
CONTINUOUS
10
137.891
20
-140.005
11
137.701
21
-140.005
0
LINE
8
BLACK
6
CONTINUOUS
10
137.701
20
-140.005
11
137.51
21
-139.91
0
LINE
8
BLACK
6
CONTINUOUS
10
137.51
20
-139.91
11
137.415
21
-139.814
0
LINE
8
BLACK
6
CONTINUOUS
10
137.415
20
-139.814
11
137.32
21
-139.624
0
LINE
8
BLACK
6
CONTINUOUS
10
137.32
20
-139.624
11
137.224
21
-139.243
0
LINE
8
BLACK
6
CONTINUOUS
10
137.224
20
-139.243
11
137.224
21
-138.767
0
LINE
8
BLACK
6
CONTINUOUS
10
137.224
20
-138.767
11
137.32
21
-138.386
0
LINE
8
BLACK
6
CONTINUOUS
10
137.32
20
-138.386
11
137.415
21
-138.195
0
LINE
8
BLACK
6
CONTINUOUS
10
137.415
20
-138.195
11
137.51
21
-138.1
0
LINE
8
BLACK
6
CONTINUOUS
10
137.51
20
-138.1
11
137.701
21
-138.005
0
LINE
8
BLACK
6
CONTINUOUS
10
139.605
20
-138.005
11
139.796
21
-138.005
0
LINE
8
BLACK
6
CONTINUOUS
10
139.796
20
-138.005
11
139.986
21
-138.1
0
LINE
8
BLACK
6
CONTINUOUS
10
139.986
20
-138.1
11
140.082
21
-138.195
0
LINE
8
BLACK
6
CONTINUOUS
10
140.082
20
-138.195
11
140.177
21
-138.386
0
LINE
8
BLACK
6
CONTINUOUS
10
140.177
20
-138.386
11
140.272
21
-138.767
0
LINE
8
BLACK
6
CONTINUOUS
10
140.272
20
-138.767
11
140.272
21
-139.243
0
LINE
8
BLACK
6
CONTINUOUS
10
140.272
20
-139.243
11
140.177
21
-139.624
0
LINE
8
BLACK
6
CONTINUOUS
10
140.177
20
-139.624
11
140.082
21
-139.814
0
LINE
8
BLACK
6
CONTINUOUS
10
140.082
20
-139.814
11
139.986
21
-139.91
0
LINE
8
BLACK
6
CONTINUOUS
10
139.986
20
-139.91
11
139.796
21
-140.005
0
LINE
8
BLACK
6
CONTINUOUS
10
139.796
20
-140.005
11
139.605
21
-140.005
0
LINE
8
BLACK
6
CONTINUOUS
10
139.605
20
-140.005
11
139.415
21
-139.91
0
LINE
8
BLACK
6
CONTINUOUS
10
139.415
20
-139.91
11
139.32
21
-139.814
0
LINE
8
BLACK
6
CONTINUOUS
10
139.32
20
-139.814
11
139.224
21
-139.624
0
LINE
8
BLACK
6
CONTINUOUS
10
139.224
20
-139.624
11
139.129
21
-139.243
0
LINE
8
BLACK
6
CONTINUOUS
10
139.129
20
-139.243
11
139.129
21
-138.767
0
LINE
8
BLACK
6
CONTINUOUS
10
139.129
20
-138.767
11
139.224
21
-138.386
0
LINE
8
BLACK
6
CONTINUOUS
10
139.224
20
-138.386
11
139.32
21
-138.195
0
LINE
8
BLACK
6
CONTINUOUS
10
139.32
20
-138.195
11
139.415
21
-138.1
0
LINE
8
BLACK
6
CONTINUOUS
10
139.415
20
-138.1
11
139.605
21
-138.005
0
LINE
8
BLACK
6
CONTINUOUS
10
141.129
20
-140.005
11
141.129
21
-138.672
0
LINE
8
BLACK
6
CONTINUOUS
10
141.129
20
-138.862
11
141.224
21
-138.767
0
LINE
8
BLACK
6
CONTINUOUS
10
141.224
20
-138.767
11
141.415
21
-138.672
0
LINE
8
BLACK
6
CONTINUOUS
10
141.415
20
-138.672
11
141.701
21
-138.672
0
LINE
8
BLACK
6
CONTINUOUS
10
141.701
20
-138.672
11
141.891
21
-138.767
0
LINE
8
BLACK
6
CONTINUOUS
10
141.891
20
-138.767
11
141.986
21
-138.957
0
LINE
8
BLACK
6
CONTINUOUS
10
141.986
20
-138.957
11
141.986
21
-140.005
0
LINE
8
BLACK
6
CONTINUOUS
10
141.986
20
-138.957
11
142.082
21
-138.767
0
LINE
8
BLACK
6
CONTINUOUS
10
142.082
20
-138.767
11
142.272
21
-138.672
0
LINE
8
BLACK
6
CONTINUOUS
10
142.272
20
-138.672
11
142.558
21
-138.672
0
LINE
8
BLACK
6
CONTINUOUS
10
142.558
20
-138.672
11
142.748
21
-138.767
0
LINE
8
BLACK
6
CONTINUOUS
10
142.748
20
-138.767
11
142.843
21
-138.957
0
LINE
8
BLACK
6
CONTINUOUS
10
142.843
20
-138.957
11
142.843
21
-140.005
0
LINE
8
BLACK
6
CONTINUOUS
10
143.796
20
-140.005
11
143.796
21
-138.672
0
LINE
8
BLACK
6
CONTINUOUS
10
143.796
20
-138.862
11
143.891
21
-138.767
0
LINE
8
BLACK
6
CONTINUOUS
10
143.891
20
-138.767
11
144.082
21
-138.672
0
LINE
8
BLACK
6
CONTINUOUS
10
144.082
20
-138.672
11
144.367
21
-138.672
0
LINE
8
BLACK
6
CONTINUOUS
10
144.367
20
-138.672
11
144.558
21
-138.767
0
LINE
8
BLACK
6
CONTINUOUS
10
144.558
20
-138.767
11
144.653
21
-138.957
0
LINE
8
BLACK
6
CONTINUOUS
10
144.653
20
-138.957
11
144.653
21
-140.005
0
LINE
8
BLACK
6
CONTINUOUS
10
144.653
20
-138.957
11
144.748
21
-138.767
0
LINE
8
BLACK
6
CONTINUOUS
10
144.748
20
-138.767
11
144.939
21
-138.672
0
LINE
8
BLACK
6
CONTINUOUS
10
144.939
20
-138.672
11
145.224
21
-138.672
0
LINE
8
BLACK
6
CONTINUOUS
10
145.224
20
-138.672
11
145.415
21
-138.767
0
LINE
8
BLACK
6
CONTINUOUS
10
145.415
20
-138.767
11
145.51
21
-138.957
0
LINE
8
BLACK
6
CONTINUOUS
10
145.51
20
-138.957
11
145.51
21
-140.005
0
LINE
8
BLACK
6
CONTINUOUS
10
149.415
20
-137.91
11
147.701
21
-140.481
0
LINE
8
BLACK
6
CONTINUOUS
10
151.986
20
-138.005
11
152.177
21
-138.005
0
LINE
8
BLACK
6
CONTINUOUS
10
152.177
20
-138.005
11
152.367
21
-138.1
0
LINE
8
BLACK
6
CONTINUOUS
10
152.367
20
-138.1
11
152.463
21
-138.195
0
LINE
8
BLACK
6
CONTINUOUS
10
152.463
20
-138.195
11
152.558
21
-138.386
0
LINE
8
BLACK
6
CONTINUOUS
10
152.558
20
-138.386
11
152.653
21
-138.767
0
LINE
8
BLACK
6
CONTINUOUS
10
152.653
20
-138.767
11
152.653
21
-139.243
0
LINE
8
BLACK
6
CONTINUOUS
10
152.653
20
-139.243
11
152.558
21
-139.624
0
LINE
8
BLACK
6
CONTINUOUS
10
152.558
20
-139.624
11
152.463
21
-139.814
0
LINE
8
BLACK
6
CONTINUOUS
10
152.463
20
-139.814
11
152.367
21
-139.91
0
LINE
8
BLACK
6
CONTINUOUS
10
152.367
20
-139.91
11
152.177
21
-140.005
0
LINE
8
BLACK
6
CONTINUOUS
10
152.177
20
-140.005
11
151.986
21
-140.005
0
LINE
8
BLACK
6
CONTINUOUS
10
151.986
20
-140.005
11
151.796
21
-139.91
0
LINE
8
BLACK
6
CONTINUOUS
10
151.796
20
-139.91
11
151.701
21
-139.814
0
LINE
8
BLACK
6
CONTINUOUS
10
151.701
20
-139.814
11
151.605
21
-139.624
0
LINE
8
BLACK
6
CONTINUOUS
10
151.605
20
-139.624
11
151.51
21
-139.243
0
LINE
8
BLACK
6
CONTINUOUS
10
151.51
20
-139.243
11
151.51
21
-138.767
0
LINE
8
BLACK
6
CONTINUOUS
10
151.51
20
-138.767
11
151.605
21
-138.386
0
LINE
8
BLACK
6
CONTINUOUS
10
151.605
20
-138.386
11
151.701
21
-138.195
0
LINE
8
BLACK
6
CONTINUOUS
10
151.701
20
-138.195
11
151.796
21
-138.1
0
LINE
8
BLACK
6
CONTINUOUS
10
151.796
20
-138.1
11
151.986
21
-138.005
0
LINE
8
BLACK
6
CONTINUOUS
10
153.51
20
-139.814
11
153.605
21
-139.91
0
LINE
8
BLACK
6
CONTINUOUS
10
153.605
20
-139.91
11
153.51
21
-140.005
0
LINE
8
BLACK
6
CONTINUOUS
10
153.51
20
-140.005
11
153.415
21
-139.91
0
LINE
8
BLACK
6
CONTINUOUS
10
153.415
20
-139.91
11
153.51
21
-139.814
0
LINE
8
BLACK
6
CONTINUOUS
10
153.51
20
-139.814
11
153.51
21
-140.005
0
LINE
8
BLACK
6
CONTINUOUS
10
154.843
20
-138.005
11
155.034
21
-138.005
0
LINE
8
BLACK
6
CONTINUOUS
10
155.034
20
-138.005
11
155.224
21
-138.1
0
LINE
8
BLACK
6
CONTINUOUS
10
155.224
20
-138.1
11
155.32
21
-138.195
0
LINE
8
BLACK
6
CONTINUOUS
10
155.32
20
-138.195
11
155.415
21
-138.386
0
LINE
8
BLACK
6
CONTINUOUS
10
155.415
20
-138.386
11
155.51
21
-138.767
0
LINE
8
BLACK
6
CONTINUOUS
10
155.51
20
-138.767
11
155.51
21
-139.243
0
LINE
8
BLACK
6
CONTINUOUS
10
155.51
20
-139.243
11
155.415
21
-139.624
0
LINE
8
BLACK
6
CONTINUOUS
10
155.415
20
-139.624
11
155.32
21
-139.814
0
LINE
8
BLACK
6
CONTINUOUS
10
155.32
20
-139.814
11
155.224
21
-139.91
0
LINE
8
BLACK
6
CONTINUOUS
10
155.224
20
-139.91
11
155.034
21
-140.005
0
LINE
8
BLACK
6
CONTINUOUS
10
155.034
20
-140.005
11
154.843
21
-140.005
0
LINE
8
BLACK
6
CONTINUOUS
10
154.843
20
-140.005
11
154.653
21
-139.91
0
LINE
8
BLACK
6
CONTINUOUS
10
154.653
20
-139.91
11
154.558
21
-139.814
0
LINE
8
BLACK
6
CONTINUOUS
10
154.558
20
-139.814
11
154.463
21
-139.624
0
LINE
8
BLACK
6
CONTINUOUS
10
154.463
20
-139.624
11
154.367
21
-139.243
0
LINE
8
BLACK
6
CONTINUOUS
10
154.367
20
-139.243
11
154.367
21
-138.767
0
LINE
8
BLACK
6
CONTINUOUS
10
154.367
20
-138.767
11
154.463
21
-138.386
0
LINE
8
BLACK
6
CONTINUOUS
10
154.463
20
-138.386
11
154.558
21
-138.195
0
LINE
8
BLACK
6
CONTINUOUS
10
154.558
20
-138.195
11
154.653
21
-138.1
0
LINE
8
BLACK
6
CONTINUOUS
10
154.653
20
-138.1
11
154.843
21
-138.005
0
LINE
8
BLACK
6
CONTINUOUS
10
156.272
20
-138.195
11
156.367
21
-138.1
0
LINE
8
BLACK
6
CONTINUOUS
10
156.367
20
-138.1
11
156.558
21
-138.005
0
LINE
8
BLACK
6
CONTINUOUS
10
156.558
20
-138.005
11
157.034
21
-138.005
0
LINE
8
BLACK
6
CONTINUOUS
10
157.034
20
-138.005
11
157.224
21
-138.1
0
LINE
8
BLACK
6
CONTINUOUS
10
157.224
20
-138.1
11
157.32
21
-138.195
0
LINE
8
BLACK
6
CONTINUOUS
10
157.32
20
-138.195
11
157.415
21
-138.386
0
LINE
8
BLACK
6
CONTINUOUS
10
157.415
20
-138.386
11
157.415
21
-138.576
0
LINE
8
BLACK
6
CONTINUOUS
10
157.415
20
-138.576
11
157.32
21
-138.862
0
LINE
8
BLACK
6
CONTINUOUS
10
157.32
20
-138.862
11
156.177
21
-140.005
0
LINE
8
BLACK
6
CONTINUOUS
10
156.177
20
-140.005
11
157.415
21
-140.005
0
LINE
8
BLACK
6
CONTINUOUS
10
158.082
20
-138.005
11
159.32
21
-138.005
0
LINE
8
BLACK
6
CONTINUOUS
10
159.32
20
-138.005
11
158.653
21
-138.767
0
LINE
8
BLACK
6
CONTINUOUS
10
158.653
20
-138.767
11
158.939
21
-138.767
0
LINE
8
BLACK
6
CONTINUOUS
10
158.939
20
-138.767
11
159.129
21
-138.862
0
LINE
8
BLACK
6
CONTINUOUS
10
159.129
20
-138.862
11
159.224
21
-138.957
0
LINE
8
BLACK
6
CONTINUOUS
10
159.224
20
-138.957
11
159.32
21
-139.148
0
LINE
8
BLACK
6
CONTINUOUS
10
159.32
20
-139.148
11
159.32
21
-139.624
0
LINE
8
BLACK
6
CONTINUOUS
10
159.32
20
-139.624
11
159.224
21
-139.814
0
LINE
8
BLACK
6
CONTINUOUS
10
159.224
20
-139.814
11
159.129
21
-139.91
0
LINE
8
BLACK
6
CONTINUOUS
10
159.129
20
-139.91
11
158.939
21
-140.005
0
LINE
8
BLACK
6
CONTINUOUS
10
158.939
20
-140.005
11
158.367
21
-140.005
0
LINE
8
BLACK
6
CONTINUOUS
10
158.367
20
-140.005
11
158.177
21
-139.91
0
LINE
8
BLACK
6
CONTINUOUS
10
158.177
20
-139.91
11
158.082
21
-139.814
0
LINE
8
BLACK
6
CONTINUOUS
10
161.034
20
-138.005
11
160.653
21
-138.005
0
LINE
8
BLACK
6
CONTINUOUS
10
160.653
20
-138.005
11
160.463
21
-138.1
0
LINE
8
BLACK
6
CONTINUOUS
10
160.463
20
-138.1
11
160.367
21
-138.195
0
LINE
8
BLACK
6
CONTINUOUS
10
160.367
20
-138.195
11
160.177
21
-138.481
0
LINE
8
BLACK
6
CONTINUOUS
10
160.177
20
-138.481
11
160.082
21
-138.862
0
LINE
8
BLACK
6
CONTINUOUS
10
160.082
20
-138.862
11
160.082
21
-139.624
0
LINE
8
BLACK
6
CONTINUOUS
10
160.082
20
-139.624
11
160.177
21
-139.814
0
LINE
8
BLACK
6
CONTINUOUS
10
160.177
20
-139.814
11
160.272
21
-139.91
0
LINE
8
BLACK
6
CONTINUOUS
10
160.272
20
-139.91
11
160.463
21
-140.005
0
LINE
8
BLACK
6
CONTINUOUS
10
160.463
20
-140.005
11
160.843
21
-140.005
0
LINE
8
BLACK
6
CONTINUOUS
10
160.843
20
-140.005
11
161.034
21
-139.91
0
LINE
8
BLACK
6
CONTINUOUS
10
161.034
20
-139.91
11
161.129
21
-139.814
0
LINE
8
BLACK
6
CONTINUOUS
10
161.129
20
-139.814
11
161.224
21
-139.624
0
LINE
8
BLACK
6
CONTINUOUS
10
161.224
20
-139.624
11
161.224
21
-139.148
0
LINE
8
BLACK
6
CONTINUOUS
10
161.224
20
-139.148
11
161.129
21
-138.957
0
LINE
8
BLACK
6
CONTINUOUS
10
161.129
20
-138.957
11
161.034
21
-138.862
0
LINE
8
BLACK
6
CONTINUOUS
10
161.034
20
-138.862
11
160.843
21
-138.767
0
LINE
8
BLACK
6
CONTINUOUS
10
160.843
20
-138.767
11
160.463
21
-138.767
0
LINE
8
BLACK
6
CONTINUOUS
10
160.463
20
-138.767
11
160.272
21
-138.862
0
LINE
8
BLACK
6
CONTINUOUS
10
160.272
20
-138.862
11
160.177
21
-138.957
0
LINE
8
BLACK
6
CONTINUOUS
10
160.177
20
-138.957
11
160.082
21
-139.148
0
LINE
8
BLACK
6
CONTINUOUS
10
161.986
20
-138.005
11
161.986
21
-138.386
0
LINE
8
BLACK
6
CONTINUOUS
10
162.748
20
-138.005
11
162.748
21
-138.386
0
LINE
8
BLACK
6
CONTINUOUS
10
165.701
20
-140.767
11
165.605
21
-140.672
0
LINE
8
BLACK
6
CONTINUOUS
10
165.605
20
-140.672
11
165.415
21
-140.386
0
LINE
8
BLACK
6
CONTINUOUS
10
165.415
20
-140.386
11
165.32
21
-140.195
0
LINE
8
BLACK
6
CONTINUOUS
10
165.32
20
-140.195
11
165.224
21
-139.91
0
LINE
8
BLACK
6
CONTINUOUS
10
165.224
20
-139.91
11
165.129
21
-139.433
0
LINE
8
BLACK
6
CONTINUOUS
10
165.129
20
-139.433
11
165.129
21
-139.052
0
LINE
8
BLACK
6
CONTINUOUS
10
165.129
20
-139.052
11
165.224
21
-138.576
0
LINE
8
BLACK
6
CONTINUOUS
10
165.224
20
-138.576
11
165.32
21
-138.291
0
LINE
8
BLACK
6
CONTINUOUS
10
165.32
20
-138.291
11
165.415
21
-138.1
0
LINE
8
BLACK
6
CONTINUOUS
10
165.415
20
-138.1
11
165.605
21
-137.814
0
LINE
8
BLACK
6
CONTINUOUS
10
165.605
20
-137.814
11
165.701
21
-137.719
0
LINE
8
BLACK
6
CONTINUOUS
10
166.843
20
-138.005
11
167.034
21
-138.005
0
LINE
8
BLACK
6
CONTINUOUS
10
167.034
20
-138.005
11
167.224
21
-138.1
0
LINE
8
BLACK
6
CONTINUOUS
10
167.224
20
-138.1
11
167.32
21
-138.195
0
LINE
8
BLACK
6
CONTINUOUS
10
167.32
20
-138.195
11
167.415
21
-138.386
0
LINE
8
BLACK
6
CONTINUOUS
10
167.415
20
-138.386
11
167.51
21
-138.767
0
LINE
8
BLACK
6
CONTINUOUS
10
167.51
20
-138.767
11
167.51
21
-139.243
0
LINE
8
BLACK
6
CONTINUOUS
10
167.51
20
-139.243
11
167.415
21
-139.624
0
LINE
8
BLACK
6
CONTINUOUS
10
167.415
20
-139.624
11
167.32
21
-139.814
0
LINE
8
BLACK
6
CONTINUOUS
10
167.32
20
-139.814
11
167.224
21
-139.91
0
LINE
8
BLACK
6
CONTINUOUS
10
167.224
20
-139.91
11
167.034
21
-140.005
0
LINE
8
BLACK
6
CONTINUOUS
10
167.034
20
-140.005
11
166.843
21
-140.005
0
LINE
8
BLACK
6
CONTINUOUS
10
166.843
20
-140.005
11
166.653
21
-139.91
0
LINE
8
BLACK
6
CONTINUOUS
10
166.653
20
-139.91
11
166.558
21
-139.814
0
LINE
8
BLACK
6
CONTINUOUS
10
166.558
20
-139.814
11
166.463
21
-139.624
0
LINE
8
BLACK
6
CONTINUOUS
10
166.463
20
-139.624
11
166.367
21
-139.243
0
LINE
8
BLACK
6
CONTINUOUS
10
166.367
20
-139.243
11
166.367
21
-138.767
0
LINE
8
BLACK
6
CONTINUOUS
10
166.367
20
-138.767
11
166.463
21
-138.386
0
LINE
8
BLACK
6
CONTINUOUS
10
166.463
20
-138.386
11
166.558
21
-138.195
0
LINE
8
BLACK
6
CONTINUOUS
10
166.558
20
-138.195
11
166.653
21
-138.1
0
LINE
8
BLACK
6
CONTINUOUS
10
166.653
20
-138.1
11
166.843
21
-138.005
0
LINE
8
BLACK
6
CONTINUOUS
10
169.891
20
-140.005
11
169.891
21
-138.005
0
LINE
8
BLACK
6
CONTINUOUS
10
170.748
20
-140.005
11
170.748
21
-138.957
0
LINE
8
BLACK
6
CONTINUOUS
10
170.748
20
-138.957
11
170.653
21
-138.767
0
LINE
8
BLACK
6
CONTINUOUS
10
170.653
20
-138.767
11
170.463
21
-138.672
0
LINE
8
BLACK
6
CONTINUOUS
10
170.463
20
-138.672
11
170.177
21
-138.672
0
LINE
8
BLACK
6
CONTINUOUS
10
170.177
20
-138.672
11
169.986
21
-138.767
0
LINE
8
BLACK
6
CONTINUOUS
10
169.986
20
-138.767
11
169.891
21
-138.862
0
LINE
8
BLACK
6
CONTINUOUS
10
171.986
20
-140.005
11
171.796
21
-139.91
0
LINE
8
BLACK
6
CONTINUOUS
10
171.796
20
-139.91
11
171.701
21
-139.814
0
LINE
8
BLACK
6
CONTINUOUS
10
171.701
20
-139.814
11
171.605
21
-139.624
0
LINE
8
BLACK
6
CONTINUOUS
10
171.605
20
-139.624
11
171.605
21
-139.052
0
LINE
8
BLACK
6
CONTINUOUS
10
171.605
20
-139.052
11
171.701
21
-138.862
0
LINE
8
BLACK
6
CONTINUOUS
10
171.701
20
-138.862
11
171.796
21
-138.767
0
LINE
8
BLACK
6
CONTINUOUS
10
171.796
20
-138.767
11
171.986
21
-138.672
0
LINE
8
BLACK
6
CONTINUOUS
10
171.986
20
-138.672
11
172.272
21
-138.672
0
LINE
8
BLACK
6
CONTINUOUS
10
172.272
20
-138.672
11
172.463
21
-138.767
0
LINE
8
BLACK
6
CONTINUOUS
10
172.463
20
-138.767
11
172.558
21
-138.862
0
LINE
8
BLACK
6
CONTINUOUS
10
172.558
20
-138.862
11
172.653
21
-139.052
0
LINE
8
BLACK
6
CONTINUOUS
10
172.653
20
-139.052
11
172.653
21
-139.624
0
LINE
8
BLACK
6
CONTINUOUS
10
172.653
20
-139.624
11
172.558
21
-139.814
0
LINE
8
BLACK
6
CONTINUOUS
10
172.558
20
-139.814
11
172.463
21
-139.91
0
LINE
8
BLACK
6
CONTINUOUS
10
172.463
20
-139.91
11
172.272
21
-140.005
0
LINE
8
BLACK
6
CONTINUOUS
10
172.272
20
-140.005
11
171.986
21
-140.005
0
LINE
8
BLACK
6
CONTINUOUS
10
173.796
20
-140.005
11
173.605
21
-139.91
0
LINE
8
BLACK
6
CONTINUOUS
10
173.605
20
-139.91
11
173.51
21
-139.719
0
LINE
8
BLACK
6
CONTINUOUS
10
173.51
20
-139.719
11
173.51
21
-138.005
0
LINE
8
BLACK
6
CONTINUOUS
10
175.32
20
-139.91
11
175.129
21
-140.005
0
LINE
8
BLACK
6
CONTINUOUS
10
175.129
20
-140.005
11
174.748
21
-140.005
0
LINE
8
BLACK
6
CONTINUOUS
10
174.748
20
-140.005
11
174.558
21
-139.91
0
LINE
8
BLACK
6
CONTINUOUS
10
174.558
20
-139.91
11
174.463
21
-139.719
0
LINE
8
BLACK
6
CONTINUOUS
10
174.463
20
-139.719
11
174.463
21
-138.957
0
LINE
8
BLACK
6
CONTINUOUS
10
174.463
20
-138.957
11
174.558
21
-138.767
0
LINE
8
BLACK
6
CONTINUOUS
10
174.558
20
-138.767
11
174.748
21
-138.672
0
LINE
8
BLACK
6
CONTINUOUS
10
174.748
20
-138.672
11
175.129
21
-138.672
0
LINE
8
BLACK
6
CONTINUOUS
10
175.129
20
-138.672
11
175.32
21
-138.767
0
LINE
8
BLACK
6
CONTINUOUS
10
175.32
20
-138.767
11
175.415
21
-138.957
0
LINE
8
BLACK
6
CONTINUOUS
10
175.415
20
-138.957
11
175.415
21
-139.148
0
LINE
8
BLACK
6
CONTINUOUS
10
175.415
20
-139.148
11
174.463
21
-139.338
0
LINE
8
BLACK
6
CONTINUOUS
10
176.177
20
-139.91
11
176.367
21
-140.005
0
LINE
8
BLACK
6
CONTINUOUS
10
176.367
20
-140.005
11
176.748
21
-140.005
0
LINE
8
BLACK
6
CONTINUOUS
10
176.748
20
-140.005
11
176.939
21
-139.91
0
LINE
8
BLACK
6
CONTINUOUS
10
176.939
20
-139.91
11
177.034
21
-139.719
0
LINE
8
BLACK
6
CONTINUOUS
10
177.034
20
-139.719
11
177.034
21
-139.624
0
LINE
8
BLACK
6
CONTINUOUS
10
177.034
20
-139.624
11
176.939
21
-139.433
0
LINE
8
BLACK
6
CONTINUOUS
10
176.939
20
-139.433
11
176.748
21
-139.338
0
LINE
8
BLACK
6
CONTINUOUS
10
176.748
20
-139.338
11
176.463
21
-139.338
0
LINE
8
BLACK
6
CONTINUOUS
10
176.463
20
-139.338
11
176.272
21
-139.243
0
LINE
8
BLACK
6
CONTINUOUS
10
176.272
20
-139.243
11
176.177
21
-139.052
0
LINE
8
BLACK
6
CONTINUOUS
10
176.177
20
-139.052
11
176.177
21
-138.957
0
LINE
8
BLACK
6
CONTINUOUS
10
176.177
20
-138.957
11
176.272
21
-138.767
0
LINE
8
BLACK
6
CONTINUOUS
10
176.272
20
-138.767
11
176.463
21
-138.672
0
LINE
8
BLACK
6
CONTINUOUS
10
176.463
20
-138.672
11
176.748
21
-138.672
0
LINE
8
BLACK
6
CONTINUOUS
10
176.748
20
-138.672
11
176.939
21
-138.767
0
LINE
8
BLACK
6
CONTINUOUS
10
179.415
20
-139.243
11
180.939
21
-139.243
0
LINE
8
BLACK
6
CONTINUOUS
10
180.177
20
-140.005
11
180.177
21
-138.481
0
LINE
8
BLACK
6
CONTINUOUS
10
184.272
20
-138.672
11
184.272
21
-140.005
0
LINE
8
BLACK
6
CONTINUOUS
10
183.796
20
-137.91
11
183.32
21
-139.338
0
LINE
8
BLACK
6
CONTINUOUS
10
183.32
20
-139.338
11
184.558
21
-139.338
0
LINE
8
BLACK
6
CONTINUOUS
10
186.748
20
-139.91
11
186.939
21
-140.005
0
LINE
8
BLACK
6
CONTINUOUS
10
186.939
20
-140.005
11
187.32
21
-140.005
0
LINE
8
BLACK
6
CONTINUOUS
10
187.32
20
-140.005
11
187.51
21
-139.91
0
LINE
8
BLACK
6
CONTINUOUS
10
187.51
20
-139.91
11
187.605
21
-139.719
0
LINE
8
BLACK
6
CONTINUOUS
10
187.605
20
-139.719
11
187.605
21
-139.624
0
LINE
8
BLACK
6
CONTINUOUS
10
187.605
20
-139.624
11
187.51
21
-139.433
0
LINE
8
BLACK
6
CONTINUOUS
10
187.51
20
-139.433
11
187.32
21
-139.338
0
LINE
8
BLACK
6
CONTINUOUS
10
187.32
20
-139.338
11
187.034
21
-139.338
0
LINE
8
BLACK
6
CONTINUOUS
10
187.034
20
-139.338
11
186.843
21
-139.243
0
LINE
8
BLACK
6
CONTINUOUS
10
186.843
20
-139.243
11
186.748
21
-139.052
0
LINE
8
BLACK
6
CONTINUOUS
10
186.748
20
-139.052
11
186.748
21
-138.957
0
LINE
8
BLACK
6
CONTINUOUS
10
186.748
20
-138.957
11
186.843
21
-138.767
0
LINE
8
BLACK
6
CONTINUOUS
10
186.843
20
-138.767
11
187.034
21
-138.672
0
LINE
8
BLACK
6
CONTINUOUS
10
187.034
20
-138.672
11
187.32
21
-138.672
0
LINE
8
BLACK
6
CONTINUOUS
10
187.32
20
-138.672
11
187.51
21
-138.767
0
LINE
8
BLACK
6
CONTINUOUS
10
188.748
20
-140.005
11
188.558
21
-139.91
0
LINE
8
BLACK
6
CONTINUOUS
10
188.558
20
-139.91
11
188.463
21
-139.719
0
LINE
8
BLACK
6
CONTINUOUS
10
188.463
20
-139.719
11
188.463
21
-138.005
0
LINE
8
BLACK
6
CONTINUOUS
10
189.796
20
-140.005
11
189.605
21
-139.91
0
LINE
8
BLACK
6
CONTINUOUS
10
189.605
20
-139.91
11
189.51
21
-139.814
0
LINE
8
BLACK
6
CONTINUOUS
10
189.51
20
-139.814
11
189.415
21
-139.624
0
LINE
8
BLACK
6
CONTINUOUS
10
189.415
20
-139.624
11
189.415
21
-139.052
0
LINE
8
BLACK
6
CONTINUOUS
10
189.415
20
-139.052
11
189.51
21
-138.862
0
LINE
8
BLACK
6
CONTINUOUS
10
189.51
20
-138.862
11
189.605
21
-138.767
0
LINE
8
BLACK
6
CONTINUOUS
10
189.605
20
-138.767
11
189.796
21
-138.672
0
LINE
8
BLACK
6
CONTINUOUS
10
189.796
20
-138.672
11
190.082
21
-138.672
0
LINE
8
BLACK
6
CONTINUOUS
10
190.082
20
-138.672
11
190.272
21
-138.767
0
LINE
8
BLACK
6
CONTINUOUS
10
190.272
20
-138.767
11
190.367
21
-138.862
0
LINE
8
BLACK
6
CONTINUOUS
10
190.367
20
-138.862
11
190.463
21
-139.052
0
LINE
8
BLACK
6
CONTINUOUS
10
190.463
20
-139.052
11
190.463
21
-139.624
0
LINE
8
BLACK
6
CONTINUOUS
10
190.463
20
-139.624
11
190.367
21
-139.814
0
LINE
8
BLACK
6
CONTINUOUS
10
190.367
20
-139.814
11
190.272
21
-139.91
0
LINE
8
BLACK
6
CONTINUOUS
10
190.272
20
-139.91
11
190.082
21
-140.005
0
LINE
8
BLACK
6
CONTINUOUS
10
190.082
20
-140.005
11
189.796
21
-140.005
0
LINE
8
BLACK
6
CONTINUOUS
10
191.034
20
-138.672
11
191.796
21
-138.672
0
LINE
8
BLACK
6
CONTINUOUS
10
191.32
20
-138.005
11
191.32
21
-139.719
0
LINE
8
BLACK
6
CONTINUOUS
10
191.32
20
-139.719
11
191.415
21
-139.91
0
LINE
8
BLACK
6
CONTINUOUS
10
191.415
20
-139.91
11
191.605
21
-140.005
0
LINE
8
BLACK
6
CONTINUOUS
10
191.605
20
-140.005
11
191.796
21
-140.005
0
LINE
8
BLACK
6
CONTINUOUS
10
192.367
20
-139.91
11
192.558
21
-140.005
0
LINE
8
BLACK
6
CONTINUOUS
10
192.558
20
-140.005
11
192.939
21
-140.005
0
LINE
8
BLACK
6
CONTINUOUS
10
192.939
20
-140.005
11
193.129
21
-139.91
0
LINE
8
BLACK
6
CONTINUOUS
10
193.129
20
-139.91
11
193.224
21
-139.719
0
LINE
8
BLACK
6
CONTINUOUS
10
193.224
20
-139.719
11
193.224
21
-139.624
0
LINE
8
BLACK
6
CONTINUOUS
10
193.224
20
-139.624
11
193.129
21
-139.433
0
LINE
8
BLACK
6
CONTINUOUS
10
193.129
20
-139.433
11
192.939
21
-139.338
0
LINE
8
BLACK
6
CONTINUOUS
10
192.939
20
-139.338
11
192.653
21
-139.338
0
LINE
8
BLACK
6
CONTINUOUS
10
192.653
20
-139.338
11
192.463
21
-139.243
0
LINE
8
BLACK
6
CONTINUOUS
10
192.463
20
-139.243
11
192.367
21
-139.052
0
LINE
8
BLACK
6
CONTINUOUS
10
192.367
20
-139.052
11
192.367
21
-138.957
0
LINE
8
BLACK
6
CONTINUOUS
10
192.367
20
-138.957
11
192.463
21
-138.767
0
LINE
8
BLACK
6
CONTINUOUS
10
192.463
20
-138.767
11
192.653
21
-138.672
0
LINE
8
BLACK
6
CONTINUOUS
10
192.653
20
-138.672
11
192.939
21
-138.672
0
LINE
8
BLACK
6
CONTINUOUS
10
192.939
20
-138.672
11
193.129
21
-138.767
0
LINE
8
BLACK
6
CONTINUOUS
10
193.891
20
-140.767
11
193.986
21
-140.672
0
LINE
8
BLACK
6
CONTINUOUS
10
193.986
20
-140.672
11
194.177
21
-140.386
0
LINE
8
BLACK
6
CONTINUOUS
10
194.177
20
-140.386
11
194.272
21
-140.195
0
LINE
8
BLACK
6
CONTINUOUS
10
194.272
20
-140.195
11
194.367
21
-139.91
0
LINE
8
BLACK
6
CONTINUOUS
10
194.367
20
-139.91
11
194.463
21
-139.433
0
LINE
8
BLACK
6
CONTINUOUS
10
194.463
20
-139.433
11
194.463
21
-139.052
0
LINE
8
BLACK
6
CONTINUOUS
10
194.463
20
-139.052
11
194.367
21
-138.576
0
LINE
8
BLACK
6
CONTINUOUS
10
194.367
20
-138.576
11
194.272
21
-138.291
0
LINE
8
BLACK
6
CONTINUOUS
10
194.272
20
-138.291
11
194.177
21
-138.1
0
LINE
8
BLACK
6
CONTINUOUS
10
194.177
20
-138.1
11
193.986
21
-137.814
0
LINE
8
BLACK
6
CONTINUOUS
10
193.986
20
-137.814
11
193.891
21
-137.719
  0
ENDSEC
  0
EOF
